<?xml version="1.0" standalone="no"?>
<!DOCTYPE svg PUBLIC "-//W3C//DTD SVG 1.1//EN" "http://www.w3.org/Graphics/SVG/1.1/DTD/svg11.dtd" >
<svg xmlns="http://www.w3.org/2000/svg" xmlns:xlink="http://www.w3.org/1999/xlink" version="1.1">
<metadata>
Created by FontForge 20170731 at Thu Sep 28 04:22:09 2017
 By Aleksey,,,
Copyright (c) 2017 by Peter S. Baker
</metadata>
<defs>
<font id="FoulisGreek" horiz-adv-x="838" >
  <font-face 
    font-family="Foulis Greek"
    font-weight="400"
    font-stretch="normal"
    units-per-em="2048"
    panose-1="0 0 5 0 0 0 0 0 0 0"
    ascent="1638"
    descent="-410"
    x-height="850"
    cap-height="1275"
    bbox="-701 -946 3152 1792"
    underline-thickness="70"
    underline-position="-240"
    unicode-range="U+000D-2767"
  />
<missing-glyph horiz-adv-x="1024" 
d="M354 1194q292 0 292 -199q0 -89 -116 -151l-106 -56q-114 -62 -114 -151q0 -75 76 -211q8 -8 22 -7q22 4 22 19q-20 69 -20 125q0 49 74 90l166 88q82 43 82 189q-2 160 -118 301q-114 131 -244 131q-84 0 -84 -82q0 -86 68 -86zM534 86q0 39 -20 71q-36 56 -100 56
q-38 0 -68 -21q-50 -37 -50 -106q0 -37 22 -68q36 -49 96 -49q36 0 66 17q54 33 54 100zM68 -132v1640h864v-1640h-864z" />
    <glyph glyph-name="twodotenleader" unicode="&#x2e;&#x2e;" horiz-adv-x="1063" 
d="M797 211q65 0 97 -55q18 -30 18 -68q0 -65 -54 -97q-27 -16 -61 -16q-74 0 -109 56q-18 29 -18 65q0 68 58 99q30 16 69 16zM266 211q65 0 97 -55q18 -30 18 -68q0 -65 -54 -97q-27 -16 -61 -16q-74 0 -109 56q-18 29 -18 65q0 68 58 99q30 16 69 16z" />
    <glyph glyph-name="ellipsis" unicode="&#x2e;&#x2e;&#x2e;" horiz-adv-x="1591" 
d="M670 98q0 51 36 82t91 31t85 -37t30 -87.5t-34.5 -81t-87.5 -30.5t-86.5 36t-33.5 87zM1183 98q0 51 36 82t91 31t85 -37t30 -87.5t-34.5 -81t-87.5 -30.5t-86.5 36t-33.5 87zM139 98q0 51 36 82t91 31t85 -37t30 -87.5t-34.5 -81t-87.5 -30.5t-86.5 36t-33.5 87z" />
    <glyph glyph-name="uni2036" unicode="&#x2035;&#x2035;" horiz-adv-x="894" 
d="M439 1419q0 32 47 55q27 13 52 13q31 0 41 -23l206 -467q5 -10 5 -22q0 -37 -33 -37q-23 0 -41 29l-271 434q-6 9 -6 18zM119 1419q0 32 47 55q27 13 52 13q31 0 41 -23l206 -467q5 -10 5 -22q0 -37 -33 -37q-23 0 -41 29l-271 434q-6 9 -6 18z" />
    <glyph glyph-name="uni2037" unicode="&#x2035;&#x2035;&#x2035;" horiz-adv-x="1274" 
d="M794 1419q0 32 47 55q27 13 52 13q31 0 41 -23l206 -467q5 -10 5 -22q0 -37 -33 -37q-23 0 -41 29l-271 434q-6 9 -6 18zM444 1419q0 32 47 55q27 13 52 13q31 0 41 -23l206 -467q5 -10 5 -22q0 -37 -33 -37q-23 0 -41 29l-271 434q-6 9 -6 18zM119 1419q0 32 47 55
q27 13 52 13q31 0 41 -23l206 -467q5 -10 5 -22q0 -37 -33 -37q-23 0 -41 29l-271 434q-6 9 -6 18z" />
    <glyph glyph-name="exclamdbl" unicode="&#x21;&#x21;" horiz-adv-x="880" 
d="M616 211q61 0 91 -37t30 -87.5t-34.5 -81t-87.5 -30.5t-86.5 36t-33.5 87t30 82t91 31zM522 1275q0 56 30.5 90t67.5 34q103 0 103 -111q0 -63 -31 -354.5t-43 -497.5q-1 -16 -33 -16t-33 16q-8 199 -34.5 491t-26.5 348zM260 211q61 0 91 -37t30 -87.5t-34.5 -81
t-87.5 -30.5t-86.5 36t-33.5 87t30 82t91 31zM166 1275q0 56 30.5 90t67.5 34q103 0 103 -111q0 -63 -31 -354.5t-43 -497.5q-1 -16 -33 -16t-33 16q-8 199 -34.5 491t-26.5 348z" />
    <glyph glyph-name="uni2047" unicode="&#x3f;&#x3f;" horiz-adv-x="1288" 
d="M803 1194q-68 0 -68 86q0 82 84 82q130 0 244 -131q115 -141 118 -301q0 -146 -82 -189l-165 -88q-74 -41 -74 -90q0 -56 20 -125q0 -15 -22 -19q-15 -1 -23 7q-75 136 -75 211q0 89 114 151l105 56q116 62 116 151q0 199 -292 199zM983 86q0 -67 -54 -100
q-30 -17 -65 -17q-61 0 -97 49q-22 31 -22 68q0 69 51 106q30 21 68 21q64 0 99 -56q20 -32 20 -71zM279 1194q-68 0 -68 86q0 82 84 82q130 0 244 -131q115 -141 118 -301q0 -146 -82 -189l-165 -88q-74 -41 -74 -90q0 -56 20 -125q0 -15 -22 -19q-15 -1 -23 7
q-75 136 -75 211q0 89 114 151l105 56q116 62 116 151q0 199 -292 199zM459 86q0 -67 -54 -100q-30 -17 -65 -17q-61 0 -97 49q-22 31 -22 68q0 69 51 106q30 21 68 21q64 0 99 -56q20 -32 20 -71z" />
    <glyph glyph-name="uni2048" unicode="&#x3f;&#x21;" horiz-adv-x="1148" 
d="M279 1194q-68 0 -68 86q0 82 84 82q130 0 244 -131q115 -141 118 -301q0 -146 -82 -189l-165 -88q-74 -41 -74 -90q0 -56 20 -125q0 -15 -22 -19q-15 -1 -23 7q-75 136 -75 211q0 89 114 151l105 56q116 62 116 151q0 199 -292 199zM459 86q0 -67 -54 -100
q-30 -17 -65 -17q-61 0 -97 49q-22 31 -22 68q0 69 51 106q30 21 68 21q64 0 99 -56q20 -32 20 -71zM908 211q61 0 91 -37t30 -87.5t-34.5 -81t-87.5 -30.5t-86.5 36t-33.5 87t30 82t91 31zM814 1275q0 56 30.5 90t67.5 34q103 0 103 -111q0 -63 -31 -354.5t-43 -497.5
q-1 -16 -33 -16t-33 16q-8 199 -34.5 491t-26.5 348z" />
    <glyph glyph-name="uni2049" unicode="&#x21;&#x3f;" horiz-adv-x="1084" 
d="M260 211q61 0 91 -37t30 -87.5t-34.5 -81t-87.5 -30.5t-86.5 36t-33.5 87t30 82t91 31zM166 1275q0 56 30.5 90t67.5 34q103 0 103 -111q0 -63 -31 -354.5t-43 -497.5q-1 -16 -33 -16t-33 16q-8 199 -34.5 491t-26.5 348zM591 1194q-68 0 -68 86q0 82 84 82
q130 0 244 -131q115 -141 118 -301q0 -146 -82 -189l-165 -88q-74 -41 -74 -90q0 -56 20 -125q0 -15 -22 -19q-15 -1 -23 7q-75 136 -75 211q0 89 114 151l105 56q116 62 116 151q0 199 -292 199zM771 86q0 -67 -54 -100q-30 -17 -65 -17q-61 0 -97 49q-22 31 -22 68
q0 69 51 106q30 21 68 21q64 0 99 -56q20 -32 20 -71z" />
    <glyph glyph-name="Q_u" unicode="Qu" horiz-adv-x="2510" 
d="M2483 31q-28 -3 -136.5 -27.5t-137.5 -35.5q-3 -1 -7 -1q-16 0 -16 45v45q0 24 -11.5 24t-27.5 -15q-95 -89 -234 -89q-105 0 -185 106t-80 218v335q0 147 -111 147q-15 0 -15 28t15 28q105 0 169.5 9t83.5 9q20 0 19 -16q-8 -123 -8 -152v-355q0 -115 39.5 -187.5
t121.5 -72.5q88 0 156 52t68 126v384q0 147 -111 147q-15 0 -15 28t15 28q123 0 180.5 9t69.5 9q22 0 20 -27q-6 -87 -6 -139v-464q0 -155 82 -145l47 6q17 2 22 -27q1 -8 1 -15q0 -14 -8 -15zM91 667q2 266 178.5 492t470.5 226q279 0 461 -213.5t182 -508.5
q0 -195 -107.5 -375.5t-253.5 -249.5q-17 -8 -17.5 -22t14.5 -23q198 -117 578 -187t849 -37q13 1 12 -26t-24 -31q-216 -32 -434 -32q-369 0 -796.5 102t-702.5 227q-178 81 -295 248.5t-115 409.5zM282 708q0 -287 149 -474t318 -187q226 0 334.5 180t108.5 437
q0 261 -140 455.5t-319 194.5q-198 0 -324.5 -162t-126.5 -444z" />
    <glyph glyph-name=".notdef" horiz-adv-x="1024" 
d="M354 1194q292 0 292 -199q0 -89 -116 -151l-106 -56q-114 -62 -114 -151q0 -75 76 -211q8 -8 22 -7q22 4 22 19q-20 69 -20 125q0 49 74 90l166 88q82 43 82 189q-2 160 -118 301q-114 131 -244 131q-84 0 -84 -82q0 -86 68 -86zM534 86q0 39 -20 71q-36 56 -100 56
q-38 0 -68 -21q-50 -37 -50 -106q0 -37 22 -68q36 -49 96 -49q36 0 66 17q54 33 54 100zM68 -132v1640h864v-1640h-864z" />
    <glyph glyph-name="uni0000" horiz-adv-x="1024" 
d="M354 1194q292 0 292 -199q0 -89 -116 -151l-106 -56q-114 -62 -114 -151q0 -75 76 -211q8 -8 22 -7q22 4 22 19q-20 69 -20 125q0 49 74 90l166 88q82 43 82 189q-2 160 -118 301q-114 131 -244 131q-84 0 -84 -82q0 -86 68 -86zM534 86q0 39 -20 71q-36 56 -100 56
q-38 0 -68 -21q-50 -37 -50 -106q0 -37 22 -68q36 -49 96 -49q36 0 66 17q54 33 54 100zM68 -132v1640h864v-1640h-864z" />
    <glyph glyph-name="uni0000" horiz-adv-x="1024" 
d="M354 1194q292 0 292 -199q0 -89 -116 -151l-106 -56q-114 -62 -114 -151q0 -75 76 -211q8 -8 22 -7q22 4 22 19q-20 69 -20 125q0 49 74 90l166 88q82 43 82 189q-2 160 -118 301q-114 131 -244 131q-84 0 -84 -82q0 -86 68 -86zM534 86q0 39 -20 71q-36 56 -100 56
q-38 0 -68 -21q-50 -37 -50 -106q0 -37 22 -68q36 -49 96 -49q36 0 66 17q54 33 54 100zM68 -132v1640h864v-1640h-864z" />
    <glyph glyph-name="uni000D" unicode="&#xd;" horiz-adv-x="559" 
 />
    <glyph glyph-name="space" unicode=" " horiz-adv-x="559" 
 />
    <glyph glyph-name="exclam" unicode="!" horiz-adv-x="520" 
d="M260 211q61 0 91 -37t30 -87.5t-34.5 -81t-87.5 -30.5t-86.5 36t-33.5 87t30 82t91 31zM166 1275q0 56 30.5 90t67.5 34q103 0 103 -111q0 -63 -31 -354.5t-43 -497.5q-1 -16 -33 -16t-33 16q-8 199 -34.5 491t-26.5 348z" />
    <glyph glyph-name="quotedbl" unicode="&#x22;" horiz-adv-x="758" 
d="M450 1396q0 86 95 86t95 -84q0 -41 -19 -161t-40 -292q-1 -8 -35 -8t-35 8q-20 169 -40.5 290.5t-20.5 160.5zM121 1395q0 86 95 86t95 -84q0 -41 -19 -161t-40 -292q-1 -8 -35 -8t-35 8q-20 169 -40.5 290.5t-20.5 160.5z" />
    <glyph glyph-name="numbersign" unicode="#" horiz-adv-x="1016" 
d="M993 922v-86h-219l-94 -353h197v-86h-220l-102 -387h-90l102 387h-241l-105 -387h-88l103 387h-211v86h233l96 353h-213v86h236l88 327h90l-88 -327h242l88 327h88l-86 -327h194zM684 836h-242l-94 -353h244z" />
    <glyph glyph-name="dollar" unicode="$" horiz-adv-x="987" 
d="M122 351q0 8 1 14q4 17 33 17t30 -7q12 -125 90.5 -202t182.5 -99v536l-125 58q-205 95 -205 348q0 115 92.5 209t237.5 104v137q0 15 43 15t43 -15v-137q84 -5 160 -21t81 -16q24 -81 35 -220q2 -18 2 -26.5t-13.5 -14t-30.5 -5.5t-21 14q-22 105 -85 162.5t-128 63.5
v-488q197 -61 273.5 -149t76.5 -240q0 -178 -100 -283.5t-250 -109.5v-146q0 -16 -43 -16t-43 16v146q-87 6 -144.5 27.5t-146.5 64.5q-46 138 -46 263zM262 1057q0 -113 56.5 -165.5t140.5 -82.5v459q-99 -12 -148 -69t-49 -142zM545 66q78 0 148.5 60t70.5 167
q0 192 -219 282v-509z" />
    <glyph glyph-name="percent" unicode="%" horiz-adv-x="1823" 
d="M1098 414q0 180 88 298t240 118t230.5 -130t78.5 -310t-87 -296t-238.5 -116t-231.5 128t-80 308zM1250 373q0 -120 44 -223.5t140 -103.5q66 0 109 105t43 291q0 146 -44 233t-136 87q-70 0 -113 -104.5t-43 -284.5zM433 -42q0 1 4 8l872 1447q3 5 12.5 5t33.5 -14.5
t24 -25.5q0 -2 -1 -4l-874 -1452q-2 -4 -11.5 -4t-34.5 15t-25 25zM98 982q0 180 88 298.5t240 118.5t230.5 -130t78.5 -310.5t-87 -296t-238.5 -115.5t-231.5 127.5t-80 307.5zM250 942q0 -120 44 -224t140 -104q66 0 109 105.5t43 291.5q0 146 -44 233t-136 87
q-70 0 -113 -104.5t-43 -284.5z" />
    <glyph glyph-name="ampersand" unicode="&#x26;" horiz-adv-x="1704" 
d="M76 356q0 258 205 377l149 86q-172 124 -172 264q0 122 89 205.5t210 83.5q127 0 202 -72.5t75 -183.5q0 -130 -125 -203l-89 -51q214 -155 402 -430l92 118q148 192 148 247t-152 55q-15 0 -15 25.5t15 25.5h479q17 0 17 -25.5t-17 -25.5q-104 0 -155.5 -36.5
t-183.5 -207.5l-185 -239l70 -103q129 -190 311 -190q120 0 192 78q3 3 8 3t14.5 -6.5t9.5 -16.5q0 -7 -5 -15q-110 -148 -342 -148q-157 0 -348 281q-216 -279 -479 -279q-192 0 -306 111t-114 272zM395 1135q0 -110 174 -236q129 75 129 223q0 91 -42.5 140t-106.5 49
q-69 0 -111.5 -54.5t-42.5 -121.5zM221 422q0 -153 96.5 -238.5t237.5 -85.5q209 0 377 217q-188 277 -450 467q-261 -151 -261 -360z" />
    <glyph glyph-name="quotesingle" unicode="'" horiz-adv-x="422" 
d="M117 1395q0 86 95 86t95 -84q0 -41 -19 -161t-40 -292q-1 -8 -35 -8t-35 8q-20 169 -40.5 290.5t-20.5 160.5z" />
    <glyph glyph-name="parenleft" unicode="(" horiz-adv-x="676" 
d="M160 588q0 262 114 510t293 418q16 14 35.5 14t32 -11t12.5 -21t-18 -34q-330 -346 -330 -876q0 -525 334 -877q14 -14 14 -30t-16 -25.5t-30 -9.5t-34 16q-193 174 -300 391.5t-107 534.5z" />
    <glyph glyph-name="parenright" unicode=")" horiz-adv-x="676" 
d="M510 588q0 -262 -114 -510t-293 -418q-16 -14 -35.5 -14t-32 11t-12.5 21t18 34q330 346 330 876q0 525 -334 877q-14 14 -14 30t16 25.5t30 9.5t34 -16q193 -174 300 -391.5t107 -534.5z" />
    <glyph glyph-name="asterisk" unicode="*" horiz-adv-x="807" 
d="M367 694v287l-244 -138l-37 61l246 140l-246 142l37 61l244 -139v276h71v-278l244 141l37 -61l-244 -142l244 -140l-37 -61l-244 138v-287h-71z" />
    <glyph glyph-name="plus" unicode="+" horiz-adv-x="1024" 
d="M907 371h-334v-371h-120v371h-334v100h334v336h120v-336h334v-100z" />
    <glyph glyph-name="comma" unicode="," horiz-adv-x="520" 
d="M121 139q0 58 55 84q26 13 60 13q79 0 128.5 -62.5t49.5 -134.5q0 -129 -77 -230.5t-141 -140.5t-69 -39q-25 0 -25 27q0 4 38.5 43.5t85 103t46.5 140.5q0 49 -34 61q-117 45 -117 135z" />
    <glyph glyph-name="hyphen" unicode="-" horiz-adv-x="827" 
d="M707 602q17 0 17 -57.5t-19 -57.5h-590q-16 0 -16 57.5t16 57.5h592z" />
    <glyph glyph-name="period" unicode="." horiz-adv-x="520" 
d="M139 98q0 51 36 82t91 31t85 -37t30 -87.5t-34.5 -81t-87.5 -30.5t-86.5 36t-33.5 87z" />
    <glyph glyph-name="slash" unicode="/" horiz-adv-x="717" 
d="M102 -12q-2 -5 -10 -5q-14 0 -51 18t-37 32l610 1440q3 6 14 6q22 0 54.5 -16t32.5 -33z" />
    <glyph glyph-name="zero" unicode="0" horiz-adv-x="956" 
d="M887 643q0 -281 -107.5 -470t-305.5 -189t-301 189t-103 493t108 485.5t301 181.5q199 0 303.5 -194.5t104.5 -495.5zM709 631q0 233 -40.5 435t-187.5 202q-123 0 -180 -180t-57 -399q0 -375 68 -506.5t163 -131.5q111 0 172.5 139.5t61.5 440.5z" />
    <glyph glyph-name="one" unicode="1" horiz-adv-x="956" 
d="M578 262q0 -149 44 -181t134 -32q14 0 14 -24.5t-14 -24.5h-527q-14 0 -14 24.5t14 24.5q127 0 161 38.5t34 172.5v870q0 47 -21 47q-7 0 -24 -8l-129 -59q-16 0 -24 17q-3 7 -3 15q0 7 8 15q219 106 324 211q6 6 16 6q13 0 13 -14q-6 -125 -6 -172v-926z" />
    <glyph glyph-name="two" unicode="2" horiz-adv-x="956" 
d="M881 244l-101 -219q-15 -33 -51 -33q-135 8 -323 8q-179 0 -359 -8q-41 0 -41 39q0 9 10 18q442 461 572 764q37 81 37 184q0 106 -76 166q-55 43 -133 43q-144 0 -246 -182q-4 -4 -10 -4q-21 0 -39 17q-9 8 -9 14q0 2 1 4q59 119 151 190q106 88 232 88q150 0 238 -106
q73 -82 73 -219q0 -146 -111 -301q-60 -82 -168 -209l-284 -318q-16 -17 -16 -28q0 -15 30 -15h297q163 0 227 60q27 25 43 63q1 6 17 6q31 -1 39 -14q1 -2 1 -4t-1 -4z" />
    <glyph glyph-name="three" unicode="3" horiz-adv-x="956" 
d="M819 414q0 -185 -132 -311t-316 -126q-141 0 -208 46t-67 104q0 38 38 62q20 12 42 12q36 0 103.5 -74t144.5 -74q108 0 166.5 105.5t58.5 228.5q0 130 -74.5 216.5t-207.5 86.5q-65 0 -113 -16q-14 0 -14 41q0 39 14 39q180 0 263 81.5t83 190.5q0 101 -59.5 151
t-128.5 50q-118 0 -207 -137q-1 -3 -6 -3q-22 0 -39 22q-8 9 -8 17q0 2 2 4q137 203 325 203q115 0 194 -84.5t79 -195.5q0 -167 -183 -271q-32 -18 -32 -25q0 -11 28 -16q254 -51 254 -327z" />
    <glyph glyph-name="four" unicode="4" horiz-adv-x="956" 
d="M870 391h-116q-23 0 -23 -20v-244q0 -78 121 -78q14 0 14 -24t-14 -24h-432q-14 0 -14 24t14 24q158 0 158 78v244q0 20 -21 20h-477q-67 0 -67 37q0 11 7 28q11 26 39 64l222 301q14 19 419 604q9 13 39 13q58 0 58 -31l-647 -897q-8 -11 -8 -19q0 -14 26 -14h389
q21 0 21 21v444q0 15 76 15q77 0 77 -15v-444q0 -21 23 -21h116q18 0 18 -43t-18 -43z" />
    <glyph glyph-name="five" unicode="5" horiz-adv-x="956" 
d="M813 496q0 -215 -131 -361q-136 -151 -348 -151q-141 0 -206 53q-36 31 -36 74q0 82 82 82q39 0 109 -64q68 -61 135 -61q112 0 190 116q68 101 68 222q0 208 -141 291q-78 46 -191 46q-50 0 -129 -18h-13q-15 0 -15 23q0 5 1 10l93 530q5 29 32 29h471q7 0 7 -17
q0 -53 -26 -107q-9 -19 -15 -19h-383q-29 0 -33 -27l-43 -234q-3 -23 12 -23l80 5q233 0 347 -139q83 -101 83 -260z" />
    <glyph glyph-name="six" unicode="6" horiz-adv-x="956" 
d="M473 -16q-191 0 -292 160q-81 128 -81 321q0 286 199 545q196 254 453 368h9q23 -7 23 -37q0 -9 -6 -12q-293 -166 -415 -427q-58 -123 -82 -273q152 137 268 137q142 0 231 -119q84 -109 84 -256q0 -168 -106 -284q-111 -123 -285 -123zM498 63q103 0 164 96
q47 73 47 171q0 146 -73 239q-66 84 -167 84q-113 0 -199 -110q-6 -43 -6 -82q0 -267 113 -358q50 -40 121 -40z" />
    <glyph glyph-name="seven" unicode="7" horiz-adv-x="956" 
d="M889 1264l-510 -1264q-7 -14 -82 -14q-68 0 -68 14q13 22 51 100l62 138l397 901q9 22 9 28q0 15 -33 15h-215q-163 0 -211 -13q-106 -29 -146 -131q-6 -14 -34 -14q-24 0 -25 14l51 248q6 31 41 31h682q39 0 39 -23q0 -11 -8 -30z" />
    <glyph glyph-name="eight" unicode="8" horiz-adv-x="956" 
d="M477 -16q-171 0 -276 98q-97 90 -97 233q0 209 273 353q-127 82 -166 141q-70 93 -70 199q0 134 99 233q93 92 237 92q183 0 271 -108q61 -74 61 -187q0 -208 -227 -327q270 -173 270 -379q0 -154 -113 -252q-108 -96 -262 -96zM258 1075q0 -128 159 -246q33 -25 111 -75
q142 100 142 243q0 130 -75 204q-53 56 -142 56q-102 0 -158 -71q-37 -48 -37 -111zM709 260q0 128 -88 213q-85 81 -158 132l-29 20q-174 -101 -174 -289q0 -112 68 -197q71 -88 180 -88q101 0 159 77q42 56 42 132z" />
    <glyph glyph-name="nine" unicode="9" horiz-adv-x="956" 
d="M483 1333q178 0 281 -145q92 -129 92 -324q0 -312 -238 -586q-169 -193 -405 -313l-8 -1q-16 5 -27 35q-4 10 -4 17q0 6 6 11q190 111 328 270q117 134 166 389q-128 -135 -258 -135q-134 0 -228 103q-93 110 -96 253q0 192 110 311q107 115 281 115zM248 975
q0 -135 70 -227q65 -86 163 -86q112 0 203 112q6 44 6 88q0 234 -98 333q-35 33 -139 56q-109 0 -166 -106q-39 -73 -39 -170z" />
    <glyph glyph-name="colon" unicode=":" horiz-adv-x="594" 
d="M215 98q0 51 36 82t91 31t85 -37t30 -87.5t-34.5 -81t-87.5 -30.5t-86.5 36t-33.5 87zM215 740q0 50 36.5 81t91 31t84.5 -37t30 -87.5t-34 -81t-87 -30.5t-87 36t-34 88z" />
    <glyph glyph-name="semicolon" unicode=";" horiz-adv-x="594" 
d="M193 139q0 58 55 84q26 13 60 13q79 0 128.5 -62.5t49.5 -134.5q0 -129 -77 -230.5t-141 -140.5t-69 -39q-25 0 -25 27q0 4 38.5 43.5t85 103t46.5 140.5q0 49 -34 61q-117 45 -117 135zM184 742q0 53 38 83t90.5 30t83 -37t30.5 -87t-33 -81t-87 -31t-88 35.5t-34 87.5z
" />
    <glyph glyph-name="less" unicode="&#x3c;" horiz-adv-x="1024" 
d="M911 -2l-796 377v92l796 379v-119l-649 -303v-4l649 -305v-117z" />
    <glyph glyph-name="equal" unicode="=" horiz-adv-x="1024" 
d="M907 596h-788v100h788v-100zM907 330h-788v100h788v-100z" />
    <glyph glyph-name="greater" unicode="&#x3e;" horiz-adv-x="1024" 
d="M909 375l-796 -377v117l649 305v4l-649 303v119l796 -379v-92z" />
    <glyph glyph-name="question" unicode="?" horiz-adv-x="752" 
d="M279 1194q-68 0 -68 84t84 84q130 0 246 -136t116 -289t-82 -196l-165 -88q-74 -41 -74 -93.5t20 -121.5q0 -19 -22 -19q-15 0 -23 7q-75 136 -75 218t114 144l105 56q116 62 116 151q0 199 -292 199zM221 90q0 50 35 86.5t86 36.5t84 -38t33 -91t-35 -84t-86.5 -31
t-84 35.5t-32.5 85.5z" />
    <glyph glyph-name="at" unicode="@" horiz-adv-x="1556" 
d="M1178 72q-166 -105 -396 -105q-280 0 -473 154q-217 174 -217 479q0 346 246 571q236 213 563 213q280 0 449 -163q155 -150 155 -369q0 -201 -141 -344q-148 -150 -389 -150q-91 0 -111 25q-12 15 -12 39q0 27 44 159l5 15l-8 4q-181 -240 -303 -240q-92 0 -92 127
q0 153 123 334q130 193 282 193q52 0 101 -41l16 51q6 18 47 18q48 0 43 -18l-141 -492q-10 -36 -10 -60q0 -46 42 -46q179 0 293 113q123 121 123 305q0 206 -152 343q-142 128 -362 128q-317 0 -497 -215q-173 -204 -173 -498q0 -218 129 -373q162 -190 482 -190
q144 0 317 72q7 3 16 -16t1 -23zM981 901q0 64 -98 64q-103 0 -195 -179q-80 -158 -80 -274q0 -70 45 -70q53 0 169 132q41 47 61 77q47 71 76 173z" />
    <glyph glyph-name="A" unicode="A" horiz-adv-x="1398" 
d="M1176 186q39 -117 192 -117q13 0 13 -34.5t-13 -34.5h-461q-14 0 -14 34.5t14 34.5q99 0 99 68q0 23 -8 49l-97 278q-9 31 -44 31h-414q-27 0 -40 -35l-109 -278q-9 -22 -9 -40q0 -73 150 -73q14 0 14 -34.5t-14 -34.5h-425q-14 0 -14 34.5t14 34.5q97 0 129 28t66 104
l377 915q6 17 6 30t-13 26.5t-13 19.5t39.5 27.5t92.5 58.5t65 37q23 0 35 -44q26 -97 49 -166zM834 564q25 0 25 16q0 5 -2 11l-172 496q-6 20 -18 20t-19 -20l-194 -496q-2 -5 -2 -11q0 -16 24 -16h358z" />
    <glyph glyph-name="B" unicode="B" horiz-adv-x="1270" 
d="M271 186v909q0 110 -189 110q-14 0 -14 35t14 35h557q173 0 295 -78t122 -229q0 -174 -196 -265q-15 -7 -15 -13.5t15 -11.5q108 -35 198.5 -126.5t90.5 -234.5q0 -122 -99.5 -219.5t-410.5 -97.5h-548q-13 0 -13 34.5t13 34.5q180 0 180 117zM431 745q0 -36 79 -36
q374 0 374 256q0 255 -401 255q-52 0 -52 -67v-408zM431 277q0 -220 194 -220q343 0 343 293q0 129 -102.5 213.5t-399.5 85.5q-35 0 -35 -30v-342z" />
    <glyph glyph-name="C" unicode="C" horiz-adv-x="1344" 
d="M91 603q0 177 95.5 341.5t248.5 257.5t377 93q91 0 177 -15t241 -43q29 -134 29 -311q-4 -16 -35.5 -16t-33.5 14q-28 300 -407 300q-204 0 -352.5 -184t-148.5 -377q0 -283 145 -449t353 -166q354 0 452 269q4 11 29 11t31.5 -5.5t6.5 -16.5q-37 -191 -90 -270
q-32 -4 -77 -17q-147 -46 -376 -46q-178 0 -329.5 86t-243.5 215.5t-92 328.5z" />
    <glyph glyph-name="D" unicode="D" horiz-adv-x="1525" 
d="M271 186v903q0 110 -189 110q-14 0 -14 38t14 38h621q311 0 520 -167t209 -420q0 -322 -183.5 -505t-497.5 -183h-660q-13 0 -13 34t13 35q180 0 180 117zM431 298q0 -149 60 -197t191 -48q256 0 407.5 161t151.5 462q0 209 -177 373.5t-443 164.5q-95 0 -125.5 -8.5
t-47.5 -36t-17 -71.5v-800z" />
    <glyph glyph-name="E" unicode="E" horiz-adv-x="1290" 
d="M271 177v918q0 110 -187 110q-14 0 -14 35t14 35h901q23 0 31 -18l101 -292q0 -17 -16.5 -34.5t-31.5 -17.5t-89.5 149.5t-283.5 149.5h-224q-41 0 -41 -48v-438q0 -33 28 -33h181q78 0 97.5 29t19.5 88v74q0 13 35 13t35 -13v-497q0 -13 -35 -13t-35 13v142
q0 43 -19.5 69t-97.5 26h-184q-25 0 -25 -31v-331q0 -113 65 -168q38 -32 91 -32h287q158 0 267 278q5 14 38 14t33 -19l-85 -315q-5 -20 -34 -20h-1009q-14 0 -14 34t14 35q187 0 187 108z" />
    <glyph glyph-name="F" unicode="F" horiz-adv-x="1170" 
d="M271 1092q0 113 -187 113q-14 0 -14 35t14 35h901q23 0 31 -18l101 -292q0 -17 -16.5 -34.5t-31.5 -17.5t-89.5 149.5t-283.5 149.5h-224q-41 0 -41 -51v-454q0 -31 28 -31h164q75 0 96 30t21 100v117q0 13 35 13t35 -13v-568q0 -13 -35 -13t-35 13v117q0 70 -25 99
t-92 29h-167q-25 0 -25 -25v-389q0 -117 188 -117q13 0 13 -34.5t-13 -34.5h-528q-13 0 -13 34.5t13 34.5q180 0 180 117v906z" />
    <glyph glyph-name="G" unicode="G" horiz-adv-x="1409" 
d="M1230 144q0 -67 37 -67q14 0 14 -23t-13 -23t-62.5 -5.5t-156 -24t-155.5 -23.5t-126 -5q-146 0 -328 86t-265.5 238t-83.5 321q0 201 180.5 439t499.5 238q164 0 305.5 -29t155.5 -29q19 -49 29 -308q0 -18 -34 -18t-35 13q0 111 -103.5 205.5t-312.5 94.5
q-229 0 -361.5 -181.5t-132.5 -365.5q0 -306 149 -467.5t344 -161.5t273 47q22 16 22 78v160q0 115 -228 115q-14 0 -14 38t14 38h529q15 0 15 -38t-15 -38q-141 0 -141 -115v-189z" />
    <glyph glyph-name="H" unicode="H" horiz-adv-x="1492" 
d="M1243 186q0 -117 180 -117q13 0 13 -34.5t-13 -34.5h-518q-13 0 -13 34t13 35q178 0 178 117v385q0 38 -39 38h-574q-39 0 -39 -38v-385q0 -117 180 -117q13 0 13 -34.5t-13 -34.5h-518q-13 0 -13 34t13 35q178 0 178 117v903q0 115 -189 115q-14 0 -14 35.5t14 35.5h529
q13 0 13 -35.5t-13 -35.5q-180 0 -180 -115v-357q0 -39 39 -39h574q39 0 39 39v357q0 115 -189 115q-14 0 -14 35.5t14 35.5h529q13 0 13 -35.5t-13 -35.5q-180 0 -180 -115v-903z" />
    <glyph glyph-name="I" unicode="I" horiz-adv-x="683" 
d="M271 186v903q0 115 -189 115q-14 0 -14 35.5t14 35.5h529q13 0 13 -35.5t-13 -35.5q-180 0 -180 -115v-903q0 -117 180 -117q13 0 13 -34.5t-13 -34.5h-518q-13 0 -13 34.5t13 34.5q178 0 178 117z" />
    <glyph glyph-name="J" unicode="J" horiz-adv-x="716" 
d="M292 260v824q0 115 -190 115q-14 0 -14 38t14 38h542q14 0 14 -38t-14 -38q-192 0 -192 -115v-450q0 -716 -71 -817.5t-155 -168.5t-193 -67q-54 0 -92 30.5t-38 90.5q0 31 29.5 56.5t76.5 25.5q60 0 101 -34t50 -67q70 24 101 114t31 463z" />
    <glyph glyph-name="K" unicode="K" horiz-adv-x="1335" 
d="M271 186v903q0 115 -189 115q-14 0 -14 35.5t14 35.5h537q13 0 13 -35.5t-13 -35.5q-188 0 -188 -115v-374q0 -23 13 -23q29 0 68 41t51 57l273 302q40 52 40 78q0 34 -65 34q-13 0 -13 35.5t13 35.5h363q14 0 14 -35.5t-14 -35.5q-85 0 -137 -34t-67 -52l-338 -370
q-5 -6 -5 -15t5 -15l458 -545q84 -104 246 -104q14 0 14 -34.5t-14 -34.5h-536q-14 0 -14 34t14 35q96 0 96 59q0 24 -25 58l-269 333q-53 67 -94.5 86.5t-59.5 19.5q-17 0 -17 -22v-417q0 -117 180 -117q13 0 13 -34.5t-13 -34.5h-520q-13 0 -13 34t13 35q180 0 180 117z
" />
    <glyph glyph-name="L" unicode="L" horiz-adv-x="1344" 
d="M271 177v907q0 115 -189 115q-14 0 -14 38t14 38h523q13 0 13 -38t-13 -38q-174 0 -174 -115v-807q0 -51 14.5 -98.5t55 -82t108.5 -34.5l283 13q125 5 194.5 91t69.5 213q0 13 39 13t39 -13v-352q0 -26 -25 -26.5t-56 -0.5h-1058q-13 0 -13 34.5t13 34.5q176 0 176 108z
" />
    <glyph glyph-name="M" unicode="M" horiz-adv-x="1848" 
d="M229 186l39 861q1 11 1 26t-9.5 47t-52 58t-129.5 26q-13 0 -13 35.5t13 35.5h164q120 0 146 -15.5t46 -57.5l462 -925q13 -27 22 -27t23 29l425 929q22 46 56 56.5t132 10.5h146q14 0 14 -35.5t-14 -35.5q-85 0 -124.5 -27t-51.5 -63.5t-12 -90.5l7 -837
q1 -117 159 -117q14 0 14 -34.5t-14 -34.5h-468q-14 0 -14 34.5t14 34.5q149 0 149 117l-4 770q0 13 -9 13t-14 -12l-446 -963q-8 -17 -22 -17t-22 17l-461 979q-10 22 -23.5 22t-14.5 -21l-32 -788v-18q0 -12 9.5 -38t48.5 -43.5t100 -17.5q14 0 14 -34.5t-14 -34.5h-397
q-13 0 -13 34.5t13 34.5q150 0 157 117z" />
    <glyph glyph-name="N" unicode="N" horiz-adv-x="1482" 
d="M257 186v841q0 101 -45.5 139t-142.5 38q-13 0 -13 35.5t13 35.5h154q110 0 142 -7.5t59 -41.5l778 -894q10 -13 28.5 -13t18.5 33v736q0 116 -171 116q-14 0 -14 35.5t14 35.5h375q13 0 13 -35.5t-13 -35.5q-136 0 -136 -116v-1084q0 -25 -17.5 -25t-41.5 30l-868 990
q-11 12 -22 12q-10 0 -10 -19v-806q0 -117 159 -117q13 0 13 -34.5t-13 -34.5h-427q-14 0 -14 34.5t14 34.5q167 0 167 117z" />
    <glyph glyph-name="O" unicode="O" horiz-adv-x="1461" 
d="M91 622q0 223 176 448t473 225q266 0 454.5 -205.5t188.5 -471.5q0 -256 -174 -450.5t-474 -194.5q-290 0 -467 182.5t-177 466.5zM282 681q0 -310 150 -471.5t317 -161.5q212 0 327.5 150.5t115.5 403.5q0 239 -145.5 430.5t-319.5 191.5q-210 0 -327.5 -178.5
t-117.5 -364.5z" />
    <glyph glyph-name="P" unicode="P" horiz-adv-x="1148" 
d="M271 186v908q0 115 -189 115q-13 0 -13 33t13 33h562q202 0 329 -104t127 -284q0 -150 -123 -244.5t-339 -94.5q-120 0 -145.5 3t-32.5 3t-18 -4t-11 -29v-335q0 -117 186 -117q13 0 13 -34.5t-13 -34.5h-524q-13 0 -13 34t13 35q178 0 178 117zM431 659
q0 -34 43.5 -41.5t101.5 -7.5q352 0 352 281q0 129 -95 225.5t-266 96.5h-89q-47 0 -47 -31v-523z" />
    <glyph glyph-name="Q" unicode="Q" horiz-adv-x="1461" 
d="M282 681q0 -310 150 -471.5t317 -161.5q212 0 327.5 150.5t115.5 403.5q0 239 -145.5 430.5t-319.5 191.5q-210 0 -327.5 -178.5t-117.5 -364.5zM91 622q0 223 176 448t473 225q266 0 454.5 -205.5t188.5 -471.5q0 -226 -121 -382q-122 -156 -236 -204q-22 -10 -21 -17
q0 -11 14 -22q77 -60 229.5 -133t399.5 -144q14 -4 14 -19.5t-4 -35.5t-11.5 -20t-28.5 4q-565 121 -1113 358q-146 55 -280 205t-134 414z" />
    <glyph glyph-name="R" unicode="R" horiz-adv-x="1405" 
d="M271 186v986q0 27 -189 27q-14 0 -14 38t14 38h562q230 0 361 -96.5t131 -247.5q0 -247 -267 -318q-13 -4 -13 -23t80.5 -133t231.5 -278t246 -164q14 0 14 -17.5t-14 -18.5q-42 -4 -67 -4q-171 0 -262 67.5t-165.5 161t-160.5 212.5t-114 138t-83.5 19t-77.5 2.5
t-30 2.5t-15.5 -5t-7.5 -17v-370q0 -117 194 -117q13 0 13 -34.5t-13 -34.5h-534q-13 0 -13 34t13 35q180 0 180 117zM431 682q0 -31 38 -39t107 -8q387 0 387 296q0 101 -105 191.5t-291 90.5h-89q-47 0 -47 -31v-500z" />
    <glyph glyph-name="S" unicode="S" horiz-adv-x="1042" 
d="M137 960q0 144 110.5 239.5t277.5 95.5q104 0 190.5 -20.5t99.5 -20.5t16 1q28 -101 38 -258q0 -14 -16.5 -19t-32.5 -5t-20 14q-21 110 -93.5 175.5t-205.5 65.5q-100 0 -162 -66.5t-62 -156.5q0 -168 295 -248q372 -96 372 -412q0 -190 -109.5 -281t-280.5 -91
q-120 0 -191.5 21t-185.5 79q-49 155 -49 273q0 11 4 24t34 13t31 -9q9 -129 111.5 -227.5t274.5 -98.5q92 0 157.5 49.5t65.5 161.5q0 216 -264 296q-404 114 -405 405z" />
    <glyph glyph-name="T" unicode="T" horiz-adv-x="1443" 
d="M654 186v969q0 46 -48 46h-252q-70 0 -103.5 -17t-126.5 -203q-6 -14 -50 -14t-44 14q27 122 35.5 231.5t50 109.5t80 -20t93 -25t180.5 -5h648q101 2 145 22.5t78 20.5t42 -71l23 -239q0 -14 -44.5 -14t-44.5 14q-14 196 -259 196h-192q-51 0 -51 -46v-969
q0 -117 169 -117q14 0 14 -34.5t-14 -34.5h-536q-14 0 -14 34.5t14 34.5q207 0 207 117z" />
    <glyph glyph-name="U" unicode="U" horiz-adv-x="1497" 
d="M256 539v545q0 115 -185 115q-13 0 -13 38t13 38h554q13 0 13 -38t-13 -38q-206 0 -206 -115v-543q0 -301 104.5 -397t259.5 -96q193 0 294.5 100.5t101.5 338.5v597q0 115 -188 115q-13 0 -13 38t13 38h478q13 0 13 -38t-13 -38q-180 0 -180 -115v-355
q0 -352 -52.5 -475.5t-166 -202t-312.5 -78.5q-191 0 -300.5 62.5t-155.5 188t-46 315.5z" />
    <glyph glyph-name="V" unicode="V" horiz-adv-x="1287" 
d="M180 1089q-40 115 -147 115q-13 0 -13 35.5t13 35.5h458q13 0 13 -35.5t-13 -35.5q-143 0 -143 -74q0 -17 7 -41l304 -797q7 -20 17 -20t19 22l319 786q10 33 10 46q0 78 -102 78q-14 0 -14 35.5t14 35.5h388q14 0 14 -35.5t-14 -35.5q-154 0 -187 -86l-476 -1131
q-10 -25 -26 -25q-17 0 -32 44z" />
    <glyph glyph-name="W" unicode="W" horiz-adv-x="1971" 
d="M180 1089q-51 115 -147 115q-13 0 -13 35.5t13 35.5h428q13 0 13 -35.5t-13 -35.5q-113 0 -113 -57q0 -24 15 -58l390 -807q9 -19 18.5 -19t18.5 21l143 294q8 18 8 39.5t-10 44.5l-207 427q-52 115 -137 115q-13 0 -13 35.5t13 35.5h418q13 0 13 -35.5t-13 -35.5
q-113 0 -113 -55q0 -24 16 -60l120 -237q11 -23 19 -23t19 25l109 226q17 37 17 63q0 61 -100 61q-14 0 -14 35.5t14 35.5h379q13 0 13 -35.5t-13 -35.5q-149 0 -188 -86l-166 -366q-11 -25 -11 -43.5t7 -34.5l193 -400q9 -19 17.5 -19t18.5 21l393 804q17 37 17 62
q0 62 -99 62q-13 0 -13 35.5t13 35.5h359q14 0 14 -35.5t-14 -35.5q-130 0 -169 -86l-542 -1111q-17 -36 -28 -36t-26 35l-229 476q-8 16 -16 16t-15 -16l-231 -476q-15 -35 -25.5 -35t-27.5 35z" />
    <glyph glyph-name="X" unicode="X" horiz-adv-x="1330" 
d="M223 1096q-45 67 -93 87t-131 21q-13 0 -13 35.5t13 35.5h557q14 0 14 -35.5t-14 -35.5q-149 0 -149 -57q0 -25 22 -59l226 -303q11 -16 22 -16t23 16l225 295q38 50 38 78q0 46 -87 46q-14 0 -14 35.5t14 35.5h399q13 0 13 -35.5t-13 -35.5q-117 0 -171 -41t-141 -154
l-217 -286q-11 -14 -11 -28t9 -28l356 -481q89 -117 227 -117q13 0 13 -34.5t-13 -34.5h-513q-14 0 -14 34.5t14 34.5q114 0 114 53q0 26 -29 69l-256 343q-11 17 -20.5 17t-21.5 -17l-179 -233q-98 -129 -98 -180.5t120 -51.5q14 0 14 -34.5t-14 -34.5h-453q-13 0 -13 34.5
t13 34.5q161 0 226 86l342 446q8 11 8 21.5t-12 28.5z" />
    <glyph glyph-name="Y" unicode="Y" horiz-adv-x="1235" 
d="M175 1089q-70 115 -188 115q-13 0 -13 35.5t13 35.5h476q13 0 13 -35.5t-13 -35.5q-121 0 -121 -57q0 -23 21 -58l281 -472q8 -14 15.5 -14t16.5 14l298 463q27 42 27 71q0 53 -111 53q-14 0 -14 35.5t14 35.5h395q13 0 13 -35.5t-13 -35.5q-139 0 -211 -109l-308 -473
q-65 -100 -71 -129.5t-6 -86.5v-220q0 -117 164 -117q13 0 13 -34.5t-13 -34.5h-488q-13 0 -13 34.5t13 34.5q164 0 164 117v218q0 101 -28 147z" />
    <glyph glyph-name="Z" unicode="Z" horiz-adv-x="1208" 
d="M83 24q0 13 10 27l764 1117q9 12 9 21q0 20 -31 20h-394q-55 0 -124 -60.5t-101.5 -123t-51.5 -129.5q-2 -7 -24 -7t-25 14q33 213 33 363q0 18 37 18q97 -9 147 -9h749q25 0 25 -14t-14 -32l-752 -1111q-9 -12 -9 -24q0 -25 30 -25q250 0 455 13q80 5 169.5 121
t97.5 149q3 7 11 7t23.5 -6.5t15.5 -16.5q-48 -236 -48 -353q0 -13 -15 -16q-35 10 -55 12q-187 21 -532 21h-365q-35 0 -35 24z" />
    <glyph glyph-name="bracketleft" unicode="[" horiz-adv-x="725" 
d="M666 -354h-357q-22 0 -22 22v1843q0 19 20 19h359q17 0 17 -39t-17 -39h-220q-20 0 -20 -22v-1678q0 -28 14 -28h226q17 0 17 -39t-17 -39z" />
    <glyph glyph-name="backslash" unicode="\" horiz-adv-x="717" 
d="M713 25v-7q-5 -9 -29 -20q-36 -16 -55 -16q-15 0 -17 6l-608 1444q-2 2 -2 6q0 14 30 30q32 15 56 15q16 0 18 -8z" />
    <glyph glyph-name="bracketright" unicode="]" horiz-adv-x="739" 
d="M452 -332q0 -22 -22 -22h-377q-23 0 -23 39t21 39h250q12 0 12 24v1682q0 22 -18 22h-224q-24 0 -24 39t20 39h365q20 0 20 -19v-1843z" />
    <glyph glyph-name="asciicircum" unicode="^" horiz-adv-x="1096" 
d="M985 535h-135l-301 682l-303 -682h-140l390 837h104z" />
    <glyph glyph-name="underscore" unicode="_" horiz-adv-x="1024" 
d="M1024 -256h-1024v102h1024v-102z" />
    <glyph glyph-name="grave" unicode="`" horiz-adv-x="569" 
d="M461 1081q4 -11 4 -20q0 -39 -35 -39q-23 0 -41 29l-168 271q-4 5 -4 13q0 26 40 45q22 11 41 11q24 0 31 -16z" />
    <glyph glyph-name="a" unicode="a" horiz-adv-x="797" 
d="M481 199v215q0 22 -14 22q-7 0 -60 -26q-170 -85 -170 -222q0 -49 31.5 -79.5t87.5 -30.5q40 0 82.5 42.5t42.5 78.5zM780 123q22 -3 29 -30q0 -3 -1 -5q-41 -69 -76 -90t-92 -21q-105 0 -142 136q-76 -76 -121 -106t-132 -30q-56 0 -93 31t-52.5 71.5t-15.5 82.5
t20 82.5t58.5 73t66.5 47.5l232 129q20 11 20 32v181q0 88 -133 88q-97 0 -135 -50q-5 -7 -15 -93q-12 -99 -69 -99q-55 0 -55 56t40.5 112.5t69.5 73.5q128 75 246 75q71 0 137.5 -40t66.5 -99v-532q0 -115 67 -115q19 0 72 37q3 2 7 2z" />
    <glyph glyph-name="b" unicode="b" horiz-adv-x="1001" 
d="M930 430q0 -218 -111.5 -335.5t-294.5 -117.5q-59 0 -155 46q-24 10 -58 10t-96 -56q-3 -2 -9 -2t-21 6q-31 12 -31 19q4 61 4 260v918q0 133 -92 133q-17 0 -17 27.5t17 27.5q25 0 105 41t100.5 59.5t32.5 18.5t13 -25l-6 -124v-500q0 -27 13 -27q9 0 20 6q94 55 176 55
q176 0 293 -131.5t117 -308.5zM756 414q0 156 -76.5 266.5t-198.5 110.5q-86 0 -147 -50q-23 -18 -23 -94v-346q0 -81 75.5 -172.5t171.5 -91.5t147 110.5t51 266.5z" />
    <glyph glyph-name="c" unicode="c" horiz-adv-x="817" 
d="M743 152q11 5 24.5 -15.5t13.5 -28.5q0 -6 -5 -11q-26 -23 -108 -71q-80 -48 -222 -49q-146 0 -253 117t-107 302t122 329.5t315 144.5q196 0 233 -73q6 -12 6 -41q0 -19 -22 -46.5t-39 -27.5t-27 14q-78 107 -173 107t-173 -102q-78 -103 -79 -261q0 -158 89.5 -254
t191.5 -96q77 0 213 62z" />
    <glyph glyph-name="d" unicode="d" horiz-adv-x="1012" 
d="M66 411q0 189 132 324t343 135q70 0 114 -14q12 -4 19 -4q14 0 14 25v294q0 140 -92 140q-17 0 -17 27.5t17 27.5q25 0 96.5 36.5t103 59.5t42 23t10.5 -11t-3.5 -64t-3.5 -98v-1081q0 -149 82 -149q11 0 29 3t21 3t6.5 -6t6 -18t2.5 -22.5t-6.5 -10.5t-51.5 -8.5
t-131 -29t-94 -26.5q-17 0 -17 49v41q0 23 -11.5 23t-27.5 -14q-94 -89 -196 -89q-197 0 -292 122.5t-95 311.5zM688 199v469q0 75 -22 94q-59 49 -148 49q-134 0 -211.5 -111.5t-77.5 -259.5t83 -257t192 -109q78 0 131 41t53 84z" />
    <glyph glyph-name="e" unicode="e" 
d="M85 431q0 178 113.5 308.5t254.5 130.5t228 -98t87 -160t-51 -63h-449q-30 0 -30 -66q0 -160 76.5 -274.5t211.5 -114.5q101 0 201 60q5 3 11 3q12 0 21 -11q7 -7 7 -21q0 -5 -4 -8q-158 -140 -311 -140t-259.5 138t-106.5 316zM261 630q0 -14 24 -14h321q15 0 15 17
q0 44 -54.5 111t-113.5 67q-65 0 -112.5 -43.5t-76.5 -122.5q-3 -8 -3 -15z" />
    <glyph glyph-name="f" unicode="f" horiz-adv-x="584" 
d="M201 127v600q0 37 -37 37h-74q-15 0 -15 27.5t15 27.5q111 0 111 86v19q0 250 141 406.5t330 156.5q53 0 96 -13q42 -13 66 -39q24 -25 24 -67q0 -30 -27.5 -57t-58.5 -27q-56 0 -101.5 54.5t-99.5 54.5q-106 0 -161.5 -85t-55.5 -207v-214q0 -37 37 -37h203q15 0 15 -43
t-15 -43h-203q-37 0 -37 -37v-600q0 -78 148 -78q14 0 14 -25t-14 -25h-418q-14 0 -14 25t14 25q117 0 117 78z" />
    <glyph glyph-name="g" unicode="g" horiz-adv-x="948" 
d="M59 -308q0 100 187 234q16 14 16 22q-2 11 -20 15q-136 39 -136 148q0 51 114 131q10 7 23.5 15t13.5 20t-15 22q-146 93 -146 239t100.5 239t227.5 93t214 -38.5t138 -38.5h172q15 0 15 -43t-15 -43h-166q4 -37 4 -109q0 -145 -94 -241.5t-262 -96.5q-33 0 -76 4
q-21 0 -43 -14q-69 -45 -69 -100q0 -80 149 -80h254q297 0 297 -228q0 -170 -159.5 -285.5t-354.5 -115.5q-181 0 -275 70.5t-94 180.5zM219 -252q0 -98 73 -157.5t211 -59.5t227 66.5t89 160.5q0 187 -244 187h-184q-35 0 -61 -19q-111 -80 -111 -178zM250 569
q0 -109 66 -179.5t145 -70.5q170 0 170 224q0 172 -86 237q-41 31 -110 31t-127 -66.5t-58 -175.5z" />
    <glyph glyph-name="h" unicode="h" horiz-adv-x="1094" 
d="M921 127q0 -78 127 -78q14 0 14 -24.5t-14 -24.5h-393q-14 0 -14 24.5t14 24.5q113 0 113 78v420q0 97 -59 165t-143 68t-148 -51t-64 -100v-502q0 -78 111 -78q14 0 14 -24.5t-14 -24.5h-385q-14 0 -14 24.5t14 24.5q121 0 121 78v1047q0 139 -92 139q-17 0 -17 27.5
t17 27.5q33 0 97.5 34t97.5 60q32 26 44 26t12 -9t-3 -62.5t-3 -111.5v-514q0 -25 16 -25q9 0 17 8q91 96 241 96q145 0 219 -105.5t74 -215.5v-422z" />
    <glyph glyph-name="i" unicode="i" horiz-adv-x="524" 
d="M467 0h-379q-14 0 -14 24.5t14 24.5q113 0 113 78v444q0 138 -92 138q-17 0 -17 28t17 28q33 0 97.5 34t97.5 59t44 25q12 0 12 -16q-6 -108 -6 -166v-574q0 -78 113 -78q14 0 14 -24.5t-14 -24.5zM150 1157q0 45 30.5 75.5t75.5 30.5t77 -30.5t32 -75.5t-32 -77t-77 -32
t-75.5 32t-30.5 77z" />
    <glyph glyph-name="j" unicode="j" horiz-adv-x="518" 
d="M365 1157q0 -45 -32 -77t-77 -32t-75.5 32t-30.5 77t30.5 75.5t75.5 30.5t77 -30.5t32 -75.5zM358 59q0 -329 -110 -483q-93 -131 -248 -131q-50 0 -87.5 28t-37.5 68q0 32 24.5 51t53.5 19q49 0 88.5 -39t64.5 -39q99 0 99 213v825q0 138 -92 138q-17 0 -17 28t17 28
q33 0 97.5 34t97.5 59t44 25q12 0 12 -16q-6 -108 -6 -166v-642z" />
    <glyph glyph-name="k" unicode="k" horiz-adv-x="1008" 
d="M664 723q26 29 26 47q0 33 -96 33q-14 0 -14 23.5t14 23.5h364q14 0 14 -23.5t-14 -23.5q-92 0 -163 -68l-213 -205q-19 -18 -19 -34t17 -35l321 -367q39 -45 129 -45q14 0 14 -24.5t-14 -24.5h-403q-14 0 -14 24.5t14 24.5q82 0 82 29q0 13 -31 49l-221 254
q-16 18 -35.5 24.5t-34.5 6.5t-24 -8t-9 -35v-242q0 -78 119 -78q14 0 14 -24.5t-14 -24.5h-387q-13 0 -13 24.5t13 24.5q115 0 115 78v1048q0 138 -92 138q-17 0 -17 28t17 28q33 0 97.5 34t97.5 59t44 25q12 0 12 -8t-3 -60.5t-3 -113.5v-783q0 -43 46 -43t67 23z" />
    <glyph glyph-name="l" unicode="l" horiz-adv-x="524" 
d="M354 127q0 -78 119 -78q14 0 14 -24.5t-14 -24.5h-389q-14 0 -14 24.5t14 24.5q117 0 117 78v1044q0 140 -92 140q-17 0 -17 27.5t17 27.5q46 0 165 74q34 21 50 33t26 12t10 -15q-6 -57 -6 -97v-1246z" />
    <glyph glyph-name="m" unicode="m" horiz-adv-x="1607" 
d="M80 0q-14 0 -14 24.5t14 24.5q121 0 121 78v451q0 124 -84 124q-17 0 -17 28t17 28q25 0 83.5 34.5t94 62.5t48.5 28q15 0 15 -13.5t-2.5 -42.5t-2.5 -52t12 -23q9 0 17 8q104 110 252 110q132 0 216 -122q11 -16 19.5 -16t19.5 13q113 125 274 125q122 0 181.5 -68
t76 -118.5t16.5 -118.5v-438q0 -78 116 -78q14 0 14 -24.5t-14 -24.5h-379q-14 0 -14 24.5t14 24.5q110 0 110 78v453q0 117 -56.5 158.5t-142.5 41.5q-87 0 -138.5 -82t-51.5 -221v-350q0 -78 115 -78q14 0 14 -24.5t-14 -24.5h-378q-14 0 -14 24.5t14 24.5q110 0 110 78
v405q0 90 -16 147t-48.5 79t-106.5 22q-45 0 -77.5 -17t-64 -41t-53.5 -58t-22 -74v-463q0 -78 106 -78q14 0 14 -24.5t-14 -24.5h-380z" />
    <glyph glyph-name="n" unicode="n" horiz-adv-x="1069" 
d="M896 127q0 -78 115 -78q14 0 14 -24.5t-14 -24.5h-378q-14 0 -14 24.5t14 24.5q110 0 110 78v403q0 84 -14.5 142.5t-45.5 83t-109 24.5q-42 0 -76 -17t-66.5 -40.5t-55 -58t-22.5 -74.5v-463q0 -78 107 -78q14 0 14 -24.5t-14 -24.5h-375q-14 0 -14 24.5t14 24.5
q115 0 115 78v447q0 128 -84 128q-17 0 -17 28t17 28q38 0 87.5 30t86.5 62.5t52 32.5q14 0 14 -15.5t-2 -42t-2 -47t15 -20.5q8 0 15 6q107 106 259 106q148 0 221 -147q33 -66 33 -248v-348z" />
    <glyph glyph-name="o" unicode="o" horiz-adv-x="995" 
d="M84 428q0 168 125 305t299 137t295 -137t121 -313t-111 -309.5t-297 -133.5t-309 141.5t-123 309.5zM247 422q0 -178 81.5 -278.5t175.5 -100.5q96 0 176.5 101.5t80.5 277.5t-80 282t-175 107q-96 0 -177.5 -105.5t-81.5 -283.5z" />
    <glyph glyph-name="p" unicode="p" horiz-adv-x="1001" 
d="M945 418q0 -198 -109.5 -319.5t-304.5 -121.5q-110 0 -142 10.5t-36 10.5q-26 0 -26 -33v-381q0 -86 151 -86q14 0 14 -24.5t-14 -24.5h-419q-14 0 -14 24.5t14 24.5q115 0 115 84v999q0 124 -86 124q-17 0 -17 27.5t17 27.5q29 0 99 40t91.5 61.5t37 21.5t15.5 -13.5
t-2 -42.5t-2 -44t16 -15q9 0 18 8q84 94 187 94q112 0 206 -68.5t142.5 -153.5t48.5 -230zM771 420q0 368 -264 368q-84 0 -160 -100q-20 -26 -20 -94v-389q0 -164 189 -164q140 0 197.5 111t57.5 268z" />
    <glyph glyph-name="q" unicode="q" horiz-adv-x="1012" 
d="M669 0q-64 -22 -231 -23q-174 0 -273 116.5t-99 322.5q0 212 121.5 333t264.5 121t259 -59l118 55q39 0 39 -45q-27 -27 -27 -299v-940q0 -84 133 -84q14 0 14 -24.5t-14 -24.5h-419q-14 0 -14 24.5t14 24.5q133 0 133 86v379q0 37 -19 37zM688 205v418q0 37 -14 59
q-66 106 -152 106q-293 0 -293 -353q0 -159 60.5 -276.5t184.5 -117.5q214 0 214 164z" />
    <glyph glyph-name="r" unicode="r" horiz-adv-x="696" 
d="M581 870q32 0 53 -11t39 -34t18 -67q0 -12 -10 -34t-31 -38q-20 -16 -42 -16t-67.5 24.5t-68.5 24.5q-61 0 -103 -60.5t-42 -164.5v-367q0 -78 151 -78q14 0 14 -24.5t-14 -24.5h-419q-14 0 -14 24.5t14 24.5q115 0 115 78v462q0 113 -84 113q-17 0 -17 28t17 28
q38 0 109 48t87.5 62.5t27.5 14.5q17 0 17 -25q-4 -49 -4 -89.5t13.5 -40.5t27.5 20q89 122 213 122z" />
    <glyph glyph-name="s" unicode="s" horiz-adv-x="707" 
d="M649 246q0 -81 -42 -144.5t-115 -95t-154 -31.5q-156 0 -240 60q-20 63 -20 172v45q0 15 23.5 15t25.5 -15q5 -39 65 -126t179 -87q59 0 110 37t51 107t-43 112.5t-153 72t-177 94.5t-67 165q0 102 84 172.5t213 70.5t207 -36q31 -84 31 -170v-11q0 -14 -22 -14t-25 14
q-10 54 -67.5 105t-134.5 51t-124 -37.5t-47 -101.5q0 -60 33.5 -93.5t166.5 -72t187.5 -97t54.5 -161.5z" />
    <glyph glyph-name="t" unicode="t" horiz-adv-x="674" 
d="M193 213v507q0 40 -40 40h-73q-14 0 -14 23t14 23q45 0 93 35.5t80 78t48 81.5q4 9 14 9t20.5 -5t10.5 -14v-98q0 -43 41 -43h244q14 0 14 -45t-14 -45h-244q-41 0 -41 -40v-403q0 -131 37.5 -187t124.5 -56q52 0 108 39q6 4 11.5 4t11.5 -11t6 -18t-2 -10
q-84 -101 -220 -101q-125 0 -177.5 54.5t-52.5 181.5z" />
    <glyph glyph-name="u" unicode="u" horiz-adv-x="1036" 
d="M1009 31q-28 -3 -136.5 -27.5t-137.5 -35.5q-3 -1 -7 -1q-16 0 -16 45v45q0 24 -11.5 24t-27.5 -15q-95 -89 -234 -89q-105 0 -185 106t-80 218v335q0 147 -111 147q-15 0 -15 28t15 28q105 0 169.5 9t83.5 9t19 -16q-8 -123 -8 -152v-355q0 -115 39.5 -187.5
t121.5 -72.5q88 0 156 52t68 126v384q0 147 -111 147q-15 0 -15 28t15 28q123 0 180.5 9t69.5 9q20 0 20 -27q-6 -87 -6 -139v-464q0 -85 22 -115t41 -30t42.5 3t28 3t9 -4.5t7 -17.5t2.5 -20q0 -14 -8 -15z" />
    <glyph glyph-name="v" unicode="v" 
d="M115 731q-29 72 -103 72q-14 0 -14 23.5t14 23.5h355q14 0 14 -23.5t-14 -23.5q-78 0 -78 -55q0 -17 4 -29l160 -490q6 -18 14 -18t14 18l170 498q4 10 4 23q0 53 -96 53q-14 0 -14 23.5t14 23.5h289q14 0 14 -23.5t-14 -23.5q-96 0 -121 -72l-250 -715q-13 -39 -42 -39
t-40 27z" />
    <glyph glyph-name="w" unicode="w" horiz-adv-x="1331" 
d="M115 731q-29 72 -103 72q-14 0 -14 23.5t14 23.5h355q14 0 14 -23.5t-14 -23.5q-78 0 -78 -55q0 -17 4 -29l160 -490q6 -18 14 -18t14 18l150 435q6 20 6 28q0 59 -51 94q-27 17 -62 17q-14 0 -14 23.5t14 23.5h355q14 0 14 -23.5t-14 -23.5q-78 0 -78 -55q0 -17 4 -29
l160 -490q6 -18 14 -18t14 18l170 498q4 10 4 23q0 53 -96 53q-14 0 -14 23.5t14 23.5h289q14 0 14 -23.5t-14 -23.5q-96 0 -121 -72l-250 -715q-13 -39 -42 -39t-40 27l-213 549q-8 20 -14 20t-14 -20l-189 -537q-13 -39 -42 -39t-40 27z" />
    <glyph glyph-name="x" unicode="x" horiz-adv-x="918" 
d="M188 733q-51 70 -98 70q-14 0 -14 23.5t14 23.5h342q14 0 14 -23.5t-14 -23.5q-76 0 -76 -37q0 -18 17 -45l110 -176q9 -15 19 -15t20 15l121 160q27 35 27 57q0 41 -82 41q-14 0 -14 23.5t14 23.5h295q14 0 14 -23.5t-14 -23.5q-67 0 -125 -72l-195 -237
q-14 -17 -14 -29t10 -27l211 -305q58 -84 148 -84q14 0 14 -24.5t-14 -24.5h-394q-14 0 -14 24.5t14 24.5q97 0 97 33q0 12 -23 47l-137 215q-9 12 -17 12t-16 -12l-143 -199q-33 -47 -33 -67q0 -29 65 -29q14 0 14 -24.5t-14 -24.5h-294q-14 0 -14 24.5t14 24.5
q94 0 147 68l225 282q8 11 8 22t-8 23z" />
    <glyph glyph-name="y" unicode="y" 
d="M82 731q-26 72 -121 72q-14 0 -14 23.5t14 23.5h371q14 0 14 -23.5t-14 -23.5q-96 0 -96 -55q0 -16 4 -29l174 -504q10 -31 25 -31t28 33l195 502q6 13 6 26q0 58 -129 58q-14 0 -14 23.5t14 23.5h327q14 0 14 -23.5t-14 -23.5q-96 0 -125 -72l-442 -1149
q-25 -64 -73.5 -99.5t-96.5 -35.5t-73 25t-25 51q0 76 94.5 76t120.5 63l96 240q11 25 11 39t-13 51z" />
    <glyph glyph-name="z" unicode="z" horiz-adv-x="735" 
d="M713 276q-31 -229 -31 -266t-27 -37q-10 0 -68.5 13.5t-94.5 13.5h-420q-17 0 -17 14q0 6 2 9l398 729q8 15 8 23q0 18 -29 18h-158q-55 0 -92.5 -47.5t-99.5 -182.5q-3 -4 -6.5 -4t-10 3t-6.5 7l37 267q3 23 9 28.5t14 5.5l103 -16q26 -4 77 -4h346q15 0 15 -7t-5 -16
l-397 -723q-6 -11 -6 -18q0 -18 27 -22t121.5 -4t150 36t119.5 189q4 6 10.5 6t18.5 -3.5t12 -11.5z" />
    <glyph glyph-name="braceleft" unicode="{" horiz-adv-x="784" 
d="M715 -319q-224 0 -288.5 24.5t-102 89.5t-37.5 187v442q0 176 -211 176q-10 0 -10 17.5t10 17.5q211 0 211 172v338q0 163 41 237t123.5 92.5t263.5 18.5q14 0 14 -23.5t-14 -23.5q-156 0 -223.5 -52t-67.5 -186v-243q0 -173 -12 -212.5t-45.5 -77t-106.5 -54.5v-7
q67 -12 102.5 -47.5t48.5 -85t13 -188.5v-277q0 -172 63 -230t228 -58q14 0 14 -23.5t-14 -23.5z" />
    <glyph glyph-name="bar" unicode="|" horiz-adv-x="537" 
d="M354 -334h-121v1768h121v-1768z" />
    <glyph glyph-name="braceright" unicode="}" horiz-adv-x="821" 
d="M719 600q-211 0 -211 -176v-442q0 -135 -49 -205.5t-137.5 -83t-241.5 -12.5q-14 0 -14 23.5t14 23.5q165 0 228 58t63 230v277q0 143 15 192t48 83t101 46v7q-77 18 -109 56t-43.5 78.5t-11.5 209.5v243q0 136 -70 187t-221 51q-14 0 -14 23.5t14 23.5
q170 0 259.5 -16.5t129 -95.5t39.5 -236v-338q0 -172 211 -172q10 0 10 -17.5t-10 -17.5z" />
    <glyph glyph-name="asciitilde" unicode="~" horiz-adv-x="676" 
d="M27 376q99 146 209 146q42 0 140 -35t131 -35q66 0 119 64q3 3 7.5 3t12 -6t7.5 -10.5t-3 -8.5q-99 -146 -209 -146q-42 0 -140 35t-131 35q-66 0 -119 -64q-3 -3 -7.5 -3t-12 6t-7.5 10.5t3 8.5z" />
    <glyph glyph-name="uni00A0" unicode="&#xa0;" horiz-adv-x="559" 
 />
    <glyph glyph-name="exclamdown" unicode="&#xa1;" horiz-adv-x="520" 
d="M260 634q-62 0 -92 37t-30 87.5t35 81t88 30.5t86 -36t33 -87t-30 -82t-90 -31zM152 -443q0 63 31 354.5t43 497.5q2 16 34 16t32 -16q8 -199 35 -491t27 -348t-31 -90t-67 -34q-104 0 -104 111z" />
    <glyph glyph-name="cent" unicode="&#xa2;" horiz-adv-x="829" 
d="M545 1305q2 10 22 10q66 0 66 -27l-31 -175q130 -12 160 -70q6 -12 6 -36t-22 -51.5t-39 -27.5t-27 14q-44 60 -93 86l-120 -681q34 -11 69 -11q77 0 213 62q2 1 5 1q10 -1 20 -17q13 -20 13 -27t-5 -12q-26 -23 -107 -71t-230 -49l-33 -190q-2 -10 -27 -10q-63 0 -63 24
l34 190q-108 34 -186 137t-78 278.5t119 316.5t300 147zM384 395l116 654q-92 -4 -168 -104.5t-76 -243.5t49.5 -215.5t78.5 -90.5z" />
    <glyph glyph-name="sterling" unicode="&#xa3;" horiz-adv-x="1126" 
d="M31 100q0 65 46 108.5t128 43.5q63 0 237 -57q23 78 23 135q0 124 -64 325h-274q-15 0 -15 36t15 36h250q-60 163 -60 300t112.5 240t275.5 103q91 0 197 -32.5t106 -80.5q0 -187 -27 -227q-3 -4 -14.5 -4t-29.5 54t-34.5 107t-64.5 94.5t-144 41.5q-113 0 -174 -69.5
t-61 -153.5t84 -373h323q16 0 16 -36t-16 -36h-307q16 -90 16 -197t-67 -292q180 -68 270 -68q134 0 246 99q35 32 46 32t11 -21.5t-26 -78.5q-78 -170 -264 -170q-128 0 -330 137q-63 -65 -121 -101t-146 -36q-76 0 -119.5 42t-43.5 99zM88 100q0 -38 32 -63t85 -25
q112 0 205 113q-102 74 -180 74q-82 0 -112 -33.5t-30 -65.5z" />
    <glyph glyph-name="currency" unicode="&#xa4;" horiz-adv-x="1024" 
d="M80 668q0 148 88 260l-80 80q-2 2 -2 6q0 14 33 47t47 33q4 0 6 -2l80 -78q112 88 259.5 88t262.5 -88l78 78q2 2 6 2q14 0 47 -33t33 -47q0 -4 -2 -6l-78 -78q88 -115 88 -263t-88 -261l78 -78q3 -3 3 -7q0 -14 -34.5 -46.5t-47.5 -32.5q-3 0 -5 2l-78 78
q-116 -89 -260 -89t-262 91l-80 -80q-2 -2 -5 -2q-13 0 -47.5 32.5t-34.5 46.5q0 4 3 7l80 80q-88 112 -88 260zM168 668q0 -144 100.5 -245t245 -101t245.5 101t101 243t-103 245t-244.5 103t-243 -101.5t-101.5 -244.5z" />
    <glyph glyph-name="yen" unicode="&#xa5;" horiz-adv-x="1325" 
d="M1096 571q15 0 15 -50t-15 -50h-368v-285q0 -117 164 -117q13 0 13 -34.5t-13 -34.5h-488q-13 0 -13 34.5t13 34.5q164 0 164 117v285h-1h-346q-15 0 -15 50t15 50h341q-7 39 -22 63l-62 103h-257q-15 0 -15 50.5t15 50.5h195l-202 334q-70 115 -188 115q-13 0 -13 35.5
t13 35.5h476q13 0 13 -35.5t-13 -35.5q-121 0 -121 -57q0 -23 21 -58l281 -472q8 -14 15.5 -14t16.5 14l298 463q27 42 27 71q0 53 -111 53q-14 0 -14 35.5t14 35.5h395q13 0 13 -35.5t-13 -35.5q-138 0 -210 -109l-222 -340h204q15 0 15 -50.5t-15 -50.5h-270l-21 -32
q-65 -100 -71 -129q0 -2 -1 -5h363z" />
    <glyph glyph-name="brokenbar" unicode="&#xa6;" horiz-adv-x="537" 
d="M354 834h-121v538h121v-538zM354 111h-121v536h121v-536z" />
    <glyph glyph-name="section" unicode="&#xa7;" horiz-adv-x="956" 
d="M879 481q0 -195 -183 -299q131 -101 131 -243t-112 -242t-258 -100q-98 0 -218 48t-120 124q0 22 33.5 49.5t53 27.5t93.5 -86t171.5 -86t151.5 68t54 163t-152 197l-278 177q-152 114 -152 251q0 95 51 181q53 89 140 123q-115 102 -115 233t101 222t239 91
q83 0 180.5 -37.5t97.5 -99.5q0 -29 -28.5 -53.5t-48.5 -24.5q-10 0 -77.5 69t-148.5 69q-67 0 -123.5 -51.5t-56.5 -144.5t150 -187l274 -172q150 -117 150 -267zM754 428q0 123 -224 248q-111 62 -194 121q-121 -72 -121 -183.5t92 -171.5l334 -219q113 79 113 205z" />
    <glyph glyph-name="dieresis" unicode="&#xa8;" horiz-adv-x="797" 
d="M325 1156q0 -45 -31.5 -76.5t-76.5 -31.5t-76.5 31.5t-31.5 76.5t31.5 76.5t76.5 31.5t76.5 -31.5t31.5 -76.5zM706 1156q0 -45 -31.5 -76.5t-76 -31.5t-76 31.5t-31.5 76.5t31.5 76.5t76 31.5t76 -31.5t31.5 -76.5z" />
    <glyph glyph-name="copyright" unicode="&#xa9;" horiz-adv-x="1442" 
d="M399.5 950.5q52.5 90.5 136.5 141.5t207 51q46 0 137.5 -16t93.5 -16q15 -74 15 -171q0 -9 -17.5 -9t-19.5 8q-15 165 -224 165q-112 0 -194 -101.5t-82 -245t80 -247t194 -103.5q195 0 249 148q2 6 15.5 6t18.5 -4q2 -2 2 -8q-21 -105 -49 -148q-18 -2 -42 -10
q-81 -25 -207 -25q-98 0 -181.5 47.5t-134 131t-50.5 199.5t52.5 206.5zM2 748q0 299 211 509.5t510 210.5t510 -210.5t211 -509.5t-211 -510t-510 -211t-510 211t-211 510zM72 755q0 -263 184 -461t459.5 -198t467 191.5t191.5 461t-190.5 460t-460.5 190.5t-460.5 -190.5
t-190.5 -453.5z" />
    <glyph glyph-name="ordfeminine" unicode="&#xaa;" horiz-adv-x="516" 
d="M38 621q0 73 127 139l91 43q21 12 21 28v114q0 43 -55 43t-78 -30q-5 -8 -5.5 -37t-3.5 -39q-15 -53 -55 -53q-54 0 -54 43.5t33 89.5q19 26 39 39q72 45 159 45q65 0 110.5 -29t46.5 -69v-305q0 -68 40 -68q18 0 43 22q2 2 5 2q4 0 11.5 -7t7.5 -10.5t-2 -7.5
q-34 -65 -113 -65q-55 0 -98 49q-8 12 -14 12t-15 -11q-49 -49 -113.5 -49t-96 31t-31.5 80zM176 647q0 -70 43 -70q58 0 58 63v109q0 14 -9 14q-4 0 -8 -2q-84 -43 -84 -114z" />
    <glyph glyph-name="guillemotleft" unicode="&#xab;" horiz-adv-x="789" 
d="M419 104q4 -5 4 -12.5t-10.5 -17t-18 -9.5t-12.5 5l-299 312q-24 25 -24 53t24 53l299 312q5 5 12 5q6 0 17 -8.5t11 -17.5q0 -4 -3 -9l-197 -294q-12 -18 -12 -41t12 -41zM726 104q4 -6 4 -11q0 -10 -10.5 -19t-18.5 -9q-7 0 -12 5l-299 312q-24 25 -24 53t24 53
l299 312q5 5 12 5t17.5 -8.5t10.5 -17.5q0 -4 -3 -9l-197 -294q-12 -18 -12 -41t12 -41z" />
    <glyph glyph-name="logicalnot" unicode="&#xac;" horiz-adv-x="1366" 
d="M1366 0h-123v537h-1243v120h1366v-657z" />
    <glyph glyph-name="uni00AD" unicode="&#xad;" horiz-adv-x="827" 
d="M707 602q16 0 16 -57.5t-18 -57.5h-590q-15 0 -15 57.5t15 57.5h592z" />
    <glyph glyph-name="registered" unicode="&#xae;" horiz-adv-x="1524" 
d="M527 487v533q0 59 -102 59q-7 0 -7 20.5t7 20.5q63 -2 115 -2t104 1t85 1q124 0 194.5 -52t70.5 -150q0 -150 -144 -188q-7 -2 -7 -9.5t7 -20.5q84 -150 194 -248q67 -57 101 -57q7 0 7 -9.5t-7 -9.5q-31 -2 -37 -2q-88 0 -130 29q-66 46 -114 109l-94 138
q-26 38 -41 48.5t-45 10.5t-41 1.5t-16.5 1.5t-9 -3t-3.5 -9v-213q0 -63 104 -63q8 0 8 -20t-8 -21q-42 4 -144 4t-144 -4q-7 0 -7 20.5t7 20.5q97 0 97 63zM614 768q0 -17 20.5 -21.5t57.5 -4.5q209 0 209 176q0 71 -56.5 120t-157.5 49h-48q-25 0 -25 -17v-302zM1444 748
q0 -299 -211 -510t-510 -211t-510 211t-211 510t211 509.5t510 210.5t510 -210.5t211 -509.5zM1374 748q0 270 -190.5 460.5t-460.5 190.5t-460.5 -190.5t-190.5 -455t185.5 -461t459.5 -196.5t465.5 191t191.5 461z" />
    <glyph glyph-name="macron" unicode="&#xaf;" horiz-adv-x="608" 
d="M528 1198q28 0 28 -47t-32 -47h-446q-29 0 -29 47t29 47h450z" />
    <glyph glyph-name="degree" unicode="&#xb0;" horiz-adv-x="713" 
d="M82 1047q0 119 81 191.5t205 72.5q104 0 183.5 -73.5t79.5 -205.5q0 -106 -78 -178t-211 -72q-113 0 -186.5 77t-73.5 188zM197 1047q0 -79 41 -136t134 -57q53 0 98 54q46 54 46 158q0 54 -40 113.5t-136 59.5q-54 0 -98.5 -54.5t-44.5 -137.5z" />
    <glyph glyph-name="plusminus" unicode="&#xb1;" horiz-adv-x="1024" 
d="M907 596h-334v-371h-120v371h-334v100h334v336h120v-336h334v-100zM907 2h-788v100h788v-100z" />
    <glyph glyph-name="uni00B2" unicode="&#xb2;" horiz-adv-x="630" 
d="M526 541q-10 -23 -48 -23q-41 0 -79.5 2t-68.5 2h-48q-48 -2 -99 -3t-106 -1q-32 0 -32 28q0 13 12 24q96 96 189 222q153 210 153 318q0 123 -103 123q-89 0 -145 -99q-3 -6 -10 -6t-19 7t-12 14q0 3 2 6q49 95 126 139q50 28 106 28q98 0 157 -66q52 -58 52 -140
q0 -111 -165 -300q-35 -40 -174 -178h177q69 0 95 11q27 12 47 48q4 7 13 7q8 0 19 -5q20 -8 20 -16q0 -2 -1 -4z" />
    <glyph glyph-name="uni00B3" unicode="&#xb3;" horiz-adv-x="630" 
d="M538 778q0 -104 -74 -181q-86 -89 -217 -89q-86 0 -139 30q-47 26 -48 70q0 58 73 58q27 0 56 -33l30 -36q28 -28 60 -28q61 0 93 80q20 52 20 114q0 80 -49 126q-39 38 -98 38q-35 0 -64 -11q-17 0 -17 34q0 31 13 31q92 0 145 50q41 39 41 96q0 60 -33 94
q-23 24 -58 24q-55 0 -101 -50q-18 -20 -33 -43q-3 -6 -10 -6q-8 0 -20 10q-11 8 -11 16q0 3 2 7q57 85 109 115q47 28 104 28q80 0 135 -56q51 -52 51 -125q0 -103 -104 -163q144 -42 144 -200z" />
    <glyph glyph-name="acute" unicode="&#xb4;" horiz-adv-x="569" 
d="M400 1336l-179 -285q-18 -29 -46 -29t-28 37q0 12 5 22l135 307q6 13 25 13q34 0 62 -22.5t28 -35.5q0 -3 -2 -7z" />
    <glyph glyph-name="uni00B5" unicode="&#xb5;" horiz-adv-x="1106" 
d="M928 256q0 -129 26 -150.5t52 -21.5q28 0 38.5 2t18.5 2t12 -15.5t4 -28.5q0 -11 -10 -13q-154 -28 -272 -62q-23 0 -23 47v41q0 30 -11.5 30t-29.5 -17q-102 -93 -276 -93q-84 0 -144 39q-8 -62 -8 -138t4 -138t4 -125q0 -107 -100 -107q-88 0 -88 96t24.5 259t24.5 436
v339q0 147 -111 147q-17 0 -17 28t17 28q64 0 156.5 9t104.5 9t12 -10t-4 -62t-4 -116v-419q0 -186 168 -186q278 0 278 219v353q0 147 -110 147q-16 0 -16 28t16 28q68 0 151.5 9t101 9t17.5 -13.5t-3 -65t-3 -107.5v-417z" />
    <glyph glyph-name="paragraph" unicode="&#xb6;" horiz-adv-x="997" 
d="M836 127q0 -78 118 -78q14 0 14 -24t-14 -24h-583q-14 0 -14 24t14 24q116 0 116 76v367q0 47 -51 50q-219 13 -319.5 117t-100.5 270t125.5 256t311.5 90h501q14 0 14 -28.5t-14 -28.5q-118 0 -118 -77v-1014zM743 125v1016q0 74 -81.5 74t-81.5 -74v-1014
q0 -78 81.5 -78t81.5 76z" />
    <glyph glyph-name="periodcentered" unicode="&#xb7;" horiz-adv-x="745" 
d="M238 623q0 51 36 82t91 31t85 -37t30 -87.5t-34.5 -81t-87.5 -30.5t-86.5 36t-33.5 87z" />
    <glyph glyph-name="cedilla" unicode="&#xb8;" horiz-adv-x="737" 
d="M406 0h73l-58 -80q-5 -7 -5 -14q0 -8 11 -16q108 -73 108 -158t-67 -135t-146 -50q-119 0 -119 72q0 53 51 53q23 0 58.5 -29.5t49.5 -29.5q56 0 56 67q0 68 -106 124q-19 10 -19 20q0 9 5 17z" />
    <glyph glyph-name="uni00B9" unicode="&#xb9;" horiz-adv-x="630" 
d="M116 518q-10 0 -10 22.5t10 22.5q106 0 106 128v484q0 34 -9 34q-7 0 -34 -9.5t-66 -28.5q-3 -1 -6 -1q-9 0 -13 14q-2 7 -2 12q0 8 7 11q87 36 209 128q16 12 29 12q26 0 26 -24t-2.5 -47t-2.5 -57v-527q0 -127 98 -129q9 0 9 -22.5t-9 -22.5h-340z" />
    <glyph glyph-name="ordmasculine" unicode="&#xba;" horiz-adv-x="619" 
d="M40 771q0 109 72.5 192t200.5 83t198 -84t70 -195.5t-72 -184t-190.5 -72.5t-198.5 76t-80 185zM191 768q0 -104 37.5 -155.5t87.5 -51.5t81.5 63.5t31.5 162.5t-37.5 156t-83.5 57t-81.5 -64t-35.5 -168z" />
    <glyph glyph-name="guillemotright" unicode="&#xbb;" horiz-adv-x="789" 
d="M374.5 795.5q10.5 9.5 18 9.5t12.5 -5l299 -312q24 -25 24 -53t-24 -53l-299 -312q-5 -5 -11 -5q-7 0 -18 8.5t-11 17.5q0 4 3 9l197 294q12 18 12 41t-12 41l-197 290q-4 5 -4 12.5t10.5 17zM57 777q0 10 10.5 19t17.5 9t13 -5l299 -312q24 -25 24 -53t-24 -53
l-299 -312q-5 -5 -12 -5t-17.5 8.5t-10.5 17.5q0 5 3 9l197 294q12 18 12 41t-12 41l-197 290q-4 5 -4 11z" />
    <glyph glyph-name="onequarter" unicode="&#xbc;" horiz-adv-x="1509" 
d="M1258 1389l-891 -1354q-3 -4 -8 -4q-10 0 -28 13q-22 17 -22 27q0 2 1 3l888 1351q4 6 10 6q10 0 28 -12q23 -15 23 -25q0 -3 -1 -5zM132 522q-10 0 -10 22.5t10 22.5q114 0 114 138v524q0 37 -9 37q-7 0 -36.5 -10.5t-72.5 -30.5q-3 -1 -6 -1q-10 0 -14 15q-2 8 -2 13
q0 9 7 12q94 39 226 138q17 13 32 13q28 0 28 -25.5t-2.5 -50.5t-2.5 -62v-571q0 -138 106 -139q10 0 10 -22.5t-10 -22.5h-368zM1384 101q0 -57 66 -57q10 0 10 -22t-10 -22h-306q-10 0 -10 22t10 22q92 0 92 57v140h-299q-57 0 -57 38q0 32 34 79l188 249q122 162 155 214
l61 97q10 12 28 12q55 0 56 -35q0 -6 -3 -11l-401 -530q-6 -8 -6 -14q0 -12 12 -12h232v278q0 14 73 14q75 0 75 -14v-278h80q10 0 10 -43q0 -44 -10 -44h-80v-140z" />
    <glyph glyph-name="onehalf" unicode="&#xbd;" horiz-adv-x="1509" 
d="M1402 20q-11 -24 -51 -24q-44 0 -86 2t-74 2h-52q-52 -2 -107 -3t-115 -1q-34 0 -34 30q0 14 13 26q104 104 204 240q165 227 165 343q0 133 -111 133q-96 0 -157 -107q-4 -7 -11 -7t-20 8t-13 15q0 3 2 7q53 103 136 150q54 30 115 30q106 0 169 -71q56 -63 57 -152
q0 -120 -179 -324q-38 -43 -188 -192h192q75 0 102 12q29 13 51 52q4 8 14 8q9 0 21 -6q21 -10 21 -17q0 -2 -1 -4zM132 524q-10 0 -10 21.5t10 21.5q114 0 114 138v524q0 37 -9 37q-7 0 -36.5 -10.5t-72.5 -30.5q-3 -1 -6 -1q-10 0 -14 15q-2 8 -2 13q0 9 7 12
q94 39 226 138q17 13 32 13q28 0 28 -25.5t-2.5 -50.5t-2.5 -62v-571q0 -138 106 -139q10 0 10 -21.5t-10 -21.5h-368zM1255 1389l-891 -1354q-3 -4 -8 -4q-10 0 -28 13q-22 17 -22 27q0 2 1 3l888 1351q4 6 10 6q10 0 28 -12q23 -15 23 -25q0 -3 -1 -5z" />
    <glyph glyph-name="threequarters" unicode="&#xbe;" horiz-adv-x="1509" 
d="M1258 1389l-891 -1354q-3 -4 -8 -4q-10 0 -28 13q-22 17 -22 27q0 2 1 3l888 1351q4 6 10 6q10 0 28 -12q23 -15 23 -25q0 -3 -1 -5zM556 798q0 -114 -82 -199q-94 -98 -238 -98q-95 0 -153 33q-52 29 -53 77q0 64 80 64q30 0 62 -36l33 -40q31 -31 66 -31q67 0 102 88
q22 58 22 126q0 88 -54 138q-43 42 -107 42q-39 0 -71 -12q-19 0 -19 38q0 34 15 34q101 0 159 55q45 43 45 105q0 66 -36 104q-25 26 -64 26q-60 0 -111 -55q-20 -22 -36 -47q-3 -7 -11 -7q-9 0 -22 11q-12 9 -12 18q0 3 2 7q63 94 120 127q52 31 114 31q88 0 149 -62
q56 -57 56 -137q0 -114 -114 -180q158 -46 158 -220zM1384 101q0 -57 66 -57q10 0 10 -22t-10 -22h-306q-10 0 -10 22t10 22q92 0 92 57v140h-299q-57 0 -57 38q0 32 34 79l188 249q122 162 155 214l61 97q10 12 28 12q55 0 56 -35q0 -6 -3 -11l-401 -530q-6 -8 -6 -14
q0 -12 12 -12h232v278q0 14 73 14q75 0 75 -14v-278h80q10 0 10 -43q0 -44 -10 -44h-80v-140z" />
    <glyph glyph-name="questiondown" unicode="&#xbf;" horiz-adv-x="752" 
d="M513 -531q-130 0 -246 136t-116 289t82 196l165 88q74 41 74 93.5t-20 121.5q0 19 22 19q15 0 23 -7q75 -136 75 -218t-114 -144l-105 -56q-116 -62 -116 -151q0 -199 292 -199q68 0 68 -84t-84 -84zM349 744q0 50 35 86.5t86 36.5t84 -38t33 -91t-35 -84t-86.5 -31
t-84 35.5t-32.5 85.5z" />
    <glyph glyph-name="breve" unicode="&#x2d8;" horiz-adv-x="731" 
d="M638 1295q0 -275 -270 -275t-270 275q8 8 20 8q10 0 18 -8q36 -164 232 -164q194 0 232 164q8 8 20 8q10 0 18 -8z" />
    <glyph glyph-name="tildecomb" unicode="&#x303;" horiz-adv-x="0" 
d="M103 1050q-49 0 -137 34q-76 29 -117 29q-54 0 -115 -61q-4 -4 -8 -4t-8 4q-9 11 -9 16q0 1 1 2q92 143 201 143q44 0 137 -33q72 -26 106 -26q57 0 125 68q1 1 3 1q5 0 15 -8q10 -9 10 -20q0 -4 -1 -8q-14 -41 -87 -90q-71 -47 -116 -47z" />
    <glyph glyph-name="uni0304" unicode="&#x304;" horiz-adv-x="0" 
d="M226 1198q28 0 28 -47t-32 -47h-446q-29 0 -29 47t29 47h450z" />
    <glyph glyph-name="uni0342" unicode="&#x342;" horiz-adv-x="0" 
d="M-307 1050q-49 0 -137 34q-76 29 -117 29q-54 0 -115 -61q-4 -4 -8 -4t-8 4q-9 11 -9 16q0 1 1 2q92 143 201 143q44 0 137 -33q72 -26 106 -26q57 0 125 68q1 1 3 1q5 0 15 -8q10 -9 10 -20q0 -4 -1 -8q-14 -41 -87 -90q-71 -47 -116 -47z" />
    <glyph glyph-name="uni0343" unicode="&#x343;" horiz-adv-x="0" 
d="M-208 1305q0 -190 -186 -329q-28 -21 -60 -40l-9 -1q-15 5 -24 23l-2 9l2 2q144 105 152 235v13q0 39 -33 56l-38 18q-63 34 -64 102q0 72 73 85q14 3 29 3q76 0 125 -66q35 -49 35 -110z" />
    <glyph glyph-name="uni0344" unicode="&#x344;" horiz-adv-x="0" 
d="M-126 1050q0 -101 -92 -101q-97 0 -98 94q0 57 46 85q23 14 52 14q51 0 78 -44l10 -23q4 -12 4 -25zM-509 1050q0 -101 -94 -101q-95 0 -96 94q0 58 46 86q22 13 50 13q50 0 79 -42q14 -25 15 -50zM-191 1427l-179 -285q-18 -29 -41 -29q-33 0 -33 37q0 12 5 22l135 307
q6 13 25 13q34 0 70 -29q20 -16 20 -29q0 -3 -2 -7z" />
    <glyph glyph-name="uni0345" unicode="&#x345;" horiz-adv-x="0" 
d="M-445 -505q0 23 11 63l80 279q6 21 40 21q26 0 34 -9t8 -28q0 -24 -47 -118.5t-53 -138.5q14 6 36 5q17 0 27 -13.5t10 -28.5q0 -35 -24 -65.5t-62 -30.5q-30 0 -45 15t-15 49z" />
    <glyph glyph-name="uni037E" unicode="&#x37e;" horiz-adv-x="594" 
d="M193 139q0 58 55 84q26 13 60 13q79 0 128.5 -62.5t49.5 -134.5q0 -129 -77 -230.5t-141 -140.5t-69 -39q-25 0 -25 27q0 4 38.5 43.5t85 103t46.5 140.5q0 49 -34 61q-117 45 -117 135zM184 742q0 53 38 83t90.5 30t83 -37t30.5 -87t-33 -81t-87 -31t-88 35.5t-34 87.5z
" />
    <glyph glyph-name="tonos" unicode="&#x384;" horiz-adv-x="569" 
d="M254 1028q-14 0 -14 21q0 7 2 13l112 480q18 77 47 78q23 0 44.5 -32t21.5 -56t-36 -132l-77 -230q-48 -142 -100 -142z" />
    <glyph glyph-name="dieresistonos" unicode="&#x385;" horiz-adv-x="797" 
d="M288 1156q0 -45 -31.5 -76.5t-76 -31.5t-76 31.5t-31.5 76.5t31.5 76.5t76 31.5t76 -31.5t31.5 -76.5zM754 1156q0 -45 -31.5 -76.5t-76 -31.5t-76 31.5t-31.5 76.5t31.5 76.5t76 31.5t76 -31.5t31.5 -76.5zM384 1148q-14 0 -14 20q0 6 2 13l75 361q16 77 47 78
q23 0 44.5 -32t21.5 -56q0 -34 -36 -132l-40 -110q-52 -142 -100 -142z" />
    <glyph glyph-name="Alphatonos" unicode="&#x386;" horiz-adv-x="1398" 
d="M1179 186q39 -117 192 -117q13 0 13 -34.5t-13 -34.5h-461q-14 0 -14 34.5t14 34.5q99 0 99 68q0 23 -8 49l-97 278q-9 31 -44 31h-414q-27 0 -40 -35l-109 -278q-9 -22 -9 -40q0 -73 150 -73q14 0 14 -34.5t-14 -34.5h-425q-14 0 -14 34.5t14 34.5q97 0 129 28t66 104
l377 915q6 17 6 30t-13 26.5t-13 19.5t39.5 27.5t92.5 58.5t65 37q23 0 35 -44q26 -97 49 -166zM837 564q25 0 25 16q0 5 -2 11l-172 496q-6 20 -18 20t-19 -20l-194 -496q-2 -5 -2 -11q0 -16 24 -16h358zM123 1028q-14 0 -14 21q0 7 2 13l111 480q18 77 47 78
q23 0 44.5 -32t21.5 -56t-36 -132l-76 -230q-47 -142 -100 -142z" />
    <glyph glyph-name="anoteleia" unicode="&#x387;" horiz-adv-x="745" 
d="M366 737q64 0 97 -55q18 -30 18 -68q0 -63 -51 -96q-29 -19 -64 -19q-76 0 -110 58q-17 29 -17 65q0 68 58 99q30 16 69 16z" />
    <glyph glyph-name="Epsilontonos" unicode="&#x388;" horiz-adv-x="1550" 
d="M585 177v918q0 110 -187 110q-14 0 -14 35t14 35h901q23 0 31 -18l101 -292q0 -17 -16.5 -34.5t-31.5 -17.5t-89.5 149.5t-283.5 149.5h-224q-41 0 -41 -48v-438q0 -33 28 -33h181q78 0 97.5 29t19.5 88v74q0 13 35 13t35 -13v-497q0 -13 -35 -13t-35 13v142
q0 43 -19.5 69t-97.5 26h-184q-25 0 -25 -31v-331q0 -113 65 -168q38 -32 91 -32h287q158 0 267 278q5 14 38 14t33 -19l-85 -315q-5 -20 -34 -20h-1009q-14 0 -14 34t14 35q187 0 187 108zM120 1028q-14 0 -15 21q0 7 2 13l111 480q18 77 48 78q23 0 44.5 -32t21.5 -56
t-36 -132l-76 -230q-46 -142 -100 -142z" />
    <glyph glyph-name="Etatonos" unicode="&#x389;" horiz-adv-x="1820" 
d="M1571 186q0 -117 180 -117q13 0 13 -34.5t-13 -34.5h-518q-13 0 -13 34t13 35q178 0 178 117v365q0 38 -39 38h-574q-39 0 -39 -38v-365q0 -117 180 -117q13 0 13 -34.5t-13 -34.5h-518q-13 0 -13 34t13 35q178 0 178 117v903q0 115 -189 115q-14 0 -14 35.5t14 35.5h529
q13 0 13 -35.5t-13 -35.5q-180 0 -180 -115v-377q0 -39 39 -39h574q39 0 39 39v377q0 115 -189 115q-14 0 -14 35.5t14 35.5h529q13 0 13 -35.5t-13 -35.5q-180 0 -180 -115v-903zM120 1028q-14 0 -15 21q0 7 2 13l111 480q18 77 48 78q23 0 44.5 -32t21.5 -56t-36 -132
l-76 -230q-46 -142 -100 -142z" />
    <glyph glyph-name="Iotatonos" unicode="&#x38a;" horiz-adv-x="999" 
d="M587 186v903q0 115 -189 115q-14 0 -14 35.5t14 35.5h529q13 0 13 -35.5t-13 -35.5q-180 0 -180 -115v-903q0 -117 180 -117q13 0 13 -34.5t-13 -34.5h-518q-13 0 -13 34.5t13 34.5q178 0 178 117zM120 1028q-14 0 -15 21q0 7 2 13l111 480q18 77 48 78q23 0 44.5 -32
t21.5 -56t-36 -132l-76 -230q-46 -142 -100 -142z" />
    <glyph glyph-name="Omicrontonos" unicode="&#x38c;" horiz-adv-x="1673" 
d="M304 622q0 223 176 448t473 225q266 0 454.5 -205.5t188.5 -471.5q0 -256 -174 -450.5t-474 -194.5q-290 0 -467 182.5t-177 466.5zM495 681q0 -310 150 -471.5t317 -161.5q212 0 327.5 150.5t115.5 403.5q0 239 -145.5 430.5t-319.5 191.5q-210 0 -327.5 -178.5
t-117.5 -364.5zM120 1028q-14 0 -15 21q0 7 2 13l111 480q18 77 48 78q23 0 44.5 -32t21.5 -56t-36 -132l-76 -230q-46 -142 -100 -142z" />
    <glyph glyph-name="Upsilontonos" unicode="&#x38e;" horiz-adv-x="1581" 
d="M346 1084q0 48 110 129.5t178 81.5q98 0 174 -76.5t123 -218.5q5 -15 19 -15t20 15q63 162 126.5 228.5t170.5 66.5q68 0 178.5 -81.5t110.5 -129.5q0 -24 -24 -24q-35 0 -106.5 41t-170.5 41q-102 0 -163.5 -63.5t-61.5 -194.5v-698q0 -117 180 -117q13 0 13 -34.5
t-13 -34.5h-518q-13 0 -13 34.5t13 34.5q178 0 178 117v698q0 131 -60 194.5t-152 63.5q-110 0 -182 -41t-106 -41q-24 0 -24 24zM102 1028q-14 0 -14 21q0 7 1 13l112 480q18 77 47 78q23 0 44.5 -32t21.5 -56t-36 -132l-76 -230q-47 -142 -100 -142z" />
    <glyph glyph-name="Omegatonos" unicode="&#x38f;" horiz-adv-x="1735" 
d="M1571 825q0 -124 -68.5 -288t-138.5 -269.5t-145 -205.5l148 7q63 5 120 20t78.5 51t21.5 110q0 17 37.5 17t37.5 -17v-227q0 -29 -23 -29q-154 6 -247 6h-288q-15 0 -15 22t19 35q74 111 168 281t94 372q0 230 -125.5 367t-301.5 137t-302 -137t-126 -367
q0 -202 94 -372t168 -281q19 -13 19 -35t-15 -22h-288q-93 0 -247 -6q-23 0 -23 29v227q0 17 37.5 17t37.5 -17q0 -74 21.5 -108t78.5 -51t120 -22l148 -7q-75 100 -145 205.5t-138.5 269.5t-68.5 288q0 185 181 332.5t452 147.5t447.5 -147.5t176.5 -332.5zM120 1028
q-14 0 -15 21q0 7 2 13l111 480q18 77 48 78q23 0 44.5 -32t21.5 -56t-36 -132l-76 -230q-46 -142 -100 -142z" />
    <glyph glyph-name="iotadieresistonos" unicode="&#x390;" horiz-adv-x="445" 
d="M40 105q0 48 24 132l168 588q13 45 76 45q45 0 61 -19.5t16 -58.5q0 -50 -99 -249t-111 -293q29 12 75 12q36 0 57 -29t21 -61q0 -74 -50 -137.5t-119 -63.5q-55 0 -87 31.5t-32 102.5zM215 1156q0 -45 -31.5 -76.5t-76.5 -31.5t-76.5 31.5t-31.5 76.5t31.5 76.5
t76.5 31.5t76.5 -31.5t31.5 -76.5zM681 1156q0 -45 -31.5 -76.5t-76.5 -31.5t-76.5 31.5t-31.5 76.5t31.5 76.5t76.5 31.5t76.5 -31.5t31.5 -76.5zM311 1148q-14 0 -14 20q0 6 1 13l76 361q16 77 47 78q23 0 44.5 -32t21.5 -61t-36 -127l-40 -110q-52 -142 -100 -142z" />
    <glyph glyph-name="Alpha" unicode="&#x391;" horiz-adv-x="1398" 
d="M1176 186q39 -117 192 -117q13 0 13 -34.5t-13 -34.5h-461q-14 0 -14 34.5t14 34.5q99 0 99 68q0 23 -8 49l-97 278q-9 31 -44 31h-414q-27 0 -40 -35l-109 -278q-9 -22 -9 -40q0 -73 150 -73q14 0 14 -34.5t-14 -34.5h-425q-14 0 -14 34.5t14 34.5q97 0 129 28t66 104
l377 915q6 17 6 30t-13 26.5t-13 19.5t39.5 27.5t92.5 58.5t65 37q23 0 35 -44q26 -97 49 -166zM834 564q25 0 25 16q0 5 -2 11l-172 496q-6 20 -18 20t-19 -20l-194 -496q-2 -5 -2 -11q0 -16 24 -16h358z" />
    <glyph glyph-name="Beta" unicode="&#x392;" horiz-adv-x="1270" 
d="M271 186v909q0 110 -189 110q-14 0 -14 35t14 35h557q173 0 295 -78t122 -229q0 -174 -196 -265q-15 -7 -15 -13.5t15 -11.5q108 -35 198.5 -126.5t90.5 -234.5q0 -122 -99.5 -219.5t-410.5 -97.5h-548q-13 0 -13 34.5t13 34.5q180 0 180 117zM431 745q0 -36 79 -36
q374 0 374 256q0 255 -401 255q-52 0 -52 -67v-408zM431 277q0 -220 194 -220q343 0 343 293q0 129 -102.5 213.5t-399.5 85.5q-35 0 -35 -30v-342z" />
    <glyph glyph-name="Gamma" unicode="&#x393;" horiz-adv-x="1310" 
d="M826 1212q209 0 283.5 -149.5t89.5 -149.5t31.5 17.5t16.5 34.5l-101 292q-8 18 -31 18h-1031q-14 0 -14 -35t14 -35q187 0 187 -110v-918q0 -108 -187 -108q-14 0 -14 -34.5t14 -34.5h527q13 0 13 34.5t-13 34.5q-180 0 -180 108v987q0 48 41 48h354z" />
    <glyph glyph-name="uni0394" unicode="&#x394;" horiz-adv-x="1338" 
d="M119 0q-65 0 -65 44q0 15 8 36l565 1210q9 23 66 23t65 -23l519 -1211q7 -20 7 -35q0 -45 -59 -45zM235 227q0 -62 155 -62l549 -1q98 0 98 68q0 24 -8 49l-367 804q-6 20 -18 20t-19 -20l-377 -807q-13 -31 -13 -51z" />
    <glyph glyph-name="Epsilon" unicode="&#x395;" horiz-adv-x="1241" 
d="M271 177v918q0 110 -187 110q-14 0 -14 35t14 35h901q23 0 31 -18l101 -292q0 -17 -16.5 -34.5t-31.5 -17.5t-89.5 149.5t-283.5 149.5h-224q-41 0 -41 -48v-438q0 -33 28 -33h181q78 0 97.5 29t19.5 88v74q0 13 35 13t35 -13v-497q0 -13 -35 -13t-35 13v142
q0 43 -19.5 69t-97.5 26h-184q-25 0 -25 -31v-331q0 -113 65 -168q38 -32 91 -32h287q158 0 267 278q5 14 38 14t33 -19l-85 -315q-5 -20 -34 -20h-1009q-14 0 -14 34t14 35q187 0 187 108z" />
    <glyph glyph-name="Zeta" unicode="&#x396;" horiz-adv-x="1208" 
d="M83 24q0 13 10 27l764 1117q9 12 9 21q0 20 -31 20h-394q-55 0 -124 -60.5t-101.5 -123t-51.5 -129.5q-2 -7 -24 -7t-25 14q33 213 33 363q0 18 37 18q97 -9 147 -9h749q25 0 25 -14t-14 -32l-752 -1111q-9 -12 -9 -24q0 -25 30 -25q250 0 455 13q80 5 169.5 121
t97.5 149q3 7 11 7t23.5 -6.5t15.5 -16.5q-48 -236 -48 -353q0 -13 -15 -16q-35 10 -55 12q-187 21 -532 21h-365q-35 0 -35 24z" />
    <glyph glyph-name="Eta" unicode="&#x397;" horiz-adv-x="1492" 
d="M1243 186q0 -117 180 -117q13 0 13 -34.5t-13 -34.5h-518q-13 0 -13 34t13 35q178 0 178 117v365q0 38 -39 38h-574q-39 0 -39 -38v-365q0 -117 180 -117q13 0 13 -34.5t-13 -34.5h-518q-13 0 -13 34t13 35q178 0 178 117v903q0 115 -189 115q-14 0 -14 35.5t14 35.5h529
q13 0 13 -35.5t-13 -35.5q-180 0 -180 -115v-377q0 -39 39 -39h574q39 0 39 39v377q0 115 -189 115q-14 0 -14 35.5t14 35.5h529q13 0 13 -35.5t-13 -35.5q-180 0 -180 -115v-903z" />
    <glyph glyph-name="Theta" unicode="&#x398;" horiz-adv-x="1461" 
d="M91 622q0 223 176 448t473 225q266 0 454.5 -205.5t188.5 -471.5q0 -256 -174 -450.5t-474 -194.5q-290 0 -467 182.5t-177 466.5zM282 681q0 -310 150 -471.5t317 -161.5q212 0 327.5 150.5t115.5 403.5q0 239 -145.5 430.5t-319.5 191.5q-210 0 -327.5 -178.5
t-117.5 -364.5zM609 570q-117 0 -144 -115q-3 -12 -39.5 -12t-36.5 8.5t11.5 41.5t42.5 164t31 173q0 13 38 13t38 -9t-2.5 -20.5t-2.5 -33t19 -44t76 -22.5l202 1q117 1 144 115q3 12 39.5 12t36.5 -8.5t-11.5 -43.5t-42.5 -163.5t-31 -171.5q0 -13 -38 -13t-38 9.5t2.5 23
t2.5 32t-19.5 41t-75.5 22.5h-202z" />
    <glyph glyph-name="Iota" unicode="&#x399;" horiz-adv-x="683" 
d="M271 186v903q0 115 -189 115q-14 0 -14 35.5t14 35.5h529q13 0 13 -35.5t-13 -35.5q-180 0 -180 -115v-903q0 -117 180 -117q13 0 13 -34.5t-13 -34.5h-518q-13 0 -13 34.5t13 34.5q178 0 178 117z" />
    <glyph glyph-name="Kappa" unicode="&#x39a;" horiz-adv-x="1367" 
d="M271 186v903q0 115 -189 115q-14 0 -14 35.5t14 35.5h537q13 0 13 -35.5t-13 -35.5q-188 0 -188 -115v-374q0 -23 13 -23q29 0 68 41t51 57l273 302q40 52 40 78q0 34 -65 34q-13 0 -13 35.5t13 35.5h363q14 0 14 -35.5t-14 -35.5q-85 0 -137 -34t-67 -52l-338 -370
q-5 -6 -5 -15t5 -15l458 -545q84 -104 246 -104q14 0 14 -34.5t-14 -34.5h-536q-14 0 -14 34t14 35q96 0 96 59q0 24 -25 58l-269 333q-53 67 -94.5 86.5t-59.5 19.5q-17 0 -17 -22v-417q0 -117 180 -117q13 0 13 -34.5t-13 -34.5h-520q-13 0 -13 34t13 35q180 0 180 117z
" />
    <glyph glyph-name="Lambda" unicode="&#x39b;" horiz-adv-x="1308" 
d="M637 1037q-6 20 -18.5 20t-18.5 -20l-296 -855q-9 -26 -9 -40q0 -73 150 -73q14 0 14 -34.5t-14 -34.5h-425q-14 0 -14 34.5t14 34.5q97 0 129 28t66 104l377 1083q11 30 72 30t69 -28l353 -1100q39 -117 192 -117q13 0 13 -34.5t-13 -34.5h-461q-14 0 -14 34.5t14 34.5
q99 0 99 68q0 24 -8 49z" />
    <glyph glyph-name="Mu" unicode="&#x39c;" horiz-adv-x="1770" 
d="M229 186l39 861q1 11 1 26t-9.5 47t-52 58t-129.5 26q-13 0 -13 35.5t13 35.5h164q120 0 146 -15.5t46 -57.5l462 -925q13 -27 22 -27t23 29l425 929q22 46 56 56.5t132 10.5h146q14 0 14 -35.5t-14 -35.5q-85 0 -124.5 -27t-51.5 -63.5t-12 -90.5l7 -837
q1 -117 159 -117q14 0 14 -34.5t-14 -34.5h-468q-14 0 -14 34.5t14 34.5q149 0 149 117l-4 770q0 13 -9 13t-14 -12l-446 -963q-8 -17 -22 -17t-22 17l-461 979q-10 22 -23.5 22t-14.5 -21l-32 -788v-18q0 -12 9.5 -38t48.5 -43.5t100 -17.5q14 0 14 -34.5t-14 -34.5h-397
q-13 0 -13 34.5t13 34.5q150 0 157 117z" />
    <glyph glyph-name="Nu" unicode="&#x39d;" horiz-adv-x="1482" 
d="M257 186v841q0 101 -45.5 139t-142.5 38q-13 0 -13 35.5t13 35.5h154q110 0 142 -7.5t59 -41.5l778 -894q10 -13 28.5 -13t18.5 33v736q0 116 -171 116q-14 0 -14 35.5t14 35.5h375q13 0 13 -35.5t-13 -35.5q-136 0 -136 -116v-1084q0 -25 -17.5 -25t-41.5 30l-868 990
q-11 12 -22 12q-10 0 -10 -19v-806q0 -117 159 -117q13 0 13 -34.5t-13 -34.5h-427q-14 0 -14 34.5t14 34.5q167 0 167 117z" />
    <glyph glyph-name="Xi" unicode="&#x39e;" horiz-adv-x="1310" 
d="M226 1018q-89 0 -144 -116q-3 -12 -39.5 -12t-36.5 9t28 68t58.5 146t44.5 185q0 12 38 12t38 -8q0 -10 -2.5 -21t-2.5 -33t19 -44t76 -22h657q117 2 144 116q3 12 39.5 12t36.5 -9t-12 -44t-45.5 -173t-33.5 -182q0 -12 -38 -12t-38 9t2.5 23t2.5 32t-19.5 41t-75.5 23
h-697zM300 14q-87 0 -144 -116q-3 -12 -39.5 -12t-36.5 9t31 64t65.5 174t34.5 161q0 12 38 12t38 -8q0 -10 -2.5 -21t-2.5 -33t19 -44t76 -22h687q117 2 144 116q3 12 39.5 12t36.5 -9t-12 -44t-45.5 -173t-33.5 -182q0 -12 -38 -12t-38 9t2.5 23t2.5 32t-19.5 41t-75.5 23
h-727zM462 499q-87 0 -144 -115q-3 -12 -39.5 -12t-36.5 8.5t18.5 44t65.5 174t47 180.5q0 13 38 13t38 -9t-2.5 -20.5t-2.5 -33t19 -44t76 -22.5l290 1q117 1 144 115q3 12 39.5 12t36.5 -8.5t-11.5 -43.5t-45.5 -173.5t-34 -181.5q0 -13 -38 -13t-38 9.5t2.5 23t2.5 32
t-19.5 41t-75.5 22.5h-330z" />
    <glyph glyph-name="Omicron" unicode="&#x39f;" horiz-adv-x="1461" 
d="M91 622q0 223 176 448t473 225q266 0 454.5 -205.5t188.5 -471.5q0 -256 -174 -450.5t-474 -194.5q-290 0 -467 182.5t-177 466.5zM282 681q0 -310 150 -471.5t317 -161.5q212 0 327.5 150.5t115.5 403.5q0 239 -145.5 430.5t-319.5 191.5q-210 0 -327.5 -178.5
t-117.5 -364.5z" />
    <glyph glyph-name="Pi" unicode="&#x3a0;" horiz-adv-x="1520" 
d="M1265 186q0 -117 181 -117q15 0 15 -34.5t-15 -34.5h-518q-14 0 -14 34.5t14 34.5q177 0 177 117v903q0 75 -46 95t-143 20h-305q-109 0 -144.5 -24.5t-35.5 -90.5v-903q0 -117 180 -117q14 0 14 -34.5t-14 -34.5h-518q-13 0 -13 34.5t13 34.5q178 0 178 117v903
q0 74 -47.5 94.5t-141.5 20.5q-13 0 -13 35.5t13 35.5h1364q15 0 15 -35.5t-15 -35.5q-111 0 -146 -28t-35 -87v-903z" />
    <glyph glyph-name="Rho" unicode="&#x3a1;" horiz-adv-x="1148" 
d="M271 186v908q0 115 -189 115q-13 0 -13 33t13 33h562q202 0 329 -104t127 -284q0 -150 -123 -244.5t-339 -94.5q-120 0 -145.5 3t-32.5 3t-18 -4t-11 -29v-335q0 -117 186 -117q13 0 13 -34.5t-13 -34.5h-524q-13 0 -13 34t13 35q178 0 178 117zM431 659
q0 -34 43.5 -41.5t101.5 -7.5q352 0 352 281q0 129 -95 225.5t-266 96.5h-89q-47 0 -47 -31v-523z" />
    <glyph glyph-name="Sigma" unicode="&#x3a3;" horiz-adv-x="1322" 
d="M425 160q-28 0 -28 13.5t22 25.5l577 356q24 14 24 43t-24 45l-644 425q-24 16 -24 33t47 17h661q88 0 144 -116q3 -12 39.5 -12t36.5 9t-28 68t-59 127.5t-44 166.5q0 12 -38 12t-38 -8q0 -10 8.5 -38.5t8.5 -82.5t-77 -54h-918q-40 0 -40 -31t23 -46l776 -532
q26 -17 26 -32.5t-10 -21.5l-781 -474q-17 -12 -17 -32.5t36 -20.5h950q67 0 67 -60t-3.5 -80t-3.5 -29t38 -9t38 12q0 44 34 182t46 173t12 44t-37 9t-39 -12q-16 -68 -103 -70h-658z" />
    <glyph glyph-name="Tau" unicode="&#x3a4;" horiz-adv-x="1443" 
d="M654 186v969q0 46 -48 46h-252q-70 0 -103.5 -17t-126.5 -203q-6 -14 -50 -14t-44 14q27 122 35.5 231.5t50 109.5t80 -20t93 -25t180.5 -5h648q101 2 145 22.5t78 20.5t42 -71l23 -239q0 -14 -44.5 -14t-44.5 14q-14 196 -259 196h-192q-51 0 -51 -46v-969
q0 -117 169 -117q14 0 14 -34.5t-14 -34.5h-536q-14 0 -14 34.5t14 34.5q207 0 207 117z" />
    <glyph glyph-name="Upsilon" unicode="&#x3a5;" horiz-adv-x="1282" 
d="M46 1084q0 48 110 129.5t178 81.5q98 0 174 -76.5t123 -218.5q5 -15 19 -15t20 15q63 162 126.5 228.5t170.5 66.5q68 0 178.5 -81.5t110.5 -129.5q0 -24 -24 -24q-35 0 -106.5 41t-170.5 41q-102 0 -163.5 -63.5t-61.5 -194.5v-698q0 -117 180 -117q13 0 13 -34.5
t-13 -34.5h-518q-13 0 -13 34.5t13 34.5q178 0 178 117v698q0 131 -60 194.5t-152 63.5q-110 0 -182 -41t-106 -41q-24 0 -24 24z" />
    <glyph glyph-name="Phi" unicode="&#x3a6;" horiz-adv-x="1529" 
d="M71 632q0 183 169.5 320t465.5 137q0 115 -189 115q-13 0 -13 35.5t13 35.5h529q13 0 13 -35.5t-13 -35.5q-108 0 -143 -23q-37 -26 -37 -92q303 -18 450 -140.5t147 -319.5q0 -175 -134 -310.5t-463 -149.5q0 -100 180 -100q13 0 13 -34.5t-13 -34.5h-518q-14 0 -14 34
t14 35q178 0 178 98q-221 10 -349.5 64t-207 150t-78.5 251zM866 243q209 14 307.5 141.5t98.5 235.5q0 126 -129.5 255.5t-276.5 142.5v-775zM282 667q0 -146 119.5 -285t304.5 -139v778q-179 -11 -256.5 -68.5t-122.5 -128t-45 -157.5z" />
    <glyph glyph-name="Chi" unicode="&#x3a7;" horiz-adv-x="1357" 
d="M223 1096q-45 67 -93 87t-131 21q-13 0 -13 35.5t13 35.5h557q14 0 14 -35.5t-14 -35.5q-149 0 -149 -57q0 -25 22 -59l226 -303q11 -16 22 -16t23 16l225 295q38 50 38 78q0 46 -87 46q-14 0 -14 35.5t14 35.5h399q13 0 13 -35.5t-13 -35.5q-117 0 -171 -41t-141 -154
l-217 -286q-11 -14 -11 -28t9 -28l356 -481q89 -117 227 -117q13 0 13 -34.5t-13 -34.5h-513q-14 0 -14 34.5t14 34.5q114 0 114 53q0 26 -29 69l-256 343q-11 17 -20.5 17t-21.5 -17l-179 -233q-98 -129 -98 -180.5t120 -51.5q14 0 14 -34.5t-14 -34.5h-453q-13 0 -13 34.5
t13 34.5q161 0 226 86l342 446q8 11 8 21.5t-12 28.5z" />
    <glyph glyph-name="Psi" unicode="&#x3a8;" horiz-adv-x="1574" 
d="M978 0h-518q-13 0 -13 34.5t13 34.5q178 0 178 117v216q-116 0 -182 17t-150.5 64t-119 121.5t-34.5 202.5v320q0 43 -30.5 70t-56.5 27t-40 -5t-22 -5t-15 17t-7 31t12 19q45 18 102 18q96 0 156.5 -48t60.5 -146v-298q0 -139 99.5 -223t226.5 -100v605q0 115 -189 115
q-14 0 -14 35.5t14 35.5h529q13 0 13 -35.5t-13 -35.5q-180 0 -180 -115v-605q160 16 254 94t94 229v298q0 98 59.5 146t153.5 48q58 0 102 -18q11 -5 11 -22.5t-6.5 -31t-14 -13.5t-19.5 5t-41 5t-59 -28t-30 -69v-320q0 -123 -48.5 -199t-99.5 -109.5t-136.5 -65
t-219.5 -31.5v-216q0 -117 180 -117q13 0 13 -34.5t-13 -34.5z" />
    <glyph glyph-name="uni03A9" unicode="&#x3a9;" horiz-adv-x="1585" 
d="M1421 825q0 -124 -68.5 -288t-138.5 -269.5t-145 -205.5l148 7q63 5 120 20t78.5 51t21.5 110q0 17 37.5 17t37.5 -17v-227q0 -29 -23 -29q-154 6 -247 6h-288q-15 0 -15 22t19 35q74 111 168 281t94 372q0 230 -125.5 367t-301.5 137t-302 -137t-126 -367
q0 -202 94 -372t168 -281q19 -13 19 -35t-15 -22h-288q-93 0 -247 -6q-23 0 -23 29v227q0 17 37.5 17t37.5 -17q0 -74 21.5 -108t78.5 -51t120 -22l148 -7q-75 100 -145 205.5t-138.5 269.5t-68.5 288q0 185 181 332.5t452 147.5t447.5 -147.5t176.5 -332.5z" />
    <glyph glyph-name="Iotadieresis" unicode="&#x3aa;" horiz-adv-x="683" 
d="M271 186v903q0 115 -189 115q-14 0 -14 35.5t14 35.5h529q13 0 13 -35.5t-13 -35.5q-180 0 -180 -115v-903q0 -117 180 -117q13 0 13 -34.5t-13 -34.5h-518q-13 0 -13 34.5t13 34.5q178 0 178 117zM236 1658q0 -44 -31.5 -75.5t-75.5 -31.5t-75.5 31.5t-31.5 75.5
t31.5 75t75.5 31t75.5 -31t31.5 -75zM678 1658q0 -44 -31.5 -75.5t-75.5 -31.5t-75.5 31.5t-31.5 75.5t31.5 75t75.5 31t75.5 -31t31.5 -75z" />
    <glyph glyph-name="Upsilondieresis" unicode="&#x3ab;" horiz-adv-x="1282" 
d="M46 1084q0 48 110 129.5t178 81.5q98 0 174 -76.5t123 -218.5q5 -15 19 -15t20 15q63 162 126.5 228.5t170.5 66.5q68 0 178.5 -81.5t110.5 -129.5q0 -24 -24 -24q-35 0 -106.5 41t-170.5 41q-102 0 -163.5 -63.5t-61.5 -194.5v-698q0 -117 180 -117q13 0 13 -34.5
t-13 -34.5h-518q-13 0 -13 34.5t13 34.5q178 0 178 117v698q0 131 -60 194.5t-152 63.5q-110 0 -182 -41t-106 -41q-24 0 -24 24zM538 1658q0 -44 -31 -75.5t-75 -31.5t-75.5 31.5t-31.5 75.5t31.5 75t75.5 31t75 -31t31 -75zM980 1658q0 -44 -31.5 -75.5t-75.5 -31.5
t-75 31.5t-31 75.5t31 75t75 31t75.5 -31t31.5 -75z" />
    <glyph glyph-name="alphatonos" unicode="&#x3ac;" horiz-adv-x="1185" 
d="M80 218q0 123 43 257.5t146.5 262.5t195.5 128q85 0 135 -55.5t67.5 -127.5t19.5 -97q25 45 48 101.5t45.5 96t58.5 71.5t70 32t47.5 -20.5t13.5 -63.5q0 -69 -76 -206.5t-111 -191t-81 -115.5q4 -91 32 -138.5t98 -47.5t149 60t145 153q15 22 28 22t13 -32
q0 -9 -3.5 -46.5t-45 -115.5t-118.5 -123.5t-157.5 -45.5t-139.5 69.5t-59 170.5q-120 -144 -217 -191.5t-154 -47.5q-87 0 -140 50t-53 191zM155 190q0 -35 18 -53.5t44 -18.5q116 0 206.5 86.5t136 156.5t74.5 123q-6 92 -22 149.5t-37 79t-40 21.5q-63 0 -150 -94.5
t-158.5 -235.5t-71.5 -214zM508 1028q-14 0 -14 21q0 7 1 13l112 480q18 77 47 78q23 0 44.5 -32t21.5 -56t-36 -132l-76 -230q-47 -142 -100 -142z" />
    <glyph glyph-name="epsilontonos" unicode="&#x3ad;" horiz-adv-x="612" 
d="M253 -23q-90 0 -146.5 48t-56.5 121t37.5 141.5t80.5 101.5q-22 13 -49.5 59t-27.5 99.5t43.5 126.5t112 134.5t169.5 61.5q50 0 93 -21t43 -59t-47.5 -55.5t-107.5 -17.5q-101 0 -170 -58t-69 -129q0 -40 14.5 -68t36.5 -40q50 34 101.5 69t100.5 35t67 -18.5t18 -45.5
q0 -44 -48.5 -80t-148.5 -36q-42 0 -77 13q-45 -43 -59 -78.5t-14 -63.5q0 -36 24 -60.5t84.5 -24.5t110.5 21t73.5 47t58.5 26q21 0 33 -9.5t12 -27.5q0 -28 -47.5 -88t-110.5 -92t-134 -32zM290 1028q-14 0 -14 21q0 7 2 13l111 480q18 77 47 78q23 0 45 -32t22 -56
t-36 -132l-77 -230q-47 -142 -100 -142z" />
    <glyph glyph-name="etatonos" unicode="&#x3ae;" 
d="M233 606q0 23 -4 55.5t-22 32.5t-31.5 -21.5t-38.5 -21.5q-55 0 -55 71t39.5 126t95 55t80.5 -50.5t25 -112.5t-6.5 -107t-31.5 -163q-1 -7 -1 -14.5t8 -7.5t18 22q87 182 179.5 291t160.5 109q50 0 84.5 -35t34.5 -161t-17 -406t-25 -311q-37 -140 -95 -140
q-26 0 -43.5 43t-17.5 75t21.5 91.5t62.5 233.5t41 302q0 72 -8.5 113t-46.5 41t-145 -157t-186.5 -321t-120.5 -244q-9 -16 -77 -16q-61 0 -61 18q0 5 2 12l99 281q82 225 82 317zM478 1028q-14 0 -14 21q0 7 1 13l112 480q18 77 47 78q23 0 44.5 -32t21.5 -56t-36 -132
l-76 -230q-47 -142 -100 -142z" />
    <glyph glyph-name="iotatonos" unicode="&#x3af;" horiz-adv-x="445" 
d="M40 105q0 48 24 132l168 588q13 45 76 45q45 0 61 -19.5t16 -58.5q0 -50 -99 -249t-111 -293q29 12 75 12q36 0 57 -29t21 -61q0 -74 -50 -137.5t-119 -63.5q-55 0 -87 31.5t-32 102.5zM285 1028q-14 0 -14 21q0 7 1 13l112 480q18 77 47 78q23 0 44.5 -32t21.5 -56
t-36 -132l-76 -230q-47 -142 -100 -142z" />
    <glyph glyph-name="upsilondieresistonos" unicode="&#x3b0;" horiz-adv-x="837" 
d="M124 154q0 80 37.5 219.5t44.5 218.5q-34 -12 -68 -12q-44 0 -64 30.5t-20 59.5q0 73 32 119.5t64 63.5t88 18q26 0 50 -16.5t24 -64.5q0 -80 -37 -223.5t-37 -250.5q0 -84 20.5 -128t67.5 -44q86 0 162 79.5t129 226t53 272.5q0 144 16 144q38 0 60 -78t22 -170
q0 -157 -43 -288.5t-149 -243.5t-284 -112q-70 0 -119 45t-49 135zM359 1156q0 -45 -31.5 -76.5t-76.5 -31.5t-76.5 31.5t-31.5 76.5t31.5 76.5t76.5 31.5t76.5 -31.5t31.5 -76.5zM825 1156q0 -45 -31.5 -76.5t-76.5 -31.5t-76.5 31.5t-31.5 76.5t31.5 76.5t76.5 31.5
t76.5 -31.5t31.5 -76.5zM455 1148q-14 0 -14 20q0 6 1 13l76 361q16 77 47 78q23 0 44.5 -32t21.5 -61t-36 -127l-40 -110q-52 -142 -100 -142z" />
    <glyph glyph-name="alpha" unicode="&#x3b1;" horiz-adv-x="1185" 
d="M80 218q0 123 43 257.5t146.5 262.5t195.5 128q85 0 135 -55.5t67.5 -127.5t19.5 -97q25 45 48 101.5t45.5 96t58.5 71.5t70 32t47.5 -20.5t13.5 -63.5q0 -69 -76 -206.5t-111 -191t-81 -115.5q4 -91 32 -138.5t98 -47.5t149 60t145 153q15 22 28 22t13 -32
q0 -9 -3.5 -46.5t-45 -115.5t-118.5 -123.5t-157.5 -45.5t-139.5 69.5t-59 170.5q-120 -144 -217 -191.5t-154 -47.5q-87 0 -140 50t-53 191zM155 190q0 -35 18 -53.5t44 -18.5q116 0 206.5 86.5t136 156.5t74.5 123q-6 92 -22 149.5t-37 79t-40 21.5q-63 0 -150 -94.5
t-158.5 -235.5t-71.5 -214z" />
    <glyph glyph-name="beta" unicode="&#x3b2;" horiz-adv-x="1215" 
d="M0 -315q110 638 194 979t211 512.5t293 171.5q114 0 198.5 -86.5t84.5 -206.5q0 -101 -18.5 -156.5t-44 -113.5t-47.5 -104q86 -16 180.5 -93.5t94.5 -195.5q0 -156 -120.5 -285.5t-370.5 -129.5q-178 0 -272.5 83t-117 126t-38.5 43t-29 -65t-44.5 -238t-41.5 -248
q-3 -21 -57.5 -21t-54.5 28zM243 384q23 -64 108.5 -159t298.5 -95q180 0 275 95t95 197q0 76 -31 118t-131 42q-19 0 -40 -7q-7 -19 -59 -92.5t-86 -73.5t-43.5 32.5t-9.5 68.5t26.5 77t61 69t83.5 32q23 41 44 92t30 103.5t9 102.5q0 78 -50 158t-136 80
q-108 0 -213.5 -168t-160.5 -372.5t-71 -299.5z" />
    <glyph glyph-name="gamma" unicode="&#x3b3;" horiz-adv-x="1236" 
d="M1204 753q-81 -142 -273 -407t-321 -392q-27 -160 -117.5 -279t-215.5 -119q-110 0 -110 87q0 57 51 128t165.5 173t172.5 174q30 85 30 242.5t-51 251t-181 93.5q-101 0 -155.5 -98.5t-54.5 -157.5t1.5 -77t1.5 -33t-12.5 -37.5t-41.5 -23.5q-26 0 -41 61
q-12 53 -12 150q0 177 111 279t240 102q99 0 152.5 -65t86 -165t32.5 -200.5t-13 -232.5q124 127 235 259.5t221 278.5q38 48 72.5 48t34.5 -13t-8 -27z" />
    <glyph glyph-name="delta" unicode="&#x3b4;" horiz-adv-x="677" 
d="M84 220q0 153 103 297.5t233 144.5q64 0 64 11t-9 32q-37 79 -136 233.5t-171 243.5t-84 105.5t-12 39.5t9 54t42 60t63.5 29t91.5 -42t160 -125.5t165.5 -163.5t91 -119.5t24.5 -52.5t-24.5 -27.5t-40 -14.5t-26.5 17t-62 81t-118.5 125t-107.5 90t-52 29t-23 -10.5
t-11 -23t33 -49t128 -187.5t153 -283t58 -312q0 -96 -45 -193.5t-132.5 -164t-172 -66.5t-138.5 61t-54 181zM185 136q0 -50 40 -50q55 0 143 86t123 198.5t35 155t-41 42.5t-121 -83.5t-129.5 -182t-49.5 -166.5z" />
    <glyph glyph-name="epsilon" unicode="&#x3b5;" horiz-adv-x="612" 
d="M253 -23q-90 0 -146.5 48t-56.5 121t37.5 141.5t80.5 101.5q-22 13 -49.5 59t-27.5 99.5t43.5 126.5t112 134.5t169.5 61.5q50 0 93 -21t43 -59t-47.5 -55.5t-107.5 -17.5q-101 0 -170 -58t-69 -129q0 -40 14.5 -68t36.5 -40q50 34 101.5 69t100.5 35t67 -18.5t18 -45.5
q0 -44 -48.5 -80t-148.5 -36q-42 0 -77 13q-45 -43 -59 -78.5t-14 -63.5q0 -36 24 -60.5t84.5 -24.5t110.5 21t73.5 47t58.5 26q21 0 33 -9.5t12 -27.5q0 -28 -47.5 -88t-110.5 -92t-134 -32z" />
    <glyph glyph-name="zeta" unicode="&#x3b6;" horiz-adv-x="644" 
d="M80 233q0 134 38.5 253t127 258.5t169 243t136.5 177t56 136.5q0 31 -25 56.5t-72 25.5q-44 0 -79 -24.5t-35 -72.5q0 -33 52 -91q5 -6 5 -14.5t-24.5 -25t-37 -16.5t-19.5 6q-56 51 -56 144t59.5 144.5t118.5 51.5q109 0 156.5 -71.5t47.5 -153.5q0 -134 -64 -229
t-199 -272t-210.5 -311t-75.5 -184q0 -106 114.5 -161t234.5 -78.5t164.5 -98t44.5 -148.5q0 -66 -32 -121.5t-83 -92t-98.5 -36.5t-84.5 28q-7 6 -7 21t9 43q17 52 37 52t54 -11.5t47 -11.5q52 0 52 53.5t-23 100.5t-131.5 74.5t-237.5 114.5t-129 241z" />
    <glyph glyph-name="eta" unicode="&#x3b7;" 
d="M233 606q0 23 -4 55.5t-22 32.5t-31.5 -21.5t-38.5 -21.5q-55 0 -55 71t39.5 126t95 55t80.5 -50.5t25 -112.5t-6.5 -107t-31.5 -163q-1 -7 -1 -14q0 -8 8 -8t18 22q87 182 179.5 291t160.5 109q50 0 84.5 -35t34.5 -161t-17 -406t-25 -311q-37 -140 -95 -140
q-26 0 -43.5 43t-17.5 75t21.5 91.5t62.5 233.5t41 302q0 72 -8.5 113t-46.5 41t-145 -157t-186.5 -321t-120.5 -244q-9 -16 -77 -16q-61 0 -61 18q0 5 2 12l99 281q82 225 82 317z" />
    <glyph glyph-name="theta" unicode="&#x3b8;" horiz-adv-x="877" 
d="M80 321q0 254 69.5 455.5t134.5 333.5t165 252.5t189 120.5q75 0 133 -134.5t58 -310.5q-1 -104 -25 -261.5t-81.5 -328.5t-155 -324t-203.5 -153q-150 0 -217 103t-67 247zM235 399q0 -373 94 -373q95 0 180.5 196.5t125.5 425.5h-373q-27 -147 -27 -249zM285 750h366
q24 186 24 399q0 220 -83 220t-174 -220.5t-133 -398.5z" />
    <glyph glyph-name="iota" unicode="&#x3b9;" horiz-adv-x="445" 
d="M40 105q0 48 24 132l168 588q13 45 76 45q45 0 61 -19.5t16 -58.5q0 -50 -99 -249t-111 -293q29 12 75 12q36 0 57 -29t21 -61q0 -74 -50 -137.5t-119 -63.5q-55 0 -87 31.5t-32 102.5z" />
    <glyph glyph-name="kappa" unicode="&#x3ba;" horiz-adv-x="962" 
d="M-26 97l97 94q92 90 136.5 174.5t44.5 194.5q0 64 -38.5 86.5t-63 52.5t-24.5 61q0 48 39.5 79t92.5 31t82 -33t29 -95q0 -135 -43 -249q-6 -16 -6 -25.5t8 -9.5q22 0 65 49q32 37 195 156.5t243 149.5q5 2 9 2q13 0 25 -19q10 -15 10 -26q0 -7 -5 -12l-153 -149
q-51 -50 -114 -121t-90.5 -145.5t-27.5 -125.5q0 -112 85.5 -112t169.5 60t149 153q15 22 28 22t13 -30.5t-10.5 -73.5t-51 -109t-107.5 -108t-149 -42t-135 51.5t-53 135.5q0 106 40 197l-382 -374q-4 -4 -10 -4q-20 0 -60 44q-41 44 -41 62q0 5 3 8z" />
    <glyph glyph-name="lambda" unicode="&#x3bb;" horiz-adv-x="917" 
d="M12 -9l505 738q13 20 13 36.5t-8 27.5q-67 110 -139 110q-16 0 -33.5 -12.5t-44.5 -12.5t-41 20t-14 46t21.5 43t66.5 17q89 0 187.5 -96t154.5 -322l73 -295q26 -106 81.5 -152t55.5 -82t-10.5 -58t-36.5 -22q-50 0 -87.5 82t-57.5 166l-84 342q-4 17 -7.5 17t-15.5 -18
l-393 -576q-10 -14 -98 -14t-88 15z" />
    <glyph glyph-name="uni03BC" unicode="&#x3bc;" horiz-adv-x="1200" 
d="M-54 -346q0 128 94 471.5t168 505t101 200.5t66.5 39t58 -15.5t18.5 -62.5q0 -42 -26.5 -103.5t-125 -219t-127.5 -222.5q2 -75 46 -107.5t83 -32.5q121 0 203 82.5t127.5 165.5t133 281t116 216t57.5 18t48.5 -16t19.5 -78q0 -41 -41.5 -119t-134.5 -217.5t-93 -216.5
q0 -118 86 -118t170 60t149 153q15 22 28 22t13 -32q0 -19 -10 -66.5t-49.5 -112.5t-108 -108.5t-148.5 -43.5t-130 55.5t-60 123.5q-4 26 -15.5 26t-29.5 -27q-68 -98 -143 -138t-155 -40q-67 0 -115 29.5t-86 109.5q-6 12 -10 12t-6 -6q-36 -98 -44.5 -152.5t-8.5 -100.5
t16 -119t16 -125.5t-25 -74t-57 -21.5q-40 0 -54.5 40.5t-14.5 84.5z" />
    <glyph glyph-name="nu" unicode="&#x3bd;" horiz-adv-x="653" 
d="M121 32q0 38 10.5 114t10.5 175t-17 163.5t-31 123t-14 116.5q0 70 39.5 109.5t59.5 39.5q86 0 86 -152q0 -73 -22 -236t-28 -190.5t-6 -34.5t6.5 -7t22.5 14q76 65 142.5 152t105 200t38.5 181t25 68q45 0 45 -142t-48.5 -268t-190.5 -302.5t-196 -176.5q-38 0 -38 53z
" />
    <glyph glyph-name="xi" unicode="&#x3be;" horiz-adv-x="717" 
d="M80 222q0 68 31 138t94 166t127 167q-71 31 -114 95t-43 122q0 104 48.5 185t108.5 142q-42 21 -92 72t-50 109.5t26.5 83.5t67.5 25q26 0 47.5 -18t21.5 -40q0 -31 -19 -60t-19 -58.5t30 -40.5t50 -13q85 89 181 142t131 53q55 0 69 -27t14 -57.5t-63 -93.5t-187 -90
q-68 -58 -133 -124t-96.5 -130t-31.5 -108t29 -64.5t95 -20.5q51 57 118 106.5t126 49.5q41 0 59.5 -34.5t18.5 -61.5q0 -38 -58.5 -90t-138.5 -61q-117 -91 -238.5 -245.5t-121.5 -251.5q0 -41 24.5 -73t83.5 -32q35 0 121.5 27.5t164.5 27.5t133 -57.5t55 -130.5
q0 -54 -43 -125t-93 -90.5t-93.5 -19.5t-77.5 26q-6 5 -6 20q1 14 15 46q20 45 40 45q6 0 23.5 -6.5t41.5 -6.5q41 0 71 30q48 48 48 93q0 23 -20 45.5t-77 22.5q-38 0 -123 -23.5t-158.5 -23.5t-145.5 63.5t-72 174.5z" />
    <glyph glyph-name="omicron" unicode="&#x3bf;" horiz-adv-x="742" 
d="M80 242q0 134 68.5 274t181 247.5t178.5 107.5q32 0 50.5 -23t18.5 -68q0 -11 -9 -26q114 -148 114 -364q0 -157 -109 -284.5t-244 -127.5q-118 0 -183.5 65t-65.5 199zM164 204q0 -62 33 -87t69 -25q101 0 179.5 92t98.5 174.5t20 149.5q0 104 -52 183q-25 -23 -59 -50
q-124 -101 -206.5 -229.5t-82.5 -207.5z" />
    <glyph glyph-name="pi" unicode="&#x3c0;" horiz-adv-x="1233" 
d="M124 466q-48 0 -76 36t-28 93t17.5 112t45.5 87t75.5 54.5t149.5 22.5q60 0 276 -9.5t439 -9.5q99 0 114 40q8 22 22.5 36.5t26.5 14.5q26 0 35 -21t9 -58q0 -165 -254 -165l-68 2q-22 0 -35 -20q-53 -84 -71 -182q-31 -183 -31 -249q29 12 75 12q36 0 57 -29t21 -61
q0 -74 -50 -137.5t-112 -63.5t-94 31.5t-32 102.5q0 37 24 132l106 421q3 12 3 21q0 26 -27 26q-57 0 -162 -190l-138 -249q-112 -202 -151 -245.5t-89 -43.5q-21 0 -21 20t60 100.5t155 260.5l134 253q26 50 26 74t-29 25l-178 5q-149 0 -190 -29q-16 -13 -16 -25
t15.5 -32.5t25.5 -53.5t10 -63q0 -46 -70 -46z" />
    <glyph glyph-name="rho" unicode="&#x3c1;" horiz-adv-x="818" 
d="M-340 -599q0 29 21 64.5t75 35.5q31 0 83.5 -66.5t89.5 -66.5q54 0 87.5 100t45 454t42 525.5t136.5 297t268 125.5q116 0 183.5 -80t67.5 -185q0 -174 -110.5 -304t-253.5 -130q-112 0 -187 67q-14 -168 -38.5 -483t-90.5 -409.5t-179 -94.5q-122 0 -181 51t-59 99z
M213 298q47 -24 98 -24q109 0 221 145t112 261q0 31 -12 52t-48 21q-88 0 -185.5 -80.5t-139.5 -191.5t-46 -183z" />
    <glyph glyph-name="sigma1" unicode="&#x3c2;" horiz-adv-x="577" 
d="M62 390q0 104 75 221.5t166.5 185.5t184.5 68h129q40 0 54 -49.5t14 -65.5q0 -39 -38 -39q-210 0 -298 -63t-143 -155t-55 -202q0 -71 61 -71q47 0 94.5 23t93.5 23q56 0 89 -38.5t33 -93.5q0 -91 -54.5 -194t-136 -141t-133.5 -38t-82 23.5t-30 64t58 56.5t123.5 19
t100 26t34.5 64t-15.5 70t-50 29t-66 -11t-73.5 -11t-72 37.5t-46.5 85.5t-16.5 176z" />
    <glyph glyph-name="sigma" unicode="&#x3c3;" horiz-adv-x="922" 
d="M42 333q0 123 49 243t145 198t309 78h227q100 0 116 40q8 21 22 36t26 15q25 0 34.5 -21t9.5 -58q0 -165 -254 -165h-153q51 -71 73.5 -163t22.5 -171q0 -146 -80.5 -267t-260.5 -121q-128 0 -207 98.5t-79 257.5zM156 296q0 -78 42.5 -136t115 -58t117.5 34t83 109
t38 209q0 126 -82 238q-124 -12 -188 -79t-95 -141t-31 -176z" />
    <glyph glyph-name="tau" unicode="&#x3c4;" horiz-adv-x="1014" 
d="M342 105q0 72 24 132l169 426q8 19 8 30q0 17 -17 17q-10 0 -91.5 3t-98.5 3q-116 0 -153 -30q-16 -13 -16 -25t15.5 -32.5t25.5 -53.5t10 -63q0 -46 -70 -46q-48 0 -76 36t-28 93t17.5 112t45.5 87q29 32 81 56q44 20 139 21q75 -1 240 -10t236 -9q99 0 114 40
q8 22 22.5 36.5t26.5 14.5q26 0 35 -21t9 -58q0 -166 -224 -166q-14 0 -38.5 1.5t-34.5 1.5q-27 0 -39 -21l-56 -105q-105 -197 -141 -325q29 12 75 12q36 0 57 -29t21 -61q0 -74 -50 -137.5t-119 -63.5q-55 0 -87 31.5t-32 102.5z" />
    <glyph glyph-name="upsilon" unicode="&#x3c5;" horiz-adv-x="837" 
d="M124 154q0 80 37.5 219.5t44.5 218.5q-34 -12 -68 -12q-44 0 -64 30.5t-20 59.5q0 73 32 119.5t64 63.5t88 18q26 0 50 -16.5t24 -64.5q0 -80 -37 -223.5t-37 -250.5q0 -84 20.5 -128t67.5 -44q86 0 162 79.5t129 226t53 272.5q0 144 16 144q38 0 60 -78t22 -170
q0 -157 -43 -288.5t-149 -243.5t-284 -112q-70 0 -119 45t-49 135z" />
    <glyph glyph-name="phi" unicode="&#x3c6;" horiz-adv-x="1166" 
d="M80 383q0 198 94 370t241.5 273.5t296.5 101.5q108 0 108 -86q146 -23 204 -124t58 -256q0 -162 -57 -299t-190.5 -265.5t-357.5 -162.5q-11 -111 -11 -278.5t2 -208.5q0 -26 -66 -26t-67 29q-1 95 -1 224t19 269q-89 29 -181 139.5t-92 299.5zM613 880q-27 3 -52 3
q-171 0 -286.5 -147.5t-115.5 -305.5q0 -139 77 -208t149 -73q32 155 55 244t64 224t109 263zM497 137q283 17 377 133.5t94 332.5q0 93 -32 164.5t-107 71.5q-104 0 -184 -159.5t-108 -279.5t-40 -263z" />
    <glyph glyph-name="chi" unicode="&#x3c7;" horiz-adv-x="989" 
d="M505 -82l-26 165l-455 -538q-9 -11 -23 -11q-23 0 -61 34t-38 58q0 9 6 16l543 645l-23 152q-26 172 -55 234t-95 62q-28 0 -54 -24.5t-55 -24.5q-34 0 -61.5 20.5t-27.5 58.5t30 74t112 36q124 0 191 -80.5t89 -230.5l28 -189l381 451q6 7 15 7q21 -1 62.5 -37.5
t41.5 -56.5q0 -6 -4 -10l-467 -553l26 -181q28 -192 84 -255.5t108 -63.5q123 0 215 103t117 103q32 0 32 -32q0 -102 -46 -174t-121 -110t-159 -38q-132 0 -202.5 78.5t-107.5 311.5z" />
    <glyph glyph-name="psi" unicode="&#x3c8;" horiz-adv-x="1145" 
d="M624 -389q0 146 3 366q-197 23 -290 157t-107 266.5t-43 132.5q-15 0 -35.5 -21.5t-52.5 -21.5q-30 0 -52.5 25t-22.5 65q0 50 42 83.5t100 33.5q86 0 143 -195.5t145 -281.5t175 -103q0 195 8 658t26.5 586t67.5 123q81 0 81 -233q0 -147 -52 -544.5t-52 -589.5
q99 6 170.5 56.5t159.5 154.5q10 12 27 12q14 0 14 -26t-9 -44q-45 -87 -142 -178.5t-218 -110.5q5 -245 23 -380q0 -33 -54.5 -33t-54.5 43z" />
    <glyph glyph-name="omega" unicode="&#x3c9;" horiz-adv-x="1194" 
d="M80 226q0 143 68 294.5t153.5 250.5t155.5 99q55 0 83 -20.5t28 -52.5t-75.5 -87.5t-152 -139.5t-134 -187t-57.5 -178q0 -41 25.5 -69t85.5 -28q90 0 158 82t113.5 196.5t57.5 149.5q22 71 85 71q15 0 39 -5.5t44 -20.5t20 -42q0 -12 -7 -35.5t-74 -156.5t-126 -199
q24 -40 94.5 -40t148 78t123.5 176t46 205.5t-15 170t-15 77.5q0 45 40 45q24 0 81 -98t57 -241t-59 -262t-152 -200.5t-204 -81.5q-77 0 -131 27.5t-74 71.5q-26 -40 -81 -70.5t-119 -30.5q-96 0 -163 50t-67 201z" />
    <glyph glyph-name="iotadieresis" unicode="&#x3ca;" horiz-adv-x="445" 
d="M40 105q0 48 24 132l168 588q13 45 76 45q45 0 61 -19.5t16 -58.5q0 -50 -99 -249t-111 -293q29 12 75 12q36 0 57 -29t21 -61q0 -74 -50 -137.5t-119 -63.5q-55 0 -87 31.5t-32 102.5zM245 1156q0 -45 -31.5 -76.5t-76 -31.5t-76 31.5t-31.5 76.5t31.5 76.5t76 31.5
t76 -31.5t31.5 -76.5zM626 1156q0 -45 -31.5 -76.5t-76 -31.5t-76 31.5t-31.5 76.5t31.5 76.5t76 31.5t76 -31.5t31.5 -76.5z" />
    <glyph glyph-name="upsilondieresis" unicode="&#x3cb;" horiz-adv-x="837" 
d="M124 154q0 80 37.5 219.5t44.5 218.5q-34 -12 -68 -12q-44 0 -64 30.5t-20 59.5q0 73 32 119.5t64 63.5t88 18q26 0 50 -16.5t24 -64.5q0 -80 -37 -223.5t-37 -250.5q0 -84 20.5 -128t67.5 -44q86 0 162 79.5t129 226t53 272.5q0 144 16 144q38 0 60 -78t22 -170
q0 -157 -43 -288.5t-149 -243.5t-284 -112q-70 0 -119 45t-49 135zM383 1156q0 -45 -31.5 -76.5t-76 -31.5t-76 31.5t-31.5 76.5t31.5 76.5t76 31.5t76 -31.5t31.5 -76.5zM764 1156q0 -45 -31.5 -76.5t-76 -31.5t-76 31.5t-31.5 76.5t31.5 76.5t76 31.5t76 -31.5t31.5 -76.5
z" />
    <glyph glyph-name="omicrontonos" unicode="&#x3cc;" horiz-adv-x="742" 
d="M80 242q0 134 68.5 274t181 247.5t178.5 107.5q32 0 50.5 -23t18.5 -68q0 -11 -9 -26q114 -148 114 -364q0 -157 -109 -284.5t-244 -127.5q-118 0 -183.5 65t-65.5 199zM164 204q0 -62 33 -87t69 -25q101 0 179.5 92t98.5 174.5t20 149.5q0 104 -52 183q-25 -23 -59 -50
q-124 -101 -206.5 -229.5t-82.5 -207.5zM413 1028q-14 0 -14 21q0 7 2 13l111 480q18 77 47 78q23 0 44.5 -32t21.5 -56t-35 -132l-77 -230q-47 -142 -100 -142z" />
    <glyph glyph-name="upsilontonos" unicode="&#x3cd;" horiz-adv-x="837" 
d="M124 154q0 80 37.5 219.5t44.5 218.5q-34 -12 -68 -12q-44 0 -64 30.5t-20 59.5q0 73 32 119.5t64 63.5t88 18q26 0 50 -16.5t24 -64.5q0 -80 -37 -223.5t-37 -250.5q0 -84 20.5 -128t67.5 -44q86 0 162 79.5t129 226t53 272.5q0 144 16 144q38 0 60 -78t22 -170
q0 -157 -43 -288.5t-149 -243.5t-284 -112q-70 0 -119 45t-49 135zM419 1028q-14 0 -14 21q0 7 1 13l112 480q18 77 47 78q23 0 44.5 -32t21.5 -56t-36 -132l-76 -230q-47 -142 -100 -142z" />
    <glyph glyph-name="omegatonos" unicode="&#x3ce;" horiz-adv-x="1194" 
d="M80 226q0 143 68 294.5t153.5 250.5t155.5 99q55 0 83 -20.5t28 -52.5t-75.5 -87.5t-152 -139.5t-134 -187t-57.5 -178q0 -41 25.5 -69t85.5 -28q90 0 158 82t113.5 196.5t57.5 149.5q22 71 85 71q15 0 39 -5.5t44 -20.5t20 -42q0 -12 -7 -35.5t-74 -156.5t-126 -199
q24 -40 94.5 -40t148 78t123.5 176t46 205.5t-15 170t-15 77.5q0 45 40 45q24 0 81 -98t57 -241t-59 -262t-152 -200.5t-204 -81.5q-77 0 -131 27.5t-74 71.5q-26 -40 -81 -70.5t-119 -30.5q-96 0 -163 50t-67 201zM704 1028q-14 0 -14 21q0 7 2 13l111 480q18 77 48 78
q23 0 44.5 -32t21.5 -56t-36 -132l-77 -230q-47 -142 -100 -142z" />
    <glyph glyph-name="uni03D0" unicode="&#x3d0;" horiz-adv-x="684" 
d="M66 506q0 397 166.5 688t349.5 291q108 0 160.5 -67.5t52.5 -154.5q0 -102 -78 -151.5t-171 -49.5q-54 0 -128.5 24.5t-86.5 32.5q-95 -165 -136 -324t-41 -336q0 -72 17 -140q33 35 106.5 75.5t133.5 40.5q126 0 180 -69t54 -155q0 -82 -49.5 -158t-172.5 -76
q-159 0 -258 145t-99 384zM369 1178q61 -13 146 -13q79 0 137.5 45t58.5 84q0 25 -15 41t-58 16q-39 0 -89 -18t-101 -64.5t-79 -90.5zM240 178q26 -30 65.5 -47.5t88.5 -17.5q54 0 100.5 31t63.5 59t17 50q0 31 -23.5 48.5t-67.5 17.5q-64 0 -130.5 -47t-113.5 -94z" />
    <glyph glyph-name="theta1" unicode="&#x3d1;" horiz-adv-x="1110" 
d="M138 1170q0 93 72 156t156 63q135 0 226 -57t166.5 -186t99.5 -273q77 10 124 33q6 3 11 3q25 0 57 -54q21 -36 21 -56t-15 -27q-70 -33 -174 -39q12 -71 12 -194q0 -100 -29.5 -218.5t-98.5 -220.5t-160 -102q-88 0 -185 129t-138 129q-31 0 -60.5 -32.5t-36.5 -99.5
q-3 -31 -29 -31q-23 0 -58.5 21t-43.5 39q-6 13 -6 30q0 55 56.5 132t118.5 77q82 0 175 -129t147 -129q58 0 112.5 62t97 177.5t42.5 248.5q0 67 -3 109q-235 0 -372.5 56t-211 155t-73.5 228zM234 1114q0 -73 65 -137.5t188.5 -87t266.5 -22.5l24 1q-5 46 -40 148
t-112 169.5t-204 67.5q-68 0 -128 -35.5t-60 -103.5z" />
    <glyph glyph-name="phi1" unicode="&#x3d5;" horiz-adv-x="1244" 
d="M58 486q0 90 59 200t189 202t312 126l21 155q4 30 96 30t92 -37l-24 -175q100 -22 176 -87t143.5 -172.5t67.5 -261.5q0 -116 -72 -233t-188 -179.5t-274 -70.5l-68 -464q-9 -60 -33 -98.5t-53.5 -38.5t-39 38.5t-9.5 67t2 49.5l52 462q-127 25 -219 79t-161 150t-69 258
zM196 408q0 -108 52 -182.5t128 -104t139 -43.5l89 814q-134 -38 -233 -137t-137 -177t-38 -170zM672 92q94 18 167.5 66t141 153t67.5 223q0 109 -38 176t-83 110.5t-139 73.5z" />
    <glyph glyph-name="omega1" unicode="&#x3d6;" horiz-adv-x="1194" 
d="M80 226q0 142 59 273.5t118 215.5q-166 0 -194 -21t-28 -33t15.5 -32.5t25.5 -53.5t10 -63q0 -46 -70 -46q-48 0 -76.5 36t-28.5 85q0 65 18 120t46 87t78 54t184 22l786 -18q95 0 108.5 31t28 45.5t26.5 14.5q26 0 35 -21t9 -58q0 -123 -131 -154q31 -82 31 -189
q0 -143 -59 -262t-152 -200.5t-204 -81.5q-65 0 -117.5 32t-80.5 74q-28 -35 -89 -71.5t-118 -36.5q-96 0 -163 50t-67 201zM974 699l-481 11q-76 -56 -152.5 -140t-134 -187t-57.5 -178q0 -41 25.5 -69t85.5 -28q90 0 158 82t113.5 196.5t57.5 149.5q27 70 75 70t80.5 -18
t32.5 -43t-8.5 -49t-73 -149t-107.5 -180q20 -59 72 -59q75 0 152.5 78t123.5 176t46 220q0 66 -8 117z" />
    <glyph glyph-name="uni03D7" unicode="&#x3d7;" horiz-adv-x="1248" 
d="M1171 1028q-45 0 -95 142l-76 230q-36 108 -36 132t21.5 56t44.5 32q29 0 47 -78l108 -462q5 -19 5 -35.5t-19 -16.5zM71 191q92 90 136.5 174.5t44.5 194.5q0 64 -38.5 86.5t-63 52.5t-24.5 61q0 48 39.5 79t92.5 31t82 -33t29 -95q0 -135 -43 -249q-6 -18 -6 -26.5
t8 -8.5q21 0 59 43t192 156t241 151q14 7 23 7t20.5 -16.5t11.5 -27t-14 -22.5q-195 -186 -258 -259.5t-90 -144.5t-27 -117t26 -84.5t86 -38.5q134 0 266 86t220 201q21 27 52.5 27t44.5 -21t13 -122q0 -213 -25 -390t-157.5 -315.5t-266.5 -138.5t-180.5 41t-46.5 70
t20.5 56t62.5 27t95 -32t112 -32t153.5 100.5t137.5 241t43 268t-20 127.5t-52 -42q-88 -116 -197.5 -198t-216 -82t-169.5 51.5t-63 146.5t40 186l-367 -359q-18 -19 -29.5 -19t-54 45t-42.5 55.5t18 28.5z" />
    <glyph glyph-name="uni03D8" unicode="&#x3d8;" horiz-adv-x="1461" 
d="M282 681q0 -310 150 -471.5t317 -161.5q212 0 327.5 150.5t115.5 403.5q0 239 -145.5 430.5t-319.5 191.5q-210 0 -327.5 -178.5t-117.5 -364.5zM91 622q0 223 176 448t473 225q266 0 454.5 -205.5t188.5 -471.5q0 -256 -174 -450q-146 -163 -380 -190v-520
q0 -18 -80 -18t-80 18v517q-245 19 -401 181q-177 182 -177 466z" />
    <glyph glyph-name="uni03D9" unicode="&#x3d9;" horiz-adv-x="995" 
d="M247 422q0 -178 81.5 -278.5t175.5 -100.5q96 0 176.5 101.5t80.5 277.5t-80 282t-175 107q-96 0 -177.5 -105.5t-81.5 -283.5zM84 428q0 168 125 305t299 137t295 -137t121 -313q0 -156 -92 -285.5t-250 -152.5v-345q0 -18 -76.5 -18t-76.5 18v348q-149 32 -247 162.5
t-98 280.5z" />
    <glyph glyph-name="uni03DA" unicode="&#x3da;" horiz-adv-x="1147" 
d="M82 574q0 296 208 532.5t584 236.5h208q17 0 17 -92.5t-18 -92.5h-167q-346 0 -502.5 -125t-156.5 -393q0 -136 65.5 -225.5t204.5 -89.5q261 0 352.5 -102.5t91.5 -228.5q0 -163 -149.5 -275t-329.5 -112q-102 0 -177 38.5t-75 87.5q0 23 17 43.5t61 20.5q61 0 159 -35
t157 -35q112 0 178 60t66 134q0 79 -62.5 141.5t-284.5 62.5q-191 0 -319 114t-128 335z" />
    <glyph glyph-name="uni03DB" unicode="&#x3db;" horiz-adv-x="971" 
d="M27 390q0 104 73.5 219t177 185.5t283.5 70.5h198q100 0 115 40q8 21 22.5 36t26.5 15q26 0 35 -21t9 -58q0 -166 -254 -166h-101q-210 0 -298 -63t-143 -155t-55 -202q0 -71 61 -71q47 0 94 23t93 23q57 0 90 -38.5t33 -93.5q0 -92 -54.5 -194.5t-136.5 -140.5t-140 -38
q-45 0 -75 23.5t-30 59.5q0 45 57.5 61t123.5 19t101 26t35 65q0 40 -16 69t-49 29q-36 0 -67.5 -11t-72.5 -11q-43 0 -73 37.5t-46.5 85.5t-16.5 176z" />
    <glyph glyph-name="uni03DC" unicode="&#x3dc;" horiz-adv-x="1170" 
d="M271 186v908q0 110 -187 110q-14 0 -14 35.5t14 35.5h951q73 0 73 -19v-324q0 -18 -38 -18t-38 18q0 255 -259 262l-301 10q-41 0 -41 -41v-456q0 -31 28 -31h164q75 0 96 30t21 100v117q0 13 35 13t35 -13v-568q0 -13 -35 -13t-35 13v117q0 70 -25 99t-92 29h-167
q-25 0 -25 -25v-389q0 -117 188 -117q13 0 13 -34.5t-13 -34.5h-528q-13 0 -13 34.5t13 34.5q180 0 180 117z" />
    <glyph glyph-name="uni03DD" unicode="&#x3dd;" horiz-adv-x="742" 
d="M-40 -584l198 1407q6 49 56 49h563q13 0 13 -32q0 -16 -3 -41q-11 -73 -31 -73h-423q-55 0 -62 -57l-62 -443h477q13 0 13 -31q0 -17 -3 -42q-10 -73 -30 -73h-478l-93 -664q-3 -18 -72 -18q-63 0 -63 18z" />
    <glyph glyph-name="uni03E0" unicode="&#x3e0;" horiz-adv-x="1190" 
d="M1112 663q0 -246 -141.5 -432t-317.5 -233q-17 0 -30.5 24t-13.5 34.5t7 13.5q115 39 210 181.5t95 395.5q0 294 -166 499q-66 -65 -66 -211v-521q0 -18 -80 -18t-80 18v518q0 179 190 255q-122 127 -263 127q-61 0 -115 -15v-560q0 -18 -80 -18t-80 18v461
q-28 -30 -48.5 -61.5t-30 -49.5t-18.5 -18t-31.5 46.5t-22.5 69.5q0 10 4 16q169 182 435 182t454.5 -208t188.5 -514z" />
    <glyph glyph-name="uni03E1" unicode="&#x3e1;" horiz-adv-x="1467" 
d="M96 1129q318 0 534 -84.5t405.5 -277t280.5 -440.5t91 -509q0 -23 -14 -37t-32 -14t-25.5 9t-7.5 32q0 362 -226 667l-418 -420q-12 -12 -22.5 -12t-54.5 43t-44 54t11 22l431 433q-88 99 -183 176l-440 -442q-11 -12 -20.5 -12t-54 44.5t-44.5 54.5t8 19l425 426
q-288 184 -607 184q-23 0 -33 9t-10 26.5t14.5 33t35.5 15.5z" />
    <glyph glyph-name="uni03F0" unicode="&#x3f0;" horiz-adv-x="962" 
d="M464 361l-367 -359q-19 -19 -30 -19t-53 45q-43 46 -43 56q0 12 18 28l82 79q97 93 137 175q44 88 44 194q0 64 -38.5 86.5t-63 52.5t-24.5 61q0 48 39.5 79t92.5 31t82 -33t29 -95q0 -135 -43 -249q-6 -18 -6 -26.5t8 -8.5q21 0 59 43t192 156t241 151q14 7 23 7
t20.5 -16.5t11.5 -27t-14 -22.5q-195 -186 -258 -259.5t-90.5 -141.5t-27.5 -131q0 -112 85 -112q86 0 171.5 61t147.5 152q15 22 28 22t13 -32q0 -9 -1 -21q-6 -74 -53.5 -150t-114.5 -118t-147 -42q-84 0 -137 51.5t-53 135.5q0 106 40 197z" />
    <glyph glyph-name="uni03F1" unicode="&#x3f1;" horiz-adv-x="818" 
d="M70 51q0 182 52 364t147 289.5t172 136.5t130 29q99 0 151.5 -65t52.5 -152q0 -102 -70.5 -210.5t-151 -164.5t-189.5 -87.5t-173 -40.5q-7 -27 -17.5 -106.5t-10.5 -95.5q0 -85 158.5 -119.5t208.5 -86.5t50 -112q0 -100 -67 -179t-198 -79q-75 0 -111.5 25.5
t-36.5 55.5q0 32 34.5 57t122.5 25q86 0 137 20t51 54q0 48 -147 69.5t-221 119t-74 253.5zM228 308q78 16 196 85t195 163t77 140q0 31 -15.5 41.5t-41.5 10.5q-84 0 -181.5 -76.5t-145.5 -163.5t-84 -200z" />
    <glyph glyph-name="uni1DD1" unicode="&#x1dd1;" horiz-adv-x="0" 
d="M-172 1036l-216 195q-11 10 -7 32q5 23 24 43q21 23 51 16q10 -3 17 -12l171 -239q12 -17 9 -34q6 -22 -25 -15q-11 3 -24 14z" />
    <glyph glyph-name="uni1F00" unicode="&#x1f00;" horiz-adv-x="1185" 
d="M551 1438q55 0 89.5 -43t34.5 -95q0 -115 -136 -204q-6 -5 -11 -5t-15 10t-10 15t6 10q67 66 67 104q0 37 -30 48t-53 33.5t-23 56.5t25 52t56 18zM80 218q0 123 43 257.5t146.5 262.5t195.5 128q85 0 135 -55.5t67.5 -127.5t19.5 -97q25 45 48 101.5t45.5 96t58.5 71.5
t70 32t47.5 -20.5t13.5 -63.5q0 -69 -76 -206.5t-111 -191t-81 -115.5q4 -91 32 -138.5t98 -47.5t149 60t145 153q15 22 28 22t13 -32q0 -9 -3.5 -46.5t-45 -115.5t-118.5 -123.5t-157.5 -45.5t-139.5 69.5t-59 170.5q-120 -144 -217 -191.5t-154 -47.5q-87 0 -140 50
t-53 191zM155 190q0 -35 18 -53.5t44 -18.5q116 0 206.5 86.5t136 156.5t74.5 123q-6 92 -22 149.5t-37 79t-40 21.5q-63 0 -150 -94.5t-158.5 -235.5t-71.5 -214z" />
    <glyph glyph-name="uni1F01" unicode="&#x1f01;" horiz-adv-x="1185" 
d="M80 218q0 123 43 257.5t146.5 262.5t195.5 128q85 0 135 -55.5t67.5 -127.5t19.5 -97q25 45 48 101.5t45.5 96t58.5 71.5t70 32t47.5 -20.5t13.5 -63.5q0 -69 -76 -206.5t-111 -191t-81 -115.5q4 -91 32 -138.5t98 -47.5t149 60t145 153q15 22 28 22t13 -32
q0 -9 -3.5 -46.5t-45 -115.5t-118.5 -123.5t-157.5 -45.5t-139.5 69.5t-59 170.5q-120 -144 -217 -191.5t-154 -47.5q-87 0 -140 50t-53 191zM155 190q0 -35 18 -53.5t44 -18.5q116 0 206.5 86.5t136 156.5t74.5 123q-6 92 -22 149.5t-37 79t-40 21.5q-63 0 -150 -94.5
t-158.5 -235.5t-71.5 -214zM547 1438q31 0 55.5 -18t24.5 -52t-22.5 -56.5t-52.5 -33.5t-30 -49t68 -104q4 -3 4 -8.5t-10 -15.5t-14.5 -10t-8.5 3q-138 88 -139 206q0 52 35 95t90 43z" />
    <glyph glyph-name="uni1F02" unicode="&#x1f02;" horiz-adv-x="1185" 
d="M870 1028q-53 0 -100 142l-77 230q-35 108 -35 132t21 56t45 32q29 0 47 -78l111 -480q2 -6 2 -13q0 -21 -14 -21zM489 1438q55 0 89.5 -43t34.5 -95q0 -118 -137 -205q-5 -4 -10 -4t-15 9.5t-10 14.5t4 10q69 68 69 105t-30 48t-53 33.5t-23 56.5t25 52t56 18zM80 218
q0 123 43 257.5t146.5 262.5t195.5 128q85 0 135 -55.5t67.5 -127.5t19.5 -97q25 45 48 101.5t45.5 96t58.5 71.5t70 32t47.5 -20.5t13.5 -63.5q0 -69 -76 -206.5t-111 -191t-81 -115.5q4 -91 32 -138.5t98 -47.5t149 60t145 153q15 22 28 22t13 -32q0 -9 -3.5 -46.5
t-45 -115.5t-118.5 -123.5t-157.5 -45.5t-139.5 69.5t-59 170.5q-120 -144 -217 -191.5t-154 -47.5q-87 0 -140 50t-53 191zM155 190q0 -35 18 -53.5t44 -18.5q116 0 206.5 86.5t136 156.5t74.5 123q-6 92 -22 149.5t-37 79t-40 21.5q-63 0 -150 -94.5t-158.5 -235.5
t-71.5 -214z" />
    <glyph glyph-name="uni1F03" unicode="&#x1f03;" horiz-adv-x="1185" 
d="M80 218q0 123 43 257.5t146.5 262.5t195.5 128q85 0 135 -55.5t67.5 -127.5t19.5 -97q25 45 48 101.5t45.5 96t58.5 71.5t70 32t47.5 -20.5t13.5 -63.5q0 -69 -76 -206.5t-111 -191t-81 -115.5q4 -91 32 -138.5t98 -47.5t149 60t145 153q15 22 28 22t13 -32
q0 -9 -3.5 -46.5t-45 -115.5t-118.5 -123.5t-157.5 -45.5t-139.5 69.5t-59 170.5q-120 -144 -217 -191.5t-154 -47.5q-87 0 -140 50t-53 191zM155 190q0 -35 18 -53.5t44 -18.5q116 0 206.5 86.5t136 156.5t74.5 123q-6 92 -22 149.5t-37 79t-40 21.5q-63 0 -150 -94.5
t-158.5 -235.5t-71.5 -214zM540 1438q31 0 55.5 -18t24.5 -52t-22.5 -56.5t-52.5 -33.5t-30 -49t68 -104q4 -3 4 -8.5t-10 -15.5t-14.5 -10t-8.5 3q-138 88 -139 206q0 52 35 95t90 43zM874 1028q-53 0 -100 142l-77 230q-35 108 -35 132t21 56t47.5 32t44.5 -78l111 -477
q2 -9 2 -16q0 -21 -14 -21z" />
    <glyph glyph-name="uni1F04" unicode="&#x1f04;" horiz-adv-x="1185" 
d="M80 218q0 123 43 257.5t146.5 262.5t195.5 128q85 0 135 -55.5t67.5 -127.5t19.5 -97q25 45 48 101.5t45.5 96t58.5 71.5t70 32t47.5 -20.5t13.5 -63.5q0 -69 -76 -206.5t-111 -191t-81 -115.5q4 -91 32 -138.5t98 -47.5t149 60t145 153q15 22 28 22t13 -32
q0 -9 -3.5 -46.5t-45 -115.5t-118.5 -123.5t-157.5 -45.5t-139.5 69.5t-59 170.5q-120 -144 -217 -191.5t-154 -47.5q-87 0 -140 50t-53 191zM155 190q0 -35 18 -53.5t44 -18.5q116 0 206.5 86.5t136 156.5t74.5 123q-6 92 -22 149.5t-37 79t-40 21.5q-63 0 -150 -94.5
t-158.5 -235.5t-71.5 -214zM519 1438q55 0 89.5 -43t34.5 -95q0 -118 -137 -205q-5 -4 -10 -4t-15 9.5t-10 14.5t4 10q69 68 69 105t-30 48t-53 33.5t-23 56.5t25 52t56 18zM730 1028q-14 0 -15 21q0 7 2 13l111 480q18 77 48 78q23 0 44.5 -32t21.5 -56t-36 -132l-76 -230
q-46 -142 -100 -142z" />
    <glyph glyph-name="uni1F05" unicode="&#x1f05;" horiz-adv-x="1185" 
d="M80 218q0 123 43 257.5t146.5 262.5t195.5 128q85 0 135 -55.5t67.5 -127.5t19.5 -97q25 45 48 101.5t45.5 96t58.5 71.5t70 32t47.5 -20.5t13.5 -63.5q0 -69 -76 -206.5t-111 -191t-81 -115.5q4 -91 32 -138.5t98 -47.5t149 60t145 153q15 22 28 22t13 -32
q0 -9 -3.5 -46.5t-45 -115.5t-118.5 -123.5t-157.5 -45.5t-139.5 69.5t-59 170.5q-120 -144 -217 -191.5t-154 -47.5q-87 0 -140 50t-53 191zM155 190q0 -35 18 -53.5t44 -18.5q116 0 206.5 86.5t136 156.5t74.5 123q-6 92 -22 149.5t-37 79t-40 21.5q-63 0 -150 -94.5
t-158.5 -235.5t-71.5 -214zM523 1438q31 0 55.5 -18t24.5 -52t-22.5 -56.5t-52.5 -33.5t-30 -49t68 -104q4 -3 4 -8.5t-10 -15.5t-14.5 -10t-8.5 3q-138 88 -139 206q0 52 35 95t90 43zM684 1028q-14 0 -14 21q0 7 2 13l112 480q18 77 47 78q23 0 44.5 -32t21.5 -56
t-36 -132l-77 -230q-48 -142 -100 -142z" />
    <glyph glyph-name="uni1F06" unicode="&#x1f06;" horiz-adv-x="1185" 
d="M80 218q0 123 43 257.5t146.5 262.5t195.5 128q85 0 135 -55.5t67.5 -127.5t19.5 -97q25 45 48 101.5t45.5 96t58.5 71.5t70 32t47.5 -20.5t13.5 -63.5q0 -69 -76 -206.5t-111 -191t-81 -115.5q4 -91 32 -138.5t98 -47.5t149 60t145 153q15 22 28 22t13 -32
q0 -9 -3.5 -46.5t-45 -115.5t-118.5 -123.5t-157.5 -45.5t-139.5 69.5t-59 170.5q-120 -144 -217 -191.5t-154 -47.5q-87 0 -140 50t-53 191zM155 190q0 -35 18 -53.5t44 -18.5q116 0 206.5 86.5t136 156.5t74.5 123q-6 92 -22 149.5t-37 79t-40 21.5q-63 0 -150 -94.5
t-158.5 -235.5t-71.5 -214zM319 1523q0 1 1 2q40 65 92.5 104t102.5 39t130 -29.5t125.5 -29.5t118.5 68q1 1 4.5 1t13.5 -8.5t10 -19.5q0 -4 -1 -8q-14 -41 -86 -89t-119 -48t-129 31.5t-128 31.5t-110 -61q-4 -4 -8.5 -4t-10.5 7.5t-6 12.5zM587 1438q55 0 89.5 -43
t34.5 -95q0 -115 -136 -204q-6 -5 -11 -5t-15 10t-10 15t6 10q67 66 67 104q0 37 -30 48t-53 33.5t-23 56.5t25 52t56 18z" />
    <glyph glyph-name="uni1F07" unicode="&#x1f07;" horiz-adv-x="1185" 
d="M80 218q0 123 43 257.5t146.5 262.5t195.5 128q85 0 135 -55.5t67.5 -127.5t19.5 -97q25 45 48 101.5t45.5 96t58.5 71.5t70 32t47.5 -20.5t13.5 -63.5q0 -69 -76 -206.5t-111 -191t-81 -115.5q4 -91 32 -138.5t98 -47.5t149 60t145 153q15 22 28 22t13 -32
q0 -9 -3.5 -46.5t-45 -115.5t-118.5 -123.5t-157.5 -45.5t-139.5 69.5t-59 170.5q-120 -144 -217 -191.5t-154 -47.5q-87 0 -140 50t-53 191zM155 190q0 -35 18 -53.5t44 -18.5q116 0 206.5 86.5t136 156.5t74.5 123q-6 92 -22 149.5t-37 79t-40 21.5q-63 0 -150 -94.5
t-158.5 -235.5t-71.5 -214zM297 1523q0 1 1 2q40 65 92.5 104t102.5 39t130 -29.5t125.5 -29.5t118.5 68q1 1 4.5 1t13.5 -8.5t10 -19.5q0 -4 -1 -8q-14 -41 -86 -89t-119 -48t-129 31.5t-128 31.5t-110 -61q-4 -4 -8.5 -4t-10.5 7.5t-6 12.5zM609 1438q31 0 55.5 -18
t24.5 -52t-22.5 -56.5t-52.5 -33.5t-30 -49t68 -104q4 -3 4 -8.5t-10 -15.5t-14.5 -10t-8.5 3q-138 88 -139 206q0 52 35 95t90 43z" />
    <glyph glyph-name="uni1F08" unicode="&#x1f08;" horiz-adv-x="1398" 
d="M227 1438q55 0 89.5 -43t34.5 -95q0 -115 -136 -204q-6 -5 -11 -5t-15 10t-10 15t6 10q67 66 67 104q0 37 -30 48t-53 33.5t-23 56.5t25 52t56 18zM1176 186q39 -117 192 -117q13 0 13 -34.5t-13 -34.5h-461q-14 0 -14 34.5t14 34.5q99 0 99 68q0 23 -8 49l-97 278
q-9 31 -44 31h-414q-27 0 -40 -35l-109 -278q-9 -22 -9 -40q0 -73 150 -73q14 0 14 -34.5t-14 -34.5h-425q-14 0 -14 34.5t14 34.5q97 0 129 28t66 104l377 915q6 17 6 30t-13 26.5t-13 19.5t39.5 27.5t92.5 58.5t65 37q23 0 35 -44q26 -97 49 -166zM834 564q25 0 25 16
q0 5 -2 11l-172 496q-6 20 -18 20t-19 -20l-194 -496q-2 -5 -2 -11q0 -16 24 -16h358z" />
    <glyph glyph-name="uni1F09" unicode="&#x1f09;" horiz-adv-x="1398" 
d="M1176 186q39 -117 192 -117q13 0 13 -34.5t-13 -34.5h-461q-14 0 -14 34.5t14 34.5q99 0 99 68q0 23 -8 49l-97 278q-9 31 -44 31h-414q-27 0 -40 -35l-109 -278q-9 -22 -9 -40q0 -73 150 -73q14 0 14 -34.5t-14 -34.5h-425q-14 0 -14 34.5t14 34.5q97 0 129 28t66 104
l377 915q6 17 6 30t-13 26.5t-13 19.5t39.5 27.5t92.5 58.5t65 37q23 0 35 -44q26 -97 49 -166zM834 564q25 0 25 16q0 5 -2 11l-172 496q-6 20 -18 20t-19 -20l-194 -496q-2 -5 -2 -11q0 -16 24 -16h358zM266 1438q31 0 55.5 -18t24.5 -52t-22.5 -56.5t-52.5 -33.5t-30 -49
t68 -104q4 -3 4 -8.5t-10 -15.5t-14.5 -10t-8.5 3q-138 88 -139 206q0 52 35 95t90 43z" />
    <glyph glyph-name="uni1F0A" unicode="&#x1f0a;" horiz-adv-x="1518" 
d="M1296 186q39 -117 192 -117q13 0 13 -34.5t-13 -34.5h-461q-14 0 -14 34.5t14 34.5q99 0 99 68q0 23 -8 49l-97 278q-9 31 -44 31h-414q-27 0 -40 -35l-109 -278q-9 -22 -9 -40q0 -73 150 -73q14 0 14 -34.5t-14 -34.5h-425q-14 0 -14 34.5t14 34.5q97 0 129 28t66 104
l377 915q6 17 6 30t-13 26.5t-13 19.5t39.5 27.5t92.5 58.5t65 37q23 0 35 -44q26 -97 49 -166zM954 564q25 0 25 16q0 5 -2 11l-172 496q-6 20 -18 20t-19 -20l-194 -496q-2 -5 -2 -11q0 -16 24 -16h358zM516 1028q-53 0 -100 142l-77 230q-35 108 -35 132t21 56t45 32
q29 0 47 -78l111 -480q2 -6 2 -13q0 -21 -14 -21zM135 1438q55 0 89.5 -43t34.5 -95q0 -118 -137 -205q-5 -4 -10 -4t-15 9.5t-10 14.5t4 10q69 68 69 105t-30 48t-53 33.5t-23 56.5t25 52t56 18z" />
    <glyph glyph-name="uni1F0B" unicode="&#x1f0b;" horiz-adv-x="1518" 
d="M1296 186q39 -117 192 -117q13 0 13 -34.5t-13 -34.5h-461q-14 0 -14 34.5t14 34.5q99 0 99 68q0 23 -8 49l-97 278q-9 31 -44 31h-414q-27 0 -40 -35l-109 -278q-9 -22 -9 -40q0 -73 150 -73q14 0 14 -34.5t-14 -34.5h-425q-14 0 -14 34.5t14 34.5q97 0 129 28t66 104
l377 915q6 17 6 30t-13 26.5t-13 19.5t39.5 27.5t92.5 58.5t65 37q23 0 35 -44q26 -97 49 -166zM954 564q25 0 25 16q0 5 -2 11l-172 496q-6 20 -18 20t-19 -20l-194 -496q-2 -5 -2 -11q0 -16 24 -16h358zM185 1438q31 0 55.5 -18t24.5 -52t-22.5 -56.5t-52.5 -33.5t-30 -49
t68 -104q4 -3 4 -8.5t-10 -15.5t-14.5 -10t-8.5 3q-138 88 -139 206q0 52 35 95t90 43zM519 1028q-53 0 -100 142l-77 230q-36 108 -36 132t21.5 56t48 32t44.5 -78l111 -477q2 -9 2 -16q0 -21 -14 -21z" />
    <glyph glyph-name="uni1F0C" unicode="&#x1f0c;" horiz-adv-x="1518" 
d="M1296 186q39 -117 192 -117q13 0 13 -34.5t-13 -34.5h-461q-14 0 -14 34.5t14 34.5q99 0 99 68q0 23 -8 49l-97 278q-9 31 -44 31h-414q-27 0 -40 -35l-109 -278q-9 -22 -9 -40q0 -73 150 -73q14 0 14 -34.5t-14 -34.5h-425q-14 0 -14 34.5t14 34.5q97 0 129 28t66 104
l377 915q6 17 6 30t-13 26.5t-13 19.5t39.5 27.5t92.5 58.5t65 37q23 0 35 -44q26 -97 49 -166zM954 564q25 0 25 16q0 5 -2 11l-172 496q-6 20 -18 20t-19 -20l-194 -496q-2 -5 -2 -11q0 -16 24 -16h358zM141 1438q55 0 89.5 -43t34.5 -95q0 -118 -137 -205q-5 -4 -10 -4
t-15 9.5t-10 14.5t4 10q69 68 69 105t-30 48t-53 33.5t-23 56.5t25 52t56 18zM352 1028q-14 0 -15 21q0 7 2 13l111 480q18 77 48 78q23 0 44.5 -32t21.5 -56t-36 -132l-76 -230q-46 -142 -100 -142z" />
    <glyph glyph-name="uni1F0D" unicode="&#x1f0d;" horiz-adv-x="1518" 
d="M1296 186q39 -117 192 -117q13 0 13 -34.5t-13 -34.5h-461q-14 0 -14 34.5t14 34.5q99 0 99 68q0 23 -8 49l-97 278q-9 31 -44 31h-414q-27 0 -40 -35l-109 -278q-9 -22 -9 -40q0 -73 150 -73q14 0 14 -34.5t-14 -34.5h-425q-14 0 -14 34.5t14 34.5q97 0 129 28t66 104
l377 915q6 17 6 30t-13 26.5t-13 19.5t39.5 27.5t92.5 58.5t65 37q23 0 35 -44q26 -97 49 -166zM954 564q25 0 25 16q0 5 -2 11l-172 496q-6 20 -18 20t-19 -20l-194 -496q-2 -5 -2 -11q0 -16 24 -16h358zM180 1438q31 0 55.5 -18t24.5 -52t-22.5 -56.5t-52.5 -33.5t-30 -49
t68 -104q4 -3 4 -8.5t-10 -15.5t-14.5 -10t-8.5 3q-138 88 -139 206q0 52 35 95t90 43zM341 1028q-14 0 -14 21q0 7 2 13l112 480q18 77 47 78q23 0 44.5 -32t21.5 -56t-36 -132l-77 -230q-48 -142 -100 -142z" />
    <glyph glyph-name="uni1F0E" unicode="&#x1f0e;" horiz-adv-x="1478" 
d="M1256 186q39 -117 192 -117q13 0 13 -34.5t-13 -34.5h-461q-14 0 -14 34.5t14 34.5q99 0 99 68q0 23 -8 49l-97 278q-9 31 -44 31h-414q-27 0 -40 -35l-109 -278q-9 -22 -9 -40q0 -73 150 -73q14 0 14 -34.5t-14 -34.5h-425q-14 0 -14 34.5t14 34.5q97 0 129 28t66 104
l377 915q6 17 6 30t-13 26.5t-13 19.5t39.5 27.5t92.5 58.5t65 37q23 0 35 -44q26 -97 49 -166zM914 564q25 0 25 16q0 5 -2 11l-172 496q-6 20 -18 20t-19 -20l-194 -496q-2 -5 -2 -11q0 -16 24 -16h358zM36 1523q0 1 1 2q40 65 92.5 104t102.5 39t130 -29.5t125.5 -29.5
t118.5 68q1 1 4.5 1t13.5 -8.5t10 -19.5q0 -4 -1 -8q-14 -41 -86 -89t-119 -48t-129 31.5t-128 31.5t-110 -61q-4 -4 -8.5 -4t-10.5 7.5t-6 12.5zM304 1438q55 0 89.5 -43t34.5 -95q0 -115 -136 -204q-6 -5 -11 -5t-15 10t-10 15t6 10q68 66 68 104q0 37 -30.5 48
t-53.5 33.5t-23 56.5t25 52t56 18z" />
    <glyph glyph-name="uni1F0F" unicode="&#x1f0f;" horiz-adv-x="1478" 
d="M1256 186q39 -117 192 -117q13 0 13 -34.5t-13 -34.5h-461q-14 0 -14 34.5t14 34.5q99 0 99 68q0 23 -8 49l-97 278q-9 31 -44 31h-414q-27 0 -40 -35l-109 -278q-9 -22 -9 -40q0 -73 150 -73q14 0 14 -34.5t-14 -34.5h-425q-14 0 -14 34.5t14 34.5q97 0 129 28t66 104
l377 915q6 17 6 30t-13 26.5t-13 19.5t39.5 27.5t92.5 58.5t65 37q23 0 35 -44q26 -97 49 -166zM914 564q25 0 25 16q0 5 -2 11l-172 496q-6 20 -18 20t-19 -20l-194 -496q-2 -5 -2 -11q0 -16 24 -16h358zM38 1523q0 1 1 2q40 65 92.5 104t102.5 39t130 -29.5t125.5 -29.5
t118.5 68q1 1 4.5 1t13.5 -8.5t10 -19.5q0 -4 -1 -8q-14 -41 -86 -89t-119 -48t-129 31.5t-128 31.5t-110 -61q-4 -4 -8.5 -4t-10.5 7.5t-6 12.5zM350 1438q31 0 55.5 -18t24.5 -52t-22.5 -56.5t-52.5 -33.5t-30 -49t68 -104q4 -3 4 -8.5t-10 -15.5t-14.5 -10t-8.5 3
q-138 88 -139 206q0 52 35 95t90 43z" />
    <glyph glyph-name="uni1F10" unicode="&#x1f10;" horiz-adv-x="612" 
d="M376 1438q55 0 89.5 -43t34.5 -95q0 -115 -136 -204q-6 -5 -11 -5t-15 10t-10 15t6 10q68 66 68 104q0 37 -30.5 48t-53.5 33.5t-23 56.5t25 52t56 18zM253 -23q-90 0 -146.5 48t-56.5 121t37.5 141.5t80.5 101.5q-22 13 -49.5 59t-27.5 99.5t43.5 126.5t112 134.5
t169.5 61.5q50 0 93 -21t43 -59t-47.5 -55.5t-107.5 -17.5q-101 0 -170 -58t-69 -129q0 -40 14.5 -68t36.5 -40q50 34 101.5 69t100.5 35t67 -18.5t18 -45.5q0 -44 -48.5 -80t-148.5 -36q-42 0 -77 13q-45 -43 -59 -78.5t-14 -63.5q0 -36 24 -60.5t84.5 -24.5t110.5 21
t73.5 47t58.5 26q21 0 33 -9.5t12 -27.5q0 -28 -47.5 -88t-110.5 -92t-134 -32z" />
    <glyph glyph-name="uni1F11" unicode="&#x1f11;" horiz-adv-x="612" 
d="M397 1438q31 0 55.5 -18t24.5 -52t-22.5 -56.5t-52.5 -33.5t-30 -49t68 -104q4 -3 4 -8.5t-10 -15.5t-14.5 -10t-8.5 3q-138 88 -139 206q0 52 35 95t90 43zM253 -23q-90 0 -146.5 48t-56.5 121t37.5 141.5t80.5 101.5q-22 13 -49.5 59t-27.5 99.5t43.5 126.5t112 134.5
t169.5 61.5q50 0 93 -21t43 -59t-47.5 -55.5t-107.5 -17.5q-101 0 -170 -58t-69 -129q0 -40 14.5 -68t36.5 -40q50 34 101.5 69t100.5 35t67 -18.5t18 -45.5q0 -44 -48.5 -80t-148.5 -36q-42 0 -77 13q-45 -43 -59 -78.5t-14 -63.5q0 -36 24 -60.5t84.5 -24.5t110.5 21
t73.5 47t58.5 26q21 0 33 -9.5t12 -27.5q0 -28 -47.5 -88t-110.5 -92t-134 -32z" />
    <glyph glyph-name="uni1F12" unicode="&#x1f12;" horiz-adv-x="612" 
d="M602 1028q-53 0 -100 142l-77 230q-35 108 -35 132t21 56t45 32q29 0 47 -78l111 -480q2 -6 2 -13q0 -21 -14 -21zM221 1438q55 0 89.5 -43t34.5 -95q0 -118 -137 -205q-5 -4 -10 -4t-15 9.5t-10 14.5t4 10q69 68 69 105t-30 48t-53 33.5t-23 56.5t25 52t56 18zM253 -23
q-90 0 -146.5 48t-56.5 121t37.5 141.5t80.5 101.5q-22 13 -49.5 59t-27.5 99.5t43.5 126.5t112 134.5t169.5 61.5q50 0 93 -21t43 -59t-47.5 -55.5t-107.5 -17.5q-101 0 -170 -58t-69 -129q0 -40 14.5 -68t36.5 -40q50 34 101.5 69t100.5 35t67 -18.5t18 -45.5
q0 -44 -48.5 -80t-148.5 -36q-42 0 -77 13q-45 -43 -59 -78.5t-14 -63.5q0 -36 24 -60.5t84.5 -24.5t110.5 21t73.5 47t58.5 26q21 0 33 -9.5t12 -27.5q0 -28 -47.5 -88t-110.5 -92t-134 -32z" />
    <glyph glyph-name="uni1F13" unicode="&#x1f13;" horiz-adv-x="612" 
d="M258 1438q31 0 55.5 -18t24.5 -52t-22.5 -56.5t-52.5 -33.5t-30 -49t68 -104q4 -3 4 -8.5t-10 -15.5t-14.5 -10t-8.5 3q-138 88 -139 206q0 52 35 95t90 43zM592 1028q-53 0 -100 142l-77 230q-35 108 -35 132t21 56t47.5 32t44.5 -78l111 -477q2 -9 2 -16q0 -21 -14 -21
zM253 -23q-90 0 -146.5 48t-56.5 121t37.5 141.5t80.5 101.5q-22 13 -49.5 59t-27.5 99.5t43.5 126.5t112 134.5t169.5 61.5q50 0 93 -21t43 -59t-47.5 -55.5t-107.5 -17.5q-101 0 -170 -58t-69 -129q0 -40 14.5 -68t36.5 -40q50 34 101.5 69t100.5 35t67 -18.5t18 -45.5
q0 -44 -48.5 -80t-148.5 -36q-42 0 -77 13q-45 -43 -59 -78.5t-14 -63.5q0 -36 24 -60.5t84.5 -24.5t110.5 21t73.5 47t58.5 26q21 0 33 -9.5t12 -27.5q0 -28 -47.5 -88t-110.5 -92t-134 -32z" />
    <glyph glyph-name="uni1F14" unicode="&#x1f14;" horiz-adv-x="612" 
d="M206 1438q55 0 89.5 -43t34.5 -95q0 -118 -137 -205q-5 -4 -10 -4t-15 9.5t-10 14.5t4 10q69 68 69 105t-30 48t-53 33.5t-23 56.5t25 52t56 18zM417 1028q-14 0 -15 21q0 7 2 13l111 480q18 77 48 78q23 0 44.5 -32t21.5 -56t-36 -132l-76 -230q-46 -142 -100 -142z
M253 -23q-90 0 -146.5 48t-56.5 121t37.5 141.5t80.5 101.5q-22 13 -49.5 59t-27.5 99.5t43.5 126.5t112 134.5t169.5 61.5q50 0 93 -21t43 -59t-47.5 -55.5t-107.5 -17.5q-101 0 -170 -58t-69 -129q0 -40 14.5 -68t36.5 -40q50 34 101.5 69t100.5 35t67 -18.5t18 -45.5
q0 -44 -48.5 -80t-148.5 -36q-42 0 -77 13q-45 -43 -59 -78.5t-14 -63.5q0 -36 24 -60.5t84.5 -24.5t110.5 21t73.5 47t58.5 26q21 0 33 -9.5t12 -27.5q0 -28 -47.5 -88t-110.5 -92t-134 -32z" />
    <glyph glyph-name="uni1F15" unicode="&#x1f15;" horiz-adv-x="612" 
d="M259 1438q31 0 55.5 -18t24.5 -52t-22.5 -56.5t-52.5 -33.5t-30 -49t68 -104q4 -3 4 -8.5t-10 -15.5t-14.5 -10t-8.5 3q-138 88 -139 206q0 52 35 95t90 43zM420 1028q-14 0 -14 21q0 7 2 13l112 480q18 77 47 78q23 0 44.5 -32t21.5 -56t-36 -132l-77 -230
q-48 -142 -100 -142zM253 -23q-90 0 -146.5 48t-56.5 121t37.5 141.5t80.5 101.5q-22 13 -49.5 59t-27.5 99.5t43.5 126.5t112 134.5t169.5 61.5q50 0 93 -21t43 -59t-47.5 -55.5t-107.5 -17.5q-101 0 -170 -58t-69 -129q0 -40 14.5 -68t36.5 -40q50 34 101.5 69t100.5 35
t67 -18.5t18 -45.5q0 -44 -48.5 -80t-148.5 -36q-42 0 -77 13q-45 -43 -59 -78.5t-14 -63.5q0 -36 24 -60.5t84.5 -24.5t110.5 21t73.5 47t58.5 26q21 0 33 -9.5t12 -27.5q0 -28 -47.5 -88t-110.5 -92t-134 -32z" />
    <glyph glyph-name="uni1F18" unicode="&#x1f18;" horiz-adv-x="1568" 
d="M171 1438q55 0 89.5 -43t34.5 -95q0 -115 -136 -204q-6 -5 -11 -5t-15 10t-10 15t6 10q67 66 67 104q0 37 -30 48t-53 33.5t-23 56.5t25 52t56 18zM601 177v918q0 110 -187 110q-14 0 -14 35t14 35h901q23 0 31 -18l101 -292q0 -17 -16.5 -34.5t-31.5 -17.5t-89.5 149.5
t-283.5 149.5h-224q-41 0 -41 -48v-438q0 -33 28 -33h181q78 0 97.5 29t19.5 88v74q0 13 35 13t35 -13v-497q0 -13 -35 -13t-35 13v142q0 43 -19.5 69t-97.5 26h-184q-25 0 -25 -31v-331q0 -113 65 -168q38 -32 91 -32h287q158 0 267 278q5 14 38 14t33 -19l-85 -315
q-5 -20 -34 -20h-1009q-14 0 -14 34t14 35q187 0 187 108z" />
    <glyph glyph-name="uni1F19" unicode="&#x1f19;" horiz-adv-x="1553" 
d="M587 177v918q0 110 -187 110q-14 0 -14 35t14 35h901q23 0 31 -18l101 -292q0 -17 -16.5 -34.5t-31.5 -17.5t-89.5 149.5t-283.5 149.5h-224q-41 0 -41 -48v-438q0 -33 28 -33h181q78 0 97.5 29t19.5 88v74q0 13 35 13t35 -13v-497q0 -13 -35 -13t-35 13v142
q0 43 -19.5 69t-97.5 26h-184q-25 0 -25 -31v-331q0 -113 65 -168q38 -32 91 -32h287q158 0 267 278q5 14 38 14t33 -19l-85 -315q-5 -20 -34 -20h-1009q-14 0 -14 34t14 35q187 0 187 108zM200 1438q31 0 55.5 -18t24.5 -52t-22.5 -56.5t-52.5 -33.5t-30 -49t68 -104
q4 -3 4 -8.5t-10 -15.5t-14.5 -10t-8.5 3q-138 88 -139 206q0 52 35 95t90 43z" />
    <glyph glyph-name="uni1F1A" unicode="&#x1f1a;" horiz-adv-x="1778" 
d="M815 177v918q0 110 -187 110q-14 0 -14 35t14 35h901q23 0 31 -18l101 -292q0 -17 -16.5 -34.5t-31.5 -17.5t-89.5 149.5t-283.5 149.5h-224q-41 0 -41 -48v-438q0 -33 28 -33h181q78 0 97.5 29t19.5 88v74q0 13 35 13t35 -13v-497q0 -13 -35 -13t-35 13v142
q0 43 -19.5 69t-97.5 26h-184q-25 0 -25 -31v-331q0 -113 65 -168q38 -32 91 -32h287q158 0 267 278q5 14 38 14t33 -19l-85 -315q-5 -20 -34 -20h-1009q-14 0 -14 34t14 35q187 0 187 108zM548 1028q-53 0 -100 142l-77 230q-35 108 -35 132t21 56t45 32q29 0 47 -78
l111 -480q2 -6 2 -13q0 -21 -14 -21zM167 1438q55 0 89.5 -43t34.5 -95q0 -118 -137 -205q-5 -4 -10 -4t-15 9.5t-10 14.5t4 10q69 68 69 105t-30 48t-53 33.5t-23 56.5t25 52t56 18z" />
    <glyph glyph-name="uni1F1B" unicode="&#x1f1b;" horiz-adv-x="1757" 
d="M791 176v918q0 110 -187 110q-14 0 -14 35t14 35h901q23 0 31 -18l101 -292q0 -17 -16.5 -34.5t-31.5 -17.5t-89.5 149.5t-283.5 149.5h-224q-41 0 -41 -48v-438q0 -33 28 -33h181q78 0 97.5 29t19.5 88v74q0 13 35 13t35 -13v-497q0 -13 -35 -13t-35 13v142
q0 43 -19.5 69t-97.5 26h-184q-25 0 -25 -31v-331q0 -113 65 -168q38 -32 91 -32h287q158 0 267 278q5 14 38 14t33 -19l-85 -315q-5 -20 -34 -20h-1009q-14 0 -14 34t14 35q187 0 187 108zM192 1438q31 0 55.5 -18t24.5 -52t-22.5 -56.5t-52.5 -33.5t-30 -49t68 -104
q4 -3 4 -8.5t-10 -15.5t-14.5 -10t-8.5 3q-138 88 -139 206q0 52 35 95t90 43zM526 1028q-53 0 -100 142l-77 230q-35 108 -35 132t21 56t47.5 32t44.5 -78l111 -477q2 -9 2 -16q0 -21 -14 -21z" />
    <glyph glyph-name="uni1F1C" unicode="&#x1f1c;" horiz-adv-x="1803" 
d="M839 177v918q0 110 -187 110q-14 0 -14 35t14 35h901q23 0 31 -18l101 -292q0 -17 -16.5 -34.5t-31.5 -17.5t-89.5 149.5t-283.5 149.5h-224q-41 0 -41 -48v-438q0 -33 28 -33h181q78 0 97.5 29t19.5 88v74q0 13 35 13t35 -13v-497q0 -13 -35 -13t-35 13v142
q0 43 -19.5 69t-97.5 26h-184q-25 0 -25 -31v-331q0 -113 65 -168q38 -32 91 -32h287q158 0 267 278q5 14 38 14t33 -19l-85 -315q-5 -20 -34 -20h-1009q-14 0 -14 34t14 35q187 0 187 108zM164 1438q55 0 89.5 -43t34.5 -95q0 -118 -137 -205q-5 -4 -10 -4t-15 9.5
t-10 14.5t4 10q69 68 69 105t-30 48t-53 33.5t-23 56.5t25 52t56 18zM375 1028q-14 0 -15 21q0 7 2 13l111 480q18 77 48 78q23 0 44.5 -32t21.5 -56t-36 -132l-76 -230q-46 -142 -100 -142z" />
    <glyph glyph-name="uni1F1D" unicode="&#x1f1d;" horiz-adv-x="1779" 
d="M814 177v918q0 110 -187 110q-14 0 -14 35t14 35h901q23 0 31 -18l101 -292q0 -17 -16.5 -34.5t-31.5 -17.5t-89.5 149.5t-283.5 149.5h-224q-41 0 -41 -48v-438q0 -33 28 -33h181q78 0 97.5 29t19.5 88v74q0 13 35 13t35 -13v-497q0 -13 -35 -13t-35 13v142
q0 43 -19.5 69t-97.5 26h-184q-25 0 -25 -31v-331q0 -113 65 -168q38 -32 91 -32h287q158 0 267 278q5 14 38 14t33 -19l-85 -315q-5 -20 -34 -20h-1009q-14 0 -14 34t14 35q187 0 187 108zM196 1438q31 0 55.5 -18t24.5 -52t-22.5 -56.5t-52.5 -33.5t-30 -49t68 -104
q4 -3 4 -8.5t-10 -15.5t-14.5 -10t-8.5 3q-138 88 -139 206q0 52 35 95t90 43zM357 1028q-14 0 -14 21q0 7 2 13l112 480q18 77 47 78q23 0 44.5 -32t21.5 -56t-36 -132l-77 -230q-48 -142 -100 -142z" />
    <glyph glyph-name="uni1F20" unicode="&#x1f20;" 
d="M471 1438q55 0 89.5 -43t34.5 -95q0 -118 -137 -205q-5 -4 -10 -4t-15 9.5t-10 14.5t4 10q69 68 69 105t-30 48t-53 33.5t-23 56.5t25 52t56 18zM233 606q0 23 -4 55.5t-22 32.5t-31.5 -21.5t-38.5 -21.5q-55 0 -55 71t39.5 126t95 55t80.5 -50.5t25 -112.5t-6.5 -107
t-31.5 -163q-1 -7 -1 -14q0 -8 8 -8t18 22q87 182 179.5 291t160.5 109q50 0 84.5 -35t34.5 -161t-17 -406t-25 -311q-37 -140 -95 -140q-26 0 -43.5 43t-17.5 75t21.5 91.5t62.5 233.5t41 302q0 72 -8.5 113t-46.5 41t-145 -157t-186.5 -321t-120.5 -244q-9 -16 -77 -16
q-61 0 -61 18q0 5 2 12l99 281q82 225 82 317z" />
    <glyph glyph-name="uni1F21" unicode="&#x1f21;" 
d="M519 1438q31 0 55.5 -18t24.5 -52t-22.5 -56.5t-52.5 -33.5t-30 -49t68 -104q4 -3 4 -8.5t-10 -15.5t-14.5 -10t-8.5 3q-138 88 -139 206q0 52 35 95t90 43zM233 606q0 23 -4 55.5t-22 32.5t-31.5 -21.5t-38.5 -21.5q-55 0 -55 71t39.5 126t95 55t80.5 -50.5t25 -112.5
t-6.5 -107t-31.5 -163q-1 -7 -1 -14q0 -8 8 -8t18 22q87 182 179.5 291t160.5 109q50 0 84.5 -35t34.5 -161t-17 -406t-25 -311q-37 -140 -95 -140q-26 0 -43.5 43t-17.5 75t21.5 91.5t62.5 233.5t41 302q0 72 -8.5 113t-46.5 41t-145 -157t-186.5 -321t-120.5 -244
q-9 -16 -77 -16q-61 0 -61 18q0 5 2 12l99 281q82 225 82 317z" />
    <glyph glyph-name="uni1F22" unicode="&#x1f22;" 
d="M765 1028q-53 0 -100 142l-77 230q-36 108 -36 132t21.5 56t45.5 32q29 0 47 -78l111 -480q2 -6 2 -13q0 -21 -14 -21zM384 1438q55 0 89.5 -43t34.5 -95q0 -118 -137 -205q-5 -4 -10 -4t-15 9.5t-10 14.5t4 10q69 68 69 105t-30 48t-53 33.5t-23 56.5t25 52t56 18z
M233 606q0 23 -4 55.5t-22 32.5t-31.5 -21.5t-38.5 -21.5q-55 0 -55 71t39.5 126t95 55t80.5 -50.5t25 -112.5t-6.5 -107t-31.5 -163q-1 -7 -1 -14q0 -8 8 -8t18 22q87 182 179.5 291t160.5 109q50 0 84.5 -35t34.5 -161t-17 -406t-25 -311q-37 -140 -95 -140
q-26 0 -43.5 43t-17.5 75t21.5 91.5t62.5 233.5t41 302q0 72 -8.5 113t-46.5 41t-145 -157t-186.5 -321t-120.5 -244q-9 -16 -77 -16q-61 0 -61 18q0 5 2 12l99 281q82 225 82 317z" />
    <glyph glyph-name="uni1F23" unicode="&#x1f23;" 
d="M416 1438q31 0 55.5 -18t24.5 -52t-22.5 -56.5t-52.5 -33.5t-30 -49t68 -104q4 -3 4 -8.5t-10 -15.5t-14.5 -10t-8.5 3q-138 88 -139 206q0 52 35 95t90 43zM750 1028q-53 0 -100 142l-77 230q-35 108 -35 132t21 56t47.5 32t44.5 -78l111 -477q2 -9 2 -16q0 -21 -14 -21
zM233 606q0 23 -4 55.5t-22 32.5t-31.5 -21.5t-38.5 -21.5q-55 0 -55 71t39.5 126t95 55t80.5 -50.5t25 -112.5t-6.5 -107t-31.5 -163q-1 -7 -1 -14q0 -8 8 -8t18 22q87 182 179.5 291t160.5 109q50 0 84.5 -35t34.5 -161t-17 -406t-25 -311q-37 -140 -95 -140
q-26 0 -43.5 43t-17.5 75t21.5 91.5t62.5 233.5t41 302q0 72 -8.5 113t-46.5 41t-145 -157t-186.5 -321t-120.5 -244q-9 -16 -77 -16q-61 0 -61 18q0 5 2 12l99 281q82 225 82 317z" />
    <glyph glyph-name="uni1F24" unicode="&#x1f24;" 
d="M438 1438q55 0 89.5 -43t34.5 -95q0 -118 -137 -205q-5 -4 -10 -4t-15 9.5t-10 14.5t4 10q69 68 69 105t-30 48t-53 33.5t-23 56.5t25 52t56 18zM649 1028q-14 0 -15 21q0 7 2 13l111 480q18 77 48 78q23 0 44.5 -32t21.5 -56t-36 -132l-76 -230q-46 -142 -100 -142z
M233 606q0 23 -4 55.5t-22 32.5t-31.5 -21.5t-38.5 -21.5q-55 0 -55 71t39.5 126t95 55t80.5 -50.5t25 -112.5t-6.5 -107t-31.5 -163q-1 -7 -1 -14q0 -8 8 -8t18 22q87 182 179.5 291t160.5 109q50 0 84.5 -35t34.5 -161t-17 -406t-25 -311q-37 -140 -95 -140
q-26 0 -43.5 43t-17.5 75t21.5 91.5t62.5 233.5t41 302q0 72 -8.5 113t-46.5 41t-145 -157t-186.5 -321t-120.5 -244q-9 -16 -77 -16q-61 0 -61 18q0 5 2 12l99 281q82 225 82 317z" />
    <glyph glyph-name="uni1F25" unicode="&#x1f25;" 
d="M481 1438q31 0 55.5 -18t24.5 -52t-22.5 -56.5t-52.5 -33.5t-30 -49t68 -104q4 -3 4 -8.5t-10 -15.5t-14.5 -10t-8.5 3q-138 88 -139 206q0 52 35 95t90 43zM642 1028q-14 0 -14 21q0 7 2 13l112 480q18 77 47 78q23 0 44.5 -32t21.5 -56t-36 -132l-77 -230
q-48 -142 -100 -142zM233 606q0 23 -4 55.5t-22 32.5t-31.5 -21.5t-38.5 -21.5q-55 0 -55 71t39.5 126t95 55t80.5 -50.5t25 -112.5t-6.5 -107t-31.5 -163q-1 -7 -1 -14q0 -8 8 -8t18 22q87 182 179.5 291t160.5 109q50 0 84.5 -35t34.5 -161t-17 -406t-25 -311
q-37 -140 -95 -140q-26 0 -43.5 43t-17.5 75t21.5 91.5t62.5 233.5t41 302q0 72 -8.5 113t-46.5 41t-145 -157t-186.5 -321t-120.5 -244q-9 -16 -77 -16q-61 0 -61 18q0 5 2 12l99 281q82 225 82 317z" />
    <glyph glyph-name="uni1F26" unicode="&#x1f26;" 
d="M300 1523q0 1 1 2q40 65 92.5 104t102.5 39t130 -29.5t125.5 -29.5t118.5 68q1 1 4.5 1t13.5 -8.5t10 -19.5q0 -4 -1 -8q-14 -41 -86 -89t-119 -48t-129 31.5t-128 31.5t-110 -61q-4 -4 -8.5 -4t-10.5 7.5t-6 12.5zM568 1438q55 0 89.5 -43t34.5 -95q0 -115 -136 -204
q-6 -5 -11 -5t-15 10t-10 15t6 10q68 66 68 104q0 37 -30.5 48t-53.5 33.5t-23 56.5t25 52t56 18zM233 606q0 23 -4 55.5t-22 32.5t-31.5 -21.5t-38.5 -21.5q-55 0 -55 71t39.5 126t95 55t80.5 -50.5t25 -112.5t-6.5 -107t-31.5 -163q-1 -7 -1 -14q0 -8 8 -8t18 22
q87 182 179.5 291t160.5 109q50 0 84.5 -35t34.5 -161t-17 -406t-25 -311q-37 -140 -95 -140q-26 0 -43.5 43t-17.5 75t21.5 91.5t62.5 233.5t41 302q0 72 -8.5 113t-46.5 41t-145 -157t-186.5 -321t-120.5 -244q-9 -16 -77 -16q-61 0 -61 18q0 5 2 12l99 281q82 225 82 317
z" />
    <glyph glyph-name="uni1F27" unicode="&#x1f27;" 
d="M306 1523q0 1 1 2q40 65 92.5 104t102.5 39t130 -29.5t125.5 -29.5t118.5 68q1 1 4.5 1t13.5 -8.5t10 -19.5q0 -4 -1 -8q-14 -41 -86 -89t-119 -48t-129 31.5t-128 31.5t-110 -61q-4 -4 -8.5 -4t-10.5 7.5t-6 12.5zM618 1438q31 0 55.5 -18t24.5 -52t-22.5 -56.5
t-52.5 -33.5t-30 -49t68 -104q4 -3 4 -8.5t-10 -15.5t-14.5 -10t-8.5 3q-138 88 -139 206q0 52 35 95t90 43zM233 606q0 23 -4 55.5t-22 32.5t-31.5 -21.5t-38.5 -21.5q-55 0 -55 71t39.5 126t95 55t80.5 -50.5t25 -112.5t-6.5 -107t-31.5 -163q-1 -7 -1 -14q0 -8 8 -8
t18 22q87 182 179.5 291t160.5 109q50 0 84.5 -35t34.5 -161t-17 -406t-25 -311q-37 -140 -95 -140q-26 0 -43.5 43t-17.5 75t21.5 91.5t62.5 233.5t41 302q0 72 -8.5 113t-46.5 41t-145 -157t-186.5 -321t-120.5 -244q-9 -16 -77 -16q-61 0 -61 18q0 5 2 12l99 281
q82 225 82 317z" />
    <glyph glyph-name="uni1F28" unicode="&#x1f28;" horiz-adv-x="1795" 
d="M1566 186q0 -117 180 -117q13 0 13 -34.5t-13 -34.5h-518q-13 0 -13 34t13 35q178 0 178 117v365q0 38 -39 38h-574q-39 0 -39 -38v-365q0 -117 180 -117q13 0 13 -34.5t-13 -34.5h-518q-13 0 -13 34t13 35q178 0 178 117v903q0 115 -189 115q-14 0 -14 35.5t14 35.5h529
q13 0 13 -35.5t-13 -35.5q-180 0 -180 -115v-377q0 -39 39 -39h574q39 0 39 39v377q0 115 -189 115q-14 0 -14 35.5t14 35.5h529q13 0 13 -35.5t-13 -35.5q-180 0 -180 -115v-903zM159 1438q55 0 89.5 -43t34.5 -95q0 -115 -136 -204q-6 -5 -11 -5t-15 10t-10 15t6 10
q67 66 67 104q0 37 -30 48t-53 33.5t-23 56.5t25 52t56 18z" />
    <glyph glyph-name="uni1F29" unicode="&#x1f29;" horiz-adv-x="1795" 
d="M1566 186q0 -117 180 -117q13 0 13 -34.5t-13 -34.5h-518q-13 0 -13 34t13 35q178 0 178 117v365q0 38 -39 38h-574q-39 0 -39 -38v-365q0 -117 180 -117q13 0 13 -34.5t-13 -34.5h-518q-13 0 -13 34t13 35q178 0 178 117v903q0 115 -189 115q-14 0 -14 35.5t14 35.5h529
q13 0 13 -35.5t-13 -35.5q-180 0 -180 -115v-377q0 -39 39 -39h574q39 0 39 39v377q0 115 -189 115q-14 0 -14 35.5t14 35.5h529q13 0 13 -35.5t-13 -35.5q-180 0 -180 -115v-903zM227 1438q31 0 55.5 -18t24.5 -52t-22.5 -56.5t-52.5 -33.5t-30 -49t68 -104q4 -3 4 -8.5
t-10 -15.5t-14.5 -10t-8.5 3q-138 88 -139 206q0 52 35 95t90 43z" />
    <glyph glyph-name="uni1F2A" unicode="&#x1f2a;" horiz-adv-x="2041" 
d="M1812 186q0 -117 180 -117q13 0 13 -34.5t-13 -34.5h-518q-13 0 -13 34t13 35q178 0 178 117v365q0 38 -39 38h-574q-39 0 -39 -38v-365q0 -117 180 -117q13 0 13 -34.5t-13 -34.5h-518q-13 0 -13 34t13 35q178 0 178 117v903q0 115 -189 115q-14 0 -14 35.5t14 35.5h529
q13 0 13 -35.5t-13 -35.5q-180 0 -180 -115v-377q0 -39 39 -39h574q39 0 39 39v377q0 115 -189 115q-14 0 -14 35.5t14 35.5h529q13 0 13 -35.5t-13 -35.5q-180 0 -180 -115v-903zM545 1027q-53 0 -100 142l-77 230q-36 108 -36 132t21.5 56t45.5 32q29 0 47 -78l111 -480
q2 -6 2 -13q0 -21 -14 -21zM164 1437q55 0 89.5 -43t34.5 -95q0 -118 -137 -205q-5 -4 -10 -4t-15 9.5t-10 14.5t4 10q69 68 69 105t-30 48t-53 33.5t-23 56.5t25 52t56 18z" />
    <glyph glyph-name="uni1F2B" unicode="&#x1f2b;" horiz-adv-x="2027" 
d="M1798 186q0 -117 180 -117q13 0 13 -34.5t-13 -34.5h-518q-13 0 -13 34t13 35q178 0 178 117v365q0 38 -39 38h-574q-39 0 -39 -38v-365q0 -117 180 -117q13 0 13 -34.5t-13 -34.5h-518q-13 0 -13 34t13 35q178 0 178 117v903q0 115 -189 115q-14 0 -14 35.5t14 35.5h529
q13 0 13 -35.5t-13 -35.5q-180 0 -180 -115v-377q0 -39 39 -39h574q39 0 39 39v377q0 115 -189 115q-14 0 -14 35.5t14 35.5h529q13 0 13 -35.5t-13 -35.5q-180 0 -180 -115v-903zM207 1438q31 0 55.5 -18t24.5 -52t-22.5 -56.5t-52.5 -33.5t-30 -49t68 -104q4 -3 4 -8.5
t-10 -15.5t-14.5 -10t-8.5 3q-138 88 -139 206q0 52 35 95t90 43zM541 1028q-53 0 -100 142l-77 230q-36 108 -36 132t21.5 56t48 32t44.5 -78l111 -477q2 -9 2 -16q0 -21 -14 -21z" />
    <glyph glyph-name="uni1F2C" unicode="&#x1f2c;" horiz-adv-x="2051" 
d="M1822 186q0 -117 180 -117q13 0 13 -34.5t-13 -34.5h-518q-13 0 -13 34t13 35q178 0 178 117v365q0 38 -39 38h-574q-39 0 -39 -38v-365q0 -117 180 -117q13 0 13 -34.5t-13 -34.5h-518q-13 0 -13 34t13 35q178 0 178 117v903q0 115 -189 115q-14 0 -14 35.5t14 35.5h529
q13 0 13 -35.5t-13 -35.5q-180 0 -180 -115v-377q0 -39 39 -39h574q39 0 39 39v377q0 115 -189 115q-14 0 -14 35.5t14 35.5h529q13 0 13 -35.5t-13 -35.5q-180 0 -180 -115v-903zM176 1438q55 0 89.5 -43t34.5 -95q0 -118 -137 -205q-5 -4 -10 -4t-15 9.5t-10 14.5t4 10
q69 68 69 105t-30 48t-53 33.5t-23 56.5t25 52t56 18zM387 1028q-14 0 -15 21q0 7 2 13l111 480q18 77 48 78q23 0 44.5 -32t21.5 -56t-36 -132l-76 -230q-46 -142 -100 -142z" />
    <glyph glyph-name="uni1F2D" unicode="&#x1f2d;" horiz-adv-x="2027" 
d="M1798 186q0 -117 180 -117q13 0 13 -34.5t-13 -34.5h-518q-13 0 -13 34t13 35q178 0 178 117v365q0 38 -39 38h-574q-39 0 -39 -38v-365q0 -117 180 -117q13 0 13 -34.5t-13 -34.5h-518q-13 0 -13 34t13 35q178 0 178 117v903q0 115 -189 115q-14 0 -14 35.5t14 35.5h529
q13 0 13 -35.5t-13 -35.5q-180 0 -180 -115v-377q0 -39 39 -39h574q39 0 39 39v377q0 115 -189 115q-14 0 -14 35.5t14 35.5h529q13 0 13 -35.5t-13 -35.5q-180 0 -180 -115v-903zM206 1438q31 0 55.5 -18t24.5 -52t-22.5 -56.5t-52.5 -33.5t-30 -49t68 -104q4 -3 4 -8.5
t-10 -15.5t-14.5 -10t-8.5 3q-138 88 -139 206q0 52 35 95t90 43zM367 1028q-14 0 -14 21q0 7 2 13l112 480q18 77 47 78q23 0 44.5 -32t21.5 -56t-36 -132l-77 -230q-48 -142 -100 -142z" />
    <glyph glyph-name="uni1F2E" unicode="&#x1f2e;" horiz-adv-x="1964" 
d="M1735 186q0 -117 180 -117q13 0 13 -34.5t-13 -34.5h-518q-13 0 -13 34t13 35q178 0 178 117v365q0 38 -39 38h-574q-39 0 -39 -38v-365q0 -117 180 -117q13 0 13 -34.5t-13 -34.5h-518q-13 0 -13 34t13 35q178 0 178 117v903q0 115 -189 115q-14 0 -14 35.5t14 35.5h529
q13 0 13 -35.5t-13 -35.5q-180 0 -180 -115v-377q0 -39 39 -39h574q39 0 39 39v377q0 115 -189 115q-14 0 -14 35.5t14 35.5h529q13 0 13 -35.5t-13 -35.5q-180 0 -180 -115v-903zM23 1523q0 1 1 2q40 65 92.5 104t102.5 39t130 -29.5t125.5 -29.5t118.5 68q1 1 4.5 1
t13.5 -8.5t10 -19.5q0 -4 -1 -8q-14 -41 -86 -89t-119 -48t-129 31.5t-128 31.5t-110 -61q-4 -4 -8.5 -4t-10.5 7.5t-6 12.5zM291 1438q55 0 89.5 -43t34.5 -95q0 -115 -136 -204q-6 -5 -11 -5t-15 10t-10 15t6 10q67 66 67 104q0 37 -30 48t-53 33.5t-23 56.5t25 52t56 18z
" />
    <glyph glyph-name="uni1F2F" unicode="&#x1f2f;" horiz-adv-x="1955" 
d="M1726 186q0 -117 180 -117q13 0 13 -34.5t-13 -34.5h-518q-13 0 -13 34t13 35q178 0 178 117v365q0 38 -39 38h-574q-39 0 -39 -38v-365q0 -117 180 -117q13 0 13 -34.5t-13 -34.5h-518q-13 0 -13 34t13 35q178 0 178 117v903q0 115 -189 115q-14 0 -14 35.5t14 35.5h529
q13 0 13 -35.5t-13 -35.5q-180 0 -180 -115v-377q0 -39 39 -39h574q39 0 39 39v377q0 115 -189 115q-14 0 -14 35.5t14 35.5h529q13 0 13 -35.5t-13 -35.5q-180 0 -180 -115v-903zM38 1523q0 1 1 2q40 65 92.5 104t102.5 39t130 -29.5t125.5 -29.5t118.5 68q1 1 4.5 1
t13.5 -8.5t10 -19.5q0 -4 -1 -8q-14 -41 -86 -89t-119 -48t-129 31.5t-128 31.5t-110 -61q-4 -4 -8.5 -4t-10.5 7.5t-6 12.5zM350 1438q31 0 55.5 -18t24.5 -52t-22.5 -56.5t-52.5 -33.5t-30 -49t68 -104q4 -3 4 -8.5t-10 -15.5t-14.5 -10t-8.5 3q-138 88 -139 206
q0 52 35 95t90 43z" />
    <glyph glyph-name="uni1F30" unicode="&#x1f30;" horiz-adv-x="445" 
d="M319 1438q55 0 89.5 -43t34.5 -95q0 -115 -136 -204q-6 -5 -11 -5t-15 10t-10 15t6 10q67 66 67 104q0 37 -30 48t-53 33.5t-23 56.5t25 52t56 18zM40 105q0 48 24 132l168 588q13 45 76 45q45 0 61 -19.5t16 -58.5q0 -50 -99 -249t-111 -293q29 12 75 12q36 0 57 -29
t21 -61q0 -74 -50 -137.5t-119 -63.5q-55 0 -87 31.5t-32 102.5z" />
    <glyph glyph-name="uni1F31" unicode="&#x1f31;" horiz-adv-x="445" 
d="M366 1438q31 0 55.5 -18t24.5 -52t-22.5 -56.5t-52.5 -33.5t-30 -49t68 -104q4 -3 4 -8.5t-10 -15.5t-14.5 -10t-8.5 3q-138 88 -139 206q0 52 35 95t90 43zM40 105q0 48 24 132l168 588q13 45 76 45q45 0 61 -19.5t16 -58.5q0 -50 -99 -249t-111 -293q29 12 75 12
q36 0 57 -29t21 -61q0 -74 -50 -137.5t-119 -63.5q-55 0 -87 31.5t-32 102.5z" />
    <glyph glyph-name="uni1F32" unicode="&#x1f32;" horiz-adv-x="445" 
d="M531 1028q-53 0 -100 142l-77 230q-36 108 -36 132t21.5 56t45.5 32q29 0 47 -78l111 -480q2 -6 2 -13q0 -21 -14 -21zM150 1438q55 0 89.5 -43t34.5 -95q0 -118 -137 -205q-5 -4 -10 -4t-15 9.5t-10 14.5t4 10q69 68 69 105t-30 48t-53 33.5t-23 56.5t25 52t56 18z
M40 105q0 48 24 132l168 588q13 45 76 45q45 0 61 -19.5t16 -58.5q0 -50 -99 -249t-111 -293q29 12 75 12q36 0 57 -29t21 -61q0 -74 -50 -137.5t-119 -63.5q-55 0 -87 31.5t-32 102.5z" />
    <glyph glyph-name="uni1F33" unicode="&#x1f33;" horiz-adv-x="445" 
d="M174 1438q31 0 55.5 -18t24.5 -52t-22.5 -56.5t-52.5 -33.5t-30 -49t68 -104q4 -3 4 -8.5t-10 -15.5t-14.5 -10t-8.5 3q-138 88 -139 206q0 52 35 95t90 43zM508 1028q-53 0 -100 142l-77 230q-35 108 -35 132t21 56t47.5 32t44.5 -78l111 -477q2 -9 2 -16q0 -21 -14 -21
zM40 105q0 48 24 132l168 588q13 45 76 45q45 0 61 -19.5t16 -58.5q0 -50 -99 -249t-111 -293q29 12 75 12q36 0 57 -29t21 -61q0 -74 -50 -137.5t-119 -63.5q-55 0 -87 31.5t-32 102.5z" />
    <glyph glyph-name="uni1F34" unicode="&#x1f34;" horiz-adv-x="445" 
d="M190 1438q55 0 89.5 -43t34.5 -95q0 -118 -137 -205q-5 -4 -10 -4t-15 9.5t-10 14.5t4 10q69 68 69 105t-30 48t-53 33.5t-23 56.5t25 52t56 18zM401 1028q-14 0 -15 21q0 7 2 13l111 480q18 77 48 78q23 0 44.5 -32t21.5 -56t-36 -132l-76 -230q-46 -142 -100 -142z
M40 105q0 48 24 132l168 588q13 45 76 45q45 0 61 -19.5t16 -58.5q0 -50 -99 -249t-111 -293q29 12 75 12q36 0 57 -29t21 -61q0 -74 -50 -137.5t-119 -63.5q-55 0 -87 31.5t-32 102.5z" />
    <glyph glyph-name="uni1F35" unicode="&#x1f35;" horiz-adv-x="445" 
d="M221 1438q31 0 55.5 -18t24.5 -52t-22.5 -56.5t-52.5 -33.5t-30 -49t68 -104q4 -3 4 -8.5t-10 -15.5t-14.5 -10t-8.5 3q-138 88 -139 206q0 52 35 95t90 43zM382 1028q-14 0 -14 21q0 7 2 13l112 480q18 77 47 78q23 0 44.5 -32t21.5 -56t-36 -132l-77 -230
q-48 -142 -100 -142zM40 105q0 48 24 132l168 588q13 45 76 45q45 0 61 -19.5t16 -58.5q0 -50 -99 -249t-111 -293q29 12 75 12q36 0 57 -29t21 -61q0 -74 -50 -137.5t-119 -63.5q-55 0 -87 31.5t-32 102.5z" />
    <glyph glyph-name="uni1F36" unicode="&#x1f36;" horiz-adv-x="445" 
d="M56 1523q0 1 1 2q40 65 92.5 104t102.5 39t130 -29.5t125.5 -29.5t118.5 68q1 1 4.5 1t13.5 -8.5t10 -19.5q0 -4 -1 -8q-14 -41 -86 -89t-119 -48t-129 31.5t-128 31.5t-110 -61q-4 -4 -8.5 -4t-10.5 7.5t-6 12.5zM324 1438q55 0 89.5 -43t34.5 -95q0 -115 -136 -204
q-6 -5 -11 -5t-15 10t-10 15t6 10q68 66 68 104q0 37 -30.5 48t-53.5 33.5t-23 56.5t25 52t56 18zM40 105q0 48 24 132l168 588q13 45 76 45q45 0 61 -19.5t16 -58.5q0 -50 -99 -249t-111 -293q29 12 75 12q36 0 57 -29t21 -61q0 -74 -50 -137.5t-119 -63.5q-55 0 -87 31.5
t-32 102.5z" />
    <glyph glyph-name="uni1F37" unicode="&#x1f37;" horiz-adv-x="445" 
d="M45 1523q0 1 1 2q40 65 92.5 104t102.5 39t130 -29.5t125.5 -29.5t118.5 68q1 1 4.5 1t13.5 -8.5t10 -19.5q0 -4 -1 -8q-14 -41 -86 -89t-119 -48t-129 31.5t-128 31.5t-110 -61q-4 -4 -8.5 -4t-10.5 7.5t-6 12.5zM357 1438q31 0 55.5 -18t24.5 -52t-22.5 -56.5
t-52.5 -33.5t-30 -49t68 -104q4 -3 4 -8.5t-10 -15.5t-14.5 -10t-8.5 3q-138 88 -139 206q0 52 35 95t90 43zM40 105q0 48 24 132l168 588q13 45 76 45q45 0 61 -19.5t16 -58.5q0 -50 -99 -249t-111 -293q29 12 75 12q36 0 57 -29t21 -61q0 -74 -50 -137.5t-119 -63.5
q-55 0 -87 31.5t-32 102.5z" />
    <glyph glyph-name="uni1F38" unicode="&#x1f38;" horiz-adv-x="968" 
d="M142 1438q55 0 89.5 -43t34.5 -95q0 -115 -136 -204q-6 -5 -11 -5t-15 10t-10 15t6 10q68 66 68 104q0 37 -30.5 48t-53.5 33.5t-23 56.5t25 52t56 18zM555 186v903q0 115 -189 115q-14 0 -14 35.5t14 35.5h529q13 0 13 -35.5t-13 -35.5q-180 0 -180 -115v-903
q0 -117 180 -117q13 0 13 -34.5t-13 -34.5h-518q-13 0 -13 34.5t13 34.5q178 0 178 117z" />
    <glyph glyph-name="uni1F39" unicode="&#x1f39;" horiz-adv-x="962" 
d="M549 186v903q0 115 -189 115q-14 0 -14 35.5t14 35.5h529q13 0 13 -35.5t-13 -35.5q-180 0 -180 -115v-903q0 -117 180 -117q13 0 13 -34.5t-13 -34.5h-518q-13 0 -13 34.5t13 34.5q178 0 178 117zM179 1438q31 0 55.5 -18t24.5 -52t-22.5 -56.5t-52.5 -33.5t-30 -49
t68 -104q4 -3 4 -8.5t-10 -15.5t-14.5 -10t-8.5 3q-138 88 -139 206q0 52 35 95t90 43z" />
    <glyph glyph-name="uni1F3A" unicode="&#x1f3a;" horiz-adv-x="1235" 
d="M822 186v903q0 115 -189 115q-14 0 -14 35.5t14 35.5h529q13 0 13 -35.5t-13 -35.5q-180 0 -180 -115v-903q0 -117 180 -117q13 0 13 -34.5t-13 -34.5h-518q-13 0 -13 34.5t13 34.5q178 0 178 117zM524 1028q-53 0 -100 142l-77 230q-35 108 -35 132t21 56t45 32
q29 0 47 -78l111 -480q2 -6 2 -13q0 -21 -14 -21zM143 1438q55 0 89.5 -43t34.5 -95q0 -118 -137 -205q-5 -4 -10 -4t-15 9.5t-10 14.5t4 10q69 68 69 105t-30 48t-53 33.5t-23 56.5t25 52t56 18z" />
    <glyph glyph-name="uni1F3B" unicode="&#x1f3b;" horiz-adv-x="1232" 
d="M819 186v903q0 115 -189 115q-14 0 -14 35.5t14 35.5h529q13 0 13 -35.5t-13 -35.5q-180 0 -180 -115v-903q0 -117 180 -117q13 0 13 -34.5t-13 -34.5h-518q-13 0 -13 34.5t13 34.5q178 0 178 117zM181 1438q31 0 55.5 -18t24.5 -52t-22.5 -56.5t-52.5 -33.5t-30 -49
t68 -104q4 -3 4 -8.5t-10 -15.5t-14.5 -10t-8.5 3q-138 88 -139 206q0 52 35 95t90 43zM515 1028q-53 0 -100 142l-77 230q-36 108 -36 132t21.5 56t48 32t44.5 -78l111 -477q2 -9 2 -16q0 -21 -14 -21z" />
    <glyph glyph-name="uni1F3C" unicode="&#x1f3c;" horiz-adv-x="1235" 
d="M822 186v903q0 115 -189 115q-14 0 -14 35.5t14 35.5h529q13 0 13 -35.5t-13 -35.5q-180 0 -180 -115v-903q0 -117 180 -117q13 0 13 -34.5t-13 -34.5h-518q-13 0 -13 34.5t13 34.5q178 0 178 117zM140 1438q55 0 89.5 -43t34.5 -95q0 -118 -137 -205q-5 -4 -10 -4
t-15 9.5t-10 14.5t4 10q69 68 69 105t-30 48t-53 33.5t-23 56.5t25 52t56 18zM351 1028q-14 0 -15 21q0 7 2 13l111 480q18 77 48 78q23 0 44.5 -32t21.5 -56t-36 -132l-76 -230q-46 -142 -100 -142z" />
    <glyph glyph-name="uni1F3D" unicode="&#x1f3d;" horiz-adv-x="1211" 
d="M798 186v903q0 115 -189 115q-14 0 -14 35.5t14 35.5h529q13 0 13 -35.5t-13 -35.5q-180 0 -180 -115v-903q0 -117 180 -117q13 0 13 -34.5t-13 -34.5h-518q-13 0 -13 34.5t13 34.5q178 0 178 117zM174 1438q31 0 55.5 -18t24.5 -52t-22.5 -56.5t-52.5 -33.5t-30 -49
t68 -104q4 -3 4 -8.5t-10 -15.5t-14.5 -10t-8.5 3q-138 88 -139 206q0 52 35 95t90 43zM335 1028q-14 0 -14 21q0 7 2 13l112 480q18 77 47 78q23 0 44.5 -32t21.5 -56t-36 -132l-77 -230q-48 -142 -100 -142z" />
    <glyph glyph-name="uni1F3E" unicode="&#x1f3e;" horiz-adv-x="1160" 
d="M748 186v903q0 115 -189 115q-14 0 -14 35.5t14 35.5h529q13 0 13 -35.5t-13 -35.5q-180 0 -180 -115v-903q0 -117 180 -117q13 0 13 -34.5t-13 -34.5h-518q-13 0 -13 34.5t13 34.5q178 0 178 117zM25 1523q0 1 1 2q40 65 92.5 104t102.5 39t130 -29.5t125.5 -29.5
t118.5 68q1 1 4.5 1t13.5 -8.5t10 -19.5q0 -4 -1 -8q-14 -41 -86 -89t-119 -48t-129 31.5t-128 31.5t-110 -61q-4 -4 -8.5 -4t-10.5 7.5t-6 12.5zM293 1438q55 0 89.5 -43t34.5 -95q0 -115 -136 -204q-6 -5 -11 -5t-15 10t-10 15t6 10q67 66 67 104q0 37 -30 48t-53 33.5
t-23 56.5t25 52t56 18z" />
    <glyph glyph-name="uni1F3F" unicode="&#x1f3f;" horiz-adv-x="1133" 
d="M721 186v903q0 115 -189 115q-14 0 -14 35.5t14 35.5h529q13 0 13 -35.5t-13 -35.5q-180 0 -180 -115v-903q0 -117 180 -117q13 0 13 -34.5t-13 -34.5h-518q-13 0 -13 34.5t13 34.5q178 0 178 117zM27 1523q0 1 1 2q40 65 92.5 104t102.5 39t130 -29.5t125.5 -29.5
t118.5 68q1 1 4.5 1t13.5 -8.5t10 -19.5q0 -4 -1 -8q-14 -41 -86 -89t-119 -48t-129 31.5t-128 31.5t-110 -61q-4 -4 -8.5 -4t-10.5 7.5t-6 12.5zM339 1438q31 0 55.5 -18t24.5 -52t-22.5 -56.5t-52.5 -33.5t-30 -49t68 -104q4 -3 4 -8.5t-10 -15.5t-14.5 -10t-8.5 3
q-138 88 -139 206q0 52 35 95t90 43z" />
    <glyph glyph-name="uni1F40" unicode="&#x1f40;" horiz-adv-x="742" 
d="M517 1438q55 0 89.5 -43t34.5 -95q0 -118 -137 -205q-5 -4 -10 -4t-15 9.5t-10 14.5t4 10q69 68 69 105t-30 48t-53 33.5t-23 56.5t25 52t56 18zM80 242q0 134 68.5 274t181 247.5t178.5 107.5q32 0 50.5 -23t18.5 -68q0 -11 -9 -26q114 -148 114 -364
q0 -157 -109 -284.5t-244 -127.5q-118 0 -183.5 65t-65.5 199zM164 204q0 -62 33 -87t69 -25q101 0 179.5 92t98.5 174.5t20 149.5q0 104 -52 183q-25 -23 -59 -50q-124 -101 -206.5 -229.5t-82.5 -207.5z" />
    <glyph glyph-name="uni1F41" unicode="&#x1f41;" horiz-adv-x="742" 
d="M576 1438q31 0 55.5 -18t24.5 -52t-22.5 -56.5t-52.5 -33.5t-30 -49t68 -104q4 -3 4 -8.5t-10 -15.5t-14.5 -10t-8.5 3q-138 88 -139 206q0 52 35 95t90 43zM80 242q0 134 68.5 274t181 247.5t178.5 107.5q32 0 50.5 -23t18.5 -68q0 -11 -9 -26q114 -148 114 -364
q0 -157 -109 -284.5t-244 -127.5q-118 0 -183.5 65t-65.5 199zM164 204q0 -62 33 -87t69 -25q101 0 179.5 92t98.5 174.5t20 149.5q0 104 -52 183q-25 -23 -59 -50q-124 -101 -206.5 -229.5t-82.5 -207.5z" />
    <glyph glyph-name="uni1F42" unicode="&#x1f42;" horiz-adv-x="742" 
d="M744 1028q-53 0 -100 142l-77 230q-35 108 -35 132t21 56t45 32q29 0 47 -78l111 -480q2 -6 2 -13q0 -21 -14 -21zM363 1438q55 0 89.5 -43t34.5 -95q0 -118 -137 -205q-5 -4 -10 -4t-15 9.5t-10 14.5t4 10q69 68 69 105t-30 48t-53 33.5t-23 56.5t25 52t56 18zM80 242
q0 134 68.5 274t181 247.5t178.5 107.5q32 0 50.5 -23t18.5 -68q0 -11 -9 -26q114 -148 114 -364q0 -157 -109 -284.5t-244 -127.5q-118 0 -183.5 65t-65.5 199zM164 204q0 -62 33 -87t69 -25q101 0 179.5 92t98.5 174.5t20 149.5q0 104 -52 183q-25 -23 -59 -50
q-124 -101 -206.5 -229.5t-82.5 -207.5z" />
    <glyph glyph-name="uni1F43" unicode="&#x1f43;" horiz-adv-x="742" 
d="M387 1438q31 0 55.5 -18t24.5 -52t-22.5 -56.5t-52.5 -33.5t-30 -49t68 -104q4 -3 4 -8.5t-10 -15.5t-14.5 -10t-8.5 3q-138 88 -139 206q0 52 35 95t90 43zM721 1028q-53 0 -100 142l-77 230q-36 108 -36 132t21.5 56t48 32t44.5 -78l111 -477q2 -9 2 -16q0 -21 -14 -21
zM80 242q0 134 68.5 274t181 247.5t178.5 107.5q32 0 50.5 -23t18.5 -68q0 -11 -9 -26q114 -148 114 -364q0 -157 -109 -284.5t-244 -127.5q-118 0 -183.5 65t-65.5 199zM164 204q0 -62 33 -87t69 -25q101 0 179.5 92t98.5 174.5t20 149.5q0 104 -52 183q-25 -23 -59 -50
q-124 -101 -206.5 -229.5t-82.5 -207.5z" />
    <glyph glyph-name="uni1F44" unicode="&#x1f44;" horiz-adv-x="742" 
d="M413 1438q55 0 89.5 -43t34.5 -95q0 -118 -137 -205q-5 -4 -10 -4t-15 9.5t-10 14.5t4 10q69 68 69 105t-30 48t-53 33.5t-23 56.5t25 52t56 18zM624 1028q-14 0 -15 21q0 7 2 13l111 480q18 77 48 78q23 0 44.5 -32t21.5 -56t-36 -132l-76 -230q-46 -142 -100 -142z
M80 242q0 134 68.5 274t181 247.5t178.5 107.5q32 0 50.5 -23t18.5 -68q0 -11 -9 -26q114 -148 114 -364q0 -157 -109 -284.5t-244 -127.5q-118 0 -183.5 65t-65.5 199zM164 204q0 -62 33 -87t69 -25q101 0 179.5 92t98.5 174.5t20 149.5q0 104 -52 183q-25 -23 -59 -50
q-124 -101 -206.5 -229.5t-82.5 -207.5z" />
    <glyph glyph-name="uni1F45" unicode="&#x1f45;" horiz-adv-x="742" 
d="M437 1438q31 0 55.5 -18t24.5 -52t-22.5 -56.5t-52.5 -33.5t-30 -49t68 -104q4 -3 4 -8.5t-10 -15.5t-14.5 -10t-8.5 3q-138 88 -139 206q0 52 35 95t90 43zM598 1028q-14 0 -14 21q0 7 2 13l112 480q18 77 47 78q23 0 44.5 -32t21.5 -56t-36 -132l-77 -230
q-48 -142 -100 -142zM80 242q0 134 68.5 274t181 247.5t178.5 107.5q32 0 50.5 -23t18.5 -68q0 -11 -9 -26q114 -148 114 -364q0 -157 -109 -284.5t-244 -127.5q-118 0 -183.5 65t-65.5 199zM164 204q0 -62 33 -87t69 -25q101 0 179.5 92t98.5 174.5t20 149.5q0 104 -52 183
q-25 -23 -59 -50q-124 -101 -206.5 -229.5t-82.5 -207.5z" />
    <glyph glyph-name="uni1F48" unicode="&#x1f48;" horiz-adv-x="1563" 
d="M195 622q0 223 176 448t473 225q266 0 454.5 -205.5t188.5 -471.5q0 -256 -174 -450.5t-474 -194.5q-290 0 -467 182.5t-177 466.5zM386 681q0 -310 150 -471.5t317 -161.5q212 0 327.5 150.5t115.5 403.5q0 239 -145.5 430.5t-319.5 191.5q-210 0 -327.5 -178.5
t-117.5 -364.5zM150 1438q55 0 89.5 -43t34.5 -95q0 -115 -136 -204q-6 -5 -11 -5t-15 10t-10 15t6 10q68 66 68 104q0 37 -30.5 48t-53.5 33.5t-23 56.5t25 52t56 18z" />
    <glyph glyph-name="uni1F49" unicode="&#x1f49;" horiz-adv-x="1614" 
d="M247 622q0 223 176 448t473 225q266 0 454.5 -205.5t188.5 -471.5q0 -256 -174 -450.5t-474 -194.5q-290 0 -467 182.5t-177 466.5zM438 681q0 -310 150 -471.5t317 -161.5q212 0 327.5 150.5t115.5 403.5q0 239 -145.5 430.5t-319.5 191.5q-210 0 -327.5 -178.5
t-117.5 -364.5zM203 1438q31 0 55.5 -18t24.5 -52t-22.5 -56.5t-52.5 -33.5t-30 -49t68 -104q4 -3 4 -8.5t-10 -15.5t-14.5 -10t-8.5 3q-138 88 -139 206q0 52 35 95t90 43z" />
    <glyph glyph-name="uni1F4A" unicode="&#x1f4a;" horiz-adv-x="1929" 
d="M561 622q0 223 176 448t473 225q266 0 454.5 -205.5t188.5 -471.5q0 -256 -174 -450.5t-474 -194.5q-290 0 -467 182.5t-177 466.5zM752 681q0 -310 150 -471.5t317 -161.5q212 0 327.5 150.5t115.5 403.5q0 239 -145.5 430.5t-319.5 191.5q-210 0 -327.5 -178.5
t-117.5 -364.5zM532 1028q-53 0 -100 142l-77 230q-35 108 -35 132t21 56t45 32q29 0 47 -78l111 -480q2 -6 2 -13q0 -21 -14 -21zM151 1438q55 0 89.5 -43t34.5 -95q0 -118 -137 -205q-5 -4 -10 -4t-15 9.5t-10 14.5t4 10q69 68 69 105t-30 48t-53 33.5t-23 56.5t25 52
t56 18z" />
    <glyph glyph-name="uni1F4B" unicode="&#x1f4b;" horiz-adv-x="1929" 
d="M562 622q0 223 176 448t473 225q266 0 454.5 -205.5t188.5 -471.5q0 -256 -174 -450.5t-474 -194.5q-290 0 -467 182.5t-177 466.5zM753 681q0 -310 150 -471.5t317 -161.5q212 0 327.5 150.5t115.5 403.5q0 239 -145.5 430.5t-319.5 191.5q-210 0 -327.5 -178.5
t-117.5 -364.5zM200 1438q31 0 55.5 -18t24.5 -52t-22.5 -56.5t-52.5 -33.5t-30 -49t68 -104q4 -3 4 -8.5t-10 -15.5t-14.5 -10t-8.5 3q-138 88 -139 206q0 52 35 95t90 43zM534 1028q-53 0 -100 142l-77 230q-35 108 -35 132t21 56t47.5 32t44.5 -78l111 -477q2 -9 2 -16
q0 -21 -14 -21z" />
    <glyph glyph-name="uni1F4C" unicode="&#x1f4c;" horiz-adv-x="1800" 
d="M433 622q0 223 176 448t473 225q266 0 454.5 -205.5t188.5 -471.5q0 -256 -174 -450.5t-474 -194.5q-290 0 -467 182.5t-177 466.5zM624 681q0 -310 150 -471.5t317 -161.5q212 0 327.5 150.5t115.5 403.5q0 239 -145.5 430.5t-319.5 191.5q-210 0 -327.5 -178.5
t-117.5 -364.5zM142 1438q55 0 89.5 -43t34.5 -95q0 -118 -137 -205q-5 -4 -10 -4t-15 9.5t-10 14.5t4 10q69 68 69 105t-30 48t-53 33.5t-23 56.5t25 52t56 18zM353 1028q-14 0 -15 21q0 7 2 13l111 480q18 77 48 78q23 0 44.5 -32t21.5 -56t-36 -132l-76 -230
q-46 -142 -100 -142z" />
    <glyph glyph-name="uni1F4D" unicode="&#x1f4d;" horiz-adv-x="1830" 
d="M461 622q0 223 176 448t473 225q266 0 454.5 -205.5t188.5 -471.5q0 -256 -174 -450.5t-474 -194.5q-290 0 -467 182.5t-177 466.5zM652 681q0 -310 150 -471.5t317 -161.5q212 0 327.5 150.5t115.5 403.5q0 239 -145.5 430.5t-319.5 191.5q-210 0 -327.5 -178.5
t-117.5 -364.5zM199 1438q31 0 55.5 -18t24.5 -52t-22.5 -56.5t-52.5 -33.5t-30 -49t68 -104q4 -3 4 -8.5t-10 -15.5t-14.5 -10t-8.5 3q-138 88 -139 206q0 52 35 95t90 43zM360 1028q-14 0 -14 21q0 7 2 13l112 480q18 77 47 78q23 0 44.5 -32t21.5 -56t-36 -132l-77 -230
q-48 -142 -100 -142z" />
    <glyph glyph-name="uni1F50" unicode="&#x1f50;" horiz-adv-x="837" 
d="M470 1438q55 0 89.5 -43t34.5 -95q0 -115 -136 -204q-6 -5 -11 -5t-15 10t-10 15t6 10q68 66 68 104q0 37 -30.5 48t-53.5 33.5t-23 56.5t25 52t56 18zM124 154q0 80 37.5 219.5t44.5 218.5q-34 -12 -68 -12q-44 0 -64 30.5t-20 59.5q0 73 32 119.5t64 63.5t88 18
q26 0 50 -16.5t24 -64.5q0 -80 -37 -223.5t-37 -250.5q0 -84 20.5 -128t67.5 -44q86 0 162 79.5t129 226t53 272.5q0 144 16 144q38 0 60 -78t22 -170q0 -157 -43 -288.5t-149 -243.5t-284 -112q-70 0 -119 45t-49 135z" />
    <glyph glyph-name="uni1F51" unicode="&#x1f51;" horiz-adv-x="837" 
d="M491 1438q31 0 55.5 -18t24.5 -52t-22.5 -56.5t-52.5 -33.5t-30 -49t68 -104q4 -3 4 -8.5t-10 -15.5t-14.5 -10t-8.5 3q-138 88 -139 206q0 52 35 95t90 43zM124 154q0 80 37.5 219.5t44.5 218.5q-34 -12 -68 -12q-44 0 -64 30.5t-20 59.5q0 73 32 119.5t64 63.5t88 18
q26 0 50 -16.5t24 -64.5q0 -80 -37 -223.5t-37 -250.5q0 -84 20.5 -128t67.5 -44q86 0 162 79.5t129 226t53 272.5q0 144 16 144q38 0 60 -78t22 -170q0 -157 -43 -288.5t-149 -243.5t-284 -112q-70 0 -119 45t-49 135z" />
    <glyph glyph-name="uni1F52" unicode="&#x1f52;" horiz-adv-x="837" 
d="M702 1028q-53 0 -100 142l-77 230q-35 108 -35 132t21 56t45 32q29 0 47 -78l111 -480q2 -6 2 -13q0 -21 -14 -21zM321 1438q55 0 89.5 -43t34.5 -95q0 -118 -137 -205q-5 -4 -10 -4t-15 9.5t-10 14.5t4 10q69 68 69 105t-30 48t-53 33.5t-23 56.5t25 52t56 18zM124 154
q0 80 37.5 219.5t44.5 218.5q-34 -12 -68 -12q-44 0 -64 30.5t-20 59.5q0 73 32 119.5t64 63.5t88 18q26 0 50 -16.5t24 -64.5q0 -80 -37 -223.5t-37 -250.5q0 -84 20.5 -128t67.5 -44q86 0 162 79.5t129 226t53 272.5q0 144 16 144q38 0 60 -78t22 -170q0 -157 -43 -288.5
t-149 -243.5t-284 -112q-70 0 -119 45t-49 135z" />
    <glyph glyph-name="uni1F53" unicode="&#x1f53;" horiz-adv-x="837" 
d="M339 1438q31 0 55.5 -18t24.5 -52t-22.5 -56.5t-52.5 -33.5t-30 -49t68 -104q4 -3 4 -8.5t-10 -15.5t-14.5 -10t-8.5 3q-138 88 -139 206q0 52 35 95t90 43zM673 1028q-53 0 -100 142l-77 230q-36 108 -36 132t21.5 56t48 32t44.5 -78l111 -477q2 -9 2 -16q0 -21 -14 -21
zM124 154q0 80 37.5 219.5t44.5 218.5q-34 -12 -68 -12q-44 0 -64 30.5t-20 59.5q0 73 32 119.5t64 63.5t88 18q26 0 50 -16.5t24 -64.5q0 -80 -37 -223.5t-37 -250.5q0 -84 20.5 -128t67.5 -44q86 0 162 79.5t129 226t53 272.5q0 144 16 144q38 0 60 -78t22 -170
q0 -157 -43 -288.5t-149 -243.5t-284 -112q-70 0 -119 45t-49 135z" />
    <glyph glyph-name="uni1F54" unicode="&#x1f54;" horiz-adv-x="837" 
d="M336 1438q55 0 89.5 -43t34.5 -95q0 -118 -137 -205q-5 -4 -10 -4t-15 9.5t-10 14.5t4 10q69 68 69 105t-30 48t-53 33.5t-23 56.5t25 52t56 18zM547 1028q-14 0 -15 21q0 7 2 13l111 480q18 77 48 78q23 0 44.5 -32t21.5 -56t-36 -132l-76 -230q-46 -142 -100 -142z
M124 154q0 80 37.5 219.5t44.5 218.5q-34 -12 -68 -12q-44 0 -64 30.5t-20 59.5q0 73 32 119.5t64 63.5t88 18q26 0 50 -16.5t24 -64.5q0 -80 -37 -223.5t-37 -250.5q0 -84 20.5 -128t67.5 -44q86 0 162 79.5t129 226t53 272.5q0 144 16 144q38 0 60 -78t22 -170
q0 -157 -43 -288.5t-149 -243.5t-284 -112q-70 0 -119 45t-49 135z" />
    <glyph glyph-name="uni1F55" unicode="&#x1f55;" horiz-adv-x="837" 
d="M392 1438q31 0 55.5 -18t24.5 -52t-22.5 -56.5t-52.5 -33.5t-30 -49t68 -104q4 -3 4 -8.5t-10 -15.5t-14.5 -10t-8.5 3q-138 88 -139 206q0 52 35 95t90 43zM553 1028q-14 0 -14 21q0 7 2 13l112 480q18 77 47 78q23 0 44.5 -32t21.5 -56t-36 -132l-77 -230
q-48 -142 -100 -142zM124 154q0 80 37.5 219.5t44.5 218.5q-34 -12 -68 -12q-44 0 -64 30.5t-20 59.5q0 73 32 119.5t64 63.5t88 18q26 0 50 -16.5t24 -64.5q0 -80 -37 -223.5t-37 -250.5q0 -84 20.5 -128t67.5 -44q86 0 162 79.5t129 226t53 272.5q0 144 16 144
q38 0 60 -78t22 -170q0 -157 -43 -288.5t-149 -243.5t-284 -112q-70 0 -119 45t-49 135z" />
    <glyph glyph-name="uni1F56" unicode="&#x1f56;" horiz-adv-x="837" 
d="M247 1523q0 1 1 2q40 65 92.5 104t102.5 39t130 -29.5t125.5 -29.5t118.5 68q1 1 4.5 1t13.5 -8.5t10 -19.5q0 -4 -1 -8q-14 -41 -86 -89t-119 -48t-129 31.5t-128 31.5t-110 -61q-4 -4 -8.5 -4t-10.5 7.5t-6 12.5zM515 1438q55 0 89.5 -43t34.5 -95q0 -115 -136 -204
q-6 -5 -11 -5t-15 10t-10 15t6 10q67 66 67 104q0 37 -30 48t-53 33.5t-23 56.5t25 52t56 18zM124 154q0 80 37.5 219.5t44.5 218.5q-34 -12 -68 -12q-44 0 -64 30.5t-20 59.5q0 73 32 119.5t64 63.5t88 18q26 0 50 -16.5t24 -64.5q0 -80 -37 -223.5t-37 -250.5
q0 -84 20.5 -128t67.5 -44q86 0 162 79.5t129 226t53 272.5q0 144 16 144q38 0 60 -78t22 -170q0 -157 -43 -288.5t-149 -243.5t-284 -112q-70 0 -119 45t-49 135z" />
    <glyph glyph-name="uni1F57" unicode="&#x1f57;" horiz-adv-x="837" 
d="M182 1523q0 1 1 2q40 65 92.5 104t102.5 39t130 -29.5t125.5 -29.5t118.5 68q1 1 4.5 1t13.5 -8.5t10 -19.5q0 -4 -1 -8q-14 -41 -86 -89t-119 -48t-129 31.5t-128 31.5t-110 -61q-4 -4 -8.5 -4t-10.5 7.5t-6 12.5zM494 1438q31 0 55.5 -18t24.5 -52t-22.5 -56.5
t-52.5 -33.5t-30 -49t68 -104q4 -3 4 -8.5t-10 -15.5t-14.5 -10t-8.5 3q-138 88 -139 206q0 52 35 95t90 43zM124 154q0 80 37.5 219.5t44.5 218.5q-34 -12 -68 -12q-44 0 -64 30.5t-20 59.5q0 73 32 119.5t64 63.5t88 18q26 0 50 -16.5t24 -64.5q0 -80 -37 -223.5
t-37 -250.5q0 -84 20.5 -128t67.5 -44q86 0 162 79.5t129 226t53 272.5q0 144 16 144q38 0 60 -78t22 -170q0 -157 -43 -288.5t-149 -243.5t-284 -112q-70 0 -119 45t-49 135z" />
    <glyph glyph-name="uni1F59" unicode="&#x1f59;" horiz-adv-x="1585" 
d="M349 1084q0 48 110 129.5t178 81.5q98 0 174 -76.5t123 -218.5q5 -15 19 -15t20 15q63 162 126.5 228.5t170.5 66.5q68 0 178.5 -81.5t110.5 -129.5q0 -24 -24 -24q-35 0 -106.5 41t-170.5 41q-102 0 -163.5 -63.5t-61.5 -194.5v-698q0 -117 180 -117q13 0 13 -34.5
t-13 -34.5h-518q-13 0 -13 34.5t13 34.5q178 0 178 117v698q0 131 -60 194.5t-152 63.5q-110 0 -182 -41t-106 -41q-24 0 -24 24zM212 1438q31 0 55.5 -18t24.5 -52t-22.5 -56.5t-52.5 -33.5t-30 -49t68 -104q4 -3 4 -8.5t-10 -15.5t-14.5 -10t-8.5 3q-138 88 -139 206
q0 52 35 95t90 43z" />
    <glyph glyph-name="uni1F5B" unicode="&#x1f5b;" horiz-adv-x="1877" 
d="M643 1084q0 48 110 129.5t178 81.5q98 0 174 -76.5t123 -218.5q5 -15 19 -15t20 15q63 162 126.5 228.5t170.5 66.5q68 0 178.5 -81.5t110.5 -129.5q0 -24 -24 -24q-35 0 -106.5 41t-170.5 41q-102 0 -163.5 -63.5t-61.5 -194.5v-698q0 -117 180 -117q13 0 13 -34.5
t-13 -34.5h-518q-13 0 -13 34.5t13 34.5q178 0 178 117v698q0 131 -60 194.5t-152 63.5q-110 0 -182 -41t-106 -41q-24 0 -24 24zM213 1438q31 0 55.5 -18t24.5 -52t-22.5 -56.5t-52.5 -33.5t-30 -49t68 -104q4 -3 4 -8.5t-10 -15.5t-14.5 -10t-8.5 3q-138 88 -139 206
q0 52 35 95t90 43zM547 1028q-53 0 -100 142l-77 230q-36 108 -36 132t21.5 56t48 32t44.5 -78l111 -477q2 -9 2 -16q0 -21 -14 -21z" />
    <glyph glyph-name="uni1F5D" unicode="&#x1f5d;" horiz-adv-x="1805" 
d="M568 1084q0 48 110 129.5t178 81.5q98 0 174 -76.5t123 -218.5q5 -15 19 -15t20 15q63 162 126.5 228.5t170.5 66.5q68 0 178.5 -81.5t110.5 -129.5q0 -24 -24 -24q-35 0 -106.5 41t-170.5 41q-102 0 -163.5 -63.5t-61.5 -194.5v-698q0 -117 180 -117q13 0 13 -34.5
t-13 -34.5h-518q-13 0 -13 34.5t13 34.5q178 0 178 117v698q0 131 -60 194.5t-152 63.5q-110 0 -182 -41t-106 -41q-24 0 -24 24zM202 1438q31 0 55.5 -18t24.5 -52t-22.5 -56.5t-52.5 -33.5t-30 -49t68 -104q4 -3 4 -8.5t-10 -15.5t-14.5 -10t-8.5 3q-138 88 -139 206
q0 52 35 95t90 43zM363 1028q-14 0 -14 21q0 7 2 13l112 480q18 77 47 78q23 0 44.5 -32t21.5 -56t-36 -132l-77 -230q-48 -142 -100 -142z" />
    <glyph glyph-name="uni1F5F" unicode="&#x1f5f;" horiz-adv-x="1577" 
d="M343 1084q0 48 110 129.5t178 81.5q98 0 174 -76.5t123 -218.5q5 -15 19 -15t20 15q63 162 126.5 228.5t170.5 66.5q68 0 178.5 -81.5t110.5 -129.5q0 -24 -24 -24q-35 0 -106.5 41t-170.5 41q-102 0 -163.5 -63.5t-61.5 -194.5v-698q0 -117 180 -117q13 0 13 -34.5
t-13 -34.5h-518q-13 0 -13 34.5t13 34.5q178 0 178 117v698q0 131 -60 194.5t-152 63.5q-110 0 -182 -41t-106 -41q-24 0 -24 24zM-122 1523q0 1 1 2q40 65 92.5 104t102.5 39t130 -29.5t125.5 -29.5t118.5 68q1 1 4.5 1t13.5 -8.5t10 -19.5q0 -4 -1 -8q-14 -41 -86 -89
t-119 -48t-129 31.5t-128 31.5t-110 -61q-4 -4 -8.5 -4t-10.5 7.5t-6 12.5zM190 1438q31 0 55.5 -18t24.5 -52t-22.5 -56.5t-52.5 -33.5t-30 -49t68 -104q4 -3 4 -8.5t-10 -15.5t-14.5 -10t-8.5 3q-138 88 -139 206q0 52 35 95t90 43z" />
    <glyph glyph-name="uni1F60" unicode="&#x1f60;" horiz-adv-x="1194" 
d="M751 1438q55 0 89.5 -43t34.5 -95q0 -115 -136 -204q-6 -5 -11 -5t-15 10t-10 15t6 10q67 66 67 104q0 37 -30 48t-53 33.5t-23 56.5t25 52t56 18zM80 226q0 143 68 294.5t153.5 250.5t155.5 99q55 0 83 -20.5t28 -52.5t-75.5 -87.5t-152 -139.5t-134 -187t-57.5 -178
q0 -41 25.5 -69t85.5 -28q90 0 158 82t113.5 196.5t57.5 149.5q22 71 85 71q15 0 39 -5.5t44 -20.5t20 -42q0 -12 -7 -35.5t-74 -156.5t-126 -199q24 -40 94.5 -40t148 78t123.5 176t46 205.5t-15 170t-15 77.5q0 45 40 45q24 0 81 -98t57 -241t-59 -262t-152 -200.5
t-204 -81.5q-77 0 -131 27.5t-74 71.5q-26 -40 -81 -70.5t-119 -30.5q-96 0 -163 50t-67 201z" />
    <glyph glyph-name="uni1F61" unicode="&#x1f61;" horiz-adv-x="1194" 
d="M763 1438q31 0 55.5 -18t24.5 -52t-22.5 -56.5t-52.5 -33.5t-30 -49t68 -104q4 -3 4 -8.5t-10 -15.5t-14.5 -10t-8.5 3q-138 88 -139 206q0 52 35 95t90 43zM80 226q0 143 68 294.5t153.5 250.5t155.5 99q55 0 83 -20.5t28 -52.5t-75.5 -87.5t-152 -139.5t-134 -187
t-57.5 -178q0 -41 25.5 -69t85.5 -28q90 0 158 82t113.5 196.5t57.5 149.5q22 71 85 71q15 0 39 -5.5t44 -20.5t20 -42q0 -12 -7 -35.5t-74 -156.5t-126 -199q24 -40 94.5 -40t148 78t123.5 176t46 205.5t-15 170t-15 77.5q0 45 40 45q24 0 81 -98t57 -241t-59 -262
t-152 -200.5t-204 -81.5q-77 0 -131 27.5t-74 71.5q-26 -40 -81 -70.5t-119 -30.5q-96 0 -163 50t-67 201z" />
    <glyph glyph-name="uni1F62" unicode="&#x1f62;" horiz-adv-x="1194" 
d="M1026 1028q-53 0 -100 142l-77 230q-35 108 -35 132t21 56t45 32q29 0 47 -78l111 -480q2 -6 2 -13q0 -21 -14 -21zM645 1438q55 0 89.5 -43t34.5 -95q0 -118 -137 -205q-5 -4 -10 -4t-15 9.5t-10 14.5t4 10q69 68 69 105t-30 48t-53 33.5t-23 56.5t25 52t56 18zM80 226
q0 143 68 294.5t153.5 250.5t155.5 99q55 0 83 -20.5t28 -52.5t-75.5 -87.5t-152 -139.5t-134 -187t-57.5 -178q0 -41 25.5 -69t85.5 -28q90 0 158 82t113.5 196.5t57.5 149.5q22 71 85 71q15 0 39 -5.5t44 -20.5t20 -42q0 -12 -7 -35.5t-74 -156.5t-126 -199
q24 -40 94.5 -40t148 78t123.5 176t46 205.5t-15 170t-15 77.5q0 45 40 45q24 0 81 -98t57 -241t-59 -262t-152 -200.5t-204 -81.5q-77 0 -131 27.5t-74 71.5q-26 -40 -81 -70.5t-119 -30.5q-96 0 -163 50t-67 201z" />
    <glyph glyph-name="uni1F63" unicode="&#x1f63;" horiz-adv-x="1194" 
d="M653 1437q31 0 55.5 -18t24.5 -52t-22.5 -56.5t-52.5 -33.5t-30 -49t68 -104q4 -3 4 -8.5t-10 -15.5t-14.5 -10t-8.5 3q-138 88 -139 206q0 52 35 95t90 43zM987 1027q-53 0 -100 142l-77 230q-36 108 -36 132t21.5 56t48 32t44.5 -78l111 -477q2 -9 2 -16q0 -21 -14 -21
zM80 226q0 143 68 294.5t153.5 250.5t155.5 99q55 0 83 -20.5t28 -52.5t-75.5 -87.5t-152 -139.5t-134 -187t-57.5 -178q0 -41 25.5 -69t85.5 -28q90 0 158 82t113.5 196.5t57.5 149.5q22 71 85 71q15 0 39 -5.5t44 -20.5t20 -42q0 -12 -7 -35.5t-74 -156.5t-126 -199
q24 -40 94.5 -40t148 78t123.5 176t46 205.5t-15 170t-15 77.5q0 45 40 45q24 0 81 -98t57 -241t-59 -262t-152 -200.5t-204 -81.5q-77 0 -131 27.5t-74 71.5q-26 -40 -81 -70.5t-119 -30.5q-96 0 -163 50t-67 201z" />
    <glyph glyph-name="uni1F64" unicode="&#x1f64;" horiz-adv-x="1194" 
d="M649 1438q55 0 89.5 -43t34.5 -95q0 -118 -137 -205q-5 -4 -10 -4t-15 9.5t-10 14.5t4 10q69 68 69 105t-30 48t-53 33.5t-23 56.5t25 52t56 18zM860 1028q-14 0 -15 21q0 7 2 13l111 480q18 77 48 78q23 0 44.5 -32t21.5 -56t-36 -132l-76 -230q-46 -142 -100 -142z
M80 226q0 143 68 294.5t153.5 250.5t155.5 99q55 0 83 -20.5t28 -52.5t-75.5 -87.5t-152 -139.5t-134 -187t-57.5 -178q0 -41 25.5 -69t85.5 -28q90 0 158 82t113.5 196.5t57.5 149.5q22 71 85 71q15 0 39 -5.5t44 -20.5t20 -42q0 -12 -7 -35.5t-74 -156.5t-126 -199
q24 -40 94.5 -40t148 78t123.5 176t46 205.5t-15 170t-15 77.5q0 45 40 45q24 0 81 -98t57 -241t-59 -262t-152 -200.5t-204 -81.5q-77 0 -131 27.5t-74 71.5q-26 -40 -81 -70.5t-119 -30.5q-96 0 -163 50t-67 201z" />
    <glyph glyph-name="uni1F65" unicode="&#x1f65;" horiz-adv-x="1194" 
d="M687 1438q31 0 55.5 -18t24.5 -52t-22.5 -56.5t-52.5 -33.5t-30 -49t68 -104q4 -3 4 -8.5t-10 -15.5t-14.5 -10t-8.5 3q-138 88 -139 206q0 52 35 95t90 43zM848 1028q-14 0 -14 21q0 7 2 13l112 480q18 77 47 78q23 0 44.5 -32t21.5 -56t-36 -132l-77 -230
q-48 -142 -100 -142zM80 226q0 143 68 294.5t153.5 250.5t155.5 99q55 0 83 -20.5t28 -52.5t-75.5 -87.5t-152 -139.5t-134 -187t-57.5 -178q0 -41 25.5 -69t85.5 -28q90 0 158 82t113.5 196.5t57.5 149.5q22 71 85 71q15 0 39 -5.5t44 -20.5t20 -42q0 -12 -7 -35.5
t-74 -156.5t-126 -199q24 -40 94.5 -40t148 78t123.5 176t46 205.5t-15 170t-15 77.5q0 45 40 45q24 0 81 -98t57 -241t-59 -262t-152 -200.5t-204 -81.5q-77 0 -131 27.5t-74 71.5q-26 -40 -81 -70.5t-119 -30.5q-96 0 -163 50t-67 201z" />
    <glyph glyph-name="uni1F66" unicode="&#x1f66;" horiz-adv-x="1194" 
d="M494 1523q0 1 1 2q40 65 92.5 104t102.5 39t130 -29.5t125.5 -29.5t118.5 68q1 1 4.5 1t13.5 -8.5t10 -19.5q0 -4 -1 -8q-14 -41 -86 -89t-119 -48t-129 31.5t-128 31.5t-110 -61q-4 -4 -8.5 -4t-10.5 7.5t-6 12.5zM762 1438q55 0 89.5 -43t34.5 -95q0 -115 -136 -204
q-6 -5 -11 -5t-15 10t-10 15t6 10q68 66 68 104q0 37 -30.5 48t-53.5 33.5t-23 56.5t25 52t56 18zM80 226q0 143 68 294.5t153.5 250.5t155.5 99q55 0 83 -20.5t28 -52.5t-75.5 -87.5t-152 -139.5t-134 -187t-57.5 -178q0 -41 25.5 -69t85.5 -28q90 0 158 82t113.5 196.5
t57.5 149.5q22 71 85 71q15 0 39 -5.5t44 -20.5t20 -42q0 -12 -7 -35.5t-74 -156.5t-126 -199q24 -40 94.5 -40t148 78t123.5 176t46 205.5t-15 170t-15 77.5q0 45 40 45q24 0 81 -98t57 -241t-59 -262t-152 -200.5t-204 -81.5q-77 0 -131 27.5t-74 71.5q-26 -40 -81 -70.5
t-119 -30.5q-96 0 -163 50t-67 201z" />
    <glyph glyph-name="uni1F67" unicode="&#x1f67;" horiz-adv-x="1194" 
d="M498 1523q0 1 1 2q40 65 92.5 104t102.5 39t130 -29.5t125.5 -29.5t118.5 68q1 1 4.5 1t13.5 -8.5t10 -19.5q0 -4 -1 -8q-14 -41 -86 -89t-119 -48t-129 31.5t-128 31.5t-110 -61q-4 -4 -8.5 -4t-10.5 7.5t-6 12.5zM810 1438q31 0 55.5 -18t24.5 -52t-22.5 -56.5
t-52.5 -33.5t-30 -49t68 -104q4 -3 4 -8.5t-10 -15.5t-14.5 -10t-8.5 3q-138 88 -139 206q0 52 35 95t90 43zM80 226q0 143 68 294.5t153.5 250.5t155.5 99q55 0 83 -20.5t28 -52.5t-75.5 -87.5t-152 -139.5t-134 -187t-57.5 -178q0 -41 25.5 -69t85.5 -28q90 0 158 82
t113.5 196.5t57.5 149.5q22 71 85 71q15 0 39 -5.5t44 -20.5t20 -42q0 -12 -7 -35.5t-74 -156.5t-126 -199q24 -40 94.5 -40t148 78t123.5 176t46 205.5t-15 170t-15 77.5q0 45 40 45q24 0 81 -98t57 -241t-59 -262t-152 -200.5t-204 -81.5q-77 0 -131 27.5t-74 71.5
q-26 -40 -81 -70.5t-119 -30.5q-96 0 -163 50t-67 201z" />
    <glyph glyph-name="uni1F68" unicode="&#x1f68;" horiz-adv-x="1671" 
d="M1504 825q0 -124 -68.5 -288t-138.5 -269.5t-145 -205.5l148 7q63 5 120 20t78.5 51t21.5 110q0 17 37.5 17t37.5 -17v-227q0 -29 -23 -29q-154 6 -247 6h-288q-15 0 -15 22t19 35q74 111 168 281t94 372q0 230 -125.5 367t-301.5 137t-302 -137t-126 -367
q0 -202 94 -372t168 -281q19 -13 19 -35t-15 -22h-288q-93 0 -247 -6q-23 0 -23 29v227q0 17 37.5 17t37.5 -17q0 -74 21.5 -108t78.5 -51t120 -22l148 -7q-75 100 -145 205.5t-138.5 269.5t-68.5 288q0 185 181 332.5t452 147.5t447.5 -147.5t176.5 -332.5zM163 1438
q55 0 89.5 -43t34.5 -95q0 -115 -136 -204q-6 -5 -11 -5t-15 10t-10 15t6 10q67 66 67 104q0 37 -30 48t-53 33.5t-23 56.5t25 52t56 18z" />
    <glyph glyph-name="uni1F69" unicode="&#x1f69;" horiz-adv-x="1721" 
d="M1554 825q0 -124 -68.5 -288t-138.5 -269.5t-145 -205.5l148 7q63 5 120 20t78.5 51t21.5 110q0 17 37.5 17t37.5 -17v-227q0 -29 -23 -29q-154 6 -247 6h-288q-15 0 -15 22t19 35q74 111 168 281t94 372q0 230 -125.5 367t-301.5 137t-302 -137t-126 -367
q0 -202 94 -372t168 -281q19 -13 19 -35t-15 -22h-288q-93 0 -247 -6q-23 0 -23 29v227q0 17 37.5 17t37.5 -17q0 -74 21.5 -108t78.5 -51t120 -22l148 -7q-75 100 -145 205.5t-138.5 269.5t-68.5 288q0 185 181 332.5t452 147.5t447.5 -147.5t176.5 -332.5zM211 1438
q31 0 55.5 -18t24.5 -52t-22.5 -56.5t-52.5 -33.5t-30 -49t68 -104q4 -3 4 -8.5t-10 -15.5t-14.5 -10t-8.5 3q-138 88 -139 206q0 52 35 95t90 43z" />
    <glyph glyph-name="uni1F6A" unicode="&#x1f6a;" horiz-adv-x="2043" 
d="M1876 825q0 -124 -68.5 -288t-138.5 -269.5t-145 -205.5l148 7q63 5 120 20t78.5 51t21.5 110q0 17 37.5 17t37.5 -17v-227q0 -29 -23 -29q-154 6 -247 6h-288q-15 0 -15 22t19 35q74 111 168 281t94 372q0 230 -125.5 367t-301.5 137t-302 -137t-126 -367
q0 -202 94 -372t168 -281q19 -13 19 -35t-15 -22h-288q-93 0 -247 -6q-23 0 -23 29v227q0 17 37.5 17t37.5 -17q0 -74 21.5 -108t78.5 -51t120 -22l148 -7q-75 100 -145 205.5t-138.5 269.5t-68.5 288q0 185 181 332.5t452 147.5t447.5 -147.5t176.5 -332.5zM586 1028
q-53 0 -100 142l-77 230q-35 108 -35 132t21 56t45 32q29 0 47 -78l111 -480q2 -6 2 -13q0 -21 -14 -21zM205 1438q55 0 89.5 -43t34.5 -95q0 -118 -137 -205q-5 -4 -10 -4t-15 9.5t-10 14.5t4 10q69 68 69 105t-30 48t-53 33.5t-23 56.5t25 52t56 18z" />
    <glyph glyph-name="uni1F6B" unicode="&#x1f6b;" horiz-adv-x="2000" 
d="M1833 825q0 -124 -68.5 -288t-138.5 -269.5t-145 -205.5l148 7q63 5 120 20t78.5 51t21.5 110q0 17 37.5 17t37.5 -17v-227q0 -29 -23 -29q-154 6 -247 6h-288q-15 0 -15 22t19 35q74 111 168 281t94 372q0 230 -125.5 367t-301.5 137t-302 -137t-126 -367
q0 -202 94 -372t168 -281q19 -13 19 -35t-15 -22h-288q-93 0 -247 -6q-23 0 -23 29v227q0 17 37.5 17t37.5 -17q0 -74 21.5 -108t78.5 -51t120 -22l148 -7q-75 100 -145 205.5t-138.5 269.5t-68.5 288q0 185 181 332.5t452 147.5t447.5 -147.5t176.5 -332.5zM221 1438
q31 0 55.5 -18t24.5 -52t-22.5 -56.5t-52.5 -33.5t-30 -49t68 -104q4 -3 4 -8.5t-10 -15.5t-14.5 -10t-8.5 3q-138 88 -139 206q0 52 35 95t90 43zM555 1028q-53 0 -100 142l-77 230q-36 108 -36 132t21.5 56t48 32t44.5 -78l111 -477q2 -9 2 -16q0 -21 -14 -21z" />
    <glyph glyph-name="uni1F6C" unicode="&#x1f6c;" horiz-adv-x="1936" 
d="M1769 825q0 -124 -68.5 -288t-138.5 -269.5t-145 -205.5l148 7q63 5 120 20t78.5 51t21.5 110q0 17 37.5 17t37.5 -17v-227q0 -29 -23 -29q-154 6 -247 6h-288q-15 0 -15 22t19 35q74 111 168 281t94 372q0 230 -125.5 367t-301.5 137t-302 -137t-126 -367
q0 -202 94 -372t168 -281q19 -13 19 -35t-15 -22h-288q-93 0 -247 -6q-23 0 -23 29v227q0 17 37.5 17t37.5 -17q0 -74 21.5 -108t78.5 -51t120 -22l148 -7q-75 100 -145 205.5t-138.5 269.5t-68.5 288q0 185 181 332.5t452 147.5t447.5 -147.5t176.5 -332.5zM199 1438
q55 0 89.5 -43t34.5 -95q0 -118 -137 -205q-5 -4 -10 -4t-15 9.5t-10 14.5t4 10q69 68 69 105t-30 48t-53 33.5t-23 56.5t25 52t56 18zM410 1028q-14 0 -15 21q0 7 2 13l111 480q18 77 48 78q23 0 44.5 -32t21.5 -56t-36 -132l-76 -230q-46 -142 -100 -142z" />
    <glyph glyph-name="uni1F6D" unicode="&#x1f6d;" horiz-adv-x="1998" 
d="M1758 825q0 -124 -68.5 -288t-138.5 -269.5t-145 -205.5l148 7q63 5 120 20t78.5 51t21.5 110q0 17 37.5 17t37.5 -17v-227q0 -29 -23 -29q-154 6 -247 6h-288q-15 0 -15 22t19 35q74 111 168 281t94 372q0 230 -125.5 367t-301.5 137t-302 -137t-126 -367
q0 -202 94 -372t168 -281q19 -13 19 -35t-15 -22h-288q-93 0 -247 -6q-23 0 -23 29v227q0 17 37.5 17t37.5 -17q0 -74 21.5 -108t78.5 -51t120 -22l148 -7q-75 100 -145 205.5t-138.5 269.5t-68.5 288q0 185 181 332.5t452 147.5t447.5 -147.5t176.5 -332.5zM230 1438
q31 0 55.5 -18t24.5 -52t-22.5 -56.5t-52.5 -33.5t-30 -49t68 -104q4 -3 4 -8.5t-10 -15.5t-14.5 -10t-8.5 3q-138 88 -139 206q0 52 35 95t90 43zM391 1028q-14 0 -14 21q0 7 2 13l112 480q18 77 47 78q23 0 44.5 -32t21.5 -56t-36 -132l-77 -230q-48 -142 -100 -142z" />
    <glyph glyph-name="uni1F6E" unicode="&#x1f6e;" horiz-adv-x="1788" 
d="M1621 825q0 -124 -68.5 -288t-138.5 -269.5t-145 -205.5l148 7q63 5 120 20t78.5 51t21.5 110q0 17 37.5 17t37.5 -17v-227q0 -29 -23 -29q-154 6 -247 6h-288q-15 0 -15 22t19 35q74 111 168 281t94 372q0 230 -125.5 367t-301.5 137t-302 -137t-126 -367
q0 -202 94 -372t168 -281q19 -13 19 -35t-15 -22h-288q-93 0 -247 -6q-23 0 -23 29v227q0 17 37.5 17t37.5 -17q0 -74 21.5 -108t78.5 -51t120 -22l148 -7q-75 100 -145 205.5t-138.5 269.5t-68.5 288q0 185 181 332.5t452 147.5t447.5 -147.5t176.5 -332.5zM21 1523
q0 1 1 2q40 65 92.5 104t102.5 39t130 -29.5t125.5 -29.5t118.5 68q1 1 4.5 1t13.5 -8.5t10 -19.5q0 -4 -1 -8q-14 -41 -86 -89t-119 -48t-129 31.5t-128 31.5t-110 -61q-4 -4 -8.5 -4t-10.5 7.5t-6 12.5zM289 1438q55 0 89.5 -43t34.5 -95q0 -115 -136 -204q-6 -5 -11 -5
t-15 10t-10 15t6 10q67 66 67 104q0 37 -30 48t-53 33.5t-23 56.5t25 52t56 18z" />
    <glyph glyph-name="uni1F6F" unicode="&#x1f6f;" horiz-adv-x="1792" 
d="M1625 825q0 -124 -68.5 -288t-138.5 -269.5t-145 -205.5l148 7q63 5 120 20t78.5 51t21.5 110q0 17 37.5 17t37.5 -17v-227q0 -29 -23 -29q-154 6 -247 6h-288q-15 0 -15 22t19 35q74 111 168 281t94 372q0 230 -125.5 367t-301.5 137t-302 -137t-126 -367
q0 -202 94 -372t168 -281q19 -13 19 -35t-15 -22h-288q-93 0 -247 -6q-23 0 -23 29v227q0 17 37.5 17t37.5 -17q0 -74 21.5 -108t78.5 -51t120 -22l148 -7q-75 100 -145 205.5t-138.5 269.5t-68.5 288q0 185 181 332.5t452 147.5t447.5 -147.5t176.5 -332.5zM39 1523
q0 1 1 2q40 65 92.5 104t102.5 39t130 -29.5t125.5 -29.5t118.5 68q1 1 4.5 1t13.5 -8.5t10 -19.5q0 -4 -1 -8q-14 -41 -86 -89t-119 -48t-129 31.5t-128 31.5t-110 -61q-4 -4 -8.5 -4t-10.5 7.5t-6 12.5zM351 1438q31 0 55.5 -18t24.5 -52t-22.5 -56.5t-52.5 -33.5t-30 -49
t68 -104q4 -3 4 -8.5t-10 -15.5t-14.5 -10t-8.5 3q-138 88 -139 206q0 52 35 95t90 43z" />
    <glyph glyph-name="uni1F70" unicode="&#x1f70;" horiz-adv-x="1185" 
d="M80 218q0 123 43 257.5t146.5 262.5t195.5 128q85 0 135 -55.5t67.5 -127.5t19.5 -97q25 45 48 101.5t45.5 96t58.5 71.5t70 32t47.5 -20.5t13.5 -63.5q0 -69 -76 -206.5t-111 -191t-81 -115.5q4 -91 32 -138.5t98 -47.5t149 60t145 153q15 22 28 22t13 -32
q0 -9 -3.5 -46.5t-45 -115.5t-118.5 -123.5t-157.5 -45.5t-139.5 69.5t-59 170.5q-120 -144 -217 -191.5t-154 -47.5q-87 0 -140 50t-53 191zM155 190q0 -35 18 -53.5t44 -18.5q116 0 206.5 86.5t136 156.5t74.5 123q-6 92 -22 149.5t-37 79t-40 21.5q-63 0 -150 -94.5
t-158.5 -235.5t-71.5 -214zM597 1028q-53 0 -100 142l-77 230q-36 108 -36 132t21.5 56t45.5 32q29 0 47 -78l111 -480q2 -6 2 -13q0 -21 -14 -21z" />
    <glyph glyph-name="uni1F71" unicode="&#x1f71;" horiz-adv-x="1185" 
d="M80 218q0 123 43 257.5t146.5 262.5t195.5 128q85 0 135 -55.5t67.5 -127.5t19.5 -97q25 45 48 101.5t45.5 96t58.5 71.5t70 32t47.5 -20.5t13.5 -63.5q0 -69 -76 -206.5t-111 -191t-81 -115.5q4 -91 32 -138.5t98 -47.5t149 60t145 153q15 22 28 22t13 -32
q0 -9 -3.5 -46.5t-45 -115.5t-118.5 -123.5t-157.5 -45.5t-139.5 69.5t-59 170.5q-120 -144 -217 -191.5t-154 -47.5q-87 0 -140 50t-53 191zM155 190q0 -35 18 -53.5t44 -18.5q116 0 206.5 86.5t136 156.5t74.5 123q-6 92 -22 149.5t-37 79t-40 21.5q-63 0 -150 -94.5
t-158.5 -235.5t-71.5 -214zM507 1028q-14 0 -14 21q0 7 2 13l112 480q18 77 47 78q23 0 44.5 -32t21.5 -56t-36 -132l-77 -230q-48 -142 -100 -142z" />
    <glyph glyph-name="uni1F72" unicode="&#x1f72;" horiz-adv-x="612" 
d="M445 1028q-53 0 -100 142l-77 230q-36 108 -36 132t21.5 56t45.5 32q29 0 47 -78l111 -480q2 -6 2 -13q0 -21 -14 -21zM253 -23q-90 0 -146.5 48t-56.5 121t37.5 141.5t80.5 101.5q-22 13 -49.5 59t-27.5 99.5t43.5 126.5t112 134.5t169.5 61.5q50 0 93 -21t43 -59
t-47.5 -55.5t-107.5 -17.5q-101 0 -170 -58t-69 -129q0 -40 14.5 -68t36.5 -40q50 34 101.5 69t100.5 35t67 -18.5t18 -45.5q0 -44 -48.5 -80t-148.5 -36q-42 0 -77 13q-45 -43 -59 -78.5t-14 -63.5q0 -36 24 -60.5t84.5 -24.5t110.5 21t73.5 47t58.5 26q21 0 33 -9.5
t12 -27.5q0 -28 -47.5 -88t-110.5 -92t-134 -32z" />
    <glyph glyph-name="uni1F73" unicode="&#x1f73;" horiz-adv-x="612" 
d="M290 1028q-14 0 -14 21q0 7 2 13l112 480q18 77 47 78q23 0 44.5 -32t21.5 -56t-36 -132l-77 -230q-48 -142 -100 -142zM253 -23q-90 0 -146.5 48t-56.5 121t37.5 141.5t80.5 101.5q-22 13 -49.5 59t-27.5 99.5t43.5 126.5t112 134.5t169.5 61.5q50 0 93 -21t43 -59
t-47.5 -55.5t-107.5 -17.5q-101 0 -170 -58t-69 -129q0 -40 14.5 -68t36.5 -40q50 34 101.5 69t100.5 35t67 -18.5t18 -45.5q0 -44 -48.5 -80t-148.5 -36q-42 0 -77 13q-45 -43 -59 -78.5t-14 -63.5q0 -36 24 -60.5t84.5 -24.5t110.5 21t73.5 47t58.5 26q21 0 33 -9.5
t12 -27.5q0 -28 -47.5 -88t-110.5 -92t-134 -32z" />
    <glyph glyph-name="uni1F74" unicode="&#x1f74;" 
d="M233 606q0 23 -4 55.5t-22 32.5t-31.5 -21.5t-38.5 -21.5q-55 0 -55 71t39.5 126t95 55t80.5 -50.5t25 -112.5t-6.5 -107t-31.5 -163q-1 -7 -1 -14q0 -8 8 -8t18 22q87 182 179.5 291t160.5 109q50 0 84.5 -35t34.5 -161t-17 -406t-25 -311q-37 -140 -95 -140
q-26 0 -43.5 43t-17.5 75t21.5 91.5t62.5 233.5t41 302q0 72 -8.5 113t-46.5 41t-145 -157t-186.5 -321t-120.5 -244q-9 -16 -77 -16q-61 0 -61 18q0 5 2 12l99 281q82 225 82 317zM570 1028q-53 0 -100 142l-77 230q-35 108 -35 132t21 56t45 32q29 0 47 -78l111 -480
q2 -6 2 -13q0 -21 -14 -21z" />
    <glyph glyph-name="uni1F75" unicode="&#x1f75;" 
d="M477 1028q-14 0 -14 21q0 7 2 13l112 480q18 77 47 78q23 0 44.5 -32t21.5 -56t-36 -132l-77 -230q-48 -142 -100 -142zM233 606q0 23 -4 55.5t-22 32.5t-31.5 -21.5t-38.5 -21.5q-55 0 -55 71t39.5 126t95 55t80.5 -50.5t25 -112.5t-6.5 -107t-31.5 -163q-1 -7 -1 -14
q0 -8 8 -8t18 22q87 182 179.5 291t160.5 109q50 0 84.5 -35t34.5 -161t-17 -406t-25 -311q-37 -140 -95 -140q-26 0 -43.5 43t-17.5 75t21.5 91.5t62.5 233.5t41 302q0 72 -8.5 113t-46.5 41t-145 -157t-186.5 -321t-120.5 -244q-9 -16 -77 -16q-61 0 -61 18q0 5 2 12
l99 281q82 225 82 317z" />
    <glyph glyph-name="uni1F76" unicode="&#x1f76;" horiz-adv-x="445" 
d="M40 105q0 48 24 132l168 588q13 45 76 45q45 0 61 -19.5t16 -58.5q0 -50 -99 -249t-111 -293q29 12 75 12q36 0 57 -29t21 -61q0 -74 -50 -137.5t-119 -63.5q-55 0 -87 31.5t-32 102.5zM383 1028q-53 0 -100 142l-77 230q-36 108 -36 132t21.5 56t45.5 32q29 0 47 -78
l111 -480q2 -6 2 -13q0 -21 -14 -21z" />
    <glyph glyph-name="uni1F77" unicode="&#x1f77;" horiz-adv-x="445" 
d="M284 1028q-14 0 -14 21q0 7 2 13l112 480q18 77 47 78q23 0 44.5 -32t21.5 -56t-36 -132l-77 -230q-48 -142 -100 -142zM40 105q0 48 24 132l168 588q13 45 76 45q45 0 61 -19.5t16 -58.5q0 -50 -99 -249t-111 -293q29 12 75 12q36 0 57 -29t21 -61q0 -74 -50 -137.5
t-119 -63.5q-55 0 -87 31.5t-32 102.5z" />
    <glyph glyph-name="uni1F78" unicode="&#x1f78;" horiz-adv-x="742" 
d="M80 242q0 134 68.5 274t181 247.5t178.5 107.5q32 0 50.5 -23t18.5 -68q0 -11 -9 -26q114 -148 114 -364q0 -157 -109 -284.5t-244 -127.5q-118 0 -183.5 65t-65.5 199zM164 204q0 -62 33 -87t69 -25q101 0 179.5 92t98.5 174.5t20 149.5q0 104 -52 183q-25 -23 -59 -50
q-124 -101 -206.5 -229.5t-82.5 -207.5zM568 1028q-53 0 -100 142l-77 230q-35 108 -35 132t21 56t45 32q29 0 47 -78l111 -480q2 -6 2 -13q0 -21 -14 -21z" />
    <glyph glyph-name="uni1F79" unicode="&#x1f79;" horiz-adv-x="742" 
d="M412 1028q-14 0 -14 21q0 7 2 13l112 480q18 77 47 78q23 0 44.5 -32t21.5 -56t-36 -132l-77 -230q-48 -142 -100 -142zM80 242q0 134 68.5 274t181 247.5t178.5 107.5q32 0 50.5 -23t18.5 -68q0 -11 -9 -26q114 -148 114 -364q0 -157 -109 -284.5t-244 -127.5
q-118 0 -183.5 65t-65.5 199zM164 204q0 -62 33 -87t69 -25q101 0 179.5 92t98.5 174.5t20 149.5q0 104 -52 183q-25 -23 -59 -50q-124 -101 -206.5 -229.5t-82.5 -207.5z" />
    <glyph glyph-name="uni1F7A" unicode="&#x1f7a;" horiz-adv-x="837" 
d="M124 154q0 80 37.5 219.5t44.5 218.5q-34 -12 -68 -12q-44 0 -64 30.5t-20 59.5q0 73 32 119.5t64 63.5t88 18q26 0 50 -16.5t24 -64.5q0 -80 -37 -223.5t-37 -250.5q0 -84 20.5 -128t67.5 -44q86 0 162 79.5t129 226t53 272.5q0 144 16 144q38 0 60 -78t22 -170
q0 -157 -43 -288.5t-149 -243.5t-284 -112q-70 0 -119 45t-49 135zM541 1028q-53 0 -100 142l-77 230q-36 108 -36 132t21.5 56t45.5 32q29 0 47 -78l111 -480q2 -6 2 -13q0 -21 -14 -21z" />
    <glyph glyph-name="uni1F7B" unicode="&#x1f7b;" horiz-adv-x="837" 
d="M418 1028q-14 0 -14 21q0 7 2 13l112 480q18 77 47 78q23 0 44.5 -32t21.5 -56t-36 -132l-77 -230q-48 -142 -100 -142zM124 154q0 80 37.5 219.5t44.5 218.5q-34 -12 -68 -12q-44 0 -64 30.5t-20 59.5q0 73 32 119.5t64 63.5t88 18q26 0 50 -16.5t24 -64.5
q0 -80 -37 -223.5t-37 -250.5q0 -84 20.5 -128t67.5 -44q86 0 162 79.5t129 226t53 272.5q0 144 16 144q38 0 60 -78t22 -170q0 -157 -43 -288.5t-149 -243.5t-284 -112q-70 0 -119 45t-49 135z" />
    <glyph glyph-name="uni1F7C" unicode="&#x1f7c;" horiz-adv-x="1194" 
d="M802 1028q-53 0 -100 142l-77 230q-35 108 -35 132t21 56t45 32q29 0 47 -78l111 -480q2 -6 2 -13q0 -21 -14 -21zM80 226q0 143 68 294.5t153.5 250.5t155.5 99q55 0 83 -20.5t28 -52.5t-75.5 -87.5t-152 -139.5t-134 -187t-57.5 -178q0 -41 25.5 -69t85.5 -28
q90 0 158 82t113.5 196.5t57.5 149.5q22 71 85 71q15 0 39 -5.5t44 -20.5t20 -42q0 -12 -7 -35.5t-74 -156.5t-126 -199q24 -40 94.5 -40t148 78t123.5 176t46 205.5t-15 170t-15 77.5q0 45 40 45q24 0 81 -98t57 -241t-59 -262t-152 -200.5t-204 -81.5q-77 0 -131 27.5
t-74 71.5q-26 -40 -81 -70.5t-119 -30.5q-96 0 -163 50t-67 201z" />
    <glyph glyph-name="uni1F7D" unicode="&#x1f7d;" horiz-adv-x="1194" 
d="M704 1028q-14 0 -14 21q0 7 2 13l112 480q18 77 47 78q23 0 44.5 -32t21.5 -56t-36 -132l-77 -230q-48 -142 -100 -142zM80 226q0 143 68 294.5t153.5 250.5t155.5 99q55 0 83 -20.5t28 -52.5t-75.5 -87.5t-152 -139.5t-134 -187t-57.5 -178q0 -41 25.5 -69t85.5 -28
q90 0 158 82t113.5 196.5t57.5 149.5q22 71 85 71q15 0 39 -5.5t44 -20.5t20 -42q0 -12 -7 -35.5t-74 -156.5t-126 -199q24 -40 94.5 -40t148 78t123.5 176t46 205.5t-15 170t-15 77.5q0 45 40 45q24 0 81 -98t57 -241t-59 -262t-152 -200.5t-204 -81.5q-77 0 -131 27.5
t-74 71.5q-26 -40 -81 -70.5t-119 -30.5q-96 0 -163 50t-67 201z" />
    <glyph glyph-name="uni1F80" unicode="&#x1f80;" horiz-adv-x="1185" 
d="M80 218q0 123 43 257.5t146.5 262.5t195.5 128q85 0 135 -55.5t67.5 -127.5t19.5 -97q25 45 48 101.5t45.5 96t58.5 71.5t70 32t47.5 -20.5t13.5 -63.5q0 -69 -76 -206.5t-111 -191t-81 -115.5q4 -91 32 -138.5t98 -47.5t149 60t145 153q15 22 28 22t13 -32
q0 -9 -3.5 -46.5t-45 -115.5t-118.5 -123.5t-157.5 -45.5t-139.5 69.5t-59 170.5q-120 -144 -217 -191.5t-154 -47.5q-87 0 -140 50t-53 191zM155 190q0 -35 18 -53.5t44 -18.5q116 0 206.5 86.5t136 156.5t74.5 123q-6 92 -22 149.5t-37 79t-40 21.5q-63 0 -150 -94.5
t-158.5 -235.5t-71.5 -214zM551 1438q55 0 89.5 -43t34.5 -95q0 -115 -136 -204q-6 -5 -11 -5t-15 10t-10 15t6 10q67 66 67 104q0 37 -30 48t-53 33.5t-23 56.5t25 52t56 18zM206 -499q0 31 12 69l88 274q6 21 39 21t42 -9t9 -28q0 -5 -41 -89.5t-69 -161.5q16 5 40 5
q18 0 29 -14.5t11 -31.5q0 -38 -26 -71.5t-68 -33.5q-34 0 -50 16t-16 54z" />
    <glyph glyph-name="uni1F81" unicode="&#x1f81;" horiz-adv-x="1185" 
d="M80 218q0 123 43 257.5t146.5 262.5t195.5 128q85 0 135 -55.5t67.5 -127.5t19.5 -97q25 45 48 101.5t45.5 96t58.5 71.5t70 32t47.5 -20.5t13.5 -63.5q0 -69 -76 -206.5t-111 -191t-81 -115.5q4 -91 32 -138.5t98 -47.5t149 60t145 153q15 22 28 22t13 -32
q0 -9 -3.5 -46.5t-45 -115.5t-118.5 -123.5t-157.5 -45.5t-139.5 69.5t-59 170.5q-120 -144 -217 -191.5t-154 -47.5q-87 0 -140 50t-53 191zM155 190q0 -35 18 -53.5t44 -18.5q116 0 206.5 86.5t136 156.5t74.5 123q-6 92 -22 149.5t-37 79t-40 21.5q-63 0 -150 -94.5
t-158.5 -235.5t-71.5 -214zM547 1438q31 0 55.5 -18t24.5 -52t-22.5 -56.5t-52.5 -33.5t-30 -49t68 -104q4 -3 4 -8.5t-10 -15.5t-14.5 -10t-8.5 3q-138 88 -139 206q0 52 35 95t90 43zM212 -499q0 31 12 69l88 274q6 21 39 21t42 -9t9 -28q0 -5 -41 -89.5t-69 -161.5
q16 5 40 5q18 0 29 -14.5t11 -31.5q0 -38 -26 -71.5t-68 -33.5q-34 0 -50 16t-16 54z" />
    <glyph glyph-name="uni1F82" unicode="&#x1f82;" horiz-adv-x="1185" 
d="M870 1028q-53 0 -100 142l-77 230q-35 108 -35 132t21 56t45 32q29 0 47 -78l111 -480q2 -6 2 -13q0 -21 -14 -21zM489 1438q55 0 89.5 -43t34.5 -95q0 -118 -137 -205q-5 -4 -10 -4t-15 9.5t-10 14.5t4 10q69 68 69 105t-30 48t-53 33.5t-23 56.5t25 52t56 18zM80 218
q0 123 43 257.5t146.5 262.5t195.5 128q85 0 135 -55.5t67.5 -127.5t19.5 -97q25 45 48 101.5t45.5 96t58.5 71.5t70 32t47.5 -20.5t13.5 -63.5q0 -69 -76 -206.5t-111 -191t-81 -115.5q4 -91 32 -138.5t98 -47.5t149 60t145 153q15 22 28 22t13 -32q0 -9 -3.5 -46.5
t-45 -115.5t-118.5 -123.5t-157.5 -45.5t-139.5 69.5t-59 170.5q-120 -144 -217 -191.5t-154 -47.5q-87 0 -140 50t-53 191zM155 190q0 -35 18 -53.5t44 -18.5q116 0 206.5 86.5t136 156.5t74.5 123q-6 92 -22 149.5t-37 79t-40 21.5q-63 0 -150 -94.5t-158.5 -235.5
t-71.5 -214zM212 -499q0 31 12 69l88 274q6 21 39 21t42 -9t9 -28q0 -5 -41 -89.5t-69 -161.5q16 5 40 5q18 0 29 -14.5t11 -31.5q0 -38 -26 -71.5t-68 -33.5q-34 0 -50 16t-16 54z" />
    <glyph glyph-name="uni1F83" unicode="&#x1f83;" horiz-adv-x="1185" 
d="M80 218q0 123 43 257.5t146.5 262.5t195.5 128q85 0 135 -55.5t67.5 -127.5t19.5 -97q25 45 48 101.5t45.5 96t58.5 71.5t70 32t47.5 -20.5t13.5 -63.5q0 -69 -76 -206.5t-111 -191t-81 -115.5q4 -91 32 -138.5t98 -47.5t149 60t145 153q15 22 28 22t13 -32
q0 -9 -3.5 -46.5t-45 -115.5t-118.5 -123.5t-157.5 -45.5t-139.5 69.5t-59 170.5q-120 -144 -217 -191.5t-154 -47.5q-87 0 -140 50t-53 191zM155 190q0 -35 18 -53.5t44 -18.5q116 0 206.5 86.5t136 156.5t74.5 123q-6 92 -22 149.5t-37 79t-40 21.5q-63 0 -150 -94.5
t-158.5 -235.5t-71.5 -214zM541 1438q31 0 55.5 -18t24.5 -52t-22.5 -56.5t-52.5 -33.5t-30 -49t68 -104q4 -3 4 -8.5t-10 -15.5t-14.5 -10t-8.5 3q-138 88 -139 206q0 52 35 95t90 43zM875 1028q-53 0 -100 142l-77 230q-36 108 -36 132t21.5 56t48 32t44.5 -78l111 -477
q2 -9 2 -16q0 -21 -14 -21zM212 -499q0 31 12 69l88 274q6 21 39 21t42 -9t9 -28q0 -5 -41 -89.5t-69 -161.5q16 5 40 5q18 0 29 -14.5t11 -31.5q0 -38 -26 -71.5t-68 -33.5q-34 0 -50 16t-16 54z" />
    <glyph glyph-name="uni1F84" unicode="&#x1f84;" horiz-adv-x="1185" 
d="M80 218q0 123 43 257.5t146.5 262.5t195.5 128q85 0 135 -55.5t67.5 -127.5t19.5 -97q25 45 48 101.5t45.5 96t58.5 71.5t70 32t47.5 -20.5t13.5 -63.5q0 -69 -76 -206.5t-111 -191t-81 -115.5q4 -91 32 -138.5t98 -47.5t149 60t145 153q15 22 28 22t13 -32
q0 -9 -3.5 -46.5t-45 -115.5t-118.5 -123.5t-157.5 -45.5t-139.5 69.5t-59 170.5q-120 -144 -217 -191.5t-154 -47.5q-87 0 -140 50t-53 191zM155 190q0 -35 18 -53.5t44 -18.5q116 0 206.5 86.5t136 156.5t74.5 123q-6 92 -22 149.5t-37 79t-40 21.5q-63 0 -150 -94.5
t-158.5 -235.5t-71.5 -214zM519 1438q55 0 89.5 -43t34.5 -95q0 -118 -137 -205q-5 -4 -10 -4t-15 9.5t-10 14.5t4 10q69 68 69 105t-30 48t-53 33.5t-23 56.5t25 52t56 18zM730 1028q-14 0 -15 21q0 7 2 13l111 480q18 77 48 78q23 0 44.5 -32t21.5 -56t-36 -132l-76 -230
q-46 -142 -100 -142zM212 -499q0 31 12 69l88 274q6 21 39 21t42 -9t9 -28q0 -5 -41 -89.5t-69 -161.5q16 5 40 5q18 0 29 -14.5t11 -31.5q0 -38 -26 -71.5t-68 -33.5q-34 0 -50 16t-16 54z" />
    <glyph glyph-name="uni1F85" unicode="&#x1f85;" horiz-adv-x="1185" 
d="M80 218q0 123 43 257.5t146.5 262.5t195.5 128q85 0 135 -55.5t67.5 -127.5t19.5 -97q25 45 48 101.5t45.5 96t58.5 71.5t70 32t47.5 -20.5t13.5 -63.5q0 -69 -76 -206.5t-111 -191t-81 -115.5q4 -91 32 -138.5t98 -47.5t149 60t145 153q15 22 28 22t13 -32
q0 -9 -3.5 -46.5t-45 -115.5t-118.5 -123.5t-157.5 -45.5t-139.5 69.5t-59 170.5q-120 -144 -217 -191.5t-154 -47.5q-87 0 -140 50t-53 191zM155 190q0 -35 18 -53.5t44 -18.5q116 0 206.5 86.5t136 156.5t74.5 123q-6 92 -22 149.5t-37 79t-40 21.5q-63 0 -150 -94.5
t-158.5 -235.5t-71.5 -214zM523 1438q31 0 55.5 -18t24.5 -52t-22.5 -56.5t-52.5 -33.5t-30 -49t68 -104q4 -3 4 -8.5t-10 -15.5t-14.5 -10t-8.5 3q-138 88 -139 206q0 52 35 95t90 43zM684 1028q-14 0 -14 21q0 7 2 13l112 480q18 77 47 78q23 0 44.5 -32t21.5 -56
t-36 -132l-77 -230q-48 -142 -100 -142zM212 -499q0 31 12 69l88 274q6 21 39 21t42 -9t9 -28q0 -5 -41 -89.5t-69 -161.5q16 5 40 5q18 0 29 -14.5t11 -31.5q0 -38 -26 -71.5t-68 -33.5q-34 0 -50 16t-16 54z" />
    <glyph glyph-name="uni1F86" unicode="&#x1f86;" horiz-adv-x="1185" 
d="M80 218q0 123 43 257.5t146.5 262.5t195.5 128q85 0 135 -55.5t67.5 -127.5t19.5 -97q25 45 48 101.5t45.5 96t58.5 71.5t70 32t47.5 -20.5t13.5 -63.5q0 -69 -76 -206.5t-111 -191t-81 -115.5q4 -91 32 -138.5t98 -47.5t149 60t145 153q15 22 28 22t13 -32
q0 -9 -3.5 -46.5t-45 -115.5t-118.5 -123.5t-157.5 -45.5t-139.5 69.5t-59 170.5q-120 -144 -217 -191.5t-154 -47.5q-87 0 -140 50t-53 191zM155 190q0 -35 18 -53.5t44 -18.5q116 0 206.5 86.5t136 156.5t74.5 123q-6 92 -22 149.5t-37 79t-40 21.5q-63 0 -150 -94.5
t-158.5 -235.5t-71.5 -214zM319 1523q0 1 1 2q40 65 92.5 104t102.5 39t130 -29.5t125.5 -29.5t118.5 68q1 1 4.5 1t13.5 -8.5t10 -19.5q0 -4 -1 -8q-14 -41 -86 -89t-119 -48t-129 31.5t-128 31.5t-110 -61q-4 -4 -8.5 -4t-10.5 7.5t-6 12.5zM587 1438q55 0 89.5 -43
t34.5 -95q0 -115 -136 -204q-6 -5 -11 -5t-15 10t-10 15t6 10q67 66 67 104q0 37 -30 48t-53 33.5t-23 56.5t25 52t56 18zM212 -499q0 31 12 69l88 274q6 21 39 21t42 -9t9 -28q0 -5 -41 -89.5t-69 -161.5q16 5 40 5q18 0 29 -14.5t11 -31.5q0 -38 -26 -71.5t-68 -33.5
q-34 0 -50 16t-16 54z" />
    <glyph glyph-name="uni1F87" unicode="&#x1f87;" horiz-adv-x="1185" 
d="M80 218q0 123 43 257.5t146.5 262.5t195.5 128q85 0 135 -55.5t67.5 -127.5t19.5 -97q25 45 48 101.5t45.5 96t58.5 71.5t70 32t47.5 -20.5t13.5 -63.5q0 -69 -76 -206.5t-111 -191t-81 -115.5q4 -91 32 -138.5t98 -47.5t149 60t145 153q15 22 28 22t13 -32
q0 -9 -3.5 -46.5t-45 -115.5t-118.5 -123.5t-157.5 -45.5t-139.5 69.5t-59 170.5q-120 -144 -217 -191.5t-154 -47.5q-87 0 -140 50t-53 191zM155 190q0 -35 18 -53.5t44 -18.5q116 0 206.5 86.5t136 156.5t74.5 123q-6 92 -22 149.5t-37 79t-40 21.5q-63 0 -150 -94.5
t-158.5 -235.5t-71.5 -214zM299 1523q0 1 1 2q40 65 92.5 104t102.5 39t130 -29.5t125.5 -29.5t118.5 68q1 1 4.5 1t13.5 -8.5t10 -19.5q0 -4 -1 -8q-14 -41 -86 -89t-119 -48t-129 31.5t-128 31.5t-110 -61q-4 -4 -8.5 -4t-10.5 7.5t-6 12.5zM611 1438q31 0 55.5 -18
t24.5 -52t-22.5 -56.5t-52.5 -33.5t-30 -49t68 -104q4 -3 4 -8.5t-10 -15.5t-14.5 -10t-8.5 3q-138 88 -139 206q0 52 35 95t90 43zM212 -499q0 31 12 69l88 274q6 21 39 21t42 -9t9 -28q0 -5 -41 -89.5t-69 -161.5q16 5 40 5q18 0 29 -14.5t11 -31.5q0 -38 -26 -71.5
t-68 -33.5q-34 0 -50 16t-16 54z" />
    <glyph glyph-name="uni1F88" unicode="&#x1f88;" horiz-adv-x="1770" 
d="M1176 186q39 -117 192 -117q13 0 13 -34.5t-13 -34.5h-461q-14 0 -14 34.5t14 34.5q99 0 99 68q0 23 -8 49l-97 278q-9 31 -44 31h-414q-27 0 -40 -35l-109 -278q-9 -22 -9 -40q0 -73 150 -73q14 0 14 -34.5t-14 -34.5h-425q-14 0 -14 34.5t14 34.5q97 0 129 28t66 104
l377 915q6 17 6 30t-13 26.5t-13 19.5t39.5 27.5t92.5 58.5t65 37q23 0 35 -44q26 -97 49 -166zM834 564q25 0 25 16q0 5 -2 11l-172 496q-6 20 -18 20t-19 -20l-194 -496q-2 -5 -2 -11q0 -16 24 -16h358zM1476 58q0 31 12 69l88 274q6 21 39 21t42 -9t9 -28q0 -5 -41 -89.5
t-69 -161.5q16 5 40 5q18 0 29 -14.5t11 -31.5q0 -38 -26 -71.5t-68 -33.5q-34 0 -50 16t-16 54zM227 1438q55 0 89.5 -43t34.5 -95q0 -115 -136 -204q-6 -5 -11 -5t-15 10t-10 15t6 10q67 66 67 104q0 37 -30 48t-53 33.5t-23 56.5t25 52t56 18z" />
    <glyph glyph-name="uni1F89" unicode="&#x1f89;" horiz-adv-x="1752" 
d="M1176 186q39 -117 192 -117q13 0 13 -34.5t-13 -34.5h-461q-14 0 -14 34.5t14 34.5q99 0 99 68q0 23 -8 49l-97 278q-9 31 -44 31h-414q-27 0 -40 -35l-109 -278q-9 -22 -9 -40q0 -73 150 -73q14 0 14 -34.5t-14 -34.5h-425q-14 0 -14 34.5t14 34.5q97 0 129 28t66 104
l377 915q6 17 6 30t-13 26.5t-13 19.5t39.5 27.5t92.5 58.5t65 37q23 0 35 -44q26 -97 49 -166zM834 564q25 0 25 16q0 5 -2 11l-172 496q-6 20 -18 20t-19 -20l-194 -496q-2 -5 -2 -11q0 -16 24 -16h358zM1454 58q0 31 12 69l88 274q8 21 41 21t42 -9t9 -28q0 -5 -42 -89.5
t-68 -161.5q14 5 38 5q20 0 31 -14.5t11 -31.5q0 -38 -27 -71.5t-69 -33.5q-32 0 -49 16t-17 54zM266 1438q31 0 55.5 -18t24.5 -52t-22.5 -56.5t-52.5 -33.5t-30 -49t68 -104q4 -3 4 -8.5t-10 -15.5t-14.5 -10t-8.5 3q-138 88 -139 206q0 52 35 95t90 43z" />
    <glyph glyph-name="uni1F8A" unicode="&#x1f8a;" horiz-adv-x="1872" 
d="M1295 186q39 -117 192 -117q13 0 13 -34.5t-13 -34.5h-461q-14 0 -14 34.5t14 34.5q99 0 99 68q0 23 -8 49l-97 278q-9 31 -44 31h-414q-27 0 -40 -35l-109 -278q-9 -22 -9 -40q0 -73 150 -73q14 0 14 -34.5t-14 -34.5h-425q-14 0 -14 34.5t14 34.5q97 0 129 28t66 104
l377 915q6 17 6 30t-13 26.5t-13 19.5t39.5 27.5t92.5 58.5t65 37q23 0 35 -44q26 -97 49 -166zM953 564q25 0 25 16q0 5 -2 11l-172 496q-6 20 -18 20t-19 -20l-194 -496q-2 -5 -2 -11q0 -16 24 -16h358zM1574 58q0 31 12 69l88 274q6 21 39 21t42 -9t9 -28q0 -5 -41 -89.5
t-69 -161.5q16 5 40 5q18 0 29 -14.5t11 -31.5q0 -38 -26 -71.5t-68 -33.5q-34 0 -50 16t-16 54zM517 1028q-53 0 -100 142l-77 230q-36 108 -36 132t21.5 56t45.5 32q29 0 47 -78l111 -480q2 -6 2 -13q0 -21 -14 -21zM136 1438q55 0 89.5 -43t34.5 -95q0 -118 -137 -205
q-5 -4 -10 -4t-15 9.5t-10 14.5t4 10q69 68 69 105t-30 48t-53 33.5t-23 56.5t25 52t56 18z" />
    <glyph glyph-name="uni1F8B" unicode="&#x1f8b;" horiz-adv-x="1872" 
d="M1293 186q39 -117 192 -117q13 0 13 -34.5t-13 -34.5h-461q-14 0 -14 34.5t14 34.5q99 0 99 68q0 23 -8 49l-97 278q-9 31 -44 31h-414q-27 0 -40 -35l-109 -278q-9 -22 -9 -40q0 -73 150 -73q14 0 14 -34.5t-14 -34.5h-425q-14 0 -14 34.5t14 34.5q97 0 129 28t66 104
l377 915q6 17 6 30t-13 26.5t-13 19.5t39.5 27.5t92.5 58.5t65 37q23 0 35 -44q26 -97 49 -166zM951 564q25 0 25 16q0 5 -2 11l-172 496q-6 20 -18 20t-19 -20l-194 -496q-2 -5 -2 -11q0 -16 24 -16h358zM1572 58q0 31 12 69l88 274q8 21 41 21t42 -9t9 -28q0 -5 -42 -89.5
t-68 -161.5q14 5 38 5q20 0 31 -14.5t11 -31.5q0 -38 -27 -71.5t-69 -33.5q-32 0 -49 16t-17 54zM186 1438q31 0 55.5 -18t24.5 -52t-22.5 -56.5t-52.5 -33.5t-30 -49t68 -104q4 -3 4 -8.5t-10 -15.5t-14.5 -10t-8.5 3q-138 88 -139 206q0 52 35 95t90 43zM520 1028
q-53 0 -100 142l-77 230q-35 108 -35 132t21 56t47.5 32t44.5 -78l111 -477q2 -9 2 -16q0 -21 -14 -21z" />
    <glyph glyph-name="uni1F8C" unicode="&#x1f8c;" horiz-adv-x="1872" 
d="M1296 186q39 -117 192 -117q13 0 13 -34.5t-13 -34.5h-461q-14 0 -14 34.5t14 34.5q99 0 99 68q0 23 -8 49l-97 278q-9 31 -44 31h-414q-27 0 -40 -35l-109 -278q-9 -22 -9 -40q0 -73 150 -73q14 0 14 -34.5t-14 -34.5h-425q-14 0 -14 34.5t14 34.5q97 0 129 28t66 104
l377 915q6 17 6 30t-13 26.5t-13 19.5t39.5 27.5t92.5 58.5t65 37q23 0 35 -44q26 -97 49 -166zM954 564q25 0 25 16q0 5 -2 11l-172 496q-6 20 -18 20t-19 -20l-194 -496q-2 -5 -2 -11q0 -16 24 -16h358zM1578 58q0 31 12 69l88 274q8 21 41 21t42 -9t9 -28q0 -5 -42 -89.5
t-68 -161.5q14 5 38 5q20 0 31 -14.5t11 -31.5q0 -38 -27 -71.5t-69 -33.5q-32 0 -49 16t-17 54zM142 1438q55 0 89.5 -43t34.5 -95q0 -118 -137 -205q-5 -4 -10 -4t-15 9.5t-10 14.5t4 10q69 68 69 105t-30 48t-53 33.5t-23 56.5t25 52t56 18zM353 1028q-14 0 -15 21
q0 7 2 13l111 480q18 77 48 78q23 0 44.5 -32t21.5 -56t-36 -132l-76 -230q-46 -142 -100 -142z" />
    <glyph glyph-name="uni1F8D" unicode="&#x1f8d;" horiz-adv-x="1872" 
d="M1296 186q39 -117 192 -117q13 0 13 -34.5t-13 -34.5h-461q-14 0 -14 34.5t14 34.5q99 0 99 68q0 23 -8 49l-97 278q-9 31 -44 31h-414q-27 0 -40 -35l-109 -278q-9 -22 -9 -40q0 -73 150 -73q14 0 14 -34.5t-14 -34.5h-425q-14 0 -14 34.5t14 34.5q97 0 129 28t66 104
l377 915q6 17 6 30t-13 26.5t-13 19.5t39.5 27.5t92.5 58.5t65 37q23 0 35 -44q26 -97 49 -166zM954 564q25 0 25 16q0 5 -2 11l-172 496q-6 20 -18 20t-19 -20l-194 -496q-2 -5 -2 -11q0 -16 24 -16h358zM1576 58q0 31 12 69l88 274q6 21 39 21t42 -9t9 -28q0 -5 -41 -89.5
t-69 -161.5q16 5 40 5q18 0 29 -14.5t11 -31.5q0 -38 -26 -71.5t-68 -33.5q-34 0 -50 16t-16 54zM180 1438q31 0 55.5 -18t24.5 -52t-22.5 -56.5t-52.5 -33.5t-30 -49t68 -104q4 -3 4 -8.5t-10 -15.5t-14.5 -10t-8.5 3q-138 88 -139 206q0 52 35 95t90 43zM341 1028
q-14 0 -14 21q0 7 2 13l112 480q18 77 47 78q23 0 44.5 -32t21.5 -56t-36 -132l-77 -230q-48 -142 -100 -142z" />
    <glyph glyph-name="uni1F8E" unicode="&#x1f8e;" horiz-adv-x="1832" 
d="M1256 186q39 -117 192 -117q13 0 13 -34.5t-13 -34.5h-461q-14 0 -14 34.5t14 34.5q99 0 99 68q0 23 -8 49l-97 278q-9 31 -44 31h-414q-27 0 -40 -35l-109 -278q-9 -22 -9 -40q0 -73 150 -73q14 0 14 -34.5t-14 -34.5h-425q-14 0 -14 34.5t14 34.5q97 0 129 28t66 104
l377 915q6 17 6 30t-13 26.5t-13 19.5t39.5 27.5t92.5 58.5t65 37q23 0 35 -44q26 -97 49 -166zM914 564q25 0 25 16q0 5 -2 11l-172 496q-6 20 -18 20t-19 -20l-194 -496q-2 -5 -2 -11q0 -16 24 -16h358zM1536 58q0 31 12 69l88 274q8 21 41 21t42 -9t9 -28q0 -5 -42 -89.5
t-68 -161.5q14 5 38 5q20 0 31 -14.5t11 -31.5q0 -38 -27 -71.5t-69 -33.5q-32 0 -49 16t-17 54zM38 1523q0 1 1 2q40 65 92.5 104t102.5 39t130 -29.5t125.5 -29.5t118.5 68q1 1 4.5 1t13.5 -8.5t10 -19.5q0 -4 -1 -8q-14 -41 -86 -89t-119 -48t-129 31.5t-128 31.5
t-110 -61q-4 -4 -8.5 -4t-10.5 7.5t-6 12.5zM306 1438q55 0 89.5 -43t34.5 -95q0 -115 -136 -204q-6 -5 -11 -5t-15 10t-10 15t6 10q68 66 68 104q0 37 -30.5 48t-53.5 33.5t-23 56.5t25 52t56 18z" />
    <glyph glyph-name="uni1F8F" unicode="&#x1f8f;" horiz-adv-x="1832" 
d="M1256 186q39 -117 192 -117q13 0 13 -34.5t-13 -34.5h-461q-14 0 -14 34.5t14 34.5q99 0 99 68q0 23 -8 49l-97 278q-9 31 -44 31h-414q-27 0 -40 -35l-109 -278q-9 -22 -9 -40q0 -73 150 -73q14 0 14 -34.5t-14 -34.5h-425q-14 0 -14 34.5t14 34.5q97 0 129 28t66 104
l377 915q6 17 6 30t-13 26.5t-13 19.5t39.5 27.5t92.5 58.5t65 37q23 0 35 -44q26 -97 49 -166zM914 564q25 0 25 16q0 5 -2 11l-172 496q-6 20 -18 20t-19 -20l-194 -496q-2 -5 -2 -11q0 -16 24 -16h358zM1538 58q0 31 12 69l88 274q8 21 41 21t42 -9t9 -28q0 -5 -42 -89.5
t-68 -161.5q14 5 38 5q20 0 31 -14.5t11 -31.5q0 -38 -27 -71.5t-69 -33.5q-32 0 -49 16t-17 54zM37 1523q0 1 1 2q40 65 92.5 104t102.5 39t130 -29.5t125.5 -29.5t118.5 68q1 1 4.5 1t13.5 -8.5t10 -19.5q0 -4 -1 -8q-14 -41 -86 -89t-119 -48t-129 31.5t-128 31.5
t-110 -61q-4 -4 -8.5 -4t-10.5 7.5t-6 12.5zM349 1438q31 0 55.5 -18t24.5 -52t-22.5 -56.5t-52.5 -33.5t-30 -49t68 -104q4 -3 4 -8.5t-10 -15.5t-14.5 -10t-8.5 3q-138 88 -139 206q0 52 35 95t90 43z" />
    <glyph glyph-name="uni1F90" unicode="&#x1f90;" 
d="M470 1438q55 0 89.5 -43t34.5 -95q0 -115 -136 -204q-6 -5 -11 -5t-15 10t-10 15t6 10q68 66 68 104q0 37 -30.5 48t-53.5 33.5t-23 56.5t25 52t56 18zM224 -499q0 31 12 69l88 274q6 21 39 21t42 -9t9 -28q0 -5 -41 -89.5t-69 -161.5q16 5 40 5q18 0 29 -14.5t11 -31.5
q0 -38 -26 -71.5t-68 -33.5q-34 0 -50 16t-16 54zM233 606q0 23 -4 55.5t-22 32.5t-31.5 -21.5t-38.5 -21.5q-55 0 -55 71t39.5 126t95 55t80.5 -50.5t25 -112.5t-6.5 -107t-31.5 -163q-1 -7 -1 -14q0 -8 8 -8t18 22q87 182 179.5 291t160.5 109q50 0 84.5 -35t34.5 -161
t-17 -406t-25 -311q-37 -140 -95 -140q-26 0 -43.5 43t-17.5 75t21.5 91.5t62.5 233.5t41 302q0 72 -8.5 113t-46.5 41t-145 -157t-186.5 -321t-120.5 -244q-9 -16 -77 -16q-61 0 -61 18q0 5 2 12l99 281q82 225 82 317z" />
    <glyph glyph-name="uni1F91" unicode="&#x1f91;" 
d="M519 1438q31 0 55.5 -18t24.5 -52t-22.5 -56.5t-52.5 -33.5t-30 -49t68 -104q4 -3 4 -8.5t-10 -15.5t-14.5 -10t-8.5 3q-138 88 -139 206q0 52 35 95t90 43zM222 -499q0 31 12 69l88 274q8 21 41 21t42 -9t9 -28q0 -5 -42 -89.5t-68 -161.5q14 5 38 5q20 0 31 -14.5
t11 -31.5q0 -38 -27 -71.5t-69 -33.5q-32 0 -49 16t-17 54zM233 606q0 23 -4 55.5t-22 32.5t-31.5 -21.5t-38.5 -21.5q-55 0 -55 71t39.5 126t95 55t80.5 -50.5t25 -112.5t-6.5 -107t-31.5 -163q-1 -7 -1 -14q0 -8 8 -8t18 22q87 182 179.5 291t160.5 109q50 0 84.5 -35
t34.5 -161t-17 -406t-25 -311q-37 -140 -95 -140q-26 0 -43.5 43t-17.5 75t21.5 91.5t62.5 233.5t41 302q0 72 -8.5 113t-46.5 41t-145 -157t-186.5 -321t-120.5 -244q-9 -16 -77 -16q-61 0 -61 18q0 5 2 12l99 281q82 225 82 317z" />
    <glyph glyph-name="uni1F92" unicode="&#x1f92;" 
d="M762 1028q-53 0 -100 142l-77 230q-35 108 -35 132t21 56t45 32q29 0 47 -78l111 -480q2 -6 2 -13q0 -21 -14 -21zM381 1438q55 0 89.5 -43t34.5 -95q0 -118 -137 -205q-5 -4 -10 -4t-15 9.5t-10 14.5t4 10q69 68 69 105t-30 48t-53 33.5t-23 56.5t25 52t56 18zM222 -499
q0 31 12 69l88 274q6 21 39 21t42 -9t9 -28q0 -5 -41 -89.5t-69 -161.5q16 5 40 5q18 0 29 -14.5t11 -31.5q0 -38 -26 -71.5t-68 -33.5q-34 0 -50 16t-16 54zM233 606q0 23 -4 55.5t-22 32.5t-31.5 -21.5t-38.5 -21.5q-55 0 -55 71t39.5 126t95 55t80.5 -50.5t25 -112.5
t-6.5 -107t-31.5 -163q-1 -7 -1 -14q0 -8 8 -8t18 22q87 182 179.5 291t160.5 109q50 0 84.5 -35t34.5 -161t-17 -406t-25 -311q-37 -140 -95 -140q-26 0 -43.5 43t-17.5 75t21.5 91.5t62.5 233.5t41 302q0 72 -8.5 113t-46.5 41t-145 -157t-186.5 -321t-120.5 -244
q-9 -16 -77 -16q-61 0 -61 18q0 5 2 12l99 281q82 225 82 317z" />
    <glyph glyph-name="uni1F93" unicode="&#x1f93;" 
d="M416 1438q31 0 55.5 -18t24.5 -52t-22.5 -56.5t-52.5 -33.5t-30 -49t68 -104q4 -3 4 -8.5t-10 -15.5t-14.5 -10t-8.5 3q-138 88 -139 206q0 52 35 95t90 43zM750 1028q-53 0 -100 142l-77 230q-35 108 -35 132t21 56t47.5 32t44.5 -78l111 -477q2 -9 2 -16q0 -21 -14 -21
zM222 -499q0 31 12 69l88 274q6 21 39 21t42 -9t9 -28q0 -5 -41 -89.5t-69 -161.5q16 5 40 5q18 0 29 -14.5t11 -31.5q0 -38 -26 -71.5t-68 -33.5q-34 0 -50 16t-16 54zM233 606q0 23 -4 55.5t-22 32.5t-31.5 -21.5t-38.5 -21.5q-55 0 -55 71t39.5 126t95 55t80.5 -50.5
t25 -112.5t-6.5 -107t-31.5 -163q-1 -7 -1 -14q0 -8 8 -8t18 22q87 182 179.5 291t160.5 109q50 0 84.5 -35t34.5 -161t-17 -406t-25 -311q-37 -140 -95 -140q-26 0 -43.5 43t-17.5 75t21.5 91.5t62.5 233.5t41 302q0 72 -8.5 113t-46.5 41t-145 -157t-186.5 -321
t-120.5 -244q-9 -16 -77 -16q-61 0 -61 18q0 5 2 12l99 281q82 225 82 317z" />
    <glyph glyph-name="uni1F94" unicode="&#x1f94;" 
d="M438 1438q55 0 89.5 -43t34.5 -95q0 -118 -137 -205q-5 -4 -10 -4t-15 9.5t-10 14.5t4 10q69 68 69 105t-30 48t-53 33.5t-23 56.5t25 52t56 18zM649 1028q-14 0 -15 21q0 7 2 13l111 480q18 77 48 78q23 0 44.5 -32t21.5 -56t-36 -132l-76 -230q-46 -142 -100 -142z
M222 -499q0 31 12 69l88 274q6 21 39 21t42 -9t9 -28q0 -5 -41 -89.5t-69 -161.5q16 5 40 5q18 0 29 -14.5t11 -31.5q0 -38 -26 -71.5t-68 -33.5q-34 0 -50 16t-16 54zM233 606q0 23 -4 55.5t-22 32.5t-31.5 -21.5t-38.5 -21.5q-55 0 -55 71t39.5 126t95 55t80.5 -50.5
t25 -112.5t-6.5 -107t-31.5 -163q-1 -7 -1 -14q0 -8 8 -8t18 22q87 182 179.5 291t160.5 109q50 0 84.5 -35t34.5 -161t-17 -406t-25 -311q-37 -140 -95 -140q-26 0 -43.5 43t-17.5 75t21.5 91.5t62.5 233.5t41 302q0 72 -8.5 113t-46.5 41t-145 -157t-186.5 -321
t-120.5 -244q-9 -16 -77 -16q-61 0 -61 18q0 5 2 12l99 281q82 225 82 317z" />
    <glyph glyph-name="uni1F95" unicode="&#x1f95;" 
d="M479 1438q31 0 55.5 -18t24.5 -52t-22.5 -56.5t-52.5 -33.5t-30 -49t68 -104q4 -3 4 -8.5t-10 -15.5t-14.5 -10t-8.5 3q-138 88 -139 206q0 52 35 95t90 43zM640 1028q-14 0 -14 21q0 7 2 13l112 480q18 77 47 78q23 0 44.5 -32t21.5 -56t-36 -132l-77 -230
q-48 -142 -100 -142zM222 -499q0 31 12 69l88 274q6 21 39 21t42 -9t9 -28q0 -5 -41 -89.5t-69 -161.5q16 5 40 5q18 0 29 -14.5t11 -31.5q0 -38 -26 -71.5t-68 -33.5q-34 0 -50 16t-16 54zM233 606q0 23 -4 55.5t-22 32.5t-31.5 -21.5t-38.5 -21.5q-55 0 -55 71t39.5 126
t95 55t80.5 -50.5t25 -112.5t-6.5 -107t-31.5 -163q-1 -7 -1 -14q0 -8 8 -8t18 22q87 182 179.5 291t160.5 109q50 0 84.5 -35t34.5 -161t-17 -406t-25 -311q-37 -140 -95 -140q-26 0 -43.5 43t-17.5 75t21.5 91.5t62.5 233.5t41 302q0 72 -8.5 113t-46.5 41t-145 -157
t-186.5 -321t-120.5 -244q-9 -16 -77 -16q-61 0 -61 18q0 5 2 12l99 281q82 225 82 317z" />
    <glyph glyph-name="uni1F96" unicode="&#x1f96;" 
d="M302 1523q0 1 1 2q40 65 92.5 104t102.5 39t130 -29.5t125.5 -29.5t118.5 68q1 1 4.5 1t13.5 -8.5t10 -19.5q0 -4 -1 -8q-14 -41 -86 -89t-119 -48t-129 31.5t-128 31.5t-110 -61q-4 -4 -8.5 -4t-10.5 7.5t-6 12.5zM570 1438q55 0 89.5 -43t34.5 -95q0 -115 -136 -204
q-6 -5 -11 -5t-15 10t-10 15t6 10q68 66 68 104q0 37 -30.5 48t-53.5 33.5t-23 56.5t25 52t56 18zM222 -499q0 31 12 69l88 274q6 21 39 21t42 -9t9 -28q0 -5 -41 -89.5t-69 -161.5q16 5 40 5q18 0 29 -14.5t11 -31.5q0 -38 -26 -71.5t-68 -33.5q-34 0 -50 16t-16 54z
M233 606q0 23 -4 55.5t-22 32.5t-31.5 -21.5t-38.5 -21.5q-55 0 -55 71t39.5 126t95 55t80.5 -50.5t25 -112.5t-6.5 -107t-31.5 -163q-1 -7 -1 -14q0 -8 8 -8t18 22q87 182 179.5 291t160.5 109q50 0 84.5 -35t34.5 -161t-17 -406t-25 -311q-37 -140 -95 -140
q-26 0 -43.5 43t-17.5 75t21.5 91.5t62.5 233.5t41 302q0 72 -8.5 113t-46.5 41t-145 -157t-186.5 -321t-120.5 -244q-9 -16 -77 -16q-61 0 -61 18q0 5 2 12l99 281q82 225 82 317z" />
    <glyph glyph-name="uni1F97" unicode="&#x1f97;" 
d="M306 1523q0 1 1 2q40 65 92.5 104t102.5 39t130 -29.5t125.5 -29.5t118.5 68q1 1 4.5 1t13.5 -8.5t10 -19.5q0 -4 -1 -8q-14 -41 -86 -89t-119 -48t-129 31.5t-128 31.5t-110 -61q-4 -4 -8.5 -4t-10.5 7.5t-6 12.5zM618 1438q31 0 55.5 -18t24.5 -52t-22.5 -56.5
t-52.5 -33.5t-30 -49t68 -104q4 -3 4 -8.5t-10 -15.5t-14.5 -10t-8.5 3q-138 88 -139 206q0 52 35 95t90 43zM222 -499q0 31 12 69l88 274q6 21 39 21t42 -9t9 -28q0 -5 -41 -89.5t-69 -161.5q16 5 40 5q18 0 29 -14.5t11 -31.5q0 -38 -26 -71.5t-68 -33.5q-34 0 -50 16
t-16 54zM233 606q0 23 -4 55.5t-22 32.5t-31.5 -21.5t-38.5 -21.5q-55 0 -55 71t39.5 126t95 55t80.5 -50.5t25 -112.5t-6.5 -107t-31.5 -163q-1 -7 -1 -14q0 -8 8 -8t18 22q87 182 179.5 291t160.5 109q50 0 84.5 -35t34.5 -161t-17 -406t-25 -311q-37 -140 -95 -140
q-26 0 -43.5 43t-17.5 75t21.5 91.5t62.5 233.5t41 302q0 72 -8.5 113t-46.5 41t-145 -157t-186.5 -321t-120.5 -244q-9 -16 -77 -16q-61 0 -61 18q0 5 2 12l99 281q82 225 82 317z" />
    </font>
</defs>
</svg>
