<?xml version="1.0" standalone="no"?>
<!DOCTYPE svg PUBLIC "-//W3C//DTD SVG 1.1//EN" "http://www.w3.org/Graphics/SVG/1.1/DTD/svg11.dtd" >
<svg xmlns="http://www.w3.org/2000/svg" xmlns:xlink="http://www.w3.org/1999/xlink" version="1.1">
<metadata>
Created by FontForge 20170731 at Thu Sep 28 04:21:46 2017
 By Aleksey,,,
Copyright (c) 1998-2017 by Peter S. Baker
</metadata>
<defs>
<font id="Junicode-Bold" horiz-adv-x="0" >
  <font-face 
    font-family="Junicode"
    font-weight="600"
    font-stretch="normal"
    units-per-em="2048"
    panose-1="0 0 7 0 0 0 0 0 0 0"
    ascent="1638"
    descent="-410"
    x-height="854"
    cap-height="1364"
    bbox="-1782 -840 3342 2080"
    underline-thickness="69"
    underline-position="-303"
    unicode-range="U+000D-1034A"
  />
<missing-glyph horiz-adv-x="1024" 
d="M354 1194q293 0 291 -199q0 -88 -115 -151l-106 -56q-115 -61 -115 -151q0 -76 76 -211q8 -8 23 -6q23 4 22 18q-20 70 -20 125q0 49 73 90l166 88q82 43 82 189q-2 160 -117 301q-115 131 -243 131q-84 0 -84 -82q-1 -86 67 -86zM535 86q0 39 -21 72q-37 55 -100 55
q-39 0 -68 -20q-49 -37 -49 -107q0 -37 20 -68q37 -49 97 -49q37 0 65 17q56 32 56 100zM68 -131v1638h864v-1638h-864z" />
    <glyph glyph-name="IJ" unicode="IJ" horiz-adv-x="1449" 
d="M602 -276q0 60 41.5 89t97.5 29q74 0 129 -57q25 -27 37 -61q33 25 57 81q25 88 25 449v899q0 117 -170 117q-14 0 -14 47t14 47q47 -5 294 -5t294 5q14 0 14 -47t-14 -47q-172 0 -172 -117v-524q0 -106 -10 -434q0 -228 -80 -361t-207 -205q-86 -47 -172 -49
q-51 0 -107.5 38t-56.5 106zM76 -6q-15 0 -15 46t15 46q162 0 162 117v950q0 117 -162 117q-14 0 -14 47t14 47q47 -6 283.5 -6t283.5 6q14 0 14 -47t-14 -47q-162 0 -162 -117v-950q0 -117 158 -117q14 0 14 -46t-14 -46q-133 6 -286 6t-277 -6z" />
    <glyph glyph-name="ij" unicode="ij" horiz-adv-x="1024" 
d="M897 1188q0 -72 -60 -113q-39 -27 -86 -26q-74 0 -116 55q-29 37 -29 84q0 68 57 108q39 29 88 29q74 0 117 -55q29 -39 29 -82zM899 856q-8 -92 -8 -174v-543q0 -186 -11 -268q-25 -174 -108 -287q-76 -102 -207 -131q-37 -8 -74 -8q-59 0 -117 43q-43 35 -43 86
q0 57 52 86q27 14 57 16q47 0 80 -53q43 -74 80 -72q45 0 55 91q4 43 6 129v786q0 125 -92 125q-14 0 -14 37t14 37q51 0 188 67q63 31 84 49q14 10 29 11q29 0 29 -27zM496 -8q-84 8 -209 8q-143 0 -228 -8q-14 0 -15 38t15 38q104 0 105 75v414q0 125 -92 125
q-16 0 -16.5 37t16.5 37q49 0 186 67q63 31 84 49q12 10 31 11q29 0 26 -27q-6 -88 -6 -174v-539q0 -76 103 -75q14 0 14 -38t-14 -38zM401 1186q0 -72 -59 -113q-39 -27 -86 -24q-76 0 -117 57q-27 37 -26 80q0 70 57 110q39 29 86 27q78 0 119 -57q26 -39 26 -80z" />
    <glyph glyph-name="uni01C4" unicode="D&#x17d;" horiz-adv-x="2883" 
d="M1938 1747q-4 4 -5 10q0 8 9 23q10 18 20 18q2 0 2 -2l268 -123q18 -8 38 -9t36 9l266 123l5 2q10 -4 20 -20q8 -14 10 -23q0 -4 -4 -8l-282 -250q-27 -23 -51.5 -22.5t-49.5 22.5zM2837 18q0 -47 -17 -47q-25 0 -77 9q-131 20 -582 20h-449q-70 0 -69 49q0 27 16 47
l873 1141q10 12 10 20q0 16 -41 17h-512q-43 0 -72 -27q-39 -31 -96 -172q-31 -76 -35 -100q0 -10 -24 -12q-16 0 -33 4q-25 8 -25 20q31 236 31 334q0 47 41 47q2 0 59 -8q47 -6 62 -8h508l381 6q66 0 65 -33q0 -25 -24 -57l-834 -1143q-6 -10 -6 -19q0 -20 33 -20
q412 0 591 12q53 4 140 152q41 70 51 104q2 6 18 8q35 0 56 -18q6 -6 6 -14q-45 -173 -45 -312zM238 203v952q0 109 -172 111q-14 0 -14 46t14 46q143 -6 238 -6t218 3t197 3q330 0 549 -169t219 -464q0 -338 -198.5 -534.5t-522.5 -196.5q-63 0 -207.5 3t-248 3t-234.5 -6
q-15 0 -15 46t15 46q162 0 162 117zM481 272q0 -150 86 -186q39 -14 131 -14q217 0 366.5 170t149.5 475q0 213 -152.5 388t-424.5 175h-80q-76 0 -76 -80v-928z" />
    <glyph glyph-name="uni01C5" unicode="D&#x17e;" horiz-adv-x="2336" 
d="M2239 1462l-230 -411q-16 -31 -51 -31q-31 0 -47 31l-229 411q-2 2 -2 6q0 16 28 33q10 6 16.5 6t10.5 -6l182 -213q33 -39 43 -39t43 39l182 213q4 4 11 6q8 0 18 -8q27 -18 27 -31q0 -4 -2 -6zM2333 264l-25 -188q-2 -35 -2 -60q0 -41 -39 -41q-10 0 -96 15
q-53 10 -92 10h-442q-41 0 -41 37q0 12 8 31l356 659q8 16 8 27q0 20 -28 20h-111q-63 0 -125 -129l-45 -102q-4 -8 -18 -8q-18 0 -35 12q-12 8 -14 22q29 252 30 256q6 43 31 45q158 -20 211 -20h348q45 0 45 -33q0 -18 -8 -33l-358 -665q-4 -6 -5 -15q0 -25 29 -24h109
q131 0 225 205q4 10 27 12q8 0 26 -4q31 -11 31 -29zM238 203v952q0 109 -172 111q-14 0 -14 46t14 46q143 -6 238 -6t218 3t197 3q330 0 549 -169t219 -464q0 -338 -198.5 -534.5t-522.5 -196.5q-63 0 -207.5 3t-248 3t-234.5 -6q-15 0 -15 46t15 46q162 0 162 117z
M481 272q0 -150 86 -186q39 -14 131 -14q217 0 366.5 170t149.5 475q0 213 -152.5 388t-424.5 175h-80q-76 0 -76 -80v-928z" />
    <glyph glyph-name="uni01C6" unicode="d&#x17e;" horiz-adv-x="1804" 
d="M1708 1462l-230 -411q-16 -31 -51 -31q-31 0 -47 31l-229 411q-2 2 -2 6q0 16 28 33q10 6 16.5 6t10.5 -6l182 -213q33 -39 43 -39t43 39l182 213q4 4 11 6q8 0 18 -8q27 -18 27 -31q0 -4 -2 -6zM1802 264l-25 -188q-2 -35 -2 -60q0 -41 -39 -41q-10 0 -96 15
q-53 10 -92 10h-442q-41 0 -41 37q0 12 8 31l356 659q8 16 8 27q0 20 -28 20h-111q-63 0 -125 -129l-45 -102q-4 -8 -18 -8q-18 0 -35 12q-12 8 -14 22q29 252 30 256q6 43 31 45q158 -20 211 -20h348q45 0 45 -33q0 -18 -8 -33l-358 -665q-4 -6 -5 -15q0 -25 29 -24h109
q131 0 225 205q4 10 27 12q8 0 26 -4q31 -11 31 -29zM1022 31q-29 -12 -156 -35q-102 -27 -131 -31h-12q-10 0 -10 45v29q0 23 -11 22q-12 0 -28 -14q-94 -70 -195 -70q-244 0 -354 175q-72 111 -72 266q0 176 121 303q147 150 393 149q49 0 80 -4q27 -2 27 23v272
q0 125 -92 125q-16 0 -17 37q0 39 17 37q49 0 186 67q66 33 84 50q12 10 27 10q31 0 30 -33q-6 -70 -6 -168v-1030q0 -90 10 -117q14 -41 54 -41q12 0 32 6q16 4 27 -30q8 -39 -4 -43zM674 141v553q0 43 -4 51q-4 10 -17 19q-47 29 -112 29q-133 0 -197 -144
q-39 -88 -37 -205q0 -193 78 -303q59 -82 145 -80q86 0 129 52q15 18 15 28z" />
    <glyph glyph-name="uni01C7" unicode="LJ" horiz-adv-x="2076" 
d="M1229 -276q0 60 41.5 89t97.5 29q74 0 129 -57q25 -27 37 -61q33 25 57 81q25 88 25 449v899q0 117 -170 117q-14 0 -14 47t14 47q47 -5 294 -5t294 5q14 0 14 -47t-14 -47q-172 0 -172 -117v-524q0 -106 -10 -434q0 -228 -80 -361t-207 -205q-86 -47 -172 -49
q-51 0 -107.5 38t-56.5 106zM481 250q0 -111 68 -154q35 -18 74 -18l331 12q76 2 144 82q82 104 82 219q0 18 50 18t50 -18v-334q0 -43 -14 -53q-8 -10 -103 -10q-186 0 -443 3t-347.5 3t-296.5 -6q-15 0 -15 46t15 46q162 0 162 127v940q0 117 -172 117q-15 0 -15 47t15 47
q47 -5 284.5 -5t286.5 5q13 0 13 -47t-13 -47q-156 0 -156 -117v-903z" />
    <glyph glyph-name="uni01C8" unicode="Lj" horiz-adv-x="1857" 
d="M1733 1188q0 -72 -60 -113q-39 -27 -86 -26q-74 0 -116 55q-29 37 -29 84q0 68 57 108q39 29 88 29q74 0 117 -55q29 -39 29 -82zM1735 856q-8 -92 -8 -174v-543q0 -186 -11 -268q-25 -174 -108 -287q-76 -102 -207 -131q-37 -8 -74 -8q-59 0 -117 43q-43 35 -43 86
q0 57 52 86q27 14 57 16q47 0 80 -53q43 -74 80 -72q45 0 55 91q4 43 6 129v786q0 125 -92 125q-14 0 -14 37t14 37q51 0 188 67q63 31 84 49q14 10 29 11q29 0 29 -27zM481 250q0 -111 68 -154q35 -18 74 -18l331 12q76 2 144 82q82 104 82 219q0 18 50 18t50 -18v-334
q0 -43 -14 -53q-8 -10 -103 -10q-186 0 -443 3t-347.5 3t-296.5 -6q-15 0 -15 46t15 46q162 0 162 127v940q0 117 -172 117q-15 0 -15 47t15 47q47 -5 284.5 -5t286.5 5q13 0 13 -47t-13 -47q-156 0 -156 -117v-903z" />
    <glyph glyph-name="uni01C9" unicode="lj" horiz-adv-x="1021" 
d="M897 1188q0 -72 -60 -113q-39 -27 -86 -26q-74 0 -116 55q-29 37 -29 84q0 68 57 108q39 29 88 29q74 0 117 -55q29 -39 29 -82zM899 856q-8 -92 -8 -174v-543q0 -186 -11 -268q-25 -174 -108 -287q-76 -102 -207 -131q-37 -8 -74 -8q-59 0 -117 43q-43 35 -43 86
q0 57 52 86q27 14 57 16q47 0 80 -53q43 -74 80 -72q45 0 55 91q4 43 6 129v786q0 125 -92 125q-14 0 -14 37t14 37q51 0 188 67q63 31 84 49q14 10 29 11q29 0 29 -27zM496 -8q-84 8 -209 8q-143 0 -228 -8q-14 0 -15 38t15 38q104 0 105 67v1026q0 125 -92 125
q-16 0 -16.5 37t16.5 37q49 0 184 67q66 33 86 50q12 10 27 10q31 0 30 -33q-6 -76 -6 -168v-1143q0 -76 103 -75q14 0 14 -38t-14 -38z" />
    <glyph glyph-name="uni01CA" unicode="NJ" horiz-adv-x="2199" 
d="M1352 -276q0 60 41.5 89t97.5 29q74 0 129 -57q25 -27 37 -61q33 25 57 81q25 88 25 449v899q0 117 -170 117q-14 0 -14 47t14 47q47 -5 294 -5t294 5q14 0 14 -47t-14 -47q-172 0 -172 -117v-524q0 -106 -10 -434q0 -228 -80 -361t-207 -205q-86 -47 -172 -49
q-51 0 -107.5 38t-56.5 106zM1288 76q0 -96 -31 -96q-27 0 -73 57l-824 977q-12 16 -18 16q-12 0 -14 -22v-805q0 -117 151 -117q14 0 14.5 -47t-14.5 -45q-92 6 -200 6q-102 0 -213 -6q-14 -2 -14.5 45t14.5 47q160 0 157 117v952q0 115 -172 115q-12 0 -12 47t12 47
q49 -4 176 -6q84 0 99 -2q59 -8 100 -58l711 -866q10 -14 24 -14q25 0 25 31v702q0 119 -154 119q-14 0 -14 47t14 47q102 -4 199 -6q100 0 192 6q14 0 14.5 -47t-14.5 -47q-135 0 -135 -119v-1075z" />
    <glyph glyph-name="uni01CB" unicode="Nj" horiz-adv-x="1980" 
d="M1856 1188q0 -72 -60 -113q-39 -27 -86 -26q-74 0 -116 55q-29 37 -29 84q0 68 57 108q39 29 88 29q74 0 117 -55q29 -39 29 -82zM1858 856q-8 -92 -8 -174v-543q0 -186 -11 -268q-25 -174 -108 -287q-76 -102 -207 -131q-37 -8 -74 -8q-59 0 -117 43q-43 35 -43 86
q0 57 52 86q27 14 57 16q47 0 80 -53q43 -74 80 -72q45 0 55 91q4 43 6 129v786q0 125 -92 125q-14 0 -14 37t14 37q51 0 188 67q63 31 84 49q14 10 29 11q29 0 29 -27zM1288 76q0 -96 -31 -96q-27 0 -73 57l-824 977q-12 16 -18 16q-12 0 -14 -22v-805q0 -117 151 -117
q14 0 14.5 -47t-14.5 -45q-92 6 -200 6q-102 0 -213 -6q-14 -2 -14.5 45t14.5 47q160 0 157 117v952q0 115 -172 115q-12 0 -12 47t12 47q49 -4 176 -6q84 0 99 -2q59 -8 100 -58l711 -866q10 -14 24 -14q25 0 25 31v702q0 119 -154 119q-14 0 -14 47t14 47q102 -4 199 -6
q100 0 192 6q14 0 14.5 -47t-14.5 -47q-135 0 -135 -119v-1075z" />
    <glyph glyph-name="uni01CC" unicode="nj" horiz-adv-x="1585" 
d="M1460 1188q0 -72 -60 -113q-39 -27 -86 -26q-74 0 -116 55q-29 37 -29 84q0 68 57 108q39 29 88 29q74 0 117 -55q29 -39 29 -82zM1462 856q-8 -92 -8 -174v-543q0 -186 -11 -268q-25 -174 -108 -287q-76 -102 -207 -131q-37 -8 -74 -8q-59 0 -117 43q-43 35 -43 86
q0 57 52 86q27 14 57 16q47 0 80 -53q43 -74 80 -72q45 0 55 91q4 43 6 129v786q0 125 -92 125q-14 0 -14 37t14 37q51 0 188 67q63 31 84 49q14 10 29 11q29 0 29 -27zM1069 -8q-106 8 -210.5 8t-225.5 -8q-14 0 -14.5 38t14.5 38q100 0 100 61v408q0 150 -57 200
q-29 25 -96 25q-61 0 -119 -49q-68 -57 -68 -121v-449q0 -76 99 -75q14 0 15 -38t-15 -38q-84 8 -216 8q-135 0 -219 -8q-14 0 -14 38t14 38q106 0 107 75v406q0 133 -92 133q-16 0 -16.5 37t16.5 37q49 0 186 67q63 31 84 49q12 10 27 11q29 0 30 -27l-6 -68q0 -18 9.5 -19
t17.5 9q43 55 137 80q41 10 96 12q188 0 275 -186q37 -74 35 -219v-330q0 -68 106 -67q16 0 16 -38t-16 -38z" />
    <glyph glyph-name="uni01F1" unicode="DZ" horiz-adv-x="2883" 
d="M2837 18q0 -47 -17 -47q-25 0 -77 9q-131 20 -582 20h-449q-70 0 -69 49q0 27 16 47l873 1141q10 12 10 20q0 16 -41 17h-512q-43 0 -72 -27q-39 -31 -96 -172q-31 -76 -35 -100q0 -10 -24 -12q-16 0 -33 4q-25 8 -25 20q31 236 31 334q0 47 41 47q2 0 59 -8q47 -6 62 -8
h508l381 6q66 0 65 -33q0 -25 -24 -57l-834 -1143q-6 -10 -6 -19q0 -20 33 -20q412 0 591 12q53 4 140 152q41 70 51 104q2 6 18 8q35 0 56 -18q6 -6 6 -14q-45 -173 -45 -312zM238 203v952q0 109 -172 111q-14 0 -14 46t14 46q143 -6 238 -6t218 3t197 3q330 0 549 -169
t219 -464q0 -338 -198.5 -534.5t-522.5 -196.5q-63 0 -207.5 3t-248 3t-234.5 -6q-15 0 -15 46t15 46q162 0 162 117zM481 272q0 -150 86 -186q39 -14 131 -14q217 0 366.5 170t149.5 475q0 213 -152.5 388t-424.5 175h-80q-76 0 -76 -80v-928z" />
    <glyph glyph-name="uni01F2" unicode="Dz" horiz-adv-x="2336" 
d="M2333 264l-25 -188q-2 -35 -2 -60q0 -41 -39 -41q-10 0 -96 15q-53 10 -92 10h-442q-41 0 -41 37q0 12 8 31l356 659q8 16 8 27q0 20 -28 20h-111q-63 0 -125 -129l-45 -102q-4 -8 -18 -8q-18 0 -35 12q-12 8 -14 22q29 252 30 256q6 43 31 45q158 -20 211 -20h348
q45 0 45 -33q0 -18 -8 -33l-358 -665q-4 -6 -5 -15q0 -25 29 -24h109q131 0 225 205q4 10 27 12q8 0 26 -4q31 -11 31 -29zM238 203v952q0 109 -172 111q-14 0 -14 46t14 46q143 -6 238 -6t218 3t197 3q330 0 549 -169t219 -464q0 -338 -198.5 -534.5t-522.5 -196.5
q-63 0 -207.5 3t-248 3t-234.5 -6q-15 0 -15 46t15 46q162 0 162 117zM481 272q0 -150 86 -186q39 -14 131 -14q217 0 366.5 170t149.5 475q0 213 -152.5 388t-424.5 175h-80q-76 0 -76 -80v-928z" />
    <glyph glyph-name="uni01F3" unicode="dz" horiz-adv-x="1804" 
d="M1802 264l-25 -188q-2 -35 -2 -60q0 -41 -39 -41q-10 0 -96 15q-53 10 -92 10h-442q-41 0 -41 37q0 12 8 31l356 659q8 16 8 27q0 20 -28 20h-111q-63 0 -125 -129l-45 -102q-4 -8 -18 -8q-18 0 -35 12q-12 8 -14 22q29 252 30 256q6 43 31 45q158 -20 211 -20h348
q45 0 45 -33q0 -18 -8 -33l-358 -665q-4 -6 -5 -15q0 -25 29 -24h109q131 0 225 205q4 10 27 12q8 0 26 -4q31 -11 31 -29zM1022 31q-29 -12 -156 -35q-102 -27 -131 -31h-12q-10 0 -10 45v29q0 23 -11 22q-12 0 -28 -14q-94 -70 -195 -70q-244 0 -354 175q-72 111 -72 266
q0 176 121 303q147 150 393 149q49 0 80 -4q27 -2 27 23v272q0 125 -92 125q-16 0 -17 37q0 39 17 37q49 0 186 67q66 33 84 50q12 10 27 10q31 0 30 -33q-6 -70 -6 -168v-1030q0 -90 10 -117q14 -41 54 -41q12 0 32 6q16 4 27 -30q8 -39 -4 -43zM674 141v553q0 43 -4 51
q-4 10 -17 19q-47 29 -112 29q-133 0 -197 -144q-39 -88 -37 -205q0 -193 78 -303q59 -82 145 -80q86 0 129 52q15 18 15 28z" />
    <glyph glyph-name="ellipsis" unicode="&#x2e;&#x2e;&#x2e;" horiz-adv-x="2048" 
d="M1866 121q0 -84 -68 -123q-37 -23 -84 -23q-72 0 -119 45q-43 43 -43 113q0 55 39 98q43 47 123 48q74 0 119 -58q33 -41 33 -100zM500 121q0 -84 -68 -123q-37 -23 -84 -23q-72 0 -119 45q-43 43 -43 113q0 55 39 98q43 47 123 48q74 0 119 -58q33 -41 33 -100z
M1182 121q0 -84 -68 -123q-37 -23 -84 -23q-72 0 -119 45q-43 43 -43 113q0 55 39 98q43 47 123 48q74 0 119 -58q33 -41 33 -100z" />
    <glyph glyph-name="uniE1A6" unicode="&#x17f;b" horiz-adv-x="1609" 
d="M164 143v527q0 35 -31 35h-61q-14 0 -14.5 36.5t14.5 36.5q92 0 92 113q0 281 152.5 438.5t357.5 157.5q123 0 183.5 -58.5t60.5 -142.5v-446q0 -29 16 -29q8 0 18 8q74 51 168 51q176 0 298 -121.5t122 -308.5q0 -207 -110.5 -335t-331.5 -128q-57 0 -122 27t-114 27
q-12 0 -53 -33l-21 -16q-4 -2 -12 -2q-31 0 -74 32q-20 16 -20 23q6 39 6 244v882q0 129 -29.5 171t-99.5 42q-72 0 -119 -87t-47 -283v-861q0 -76 96 -75q16 0 16.5 -38t-16.5 -38q-82 8 -217 8t-217 -8q-14 0 -14 38t14 38q109 -1 109 75zM918 297q0 -109 61 -174.5
t145 -65.5q162 0 162 371q0 154 -62.5 248t-160.5 94q-72 0 -115 -43q-31 -31 -30 -80v-350z" />
    <glyph glyph-name="uniE1A7" unicode="&#x17f;h" horiz-adv-x="1617" 
d="M1487 143q0 -78 119 -75q14 0 15 -38t-15 -38q-94 8 -222.5 8t-228.5 -8q-14 0 -14 38t14 38q102 0 102 75v412q0 86 -50 146.5t-115 60.5q-61 0 -99.5 -22.5t-56.5 -53.5t-18 -59v-484q0 -76 102 -75q14 0 14 -38t-14 -38q-94 8 -209 8t-215 -8q-14 0 -14 38t14 38
q92 0 92 75v1018q0 133 -31.5 173t-97.5 40q-72 0 -119 -87t-47 -283v-861q0 -76 96 -75q16 0 16.5 -38t-16.5 -38q-82 8 -217 8t-217 -8q-14 0 -14 38t14 38q109 0 109 75v527q0 35 -31 35h-61q-14 0 -14.5 36.5t14.5 36.5q92 0 92 113q0 281 152.5 438.5t357.5 157.5
q125 0 184.5 -54.5t59.5 -146.5v-465q0 -37 32 -12q80 61 211 61q106 0 177 -44t110 -120.5t39 -148.5v-414z" />
    <glyph glyph-name="uniE1A8" unicode="&#x17f;i" horiz-adv-x="1087" 
d="M164 143v527q0 35 -31 35h-61q-16 0 -16.5 36.5t16.5 36.5q47 0 69.5 36t22.5 77q0 285 153.5 440.5t356.5 155.5q145 0 204.5 -41t59.5 -107q0 -47 -40 -81.5t-75 -34.5q-76 0 -130 75.5t-115 75.5q-90 0 -137.5 -89t-47.5 -236v-906q0 -76 133 -75q16 0 16.5 -38
t-16.5 -38q-80 8 -233.5 8t-237.5 -8q-14 0 -14 38t14 38q109 -1 109 75zM729 143v414q0 125 -92 125q-16 0 -16 37t16 37q49 0 186 67q63 31 84 49q12 10 31 11q29 0 27 -27q-6 -84 -7 -174v-539q0 -76 103 -75q14 0 14 -38t-14 -38q-84 8 -209 8q-143 0 -227 -8
q-14 0 -15.5 38t15.5 38q104 -1 104 75z" />
    <glyph glyph-name="uniE1A9" unicode="&#x17f;k" horiz-adv-x="1597" 
d="M164 143v527q0 35 -31 35h-61q-14 0 -14.5 36.5t14.5 36.5q92 0 92 113q0 281 152.5 438.5t357.5 157.5q121 0 182.5 -53.5t61.5 -147.5v-758q0 -37 20 -36q45 0 80 38l156 170q76 84 -54 84q-16 0 -15 36t15 36q61 -6 211 -6t211 6q14 0 14 -36t-14 -36q-92 0 -151 -47
q-18 -14 -31 -24l-209 -189q-23 -20 0 -45l330 -358q49 -53 125 -53q14 0 15 -38t-15 -38q-82 8 -232.5 8t-232.5 -8q-14 0 -14.5 38t14.5 38q115 0 53 69l-201 232q-27 31 -63 30q-12 0 -12 -34v-222q0 -76 110 -75q14 0 14 -38t-14 -38q-82 8 -218 8t-218 -8q-14 0 -14 38
t14 38q96 0 96 75v1018q0 145 -33.5 179t-95.5 34q-72 0 -119 -87t-47 -283v-861q0 -76 96 -75q16 0 16.5 -38t-16.5 -38q-82 8 -217 8t-217 -8q-14 0 -14 38t14 38q109 -1 109 75z" />
    <glyph glyph-name="uniE1AA" unicode="&#x17f;l" horiz-adv-x="1048" 
d="M164 143v527q0 35 -31 35h-61q-14 0 -14.5 36.5t14.5 36.5q92 0 92 113q0 281 153.5 438.5t356.5 157.5q115 0 179.5 -55.5t64.5 -145.5v-1143q0 -76 102 -75q14 0 14 -38t-14 -38q-82 8 -208 8t-208 -8q-14 0 -14 38t14 38q84 0 84 75v1018q0 213 -129 213
q-70 0 -118 -87t-48 -283v-861q0 -76 96 -75q16 0 16.5 -38t-16.5 -38q-82 8 -217 8t-217 -8q-14 0 -14 38t14 38q109 -1 109 75z" />
    <glyph glyph-name="uniE1AB" unicode="&#x17f;&#x17f;" horiz-adv-x="1085" 
d="M164 143v527q0 35 -31 35h-61q-14 0 -14.5 36.5t14.5 36.5q47 0 69.5 33t22.5 80q0 281 149.5 432.5t325.5 151.5q172 0 252 -99q135 111 307 111q72 0 120 -18.5t75.5 -51.5t27.5 -74q0 -49 -39 -84.5t-73 -35.5q-88 0 -123 51l-53 78q-14 23 -50 22q-70 0 -117.5 -91
t-47.5 -294v-846q0 -76 135 -75q14 0 14 -38t-14 -38q-82 8 -223.5 8t-223.5 -8q-14 0 -14 38t14 38q82 0 82 75v527q0 35 -29 35h-61q-14 0 -14 36.5t14 36.5q43 0 66.5 32t23.5 81q0 197 76 332q-70 98 -109 124.5t-102.5 26.5t-111.5 -90t-48 -280v-861q0 -76 101 -75
q14 0 15 -38t-15 -38q-82 8 -219.5 8t-219.5 -8q-14 0 -14 38t14 38q109 -1 109 75z" />
    <glyph glyph-name="uniE1AC" unicode="&#x17f;&#x17f;i" horiz-adv-x="1609" 
d="M164 143v527q0 35 -31 35h-61q-14 0 -14.5 36.5t14.5 36.5q47 0 69.5 33t22.5 80q0 281 149.5 432.5t325.5 151.5q172 0 252 -99q135 111 307 111q100 0 155.5 -19.5t81 -51.5t25.5 -73q0 -49 -39 -84.5t-73 -35.5q-66 0 -109 51l-55 65q-29 35 -84 35q-90 0 -136 -88
t-46 -231v-912q0 -76 135 -75q14 0 14 -38t-14 -38q-82 8 -223.5 8t-223.5 -8q-14 0 -14 38t14 38q82 0 82 75v527q0 35 -29 35h-61q-14 0 -14 36.5t14 36.5q43 0 66.5 32t23.5 81q0 197 76 332q-70 98 -109 124.5t-102.5 26.5t-111.5 -90t-48 -280v-861q0 -76 101 -75
q14 0 15 -38t-15 -38q-82 8 -219.5 8t-219.5 -8q-14 0 -14 38t14 38q109 -1 109 75zM1249 143v414q0 125 -92 125q-16 0 -15 37t15 37q49 0 189 67q63 31 81 49q12 10 31 11q29 0 27 -27q-6 -84 -6 -174v-539q0 -76 102 -75q14 0 15 -38t-15 -38q-84 8 -218 8t-218 -8
q-14 0 -14.5 38t14.5 38q104 -1 104 75z" />
    <glyph glyph-name="uniE1AD" unicode="&#x17f;&#x17f;l" horiz-adv-x="1572" 
d="M164 143v527q0 35 -31 35h-61q-14 0 -14.5 36.5t14.5 36.5q47 0 69.5 33t22.5 80q0 281 149.5 432.5t325.5 151.5q172 0 252 -99q137 111 305 111q117 0 181.5 -56.5t64.5 -144.5v-1143q0 -76 100 -75q14 0 15.5 -38t-15.5 -38q-94 8 -203.5 8t-212.5 -8q-14 0 -14 38
t14 38q84 0 84 75v1018q0 213 -129 213q-70 0 -118 -90t-48 -280v-861q0 -76 99 -75q14 0 14 -38t-14 -38q-94 8 -214 8t-222 -8q-14 0 -14.5 38t14.5 38q109 0 108 75v527q0 35 -31 35h-59q-14 0 -15 36.5t15 36.5q92 0 90 113q0 203 76 336q-68 96 -107 121.5t-102 25.5
t-111.5 -90t-48.5 -280v-861q0 -76 101 -75q14 0 15 -38t-15 -38q-82 8 -219.5 8t-219.5 -8q-14 0 -14 38t14 38q109 -1 109 75z" />
    <glyph glyph-name="uniFB00" unicode="ff" horiz-adv-x="1155" 
d="M1470 1343q0 -47 -37.5 -83.5t-74.5 -36.5q-88 0 -123 51l-49 74q-16 27 -53 26q-74 0 -120 -89t-46 -281v-123q0 -31 30 -31h170q14 0 14.5 -52.5t-14.5 -52.5h-170q-31 0 -30 -30v-572q0 -76 133 -75q14 0 14 -38t-14 -38q-82 8 -236 8t-235 -8q-14 0 -14.5 38t14.5 38
q109 0 108 75v568q0 35 -30 34h-283q-31 0 -31 -30v-572q0 -76 133 -75q14 0 14.5 -38t-14.5 -38q-82 8 -235 8q-154 0 -236 -8q-14 0 -14 38t14 38q109 0 109 75v568q0 35 -31 34h-61q-14 0 -14.5 37t14.5 37q92 0 92 113q0 139 76.5 270t193.5 197.5t240 66.5
q158 0 229 -96l12 -16q156 133 332 133q113 0 168 -43.5t55 -100.5zM799 1190q-57 166 -197 166q-113 0 -161 -90t-48 -289v-96q0 -31 31 -31h281q33 0 32 82q1 143 62 258z" />
    <glyph glyph-name="uniFB01" unicode="fi" horiz-adv-x="1087" 
d="M166 143v568q0 35 -31 34h-63q-16 0 -16.5 37t16.5 37q45 0 68.5 34t23.5 79q0 145 65.5 273t184 205t282.5 77q113 0 177.5 -43t64.5 -101q0 -47 -39 -86q-37 -35 -74 -34q-78 0 -131 75.5t-102 75.5q-102 0 -149.5 -89t-47.5 -281v-123q0 -31 31 -31h256q74 0 134.5 8
t87 16.5t34.5 8.5q29 0 29 -31q-8 -90 -9 -178v-531q0 -76 103 -75q14 0 14 -38t-14 -38q-82 8 -219 8q-135 0 -217 -8q-14 0 -15.5 38t15.5 38q104 0 102 75v535q0 68 -53 67h-248q-31 0 -31 -30v-572q0 -76 133 -75q14 0 14.5 -38t-14.5 -38q-82 8 -235 8q-154 0 -236 -8
q-14 0 -14 38t14 38q109 -1 109 75z" />
    <glyph glyph-name="uniFB02" unicode="fl" horiz-adv-x="1087" 
d="M393 887q0 -37 37 -37h266q33 0 33 35v276q0 113 -46 163t-114 50q-76 0 -126 -85t-50 -240v-162zM164 135v574q0 37 -37 36h-55q-16 0 -16.5 37t16.5 37q43 0 67.5 32t24.5 81q0 145 64.5 271t183 205t262.5 79q109 0 172 -47q35 16 54.5 31.5t33.5 15.5q31 0 31 -33
q-6 -113 -7 -168v-1143q0 -76 103 -75q14 0 14 -38t-14 -38q-113 8 -227 8q-115 0 -209 -8q-16 0 -16.5 38t16.5 38q104 0 104 75v566q0 37 -37 36h-262q-37 0 -37 -36v-574q0 -68 133 -67q16 0 16.5 -38t-16.5 -38q-96 8 -233 8t-238 -8q-14 0 -14 38t14 38q109 -1 109 67z
" />
    <glyph glyph-name="uniFB03" unicode="ffi" horiz-adv-x="1660" 
d="M164 143v568q0 35 -31 34h-61q-14 0 -14.5 37t14.5 37q92 0 92 113q0 139 76.5 270t193.5 197.5t240 66.5q158 0 229 -96l12 -16q150 133 353 133q113 0 177 -43t64 -101q0 -47 -37.5 -83.5t-72.5 -36.5q-78 0 -132.5 75.5t-103.5 75.5q-102 0 -149 -89t-47 -281v-123
q0 -31 30 -31h258q74 0 134.5 8t86 16.5t33.5 8.5q29 0 29 -31q-8 -90 -8 -178v-531q0 -76 102 -75q14 0 14.5 -38t-14.5 -38q-82 8 -219 8q-135 0 -217 -8q-14 0 -14 38t14 38q104 0 104 75v535q0 68 -55 67h-248q-31 0 -30 -30v-572q0 -76 133 -75q14 0 14 -38t-14 -38
q-82 8 -236 8t-235 -8q-14 0 -14.5 38t14.5 38q109 0 108 75v568q0 35 -30 34h-283q-31 0 -31 -30v-572q0 -76 133 -75q14 0 14.5 -38t-14.5 -38q-82 8 -235 8q-154 0 -236 -8q-14 0 -14 38t14 38q109 -1 109 75zM393 881q0 -31 31 -31h281q33 0 32 82q0 143 62 258
q-57 166 -197 166q-113 0 -161 -90t-48 -289v-96z" />
    <glyph glyph-name="uniFB04" unicode="ffl" horiz-adv-x="1660" 
d="M164 143v568q0 35 -31 34h-61q-14 0 -14.5 37t14.5 37q92 0 92 113q0 139 76.5 270t193.5 197.5t240 66.5q158 0 229 -96l12 -16q156 133 332 133q106 0 172 -47q41 23 57.5 35t28.5 12q31 0 31 -33q-6 -86 -6 -168v-1143q0 -78 102 -75q14 0 14.5 -38t-14.5 -38
q-94 8 -215 8t-221 -8q-14 0 -14 38t14 38q104 0 104 75v570q0 33 -36 32h-267q-31 0 -30 -30v-572q0 -76 133 -75q14 0 14 -38t-14 -38q-82 8 -236 8t-235 -8q-14 0 -14.5 38t14.5 38q109 0 108 75v568q0 35 -30 34h-283q-31 0 -31 -30v-572q0 -76 133 -75q14 0 14.5 -38
t-14.5 -38q-82 8 -235 8q-154 0 -236 -8q-14 0 -14 38t14 38q109 -1 109 75zM393 881q0 -31 31 -31h281q33 0 32 82q0 143 62 258q-57 166 -197 166q-113 0 -161 -90t-48 -289v-96zM967 881q0 -31 30 -31h269q35 0 34 33v278q0 213 -167 213q-74 0 -120 -89t-46 -281v-123z
" />
    <glyph glyph-name="f_eth" unicode="f&#xf0;" horiz-adv-x="1656" 
d="M901 444q0 -180 82 -294q61 -88 143 -89q94 0 152 121q51 106 49 262q0 164 -72 267q-55 82 -129 82q-78 0 -143 -84q-82 -105 -82 -265zM649 449q0 150 105 268q137 154 360 153q-76 76 -199 156q-16 10 -30.5 10t-32.5 -14l-184 -145q-14 -10 -68 71q-41 66 -41 78
q0 8 8 4q63 -33 95 -33q23 0 36 13l72 57q18 14 18 21.5t-18 19.5q-12 8 -65 35q-18 8 5 58t42 42q66 -31 114 -55q20 -10 33.5 -10t38.5 18l295 229q12 10 67 -61q45 -55 56 -72q0 -10 -6 -8l-117 25q-14 2 -33 -9l-184 -147q-18 -14 -18.5 -24.5t22.5 -22.5
q334 -197 457 -373q106 -154 104 -282q0 -221 -125 -351q-123 -125 -332 -123q-207 0 -338 123q-137 132 -137 349zM164 135v574q0 37 -37 36h-55q-16 0 -16.5 37t16.5 37q47 0 69.5 34t22.5 79q0 127 61.5 267t155.5 214t209 74q72 0 127 -35q55 -33 55 -80
q0 -43 -26.5 -75.5t-75.5 -32.5q-59 0 -87 55t-65 55q-51 0 -88 -88t-37 -237v-162q0 -37 37 -37h143q14 0 14.5 -52.5t-14.5 -52.5h-143q-37 0 -37 -36v-574q0 -68 133 -67q16 0 16.5 -38t-16.5 -38q-80 8 -233.5 8t-237.5 -8q-14 0 -14 38t14 38q109 -1 109 67z" />
    <glyph glyph-name="f_f_udieresis" unicode="ff&#xfc;" horiz-adv-x="2183" 
d="M1970 1180q0 -80 -59 -115q-29 -16 -66 -16q-84 0 -116 61q-12 25 -13 59q0 74 58 111q33 20 71 20q68 0 105 -55q20 -28 20 -65zM1620 1180q0 -80 -59 -115q-29 -16 -66 -16q-86 0 -117 61q-12 25 -12 59q0 74 57 111q33 20 72 20q68 0 104 -55q21 -30 21 -65zM997 745
q-31 0 -30 -30v-572q0 -76 133 -75q14 0 14 -38t-14 -38q-82 8 -236 8t-235 -8q-14 0 -14.5 38t14.5 38q109 0 108 75v568q0 35 -30 34h-283q-31 0 -31 -30v-572q0 -76 133 -75q14 0 14.5 -38t-14.5 -38q-82 8 -235 8q-154 0 -236 -8q-14 0 -14 38t14 38q109 0 109 75v568
q0 35 -31 34h-61q-14 0 -14.5 37t14.5 37q92 0 92 113q0 139 76.5 270t193.5 197.5t240 66.5q158 0 229 -96q0 -2 2 -2q23 25 49 45q94 74 209 74q76 0 136.5 -42t60.5 -99q0 -43 -27.5 -75t-75.5 -32q-68 0 -96 67.5t-69 67.5q-51 0 -88 -88t-37 -237v-168q0 -31 30 -31
h170q86 0 170 2t136 2q49 0 47 -43q-6 -141 -9 -162v-342q0 -123 52 -182q29 -33 98 -33q63 0 131 55q53 43 53 93v415q0 102 -84 103q-16 0 -15 36.5t15 36.5q111 0 230 19q25 4 39 4q55 0 53 -37q-8 -131 -8 -155v-406q0 -90 10 -117q14 -41 53 -41q12 0 33 6q18 4 27 -32
q2 -14 4 -23q0 -16 -8.5 -18t-104.5 -21q-27 -4 -51 -10q-43 -8 -115 -31q-12 -4 -22 -4q-14 0 -17 45v47q0 23 -11 23t-28 -14q-94 -88 -246 -89q-127 0 -169 35q-147 119 -148 297v332q0 102 -84 104h-201zM797 1194q-57 162 -195 162q-113 0 -161 -90t-48 -289v-96
q0 -31 31 -31h281q33 0 32 82q1 123 60 262z" />
    <glyph glyph-name="f_j" unicode="fj" horiz-adv-x="1087" 
d="M958 139q0 -186 -12 -268q-25 -174 -103.5 -281.5t-211.5 -136.5q-37 -8 -72 -8q-63 0 -117 43q-43 35 -45 86q0 57 52 86q27 14 59 16q47 0 80 -53q43 -74 80 -72q47 0 55 91q4 53 4 129v907q0 68 -55 67h-248q-31 0 -31 -30v-572q0 -76 133 -75q14 0 14.5 -38
t-14.5 -38q-80 8 -230.5 8t-240.5 -8q-14 0 -14 38t14 38q109 0 109 75v568q0 35 -31 34h-61q-16 0 -16.5 37t16.5 37q47 0 75 41q16 27 17 72q0 145 65.5 272t184 205t280.5 78q119 0 191 -51q53 -39 53 -88.5t-36 -85t-77 -39.5q-72 0 -112 51l-45 57q-35 43 -103.5 43
t-120 -78.5t-51.5 -248.5v-166q0 -31 31 -31h258q150 0 238 29q12 4 16 4q29 0 29 -41q-6 -94 -7 -164v-539z" />
    <glyph glyph-name="f_odieresis" unicode="f&#xf6;" horiz-adv-x="1613" 
d="M1298 420q0 184 -71 293q-53 82 -125 80q-82 0 -139 -105q-59 -109 -62 -268q0 -184 74 -287q51 -72 125 -72q94 0 149 113q49 101 49 246zM1552 426q0 -209 -122 -332q-119 -119 -328 -117q-184 0 -314 121q-139 131 -139 326q0 170 111 297q12 12 22 24h-352
q-37 0 -37 -36v-574q0 -68 133 -67q16 0 16.5 -38t-16.5 -38q-80 8 -233.5 8t-237.5 -8q-14 0 -14 38t14 38q109 0 109 67v574q0 37 -37 36h-55q-16 0 -16.5 37t16.5 37q47 0 69.5 34t22.5 79q0 127 61.5 267t155.5 214t209 74q76 0 135 -42t59 -99q0 -43 -26.5 -75
t-75.5 -32q-68 0 -95.5 67.5t-68.5 67.5q-51 0 -88 -88t-37 -237v-162q0 -37 37 -37h526q66 20 144 20q217 0 350 -157q102 -123 102 -287zM1055 1180q0 -80 -62 -115q-29 -16 -63 -16q-86 0 -117 61q-12 25 -12 59q0 74 55 111q33 20 74 20q68 0 102 -55q23 -30 23 -65z
M1405 1180q0 -80 -62 -115q-29 -16 -63 -16q-84 0 -117 61q-12 25 -12 59q0 74 55 111q33 20 74 20q68 0 102 -55q23 -28 23 -65z" />
    <glyph glyph-name="f_thorn" unicode="f&#xfe;" horiz-adv-x="1636" 
d="M584 745h-154q-37 0 -37 -36v-574q0 -68 133 -67q16 0 16.5 -38t-16.5 -38q-96 8 -234 8t-237 -8q-14 0 -14 38t14 38q109 0 109 67v574q0 37 -37 36h-55q-16 0 -16.5 37t16.5 37q43 0 67.5 32t24.5 81q0 145 64.5 271t183 205t262.5 79q109 0 172 -47q35 16 54.5 31.5
t33.5 15.5q31 0 31 -33q-6 -111 -7 -168v-461q0 -29 14.5 -22.5t18.5 8.5q66 59 189 59q160 0 264 -77q125 -94 125 -285q0 -264 -242 -416q-100 -63 -344 -104q-25 -4 -25 -33v-348q0 -80 -81 -107l-175 -57q-29 -10 -53 39q-18 37 4 53l62 43q14 10 14 31v1552
q0 100 -47 162q-39 49 -113 51q-76 0 -126 -85t-50 -240v-162q0 -37 37 -37h154q16 0 16 -52.5t-16 -52.5zM1315 457q0 322 -178 321q-104 0 -166 -90q-12 -25 -13 -63v-525q0 -18 21 -18h8q131 16 211 113q117 141 117 262z" />
    <glyph glyph-name="f_udieresis" unicode="f&#xfc;" horiz-adv-x="1609" 
d="M1397 1180q0 -80 -60 -115q-29 -16 -65 -16q-84 0 -117 61q-12 25 -12 59q0 74 57 111q33 20 72 20q68 0 104 -55q21 -28 21 -65zM1047 1180q0 -80 -60 -115q-29 -16 -65 -16q-86 0 -115 61q-12 25 -14 59q0 74 57 111q33 20 72 20q68 0 104 -55q21 -30 21 -65zM627 745
h-197q-37 0 -37 -36v-574q0 -68 133 -67q16 0 16.5 -38t-16.5 -38q-80 8 -233.5 8t-237.5 -8q-14 0 -14 38t14 38q109 0 109 67v574q0 37 -37 36h-55q-16 0 -16.5 37t16.5 37q47 0 69.5 34t22.5 79q0 127 61.5 267t155.5 214t209 74q76 0 135 -42t59 -99q0 -43 -26.5 -75
t-75.5 -32q-68 0 -95.5 67.5t-68.5 67.5q-51 0 -88 -88t-37 -237v-162q0 -37 37 -37h164q86 0 171 2t134 2t47 -43q-6 -141 -8 -162v-342q0 -123 51 -182q29 -33 98 -33q63 0 132 55q53 43 55 93v415q0 102 -84 103q-16 0 -16 36.5t16 36.5q111 0 227 19q25 4 39 4
q55 0 53 -37q-8 -131 -8 -155v-406q0 -90 10 -117q14 -41 54 -41q12 0 32 6q18 4 27 -32q2 -14 4 -23q0 -16 -6 -18q-8 -2 -106 -21q-27 -4 -52 -10q-43 -10 -112 -31q-12 -4 -25 -4q-14 0 -14 45v47q0 23 -12.5 23t-26.5 -14q-96 -88 -248 -89q-127 0 -170 35
q-147 119 -145 297v332q0 104 -84 104z" />
    <glyph glyph-name=".notdef" horiz-adv-x="1024" 
d="M354 1194q293 0 291 -199q0 -88 -115 -151l-106 -56q-115 -61 -115 -151q0 -76 76 -211q8 -8 23 -6q23 4 22 18q-20 70 -20 125q0 49 73 90l166 88q82 43 82 189q-2 160 -117 301q-115 131 -243 131q-84 0 -84 -82q-1 -86 67 -86zM535 86q0 39 -21 72q-37 55 -100 55
q-39 0 -68 -20q-49 -37 -49 -107q0 -37 20 -68q37 -49 97 -49q37 0 65 17q56 32 56 100zM68 -131v1638h864v-1638h-864z" />
    <glyph glyph-name="uni0000" horiz-adv-x="1024" 
d="M354 1194q293 0 291 -199q0 -88 -115 -151l-106 -56q-115 -61 -115 -151q0 -76 76 -211q8 -8 23 -6q23 4 22 18q-20 70 -20 125q0 49 73 90l166 88q82 43 82 189q-2 160 -117 301q-115 131 -243 131q-84 0 -84 -82q-1 -86 67 -86zM535 86q0 39 -21 72q-37 55 -100 55
q-39 0 -68 -20q-49 -37 -49 -107q0 -37 20 -68q37 -49 97 -49q37 0 65 17q56 32 56 100zM68 -131v1638h864v-1638h-864z" />
    <glyph glyph-name="uni000D" unicode="&#xd;" horiz-adv-x="557" 
 />
    <glyph glyph-name="space" unicode=" " horiz-adv-x="557" 
 />
    <glyph glyph-name="exclam" unicode="!" horiz-adv-x="518" 
d="M418 117q0 -61 -44 -101.5t-111.5 -40.5t-113 43t-45.5 104.5t41 109t118 47.5t116 -47t39 -115zM401 1280q0 -119 -69 -594q-12 -90 -21 -246q0 -20 -50 -20t-52 20q-2 102 -41 438t-39 369q0 72 42 112t93 40q68 0 102.5 -35t34.5 -84z" />
    <glyph glyph-name="quotedbl" unicode="&#x22;" horiz-adv-x="755" 
d="M348 1374q0 -16 -39 -223q-33 -172 -33 -207q0 -14 -59 -14q-61 0 -61 14q0 61 -52 309q-20 92 -20 119q0 109 133 109q131 -1 131 -107zM676 1374q0 -16 -39 -223q-33 -172 -33 -207q0 -14 -59 -14q-61 0 -61 14q0 61 -52 309q-20 92 -20 119q0 109 133 109
q131 -1 131 -107z" />
    <glyph glyph-name="numbersign" unicode="#" horiz-adv-x="1013" 
d="M993 934v-131h-213l-78 -289h181v-133h-215l-99 -371h-135l98 371h-180l-98 -371h-135l100 371h-194v133h229l76 289h-195v131h230l84 315h135l-84 -315h180l84 315h135l-84 -315h178zM645 803h-180l-76 -289h180z" />
    <glyph glyph-name="dollar" unicode="$" horiz-adv-x="1028" 
d="M936 408q0 -190 -104.5 -301t-268.5 -123v-134q0 -16 -62.5 -15t-62.5 15v136q-152 20 -280 90q-53 147 -54 282q0 10 2 17q2 25 46.5 25.5t46.5 -19.5q8 -109 78.5 -187.5t160.5 -105.5v492q-178 66 -259 154.5t-81 260.5q0 104 89 209t251 125v137q0 16 62.5 15.5
t62.5 -15.5v-137q92 -4 142.5 -16.5t64.5 -12.5t29 3q45 -131 45 -271q0 -12 -42 -18t-46 8q-25 111 -82.5 160t-110.5 59v-444q250 -76 311.5 -178t61.5 -211zM438 840v405q-141 -49 -141 -201q0 -149 141 -204zM737 301q0 160 -174 231v-458q174 43 174 227z" />
    <glyph glyph-name="percent" unicode="%" horiz-adv-x="1820" 
d="M791 973q0 -162 -78 -281q-96 -145 -271 -145q-160 0 -262 145q-82 119 -82 281q0 152 72 270q96 156 272 156t275 -156q74 -118 74 -270zM584 975q0 336 -142 336q-137 0 -137 -336q0 -340 137 -340q142 0 142 340zM1432 1370l-875 -1452q-8 -12 -61 21q-43 29 -37 41
l872 1447q6 12 62 -18q47 -27 39 -39zM1800 406q0 -162 -78 -281q-96 -145 -270 -145q-160 0 -262 145q-82 119 -82 281q0 152 74 270q96 156 270 155q178 0 274 -155q74 -118 74 -270zM1593 408q0 336 -141 335q-137 0 -137 -335q0 -340 137 -340q141 0 141 340z" />
    <glyph glyph-name="ampersand" unicode="&#x26;" horiz-adv-x="1701" 
d="M1694 193q16 -16 14 -29q0 -6 -2 -10q-96 -127 -262 -168q-59 -14 -121 -15q-203 0 -365 228q-225 -225 -462 -228q-246 0 -367 152q-90 115 -90 250q2 242 346 420q-164 119 -164 270q0 135 105 223q102 86 231 86q168 0 264 -123q47 -59 49 -153q0 -139 -180 -246
q197 -139 361 -373q168 238 168 283q0 59 -125 59q-16 0 -16.5 50.5t16.5 50.5q84 -6 272 -9q188 0 242 9q14 0 14 -50.5t-14 -50.5q-139 0 -213 -59q-59 -55 -123 -154q-76 -115 -160 -223q166 -248 348 -248q131 0 197 66q4 4 10 4q13 0 27 -12zM676 1102q0 172 -125 172
q-119 0 -119 -164q0 -100 164 -203q80 78 80 195zM903 279q-197 297 -432 456q-213 -127 -213 -321q0 -137 86 -230q90 -94 236 -94q153 1 323 189z" />
    <glyph glyph-name="quotesingle" unicode="'" horiz-adv-x="419" 
d="M344 1374q0 -16 -39 -223q-33 -172 -33 -207q0 -14 -59 -14q-61 0 -61 14q0 61 -52 309q-20 92 -20 119q0 109 133 109q131 -1 131 -107z" />
    <glyph glyph-name="parenleft" unicode="(" horiz-adv-x="673" 
d="M653 1483q0 -25 -26 -56l-4 -4q-285 -287 -285 -835q0 -559 285 -838q27 -27 26 -59q0 -45 -43 -45q-35 0 -63 24q-121 113 -181 187q-240 299 -239 731q0 258 141 553q92 199 279 364q27 25 63 25q47 0 47 -47z" />
    <glyph glyph-name="parenright" unicode=")" horiz-adv-x="673" 
d="M553 588q0 -256 -141 -553q-92 -197 -279 -365q-27 -25 -63 -24q-43 0 -43 41q0 31 26 57q172 174 246 479q41 172 39 365q0 371 -141 641q-61 117 -144 196q-25 27 -24 60q0 45 41 45q37 0 63 -25q117 -109 172 -176q248 -303 248 -741z" />
    <glyph glyph-name="asterisk" unicode="*" horiz-adv-x="827" 
d="M356 641v274l-235 -137l-55 96l235 138l-235 135l55 96l235 -135v272h111v-272l235 135l56 -96l-236 -135l236 -138l-56 -96l-235 137v-274h-111z" />
    <glyph glyph-name="plus" unicode="+" horiz-adv-x="1062" 
d="M944 362h-319v-362h-181v362h-321v148h321v326h181v-326h319v-148z" />
    <glyph glyph-name="comma" unicode="," horiz-adv-x="518" 
d="M453 49q0 -133 -94.5 -248.5t-213.5 -173.5q-23 -10 -36 9.5t0 33.5q137 162 137 267q0 20 -33 31.5t-77 57.5t-44 106.5t48 98t116 37.5t132.5 -61.5t64.5 -157.5z" />
    <glyph glyph-name="hyphen" unicode="-" horiz-adv-x="825" 
d="M698 610q20 0 20.5 -65.5t-22.5 -65.5h-571q-18 0 -18.5 65.5t18.5 65.5h573z" />
    <glyph glyph-name="period" unicode="." horiz-adv-x="518" 
d="M418 109q0 -55 -45 -95.5t-109.5 -39.5t-112 44t-47.5 106.5t41 109t118 45.5t116 -49t39 -121z" />
    <glyph glyph-name="slash" unicode="/" horiz-adv-x="714" 
d="M733 1423l-612 -1441q-4 -8 -21 -9q-41 0 -88 29q-29 16 -26 31v6l610 1440q2 6 18 8q43 0 91 -29q27 -14 28 -26v-9z" />
    <glyph glyph-name="zero" unicode="0" horiz-adv-x="954" 
d="M924 643q0 -203 -70 -373q-117 -287 -377 -286q-268 0 -381 290q-63 168 -63 394q0 231 78 403q117 260 368 262q262 0 375 -284q70 -175 70 -406zM672 633q0 274 -39 436q-41 174 -152 174q-158 0 -192 -354q-8 -88 -8 -209q0 -258 28 -383q51 -221 166 -221
q197 0 197 495v62z" />
    <glyph glyph-name="one" unicode="1" horiz-adv-x="954" 
d="M614 283q0 -127 35 -170q37 -43 127 -45q14 0 14.5 -38t-14.5 -38q-80 8 -282 8q-205 0 -285 -8q-14 0 -14 38t14 38q109 0 145 51q33 45 33 162v806q0 66 -20 58q-104 -35 -162 -64q-20 -10 -30.5 22t7.5 38q131 55 348 213q27 20 48 20q43 0 43 -53q-6 -72 -7 -160
v-878z" />
    <glyph glyph-name="two" unicode="2" horiz-adv-x="954" 
d="M799 31q-16 -39 -80 -39q-135 8 -246 8h-80q-162 0 -342 -8q-53 0 -53 47q0 20 20 41q160 160 316 371q256 346 254 528q-4 205 -172 205q-150 0 -242 -164q-12 -23 -47 2q-27 16 -18 33q82 158 210 231q84 47 177 47q164 0 262 -110q86 -96 86 -234q0 -190 -275 -500
q-59 -66 -290 -296h296q115 0 158 18q49 23 78 80q10 20 53 4q39 -14 33 -29z" />
    <glyph glyph-name="three" unicode="3" horiz-adv-x="954" 
d="M856 426q0 -174 -125 -301q-143 -147 -360 -148q-143 0 -234 50q-80 43 -78 116q0 96 121 97q45 0 92 -56l52 -59q45 -47 100 -47q100 0 154 133q35 86 34 190q0 133 -82 209q-66 63 -163 64q-59 0 -107 -17q-29 0 -29 56q0 51 23 51q154 0 242 84q68 66 67 160
q0 100 -55 155q-39 41 -96 41q-90 0 -168 -84q-31 -33 -56 -71q-14 -20 -49 8q-27 20 -16 37q94 141 182 192q78 45 174 47q133 0 223 -94q86 -86 86 -207q0 -170 -172 -272q240 -72 240 -334z" />
    <glyph glyph-name="four" unicode="4" horiz-adv-x="954" 
d="M768 156q0 -88 102 -88q14 0 14.5 -38t-14.5 -38q-80 8 -208 8q-178 0 -263 -8q-14 0 -14 38t14 38q141 0 142 88v215h-461q-86 0 -86 57q0 49 51 123l289 383q188 250 237 330l95 149q14 16 45 17q86 0 84 -54q0 -8 -4 -16l-617 -815q-8 -12 -8 -23q0 -18 18 -18h357
v428q0 23 112 22q115 0 115 -22v-428h123q14 0 14 -66q0 -68 -14 -67h-123v-215z" />
    <glyph glyph-name="five" unicode="5" horiz-adv-x="954" 
d="M850 504q0 -195 -117 -336q-150 -182 -399 -184q-147 0 -223 51q-55 37 -56 94q0 53 35 80q31 23 80 22q61 0 104 -53q74 -86 144 -86q106 -2 180 109q61 90 61 196q0 154 -104 238q-84 68 -211 67q-66 0 -137 -20q-16 -4 -27 -4q-37 0 -33 33q43 279 97 551q10 55 69 55
h502q6 0 6 -21q0 -18 -6 -55q-16 -113 -35 -111h-415q-35 0 -37 -14q-23 -92 -31 -190q0 -16 14 -15q41 6 72 7q231 0 358 -125q109 -111 109 -289z" />
    <glyph glyph-name="six" unicode="6" horiz-adv-x="954" 
d="M901 406q0 -166 -108 -283q-125 -137 -320 -139q-225 0 -336 186q-76 129 -74 305q0 256 179 502q205 283 520 407q2 0 6 2q14 0 25 -26q6 -16 6 -26.5t-6 -12.5q-240 -131 -371 -387q-61 -121 -92 -248q59 76 155 102q33 8 64 9q162 0 264 -131q88 -110 88 -260z
M682 348q0 100 -59 199q-59 96 -154 96q-90 0 -160 -78q-8 -41 -8 -92q0 -385 197 -385q106 0 155 113q29 65 29 147z" />
    <glyph glyph-name="seven" unicode="7" horiz-adv-x="954" 
d="M406 0q-8 -23 -93 -23q-88 0 -135 25q-4 4 -4 18l549 1121h-297q-115 0 -172 -29q-63 -33 -94 -100q-6 -16 -41 -17q-53 0 -49 23l51 242q8 39 18 49q10 8 37 8h682q55 0 55 -33q0 -8 -4 -20z" />
    <glyph glyph-name="eight" unicode="8" horiz-adv-x="954" 
d="M889 348q0 -158 -121 -262q-123 -102 -291 -102q-170 0 -287 92q-123 96 -122 258q0 178 254 328q-217 133 -218 327q0 145 109 248q104 96 264 96q182 0 285 -98q86 -84 84 -217q0 -180 -211 -301q254 -152 254 -369zM633 979q0 139 -68 209q-45 45 -112 45
q-88 0 -134 -80q-25 -45 -24 -100q0 -135 229 -273q109 64 109 199zM672 281q0 166 -246 315q-129 -76 -129 -244q0 -117 61 -198q59 -78 149.5 -78t137.5 90q27 52 27 115z" />
    <glyph glyph-name="nine" unicode="9" horiz-adv-x="954" 
d="M893 854q0 -305 -236 -571q-176 -199 -442 -324q-18 -8 -39 33q-12 25 -10 37q0 10 6 14q203 113 305 258q86 119 148 326q-47 -47 -129 -76q-43 -14 -80 -16q-166 0 -262 110q-98 115 -99 248q0 188 111 309q121 131 317 131q207 0 320 -166q90 -135 90 -313zM653 852
q0 375 -200 375q-106 0 -150 -133q-18 -61 -18 -136q0 -104 55 -190q57 -92 141 -94q100 0 160 59q12 45 12 119z" />
    <glyph glyph-name="colon" unicode=":" horiz-adv-x="591" 
d="M483 702q0 -66 -43 -102.5t-105.5 -36.5t-105.5 41t-43 100.5t39 103.5t111 44t109.5 -46.5t37.5 -103.5zM483 113q0 -66 -43 -103t-105.5 -37t-105.5 41t-43 100.5t39 103.5t111 44t109.5 -46t37.5 -103z" />
    <glyph glyph-name="semicolon" unicode=";" horiz-adv-x="591" 
d="M526 49q0 -137 -94 -251.5t-213 -170.5q-23 -10 -36 9.5t-1 33.5q137 162 137 267q0 20 -32.5 31.5t-76.5 57.5t-44 106.5t48 98t115.5 37.5t132 -61.5t64.5 -157.5zM455 707q0 -61 -42 -102.5t-104.5 -41.5t-107.5 41t-45 103.5t42 105.5t110.5 43t107.5 -44t39 -105z
" />
    <glyph glyph-name="less" unicode="&#x3c;" horiz-adv-x="1024" 
d="M344 422l604 -260v-185l-870 379v129l870 381v-184z" />
    <glyph glyph-name="equal" unicode="=" horiz-adv-x="997" 
d="M897 575h-829v142h829v-142zM897 268h-829v142h829v-142z" />
    <glyph glyph-name="greater" unicode="&#x3e;" horiz-adv-x="1024" 
d="M946 356l-870 -379v185l604 260l-604 260v184l870 -381v-129z" />
    <glyph glyph-name="question" unicode="?" horiz-adv-x="749" 
d="M694 936q0 -178 -102 -229l-166 -82q-72 -37 -72 -58q-2 -53 17 -127q-2 -25 -54 -24q-16 0 -20 6q-80 147 -80 227q0 37 14.5 70t40 54.5t62.5 39.5l104 53q125 63 125 113q0 57 -43 97t-162 50l-79 7q-31 2 -68 35.5t-37 91.5q0 43 36 72.5t85 29.5q94 0 181 -60.5
t152.5 -158.5t65.5 -207zM492 117q0 -61 -44.5 -101.5t-112 -40.5t-112.5 43t-45 104.5t41 109t118 47.5t116 -47t39 -115z" />
    <glyph glyph-name="at" unicode="@" horiz-adv-x="1595" 
d="M1198 109q12 -23 -4 -33q-176 -109 -412 -109q-240 0 -426 115q-285 174 -284 520q0 297 188 508q246 274 641 274q281 0 455 -155q170 -154 170 -381q0 -174 -115 -309q-158 -186 -436 -187q-102 0 -129 37q-14 18 -15 47q0 27 19 82l-10 6q-152 -166 -250 -166
q-113 0 -113 136q0 117 78 258q86 156 207 223q70 39 137 39q61 0 92 -31l21 51q12 33 73 15q49 -14 43 -39l-141 -478q-8 -31 -8 -61q0 -41 22 -41q162 0 273 109q123 123 123 301q0 186 -129 313q-147 145 -385 145q-252 0 -424 -174q-205 -205 -205 -520q0 -180 96 -321
q156 -227 494 -228q158 0 323 72q19 7 31 -18zM967 920q-20 47 -84 47q-80 0 -158 -146q-94 -172 -96 -303q0 -70 30 -69q53 0 166 131q61 72 99 192z" />
    <glyph glyph-name="A" unicode="A" horiz-adv-x="1400" 
d="M1196 203q41 -117 203 -117q14 0 14 -46t-14 -46q-115 6 -265.5 6t-275.5 -6q-14 0 -14 46t14 46q96 0 96 66q0 20 -10 51l-100 297q-6 23 -33 22h-375q-20 0 -30 -28l-109 -293q-8 -25 -10 -41q0 -74 147 -74q12 0 12 -46t-12 -46q-84 6 -233.5 6t-227.5 -6
q-14 0 -14 46t14 46q152 0 201 131l371 969q12 31 12 38t-14.5 21.5t-14.5 22.5q0 14 34 25.5t103.5 53.5t90.5 42q33 0 44 -47.5t52 -163.5zM649 1067q-4 16 -16 16q-10 0 -17 -16l-157 -432l-4 -17q0 -10 20 -12h293q29 0 29 23q0 6 -4 14z" />
    <glyph glyph-name="B" unicode="B" horiz-adv-x="1298" 
d="M76 -6q-14 0 -14 46t14 46q84 0 123 37t39 80v952q0 109 -172 111q-14 0 -14 46t14 46q143 -6 238 -6t184.5 3t150.5 3q217 0 330.5 -92t113.5 -248q0 -86 -51 -158t-129 -108q-18 -10 -18 -17.5t20 -15.5q117 -39 196 -135.5t79 -212.5q0 -152 -114 -264.5t-423 -112.5
q-45 0 -129 3t-153.5 3t-284.5 -6zM481 797q0 -20 17 -25q18 -4 55 -4q145 0 216 67.5t71 178.5q0 129 -86 197.5t-254 68.5q-18 0 -19 -18v-465zM481 250q0 -174 150 -174q278 10 278 295q0 139 -93 220t-310 83q-25 -2 -25 -35v-389z" />
    <glyph glyph-name="C" unicode="C" horiz-adv-x="1347" 
d="M55 647q0 313 205 525t535 212q129 0 338 -43q55 -10 106 -12q33 -90 41 -325q0 -18 -46 -21.5t-48 12.5q-10 111 -65.5 177.5t-139.5 95t-193 28.5q-207 0 -333.5 -167.5t-126.5 -423.5q0 -297 140 -467t316 -170q342 0 441 276q6 18 51 8t45 -30q-4 -57 -42 -153.5
t-62 -131.5q-47 -6 -89 -21q-154 -43 -358 -43q-293 0 -504 189.5t-211 484.5z" />
    <glyph glyph-name="D" unicode="D" horiz-adv-x="1566" 
d="M238 203v952q0 109 -172 111q-14 0 -14 46t14 46q143 -6 238 -6t218 3t197 3q330 0 549 -169t219 -464q0 -338 -198.5 -534.5t-522.5 -196.5q-63 0 -207.5 3t-248 3t-234.5 -6q-15 0 -15 46t15 46q162 0 162 117zM481 272q0 -150 86 -186q39 -14 131 -14q217 0 366.5 170
t149.5 475q0 213 -152.5 388t-424.5 175h-80q-76 0 -76 -80v-928z" />
    <glyph glyph-name="E" unicode="E" horiz-adv-x="1249" 
d="M238 203v952q0 109 -172 111q-14 0 -14 46t14 46q143 -6 299 -6t370.5 3t335.5 3q57 0 57 -51v-306q0 -17 -50 -17t-50 17q0 129 -98 205q-61 47 -125 49l-297 11q-27 0 -27 -41v-508q0 -29 29 -31h135q123 0 123 92v99q0 14 52 14t52 -14q-6 -68 -6 -232t6 -225
q0 -14 -52 -15.5t-52 15.5v86q0 88 -123 88h-135q-29 0 -29 -31v-342q0 -78 74 -115q39 -20 82 -20l223 4q158 2 205 137q18 49 18 117q0 16 51.5 16t51.5 -16v-287q0 -63 -119 -63q-186 0 -359 3t-335 3t-297 -6q-15 0 -15 46t15 46q162 0 162 117z" />
    <glyph glyph-name="F" unicode="F" horiz-adv-x="1189" 
d="M238 203v952q0 109 -172 111q-14 0 -14 46t14 46q143 -6 287 -6t366.5 3t349.5 3q59 0 59 -51v-306q0 -17 -50 -17t-50 17q0 113 -71.5 181.5t-151.5 72.5q-215 10 -297 11q-27 0 -27 -41v-469q0 -31 29 -31h135q92 0 92 90v137q0 15 52.5 15t52.5 -15q-6 -68 -6 -275.5
t6 -277.5q0 -13 -52.5 -13t-52.5 13v144q0 88 -92 90h-135q-29 0 -29 -31v-399q0 -117 154 -117q13 0 13 -46t-13 -46q-94 6 -274.5 6t-284.5 -6q-15 0 -15 46t15 46q162 0 162 117z" />
    <glyph glyph-name="G" unicode="G" horiz-adv-x="1441" 
d="M846 569q59 -6 272 -6t273 6q13 0 13 -46t-13 -46q-109 0 -109 -76v-241q0 -45 43 -45q14 0 14 -40t-14 -40q-49 0 -235.5 -31t-319.5 -31q-262 0 -463 154q-252 199 -252 520q0 266 152 463q213 274 588 274q131 0 317 -36q70 -18 127 -19q29 -59 39 -274l2 -51
q0 -18 -45 -21.5t-49 12.5q-18 209 -211 275q-80 26 -187 26q-207 0 -333.5 -167.5t-126.5 -423.5q0 -324 150.5 -480.5t305.5 -156.5q111 0 182.5 24.5t71.5 67.5v241q0 76 -112 76h-80q-14 0 -14 46t14 46z" />
    <glyph glyph-name="H" unicode="H" horiz-adv-x="1685" 
d="M1432 203q0 -117 159 -117q15 0 15 -46t-15 -46q-127 6 -279.5 6t-285.5 -6q-14 0 -14 46t14 46q162 0 162 117v415q0 35 -35 35h-637q-35 0 -35 -35v-415q0 -117 158 -117q14 0 14 -46t-14 -46q-133 6 -286 6t-277 -6q-15 0 -15 46t15 46q162 0 162 117v950
q0 117 -162 117q-14 0 -14 47t14 47q47 -5 283.5 -5t283.5 5q15 0 15 -47t-15 -47q-162 0 -162 -117v-371q0 -34 35 -34h637q35 0 35 34v371q0 117 -160 117q-14 0 -14 47t14 47q45 -6 283 -6t284 6q15 0 15 -47t-15 -47q-163 0 -163 -117v-950z" />
    <glyph glyph-name="I" unicode="I" horiz-adv-x="733" 
d="M76 -6q-15 0 -15 46t15 46q162 0 162 117v950q0 117 -162 117q-14 0 -14 47t14 47q47 -6 283.5 -6t283.5 6q14 0 14 -47t-14 -47q-162 0 -162 -117v-950q0 -117 158 -117q14 0 14 -46t-14 -46q-133 6 -286 6t-277 -6z" />
    <glyph glyph-name="J" unicode="J" horiz-adv-x="716" 
d="M-131 -276q0 60 41.5 89t97.5 29q74 0 129 -57q25 -27 37 -61q33 25 57 81q25 88 25 449v899q0 117 -170 117q-14 0 -14 47t14 47q47 -5 294 -5t294 5q14 0 14 -47t-14 -47q-172 0 -172 -117v-524q0 -106 -10 -434q0 -228 -80 -361t-207 -205q-86 -47 -172 -49
q-51 0 -107.5 38t-56.5 106z" />
    <glyph glyph-name="K" unicode="K" horiz-adv-x="1380" 
d="M1145 190q78 -90 178 -102q23 -2 59 -2q15 0 15 -46t-15 -46q-133 6 -285.5 6t-291.5 -6q-14 0 -14 46t14 46q84 0 84 39q0 27 -41 78l-258 321q-63 74 -86 74t-23 -29v-366q0 -117 156 -117q13 0 13 -46t-13 -46q-133 6 -285 6t-276 -6q-15 0 -15 46t15 46
q162 0 162 117v950q0 117 -172 117q-15 0 -15 47t15 47q47 -6 287.5 -6t287.5 6q14 0 14 -47t-14 -47q-160 0 -160 -117v-356q0 -27 17 -27q29 0 75 55l277 330q53 63 53 89t-61 26q-13 0 -13 47t13 47q49 -5 198.5 -5t196.5 5q14 0 14 -47t-14 -47q-88 0 -131 -20.5
t-82 -63.5l-338 -393q-14 -18 -14 -34.5t14 -33.5z" />
    <glyph glyph-name="L" unicode="L" horiz-adv-x="1357" 
d="M481 250q0 -111 68 -154q35 -18 74 -18l331 12q76 2 144 82q82 104 82 219q0 18 50 18t50 -18v-334q0 -43 -14 -53q-8 -10 -103 -10q-186 0 -443 3t-347.5 3t-296.5 -6q-15 0 -15 46t15 46q162 0 162 127v940q0 117 -172 117q-15 0 -15 47t15 47q47 -5 284.5 -5t286.5 5
q13 0 13 -47t-13 -47q-156 0 -156 -117v-903z" />
    <glyph glyph-name="M" unicode="M" horiz-adv-x="1814" 
d="M1608 209q2 -123 161 -123q15 0 15 -46t-15 -46q-127 6 -267 6t-281 -6q-15 0 -15 46t15 46q153 0 153 123l-6 668q0 20 -7 20t-15 -16l-451 -877q-12 -22 -32.5 -22t-28.5 22l-459 965q-10 20 -16.5 20t-10.5 -26l-49 -756v-33q0 -88 170 -88q13 0 13 -46t-13 -46
q-133 6 -249.5 6t-178.5 -6q-14 0 -14 46t14 46q147 0 152 125l61 905v45q0 109 -174 109q-12 0 -12 47t12 47q82 -6 174 -6h96q66 0 119 -88l438 -914q10 -20 24.5 -20t26.5 22l469 918q43 82 111 82h53q104 0 164 6q14 0 14 -47t-14 -47q-104 0 -131 -44t-27 -102z" />
    <glyph glyph-name="N" unicode="N" horiz-adv-x="1480" 
d="M1288 76q0 -96 -31 -96q-27 0 -73 57l-824 977q-12 16 -18 16q-12 0 -14 -22v-805q0 -117 151 -117q14 0 14.5 -47t-14.5 -45q-92 6 -200 6q-102 0 -213 -6q-14 -2 -14.5 45t14.5 47q160 0 157 117v952q0 115 -172 115q-12 0 -12 47t12 47q49 -4 176 -6q84 0 99 -2
q59 -8 100 -58l711 -866q10 -14 24 -14q25 0 25 31v702q0 119 -154 119q-14 0 -14 47t14 47q102 -4 199 -6q100 0 192 6q14 0 14.5 -47t-14.5 -47q-135 0 -135 -119v-1075z" />
    <glyph glyph-name="O" unicode="O" horiz-adv-x="1523" 
d="M1430 664q0 -219 -146 -418q-203 -272 -543 -273q-225 0 -405 123q-281 195 -281 572q0 252 176 473q195 244 514 243q246 0 426 -153q259 -225 259 -567zM1157 649q0 256 -125 438q-141 211 -293 209q-154 0 -266 -129q-145 -166 -145 -442q0 -303 153 -496
q129 -162 275 -161q264 0 356 278q45 131 45 303z" />
    <glyph glyph-name="P" unicode="P" horiz-adv-x="1212" 
d="M481 203q0 -117 168 -117q14 0 14.5 -46t-14.5 -46q-127 6 -289 6q-147 0 -280 -6q-12 0 -12 46t12 46q158 0 158 117v952q0 109 -170 111q-14 0 -14.5 46t14.5 46q143 -6 286 -6q59 0 141.5 3t163.5 3q217 0 363 -101q158 -111 158 -288q0 -190 -172 -291
q-139 -82 -355 -82q-90 0 -137 4q-35 2 -35 -31v-366zM924 969q0 121 -82 205q-98 104 -279 104q-66 0 -78 -14q-4 -6 -4 -15v-532q0 -31 31 -37q37 -4 80 -4q250 0 311 172q21 53 21 121z" />
    <glyph glyph-name="Q" unicode="Q" horiz-adv-x="1488" 
d="M1430 659q0 -215 -148 -421q-70 -98 -190 -179q-23 -14 -23 -26.5t23 -28.5q258 -170 540 -252l31 -8q20 -6 23 -35q0 -10 -5 -24q-14 -49 -41 -43q-401 76 -987 299l-153 59q-33 12 -156 86q-131 82 -211 235.5t-78 340.5q0 262 178 477q205 246 512 245q260 0 426 -153
q259 -240 259 -572zM1157 641q0 252 -121 446q-129 211 -297 209q-197 0 -313 -192q-98 -162 -98 -387q0 -307 153 -498q127 -156 275 -153q254 0 350 264q51 137 51 311z" />
    <glyph glyph-name="R" unicode="R" horiz-adv-x="1419" 
d="M1212 969q0 -252 -282 -336q-18 -4 -19 -21q0 -10 13 -26q131 -223 325 -424q94 -100 181 -117q27 -4 24 -29q0 -39 -22 -36l-93 -5q-156 0 -237 56q-141 88 -262 260l-131 186q-63 76 -78 88q-25 20 -64 23h-67q-18 0 -19 -21v-364q0 -117 156 -117q14 0 13 -46t-13 -46
q-133 6 -277 6q-152 0 -284 -6q-14 0 -15.5 46t15.5 46q162 0 162 117v952q0 109 -172 111q-14 0 -14.5 46t14.5 46q143 -6 288 -6q55 0 134 3t171 3q338 0 482 -174q71 -90 71 -215zM958 969q0 135 -116 227q-106 82 -279 82q-61 0 -71.5 -8t-10.5 -33v-524q0 -33 25 -39
q47 -8 86 -8q264 0 340 165q26 62 26 138z" />
    <glyph glyph-name="S" unicode="S" horiz-adv-x="1075" 
d="M981 403q0 -180 -111 -301q-119 -129 -315 -129q-143 0 -248 35l-143 64q-53 162 -53 313q0 25 47 25q47 2 51 -19q10 -117 90 -207q104 -119 272 -116q72 0 129 57q72 70 70 182q0 207 -268 277q-397 100 -398 448q0 141 129 258q104 94 291 94q121 0 213 -20
q55 -12 64 -12l35 2h2q37 -119 49 -271q2 -27 -45 -32q-45 -6 -51 12q-31 117 -98.5 177t-186.5 60q-94 0 -154 -83q-41 -55 -41 -142q0 -180 248 -241q422 -101 422 -431z" />
    <glyph glyph-name="T" unicode="T" horiz-adv-x="1298" 
d="M772 203q0 -117 172 -117q12 0 12 -46t-12 -46q-86 6 -293 6t-303 -6q-14 0 -13 46t13 46q180 0 180 117v1034q0 29 -26 29h-144q-86 0 -154.5 -73t-68.5 -185q0 -16 -50 -16.5t-50 16.5v299q0 35 14 41q25 10 98 10q188 -6 495.5 -6t520.5 6q84 0 97 -17q8 -10 8 -34
v-299q0 -16 -51.5 -16.5t-51.5 16.5q0 129 -77.5 193.5t-153.5 64.5h-127q-33 0 -35 -29v-1034z" />
    <glyph glyph-name="U" unicode="U" horiz-adv-x="1511" 
d="M1323 881q0 -276 -12 -416q-16 -246 -156 -375q-127 -119 -383 -117q-156 0 -266 41q-158 61 -219 187q-51 106 -64 344v608q0 117 -155 117q-14 0 -14.5 47t14.5 47q147 -4 280 -6q145 0 293 6q14 0 14 -47t-14 -47q-174 0 -172 -117v-467l10 -280q2 -125 56 -203
q90 -135 276 -135q172 0 276 104q90 92 91 324v657q0 117 -158 117q-14 0 -14 47t14 47q137 -4 229 -6q92 0 228 6q14 0 14 -47t-14 -47q-154 0 -154 -117v-272z" />
    <glyph glyph-name="V" unicode="V" horiz-adv-x="1357" 
d="M698 6q-20 -45 -51 -45q-35 0 -51 45l-424 1147q-41 117 -141 117q-14 0 -14.5 47t14.5 47q45 -4 231 -6q209 0 256 6q12 0 12 -47t-12 -47q-125 0 -125 -64q0 -23 13 -53l280 -774q8 -20 27 -21q16 0 24 25l295 764q10 31 10 51q-4 72 -98 72q-14 0 -14 47t14 47
q47 -4 207 -6q166 0 213 6q14 0 14 -47t-14 -47q-147 0 -182 -84z" />
    <glyph glyph-name="W" unicode="W" horiz-adv-x="2011" 
d="M1860 1186l-537 -1180q-23 -45 -51 -45q-27 0 -58 64l-204 456q-8 18 -15 19q-8 0 -16 -21l-217 -473q-20 -45 -49 -45t-58 64l-505 1128q-51 117 -144 117q-14 0 -14 47t14 47q47 -4 215 -6q186 0 236 6q14 0 14 -47t-14 -47q-70 0 -72 -45q4 -41 21 -72l350 -778
q8 -16 22 -19q12 0 21 19l121 264q6 14 6 22.5t-6 24.5l-236 522q-29 61 -82 62q-14 0 -14 47t14 47q47 -4 209 -6q156 0 203 6q14 0 14 -47t-14 -47q-70 0 -70 -41q0 -33 21 -76l73 -162q8 -18 19 -18q12 0 24 24l70 150q27 55 25 84q0 39 -54 39q-14 0 -13 47t13 47
q49 -4 176 -6q135 0 185 6q14 0 14 -47t-14 -47q-145 0 -185 -84l-157 -348q-10 -25 -11 -39q0 -12 5 -25l182 -397q8 -18 22 -19q12 0 19 17l352 772q20 45 21 74q0 49 -66 49q-14 0 -14 47t14 47q45 -4 188 -6q141 0 189 6q14 0 14 -47t-14 -47q-143 2 -182 -84z" />
    <glyph glyph-name="X" unicode="X" horiz-adv-x="1380" 
d="M1151 203q82 -117 217 -117q14 0 15 -46t-15 -46q-80 6 -272 6q-174 0 -271 -6q-14 0 -14 46t14 46q109 0 109 47q0 29 -37 76l-242 317q-10 14 -22 17q-14 0 -27 -17l-170 -227q-66 -88 -67 -143q-2 -70 100 -70q14 0 13 -46t-13 -46q-78 6 -231 6q-227 0 -271 -6
q-12 0 -12 46t12 46q152 0 221 86l367 459q12 16 12 33q0 14 -12 30l-356 500q-53 76 -179 76q-14 0 -14 47t14 47q47 -4 291 -6q242 0 291 6q14 0 14 -47t-14 -47q-125 0 -125 -56q0 -23 29 -61l196 -274q10 -14 21 -15q12 0 22 15l216 268q35 43 34 70q0 53 -82 53
q-14 0 -14 47t14 47q47 -4 222 -6q172 0 221 6q14 0 14 -47t-14 -47q-117 0 -209 -84q-33 -31 -84 -94l-252 -310q-16 -20 -18 -37q0 -14 12 -32z" />
    <glyph glyph-name="Y" unicode="Y" horiz-adv-x="1323" 
d="M758 203q0 -117 147 -117q12 0 13.5 -46t-13.5 -46q-66 6 -266.5 6t-271.5 -6q-14 0 -14.5 46t14.5 46q147 0 147 117v291q0 68 -10 94q-8 23 -55 96l-297 469q-51 82 -103 104q-29 12 -61 13q-14 0 -15.5 47t15.5 47q47 -4 260 -6q215 0 266 6q14 0 14 -47t-14 -47
q-111 0 -111 -53q0 -31 21 -64l254 -403q10 -16 20 -19q10 0 23 21l266 395q23 35 25 59q0 63 -107 64q-14 0 -14 47t14 47q45 -4 221 -6q184 0 234 6q14 0 14 -47t-14 -47q-109 0 -178 -68l-33 -35l-338 -481q-39 -55 -45 -78q-8 -29 -8 -108v-297z" />
    <glyph glyph-name="Z" unicode="Z" horiz-adv-x="1316" 
d="M1270 18q0 -47 -17 -47q-25 0 -77 9q-131 20 -582 20h-449q-70 0 -69 49q0 27 16 47l873 1141q10 12 10 20q0 16 -41 17h-512q-43 0 -72 -27q-39 -31 -96 -172q-31 -76 -35 -100q0 -10 -24 -12q-16 0 -33 4q-25 8 -25 20q31 236 31 334q0 47 41 47q2 0 59 -8q47 -6 62 -8
h508l381 6q66 0 65 -33q0 -25 -24 -57l-834 -1143q-6 -10 -6 -19q0 -20 33 -20q412 0 591 12q53 4 140 152q41 70 51 104q2 6 18 8q35 0 56 -18q6 -6 6 -14q-45 -173 -45 -312z" />
    <glyph glyph-name="bracketleft" unicode="[" horiz-adv-x="796" 
d="M754 -354h-437q-23 0 -22 22v1843q0 18 20 19h439q20 0 20 -48t-20 -48h-226q-20 0 -20 -23v-1640q0 -29 14 -29h232q20 0 20 -48t-20 -48z" />
    <glyph glyph-name="backslash" unicode="\" horiz-adv-x="714" 
d="M731 31q10 -25 -67 -49q-27 -8 -48 -11q-18 0 -22 11l-608 1443q-12 29 57 58q31 12 53 10q25 0 29 -12z" />
    <glyph glyph-name="bracketright" unicode="]" horiz-adv-x="796" 
d="M504 -332q0 -23 -23 -22h-434q-20 0 -20 48t20 48h232q14 0 14 25v1644q0 23 -19 23h-227q-20 0 -20 48t20 48h436q20 0 21 -19v-1843z" />
    <glyph glyph-name="asciicircum" unicode="^" horiz-adv-x="1093" 
d="M1044 535h-219l-276 577l-279 -577h-221l422 837h154z" />
    <glyph glyph-name="underscore" unicode="_" horiz-adv-x="1024" 
d="M1024 -266h-1024v121h1024v-121z" />
    <glyph glyph-name="grave" unicode="`" horiz-adv-x="567" 
d="M461 1114q8 -23 8 -41q0 -53 -43 -53q-35 0 -68 49l-170 250q-4 8 -4 14q0 33 58 64q43 23 73 22q25 0 29 -12z" />
    <glyph glyph-name="a" unicode="a" horiz-adv-x="858" 
d="M866 88q-57 -113 -190 -113q-92 0 -162 82q-14 18 -20 19q-12 0 -29 -17q-82 -82 -199 -82q-125 0 -178 84q-27 43 -25 101q0 121 211 231l152 72q35 20 35 47v190q0 72 -105 72q-80 0 -116 -51q-8 -14 -11 -76q0 -35 -4 -51q-25 -88 -92 -88q-90 0 -90 78q0 68 55 143
q31 43 66 66q121 76 264 75q113 0 195 -57q66 -43 67 -106v-508q0 -115 68 -113q31 -2 71 35q8 8 27 -8q14 -15 10 -25zM461 193v182q0 23 -15 22q-6 0 -12 -2q-141 -72 -141 -190q0 -117 72 -117q96 1 96 105z" />
    <glyph glyph-name="b" unicode="b" horiz-adv-x="1048" 
d="M981 440q0 -207 -113 -336q-111 -127 -331 -127q-57 0 -129 29q-55 25 -105 25q-16 0 -55 -33l-19 -16q-4 -2 -14 -2q-31 0 -74 32q-18 14 -18 23q6 31 6 244v882q0 125 -94 125q-16 0 -17 37q0 39 17 37q49 0 186 65q68 33 88 52q12 10 29 10q27 0 29 -25l-9 -176v-446
q0 -29 17 -29q8 0 18 8q74 51 168 51q176 0 295 -118q125 -126 125 -312zM727 428q0 158 -68 254q-59 86 -157 88q-72 0 -113 -43q-31 -31 -31 -80v-350q0 -117 72 -186q55 -53 135 -54q162 0 162 371z" />
    <glyph glyph-name="c" unicode="c" horiz-adv-x="878" 
d="M709 621q-37 0 -56 28l-39 66q-39 59 -112 59q-82 0 -142 -92q-66 -102 -65 -246q0 -133 88 -227q80 -84 180 -84q109 0 187 55q16 12 47 -30q27 -43 8 -54l-82 -53q-117 -66 -266 -66q-139 0 -250 99q-139 123 -141 311q0 170 106 307q135 176 350 176q135 0 223 -45
q39 -20 54 -45q6 -16 6 -41q0 -51 -31 -84q-34 -34 -65 -34z" />
    <glyph glyph-name="d" unicode="d" horiz-adv-x="1034" 
d="M1022 31q-29 -12 -156 -35q-102 -27 -131 -31h-12q-10 0 -10 45v29q0 23 -11 22q-12 0 -28 -14q-94 -70 -195 -70q-244 0 -354 175q-72 111 -72 266q0 176 121 303q147 150 393 149q49 0 80 -4q27 -2 27 23v272q0 125 -92 125q-16 0 -17 37q0 39 17 37q49 0 186 67
q66 33 84 50q12 10 27 10q31 0 30 -33q-6 -70 -6 -168v-1030q0 -90 10 -117q14 -41 54 -41q12 0 32 6q16 4 27 -30q8 -39 -4 -43zM674 141v553q0 43 -4 51q-4 10 -17 19q-47 29 -112 29q-133 0 -197 -144q-39 -88 -37 -205q0 -193 78 -303q59 -82 145 -80q86 0 129 52
q15 18 15 28z" />
    <glyph glyph-name="e" unicode="e" horiz-adv-x="874" 
d="M809 612q0 -76 -90 -75h-385q-37 0 -37 -27q0 -238 113 -334q61 -53 151 -53q82 0 166 55q20 10 49 -26q27 -35 15 -46q-47 -49 -134 -88q-88 -41 -202 -41q-135 0 -242 109q-143 143 -145 350q0 166 106 291q123 143 287 143q178 0 282 -118q66 -91 66 -140zM309 653
q0 -27 37 -26h203q37 0 37 24q0 68 -56 113q-35 29 -67 27q-63 0 -113 -43q-41 -40 -41 -95z" />
    <glyph glyph-name="f" unicode="f" horiz-adv-x="581" 
d="M608 799q0 -53 -14 -54h-164q-37 0 -37 -36v-574q0 -68 133 -67q16 0 16.5 -38t-16.5 -38q-80 8 -239 8q-147 0 -232 -8q-14 0 -14 38t14 38q109 0 109 67v574q0 37 -37 36h-55q-16 0 -16.5 37t16.5 37q47 0 69.5 33t22.5 80q0 145 67 278q33 66 78 111q158 166 365 166
q123 0 184 -60q39 -37 39 -84q0 -55 -53 -96q-31 -25 -60 -24q-100 0 -147 90q-29 57 -78 61q-57 0 -96 -53q-70 -96 -70 -272v-162q0 -37 37 -37h164q14 0 14 -51z" />
    <glyph glyph-name="g" unicode="g" horiz-adv-x="946" 
d="M981 -141q0 -162 -147 -281q-172 -137 -422 -137q-299 0 -371 147q-20 41 -21 93q0 82 103 165q35 29 80 52q14 6 14 14q0 4 -16 12q-133 55 -133 174q0 76 145 138q16 6 16 14q0 4 -18 16q-154 96 -154 262q0 141 109 240q113 102 276 102q111 0 222 -43q66 -29 92 -30
h192q16 0 17 -56q0 -59 -17 -59h-92q-31 0 -31 -29v-78q0 -170 -118 -270q-104 -88 -277 -88q-49 0 -106 6q-12 0 -23 -6q-37 -31 -37 -57q0 -33 39 -51q33 -16 88 -17h254q129 0 193 -20q143 -47 143 -213zM592 522q0 176 -72 242q-31 29 -74 29q-72 0 -118 -86
q-39 -70 -39 -158q0 -121 59 -197q45 -57 113 -57q88 0 119 119q12 49 12 108zM811 -242q0 131 -236 131h-213q-20 0 -40 -14q-63 -45 -64 -123q0 -76 59 -131q68 -61 187 -61q252 0 299 141q8 26 8 57z" />
    <glyph glyph-name="h" unicode="h" horiz-adv-x="1091" 
d="M1079 -8q-80 8 -221 8q-150 0 -229 -8q-16 0 -16.5 38t16.5 38q104 0 104 63v424q0 76 -45 139q-49 68 -123 68q-90 0 -143 -64q-29 -35 -29 -71v-484q0 -76 103 -75q14 0 15 -38t-15 -38q-84 8 -209 8q-152 0 -236 -8q-14 0 -14 38t14 38q113 0 113 69v1024
q0 125 -92 125q-16 0 -17 37q0 39 17 37q49 0 184 67q66 33 86 50q12 10 29 10q27 0 28 -27q-2 -86 -6 -174v-465q0 -23 10 -22q8 0 23 10q82 61 211 61q180 0 270 -137q55 -84 56 -176v-414q6 -76 116 -75q16 0 16 -38t-16 -38z" />
    <glyph glyph-name="i" unicode="i" horiz-adv-x="522" 
d="M496 -8q-84 8 -209 8q-143 0 -228 -8q-14 0 -15 38t15 38q104 0 105 75v414q0 125 -92 125q-16 0 -16.5 37t16.5 37q49 0 186 67q63 31 84 49q12 10 31 11q29 0 26 -27q-6 -88 -6 -174v-539q0 -76 103 -75q14 0 14 -38t-14 -38zM401 1186q0 -72 -59 -113q-39 -27 -86 -24
q-76 0 -117 57q-27 37 -26 80q0 70 57 110q39 29 86 27q78 0 119 -57q26 -39 26 -80z" />
    <glyph glyph-name="j" unicode="j" horiz-adv-x="497" 
d="M373 1188q0 -72 -60 -113q-39 -27 -86 -26q-74 0 -116 55q-29 37 -29 84q0 68 57 108q39 29 88 29q74 0 117 -55q29 -39 29 -82zM375 856q-8 -92 -8 -174v-543q0 -186 -11 -268q-25 -174 -108 -287q-76 -102 -207 -131q-37 -8 -74 -8q-59 0 -117 43q-43 35 -43 86
q0 57 52 86q27 14 57 16q47 0 80 -53q43 -74 80 -72q45 0 55 91q4 43 6 129v786q0 125 -92 125q-14 0 -14 37t14 37q51 0 188 67q63 31 84 49q14 10 29 11q29 0 29 -27z" />
    <glyph glyph-name="k" unicode="k" horiz-adv-x="1071" 
d="M1079 -8q-80 8 -229.5 8t-233.5 -8q-14 0 -15 38t15 38q74 0 74 28q0 16 -26 49l-195 224q-25 31 -59 30q-16 0 -17 -34v-222q0 -76 109 -75q14 0 14 -38t-14 -38q-84 8 -215 8q-154 0 -238 -8q-14 0 -14 38t14 38q115 0 115 71v1022q-8 119 -92 125q-16 0 -16.5 37
t16.5 37q49 0 184 67q66 33 86 50q12 10 29 10q27 0 28 -27q-6 -86 -6 -174v-758q0 -37 21 -36q43 0 80 38l153 170q33 37 33 54q0 31 -84 30q-16 0 -16 36t16 36q59 -6 217 -6q139 0 203 6q14 0 14 -36t-14 -36q-104 0 -182 -71l-209 -189q-10 -10 -11 -18q0 -14 11 -27
l329 -358q47 -53 125 -53q16 0 16 -38t-16 -38z" />
    <glyph glyph-name="l" unicode="l" horiz-adv-x="522" 
d="M496 -8q-84 8 -209 8q-143 0 -228 -8q-14 0 -15 38t15 38q104 0 105 67v1026q0 125 -92 125q-16 0 -16.5 37t16.5 37q49 0 184 67q66 33 86 50q12 10 27 10q31 0 30 -33q-6 -76 -6 -168v-1143q0 -76 103 -75q14 0 14 -38t-14 -38z" />
    <glyph glyph-name="m" unicode="m" horiz-adv-x="1628" 
d="M1587 -8q-80 8 -221 8q-135 0 -215 -8q-16 0 -16 38t16 38q100 0 100 67v475q0 152 -151 152q-70 0 -119 -62q-45 -55 -45 -131v-430q0 -72 104 -71q16 0 16.5 -38t-16.5 -38q-80 8 -219 8q-131 0 -215 -8q-14 0 -14 38t14 38q100 0 101 63v434q0 133 -45 174
q-27 23 -97 23q-51 0 -96 -33q-76 -57 -76 -125v-471q0 -66 99 -65q14 0 15 -38t-15 -38q-84 8 -220 8q-137 0 -221 -8q-14 0 -14 38t14 38q113 0 113 69v414q0 131 -92 131q-16 0 -16.5 37t16.5 37q49 0 186 67q63 31 84 49q12 10 29 11q29 0 28 -25l-6 -70q0 -18 8 -20
q8 0 19 10q82 92 219 92q141 0 215 -127q8 -16 16 -16q10 0 27 18q80 84 186 113q43 12 84 12q127 0 205 -69q109 -96 109 -248v-414q0 -72 106 -71q16 0 16 -38t-16 -38z" />
    <glyph glyph-name="n" unicode="n" horiz-adv-x="1085" 
d="M1069 -8q-106 8 -210.5 8t-225.5 -8q-14 0 -14.5 38t14.5 38q100 0 100 61v408q0 150 -57 200q-29 25 -96 25q-61 0 -119 -49q-68 -57 -68 -121v-449q0 -76 99 -75q14 0 15 -38t-15 -38q-84 8 -216 8q-135 0 -219 -8q-14 0 -14 38t14 38q106 0 107 75v406q0 133 -92 133
q-16 0 -16.5 37t16.5 37q49 0 186 67q63 31 84 49q12 10 27 11q29 0 30 -27l-6 -68q0 -18 9.5 -19t17.5 9q43 55 137 80q41 10 96 12q188 0 275 -186q37 -74 35 -219v-330q0 -68 106 -67q16 0 16 -38t-16 -38z" />
    <glyph glyph-name="o" unicode="o" horiz-adv-x="1030" 
d="M969 426q0 -209 -123 -332q-119 -119 -328 -117q-184 0 -313 121q-139 131 -139 326q0 170 110 297q131 150 340 149q217 0 350 -157q103 -123 103 -287zM715 420q0 184 -72 293q-53 82 -125 80q-82 0 -139 -105q-59 -109 -60 -268q0 -184 72 -287q51 -72 125 -72
q94 0 150 113q49 101 49 246z" />
    <glyph glyph-name="p" unicode="p" horiz-adv-x="1007" 
d="M958 475q0 -348 -200 -452q-88 -45 -232 -46q-90 0 -127 19q-8 4 -14 4q-18 0 -18 -27v-370q0 -86 141 -86q14 0 14 -38t-14 -38q-84 8 -252 8q-143 0 -223 -8q-16 0 -16.5 38t16.5 38q102 0 104 84v948q0 133 -92 133q-14 0 -14 37t14 37q55 0 191 69q57 31 77 47
q14 10 27 11q27 0 31 -21l-4 -47q0 -25 14 -24q12 0 27 18q29 33 84 51q31 8 67 10q150 0 242 -65q157 -115 157 -330zM725 401q0 225 -84 318q-51 51 -123 51q-86 0 -139 -84q-12 -18 -12 -70v-438q6 -119 178 -119q88 0 143 140q37 91 37 202z" />
    <glyph glyph-name="q" unicode="q" horiz-adv-x="978" 
d="M1016 -559q-80 8 -235.5 8t-239.5 -8q-14 0 -14.5 38t14.5 38q123 0 123 86v391q-61 -16 -150 -17q-449 0 -448 504q0 172 114 285q109 104 287 104q154 0 244 -53q6 -4 14 -6l109 53q35 16 65 -28q25 -35 8 -48q-14 -14 -14 -172v-1015q0 -84 123 -84q16 0 16 -38
t-16 -38zM664 180v463q0 23 -9 35q-68 92 -147 92q-209 0 -209 -350q0 -154 51 -260q47 -100 137 -101q121 0 158 58q19 26 19 63z" />
    <glyph glyph-name="r" unicode="r" horiz-adv-x="753" 
d="M756 752q0 -59 -41 -95q-27 -25 -62 -24q-51 0 -102 51q-23 23 -49 23q-43 0 -76 -58q-33 -55 -33 -127v-379q0 -76 103 -75q14 0 15 -38t-15 -38q-84 8 -209 8q-143 0 -228 -8q-14 0 -15 38t15 38q104 0 105 75v406q0 133 -92 133q-16 0 -16.5 37t16.5 37q51 0 190 69
q59 31 80 47q12 10 29 11q25 0 28 -21l-6 -74q0 -23 13.5 -22.5t35.5 25.5q68 80 168 79q70 0 115 -45q31 -30 31 -73z" />
    <glyph glyph-name="s" unicode="s" horiz-adv-x="747" 
d="M346 -23q-145 0 -240 60q-29 68 -28 221q0 18 35 18q39 0 41 -16q4 -53 67 -127q66 -76 158 -76q49 0 90 41q33 35 33 76q0 121 -172 166q-176 47 -238 149q-31 51 -29 123q0 115 101 189q92 70 223 69q123 0 217 -36q39 -104 39 -191q0 -18 -31 -18q-33 0 -34 10
q-18 51 -80 113q-41 41 -125 40q-61 0 -99 -51q-23 -31 -22 -63q0 -100 168 -142q160 -41 223 -116q49 -61 51 -158q0 -133 -110 -215q-95 -68 -238 -66z" />
    <glyph glyph-name="t" unicode="t" horiz-adv-x="669" 
d="M686 90q-109 -113 -274 -113q-219 2 -252 183q-6 33 -6 73v482q0 31 -31 30h-55q-16 0 -16.5 37t16.5 37q61 0 133 60q70 57 92 125q4 12 43 2q43 -12 49 -31v-94q0 -31 31 -31h215q14 0 14 -52.5t-14 -52.5h-215q-31 0 -31 -30v-416q0 -121 35 -160q27 -31 86 -30
q51 0 127 47q10 8 39 -25q18 -23 16 -35q0 -4 -2 -6z" />
    <glyph glyph-name="u" unicode="u" horiz-adv-x="1026" 
d="M1038 31q-8 -2 -104 -21q-27 -4 -51 -10q-55 -12 -115 -31q-12 -4 -25 -4q-14 0 -14 45v47q0 23 -12 23t-27 -14q-92 -88 -246 -89q-127 0 -170 35q-147 119 -147 297v346q0 102 -84 103q-14 0 -14 36.5t14 36.5q113 0 223 19q31 4 51 4q45 0 45 -43q-6 -98 -6 -162v-342
q0 -123 50 -182q29 -33 98 -33q63 0 133 55q53 43 53 93v415q0 102 -84 103q-16 0 -16 36.5t16 36.5q111 0 230 19q25 4 38 4q53 0 54 -37q-8 -94 -8 -155v-406q0 -90 10 -117q14 -41 51 -41q12 0 35 6q16 4 26 -32q2 -14 2 -23q0 -16 -6 -18z" />
    <glyph glyph-name="v" unicode="v" horiz-adv-x="923" 
d="M113 713q-31 72 -101 71q-14 0 -14 36t14 36q63 -6 193 -6q156 0 219 6q14 0 14 -36t-14 -36q-70 0 -70 -45q0 -18 2 -26l146 -457q4 -14 12 -14q6 0 14 14l156 451q4 12 4 24q0 53 -90 53q-14 0 -14 36t14 36q59 -6 180 -6q92 0 156 6q14 0 14 -36t-14 -36
q-98 0 -125 -71l-258 -674q-27 -61 -80 -62q-51 0 -72 52z" />
    <glyph glyph-name="w" unicode="w" horiz-adv-x="1456" 
d="M113 713q-31 72 -101 71q-14 0 -14 36t14 36q63 -6 193 -6q156 0 219 6q14 0 14 -36t-14 -36q-70 0 -70 -45q0 -18 6 -39l142 -444q4 -14 12 -14t14 14l123 358q4 12 4 22.5t-4 22.5l-22 54q-31 72 -88 71q-16 0 -16.5 36t16.5 36q59 -6 180 -6q160 0 219 6q16 0 16 -36
t-16 -36q-70 0 -70 -47q0 -14 7 -37l141 -444q4 -14 12 -14t14 14l156 451q4 12 4 24q0 53 -90 53q-14 0 -14 36t14 36q63 -6 180 -6q96 0 156 6q14 0 14 -36t-14 -36q-98 0 -125 -71l-258 -674q-23 -61 -76 -61.5t-76 51.5l-178 426q-4 12 -12 13t-14 -13l-160 -416
q-25 -61 -78 -62q-49 0 -74 52z" />
    <glyph glyph-name="x" unicode="x" horiz-adv-x="948" 
d="M811 154q63 -86 135 -86q16 0 16.5 -38t-16.5 -38q-80 8 -219 8q-150 0 -229 -8q-16 0 -16.5 38t16.5 38q82 0 82 24q0 10 -31 55l-105 152q-6 8 -18 8q-8 0 -16 -10l-111 -133q-47 -55 -47 -74q0 -25 59 -22q16 0 16.5 -38t-16.5 -38q-80 8 -164 8q-82 0 -161 -8
q-16 0 -16.5 38t16.5 38q100 0 155 67l205 250q10 12 10 27q0 10 -6 22l-221 281q-53 70 -113 69q-14 0 -15 36t15 36q63 -6 213 -6q154 0 213 6q16 0 16.5 -36t-16.5 -36q-61 0 -61 -28q0 -18 25 -54l75 -106q6 -10 19 -10q10 0 18 10l72 90q33 43 33 66q0 33 -72 32
q-16 0 -16 36t16 36q59 -6 166 -6q104 0 168 6q14 0 14 -36t-14 -36q-63 0 -119 -65l-182 -217q-10 -12 -11 -25q0 -10 11 -22z" />
    <glyph glyph-name="y" unicode="y" horiz-adv-x="882" 
d="M338 -399q-41 -106 -127 -142q-33 -12 -70 -12q-61 0 -100 43q-27 31 -27 68q0 61 60 92q31 14 65 14q104 0 121 39l78 182q6 18 6 35t-6 35l-270 758q-27 72 -107 71q-14 0 -14 36t14 36q63 -6 203 -6q147 0 211 6q14 0 14 -36t-14 -36q-80 0 -80 -47q0 -14 8 -37
l152 -424q6 -20 16 -20q12 0 23 23l165 421q4 12 5 23q0 61 -121 61q-16 0 -16.5 36t16.5 36q59 -6 194 -6q115 0 174 6q16 0 16.5 -36t-16.5 -36q-92 0 -125 -59z" />
    <glyph glyph-name="z" unicode="z" horiz-adv-x="768" 
d="M766 264l-25 -188q-2 -35 -2 -60q0 -41 -39 -41q-10 0 -96 15q-53 10 -92 10h-442q-41 0 -41 37q0 12 8 31l356 659q8 16 8 27q0 20 -28 20h-111q-63 0 -125 -129l-45 -102q-4 -8 -18 -8q-18 0 -35 12q-12 8 -14 22q29 252 30 256q6 43 31 45q158 -20 211 -20h348
q45 0 45 -33q0 -18 -8 -33l-358 -665q-4 -6 -5 -15q0 -25 29 -24h109q131 0 225 205q4 10 27 12q8 0 26 -4q31 -11 31 -29z" />
    <glyph glyph-name="braceleft" unicode="{" horiz-adv-x="782" 
d="M715 -319q-176 0 -240 10q-139 25 -188 125q-37 72 -37 190v424q0 115 -76 143q-31 12 -78 13q-14 0 -14 30.5t14 30.5q117 0 144 78q10 29 10 72v325q0 219 82 297q61 59 205 70q53 4 176 4q14 0 14 -38t-12 -38q-133 0 -185 -37q-70 -47 -69 -196v-234q0 -143 -17 -200
q-25 -84 -110 -134q90 -55 115 -153q12 -55 12 -158v-266q0 -164 43 -221q43 -61 209 -62q16 0 16 -37.5t-14 -37.5z" />
    <glyph glyph-name="bar" unicode="|" horiz-adv-x="534" 
d="M197 -334v1768h194v-1768h-194z" />
    <glyph glyph-name="braceright" unicode="}" horiz-adv-x="782" 
d="M80 -319q-16 0 -16.5 37.5t16.5 37.5q135 0 184 35q68 49 68 248v266q0 147 33 213q29 59 96 98q-90 53 -115 150q-12 53 -12 184v234q0 152 -76 200q-51 33 -178 33q-16 0 -16.5 38t16.5 38q195 0 266 -16q117 -27 158 -117q39 -88 39 -238v-325q0 -113 78 -140
q31 -10 75 -10q16 0 16.5 -30.5t-14.5 -30.5q-113 0 -141 -74q-12 -33 -12 -82v-424q0 -203 -119 -278q-74 -47 -346 -47z" />
    <glyph glyph-name="asciitilde" unicode="~" horiz-adv-x="741" 
d="M735 518l-78 -88q-84 -86 -176 -84q-51 0 -145 43q-88 43 -129 47q-10 0 -19 2q-45 0 -112 -55l-17 -14v-2q-4 -4 -12 -5l-12 5q-23 10 -31 32l-2 13q0 2 4 4l64 71q84 86 190 86q51 0 148 -45q86 -41 122 -45h11q45 0 96 41q35 31 43 37l10 2q23 -2 41 -24l6 -13z" />
    <glyph glyph-name="uni00A0" unicode="&#xa0;" horiz-adv-x="557" 
 />
    <glyph glyph-name="exclamdown" unicode="&#xa1;" horiz-adv-x="518" 
d="M119 725q0 61 45 101t111.5 40t111.5 -43t45 -105.5t-41 -109.5t-116.5 -47t-115.5 48t-40 116zM135 -438q0 119 70 594q14 90 20 245q0 20 50.5 20.5t52.5 -20.5q2 -102 41 -439t39 -368q0 -72 -42 -111.5t-94 -39.5q-68 0 -102.5 35t-34.5 84z" />
    <glyph glyph-name="cent" unicode="&#xa2;" horiz-adv-x="878" 
d="M797 393q27 -45 8 -55l-82 -53q-117 -66 -266 -66h-21l-33 -190q0 -8 -22 -9q-14 0 -35 5q-53 8 -51 20l33 199q-131 49 -203 172q-59 98 -59 217q0 172 104 309q123 160 309 176l35 193q0 6 21 8q25 0 57.5 -10.5t32.5 -18.5l-31 -174q143 -10 205 -86q6 -16 6 -41
q0 -55 -31 -84q-35 -35 -57 -35q-43 0 -64 29q-6 8 -39 68q-10 18 -39 37l-110 -625q47 -20 78 -21q127 0 207 64q22 12 47 -29zM463 1018q-78 -25 -125 -129q-43 -90 -43 -207q0 -121 72 -215z" />
    <glyph glyph-name="sterling" unicode="&#xa3;" horiz-adv-x="1261" 
d="M688 489q0 -162 -74 -307q117 -41 240 -41q115 0 219 70q63 43 78 43q39 0 39 -31q0 -14 -10 -35q-53 -135 -168 -194q-68 -35 -146 -35q-135 0 -315 129q-117 -129 -283 -129q-117 0 -172 74q-29 37 -28 80q0 74 69 116q57 37 144 37q86 -4 206 -45q14 53 15 125
q0 127 -60 295h-239q-16 0 -17 47q0 49 17 51h203q-49 123 -50 254q0 160 123 269q121 109 301 108q66 0 172 -35q154 -47 156 -106q0 -86 -16 -189q-10 -66 -48 -65q-43 0 -73 115q-12 47 -13 49q-47 160 -188 159q-201 0 -201 -219q0 -88 84 -340h289q16 0 16 -49t-16 -49
h-268q14 -74 14 -152zM457 145q-88 49 -174 50q-82 0 -113 -48q-10 -16 -10 -32q0 -45 47 -68q27 -12 61 -12q121 -1 189 110z" />
    <glyph glyph-name="currency" unicode="&#xa4;" horiz-adv-x="1024" 
d="M946 668q0 -145 -88 -262l78 -78l2 -6q-4 -23 -45 -58l-25 -18l-12 -4q-2 0 -4 2l-78 78q-119 -88 -260 -89q-145 0 -262 91l-80 -80l-6 -2q-20 4 -57 45q-20 25 -23 37q0 2 2 4l80 80q-88 115 -88 260t88 260l-80 80l-2 8q4 20 45 55q25 20 37 23q2 0 4 -2l80 -80
q119 90 260 90q143 0 262 -88l78 78l6 2q20 -4 57 -45l19 -25l4 -12l-2 -4l-78 -78q88 -119 88 -262zM733 889q-90 90 -221 90q-129 0 -221 -92l-29 -33q-61 -84 -61 -186q0 -129 92 -222q90 -90 219 -90q131 0 221 93q92 90 92 219t-92 221z" />
    <glyph glyph-name="yen" unicode="&#xa5;" horiz-adv-x="1419" 
d="M426 821h-250q-14 0 -14 71t14 71h160l-174 274q-55 86 -107 111q-31 14 -69 14q-14 0 -17 49l4 33q4 18 13 18q59 -6 280 -6t285 6q14 0 14 -51l-2 -33q-4 -16 -12 -16q-113 0 -119 -57l2 -23l12 -29l9 -16l272 -434q10 -16 21.5 -16.5t23.5 18.5l287 424q25 37 24 65
q0 12 -4 23q-20 45 -108 45q-14 0 -17 49l4 33q4 18 13 18q59 -6 237 -6q190 0 250 6q14 0 17 -49l-5 -33l-6 -14q-2 -4 -6 -4q-115 0 -190 -72q-39 -37 -117 -147l-18 -29l-105 -151h182q14 0 17 -70l-4 -45l-6 -23q-2 -4 -7 -4h-280l-60 -86q-37 -53 -47 -80h387
q14 0 17 -67l-4 -47l-6 -23q-2 -4 -7 -4h-397v-297q0 -86 59 -111q35 -14 99 -14q14 0 14 -50t-14 -50q-84 8 -285 8q-209 0 -293 -8q-14 0 -14 50t14 50q102 0 133 33q25 27 25 92v297h-375q-14 0 -14 70q0 49 8 65q2 4 6 6h352q-16 33 -47 78z" />
    <glyph glyph-name="brokenbar" unicode="&#xa6;" horiz-adv-x="534" 
d="M391 795h-194v577h194v-577zM391 109h-194v579h194v-579z" />
    <glyph glyph-name="section" unicode="&#xa7;" horiz-adv-x="954" 
d="M915 481q0 -172 -178 -270q127 -123 127 -248q0 -150 -116 -256q-123 -111 -293 -110q-84 0 -197 43q-176 63 -176 157q0 43 55 82q39 29 70 29t69 -60l58 -84q57 -84 137 -83q90 0 147 77q41 57 41 131q0 90 -122 179q-51 35 -189 110q-160 90 -221 168q-70 84 -70 182
q0 123 99 222q37 37 82 61q-104 106 -105 227q0 147 113 246q111 96 264 96q84 0 172 -37q135 -59 143 -131q0 -45 -47 -84q-33 -27 -67 -26q-29 0 -58 49l-43 72q-43 74 -125 73q-76 0 -127 -65q-37 -49 -36 -109q0 -88 118 -170q31 -20 166 -96q158 -86 223 -162
q86 -94 86 -213zM727 426q0 96 -215 211q-92 51 -197 121q-74 -68 -73 -160q0 -80 161 -176q133 -76 261 -160q63 58 63 164z" />
    <glyph glyph-name="dieresis" unicode="&#xa8;" horiz-adv-x="776" 
d="M690 1180q0 -80 -59 -115q-29 -16 -66 -16q-84 0 -114 61q-12 25 -15 59q0 74 58 111q33 20 71 20q68 0 105 -55q20 -28 20 -65zM342 1180q0 -80 -61 -115q-29 -16 -66 -16q-86 0 -115 61q-12 25 -14 59q0 74 57 111q33 20 72 20q68 0 104 -55q23 -30 23 -65z" />
    <glyph glyph-name="copyright" unicode="&#xa9;" horiz-adv-x="1609" 
d="M1532 748q0 -244 -148 -439q-59 -76 -135 -133q-195 -150 -438.5 -149.5t-435.5 147.5q-178 137 -250 350q-35 109 -35 224q0 244 148 438q137 178 350 248q109 35 223 34q244 0 436 -147q178 -137 250 -350q35 -108 35 -223zM1430 748q0 217 -138 389q-127 158 -323 209
q-78 20 -158 20q-219 0 -387 -137q-51 -41 -94 -92q-137 -170 -137 -389q0 -217 137 -388q127 -160 323 -210q78 -20 158 -21q217 0 387 137q160 127 211 324q21 76 21 158zM1108 561q-2 -37 -35 -108l-16 -39l-4 -4q-33 -6 -47 -11q-90 -25 -191 -24q-164 0 -274 104
q-106 100 -111 246v12q0 170 109 283q111 115 286 113q66 0 193 -25l4 -2q10 -2 43 -2q16 -37 22 -162v-14q0 -10 -28 -13l-19 5q-4 2 -4 4q-14 154 -196 161h-17q-127 0 -194 -112q-53 -86 -54 -205q0 -195 113 -291q63 -51 133 -51q186 0 236 149q2 6 12 7q23 0 37 -15z
" />
    <glyph glyph-name="ordfeminine" unicode="&#xaa;" horiz-adv-x="530" 
d="M537 874q-41 -70 -117 -69q-61 0 -101 49q-10 12 -14 12l-8 -4q-2 -2 -8 -6q-55 -51 -123 -51q-90 0 -119 65q-8 23 -8 50q0 76 137 147l88 41q20 10 21 29v118q-6 41 -64 43q-51 0 -71 -30q-6 -8 -9 -54q0 -16 -2 -26q-14 -53 -57 -53q-51 4 -55 47q0 49 43 100
q14 18 32 31q74 45 164 45q80 0 131 -43q31 -27 31 -58v-315q0 -53 29 -68l14 -2q18 0 43 23l6 2q10 -2 17 -16v-7zM285 938v113q0 14 -9 16l-8 -2q-86 -45 -86 -119q0 -72 43 -72t56 39q4 13 4 25z" />
    <glyph glyph-name="guillemotleft" unicode="&#xab;" horiz-adv-x="866" 
d="M92 399q-16 18 -16 37t16 37l318 361q12 14 31.5 -3.5t13.5 -27.5l-166 -334q-8 -18 -8 -30.5t6 -22.5l168 -348q6 -14 -14.5 -29.5t-30.5 -1.5zM446 399q-16 18 -16 37t16 37l318 361q12 14 31.5 -3.5t15.5 -27.5l-168 -334q-8 -18 -8 -30.5t4 -22.5l172 -348
q6 -14 -15.5 -29.5t-31.5 -1.5z" />
    <glyph glyph-name="logicalnot" unicode="&#xac;" horiz-adv-x="1363" 
d="M1180 0v483h-1180v174h1366v-657h-186z" />
    <glyph glyph-name="registered" unicode="&#xae;" horiz-adv-x="1609" 
d="M1532 748q0 -244 -148 -439q-59 -76 -135 -133q-195 -150 -438.5 -149.5t-435.5 147.5q-178 137 -250 350q-35 109 -35 224q0 244 148 438q137 178 350 248q109 35 223 34q244 0 436 -147q178 -137 250 -350q35 -108 35 -223zM1430 748q0 217 -138 389q-127 158 -323 209
q-78 20 -158 20q-219 0 -387 -137q-51 -41 -94 -92q-137 -170 -137 -389q0 -217 137 -388q127 -160 323 -210q78 -20 158 -21q217 0 387 137q160 127 211 324q21 76 21 158zM1092 922q0 -121 -152 -181q-12 -4 -10 -12l4 -10q18 -68 176 -230q55 -57 96 -63q14 -2 15 -18
q0 -18 -15 -19h-63q-59 0 -111 29q-74 43 -153 157q-16 25 -58 82q-43 57 -67 58h-9q-2 0 -32 2q-14 0 -15 -12v-195q0 -49 41 -57q16 -2 41 -4q10 0 11 -27q0 -25 -9 -25q-35 4 -148.5 4t-152.5 -4q-8 0 -10 25q0 25 8 24q88 0 88 64v510q0 53 -65 57q-12 0 -27 2
q-6 0 -6 24.5t6 24.5q129 -4 156 -4q23 0 84 2q55 2 78 4q178 0 254 -86q45 -50 45 -122zM954 922q0 74 -61 120q-55 43 -150 45q-37 0 -43 -8q-2 -8 -2 -12v-283q0 -18 13 -20q25 -6 47 -6q170 0 192 127q4 17 4 37z" />
    <glyph glyph-name="macron" unicode="&#xaf;" horiz-adv-x="606" 
d="M528 1239q27 0 27 -51q0 -59 -31 -60h-446q-23 0 -23 58q0 53 23 53h450z" />
    <glyph glyph-name="degree" unicode="&#xb0;" horiz-adv-x="710" 
d="M631 1047q0 -137 -103 -211q-74 -53 -172 -54q-127 0 -204 82q-70 72 -70 183q0 127 94 202q76 61 180 62q123 0 201 -80q74 -75 74 -184zM485 1047q0 96 -63 139q-31 20 -66 20q-68 0 -104 -61q-25 -41 -25 -98q0 -96 64 -140q31 -20 65 -20q70 0 105 61q24 42 24 99z
" />
    <glyph glyph-name="plusminus" unicode="&#xb1;" horiz-adv-x="1062" 
d="M924 629h-299v-342h-181v342h-301v147h301v305h181v-305h299v-147zM924 -6h-781v147h781v-147z" />
    <glyph glyph-name="uni00B2" unicode="&#xb2;" horiz-adv-x="624" 
d="M522 539q-10 -25 -49 -25q-84 4 -154 6h-49q-100 0 -211 -6q-33 0 -32 31q0 12 12 24q98 98 194 230q158 215 158 327q-2 127 -106 127q-92 0 -150 -102q-6 -14 -31 2q-16 10 -10 21q49 98 131 143q51 29 111 29q102 0 162 -68q53 -59 53 -145q0 -119 -170 -310
q-37 -41 -180 -184h184q72 0 96 12q31 14 49 49q6 12 33 2q25 -8 21 -18z" />
    <glyph glyph-name="uni00B3" unicode="&#xb3;" horiz-adv-x="954" 
d="M530 784q0 -109 -75 -186q-88 -92 -226 -92q-88 0 -143 31q-49 27 -49 71q0 59 76 62q29 0 57 -35l31 -37q29 -29 61 -31q63 0 96 84q20 53 21 117q0 82 -49 131q-41 39 -103 39q-37 0 -65 -10q-16 0 -19 35q0 33 15 30q94 0 149 54q43 41 41 98q0 61 -33 96
q-25 25 -59 25q-55 0 -104 -52q-18 -20 -35 -45q-8 -12 -31 7q-16 12 -10 22q59 86 112 121q47 29 109 27q82 0 139 -58q53 -53 53 -129q0 -106 -106 -168q147 -43 147 -207z" />
    <glyph glyph-name="acute" unicode="&#xb4;" horiz-adv-x="567" 
d="M186 1020q-43 0 -43 53q0 20 9 41l120 301q6 16 27 19q33 0 96 -43q39 -27 37 -48q0 -6 -2 -12l-176 -262q-31 -49 -68 -49z" />
    <glyph glyph-name="uni00B5" unicode="&#xb5;" horiz-adv-x="1071" 
d="M1055 31q-16 -6 -129 -29l-27 -6q-102 -27 -131 -31h-12q-10 4 -11 45v47q0 23 -12 23l-12 -4q-6 -2 -14 -10q-84 -76 -199 -86q-27 -2 -55 -3q-55 0 -113 23l-6 -76l8 -284v-2q0 -59 -51 -99q-41 -31 -90 -31q-76 0 -109 62q-14 27 -14 53q0 37 24 240q8 72 11 112
q14 193 14 304v20v356q0 92 -66 103h-18q-14 0 -14 37l2 22q4 12 12 14q98 0 223 19q31 4 51 4q45 0 45 -43v-16q-6 -78 -6 -146v-342q0 -100 45 -164q37 -51 97 -51q96 0 161 60q47 43 48 88v415q0 82 -58 99l-24 4h-2q-14 0 -17 37l4 22q4 12 13 14q111 0 229 19
q25 4 39 4q47 0 53 -37v-29q-8 -86 -8 -126v-406q0 -90 10 -117q14 -41 53 -41q12 0 33 6l8 -2q16 -8 21 -45v-18q-2 -8 -6 -8z" />
    <glyph glyph-name="paragraph" unicode="&#xb6;" horiz-adv-x="1116" 
d="M487 143v414q0 23 -24 23q-213 0 -330 109.5t-117 275.5q0 180 129 286.5t318 106.5q86 0 186.5 -3t241.5 -3t190 6q16 0 16.5 -38t-16.5 -38q-119 0 -118 -74v-1063q0 -78 118 -77q16 0 16.5 -38t-16.5 -38q-80 8 -194 8h-307q-129 0 -209 -8q-16 0 -16.5 38t16.5 38
q116 -1 116 75zM653 145q0 -78 70 -77q74 0 74 75v1065q0 74 -66 74q-78 0 -78 -74v-1063z" />
    <glyph glyph-name="periodcentered" unicode="&#xb7;" horiz-adv-x="591" 
d="M492 512q0 -78 -64 -121q-39 -27 -86 -26q-72 0 -121 45q-45 43 -45 112q0 55 39 101q45 49 127 49q92 0 133 -84q17 -35 17 -76z" />
    <glyph glyph-name="cedilla" unicode="&#xb8;" horiz-adv-x="776" 
d="M618 -324q0 -86 -88 -143q-74 -47 -172 -47q-125 0 -151 61q-6 12 -6 29q0 43 37 62q12 6 28 6q31 0 76 -39q43 -37 64 -37q53 0 53 51q0 78 -142 141q-20 8 -20 19q0 4 6 12l141 209h109l-78 -106q-8 -12 -8 -19q0 -10 27 -25q124 -65 124 -174z" />
    <glyph glyph-name="uni00B9" unicode="&#xb9;" horiz-adv-x="665" 
d="M516 522q-41 4 -194 4q-158 0 -197 -4q-8 0 -8 30t8 30q72 0 92.5 24.5t20.5 91.5v510q0 29 -21 29l-20 -4q-51 -18 -74 -23l-6 2q-14 12 -15 35q0 12 7 15q193 63 284 112q6 4 17 4q8 0 10 -12v-6q-2 -18 -2 -107v-555q0 -80 18.5 -98t79.5 -18q8 0 8 -29l-2 -25
q-4 -6 -6 -6z" />
    <glyph glyph-name="ordmasculine" unicode="&#xba;" horiz-adv-x="622" 
d="M586 1083q0 -145 -92 -221q-70 -57 -181 -57q-119 0 -198 88q-74 80 -74 188q0 119 84 199q78 78 188 78q123 0 203 -88q70 -78 70 -187zM442 1079q0 121 -55 191q-35 43 -74 41q-55 0 -94 -74l-18 -39q-18 -55 -19 -119q0 -117 56 -182q33 -39 75 -39q63 0 101 80
q28 59 28 141z" />
    <glyph glyph-name="guillemotright" unicode="&#xbb;" horiz-adv-x="866" 
d="M793 469q16 -18 17 -36.5t-17 -37.5l-318 -358q-12 -14 -31.5 2t-13.5 29l166 333q8 18 9 29.5t-5 24.5l-170 348q-6 14 14.5 28.5t30.5 2.5zM438 469q16 -18 16.5 -36.5t-16.5 -37.5l-317 -358q-12 -14 -31.5 2t-13.5 29l166 333q8 18 8 29.5t-6 24.5l-168 348
q-6 14 14.5 28.5t30.5 2.5z" />
    <glyph glyph-name="onequarter" unicode="&#xbc;" horiz-adv-x="1507" 
d="M401 700q0 -80 22.5 -106.5t78.5 -26.5q8 0 9 -23.5t-9 -23.5q-49 4 -175 4t-175 -4q-8 0 -9.5 23.5t9.5 23.5q68 0 88 30t20 101v500q0 41 -12 37q-66 -23 -101 -41q-12 -6 -18 14.5t4 24.5q82 35 217 131q16 12 29 12q27 0 27 -33q-4 -43 -5 -98v-545zM1370 96
q0 -55 64 -53q8 0 9 -23.5t-9 -23.5q-49 4 -144.5 4t-148.5 -4q-8 0 -8 23.5t8 23.5q88 0 88 53v133h-285q-53 0 -53 37q0 31 31 76l180 238q117 154 147 202l58 95q8 10 26 10q53 0 53 -33q0 -6 -2 -10l-383 -506q-6 -6 -6 -14q0 -12 13 -13h221v267q0 14 70.5 14t70.5 -14
v-267h76q8 0 9 -41t-9 -41h-76v-133zM1044 1300l-454 -1300h-127l455 1300h126z" />
    <glyph glyph-name="onehalf" unicode="&#xbd;" horiz-adv-x="1507" 
d="M1393 18q-10 -25 -50 -22q-84 4 -153 4h-49q-100 0 -211 -4q-33 0 -33 29q0 12 10 24q98 98 197 230q158 215 158 327q-2 127 -107 127q-92 0 -149 -100q-6 -14 -31 0q-16 10 -10 20q49 98 131 144q51 29 108 28q102 0 162 -67q53 -59 53 -146q0 -119 -170 -309
q-37 -41 -180 -182h184q72 0 99 10q31 14 49 49q6 12 33 2q25 -8 20 -16zM401 700q0 -80 22.5 -106.5t78.5 -26.5q8 0 9 -23.5t-9 -23.5q-49 4 -175 4t-175 -4q-8 0 -9.5 23.5t9.5 23.5q68 0 88 30t20 101v500q0 41 -12 37q-66 -23 -101 -41q-12 -6 -18 14.5t4 24.5
q82 35 217 131q16 12 29 12q27 0 27 -33q-4 -43 -5 -98v-545zM1044 1300l-454 -1300h-127l455 1300h126z" />
    <glyph glyph-name="threequarters" unicode="&#xbe;" horiz-adv-x="1507" 
d="M530 788q0 -109 -75 -186q-88 -92 -226 -90q-88 0 -143 29q-49 27 -49 73q0 59 76 60q29 -2 57 -35l31 -37q29 -29 61 -29q63 0 96 82q20 53 21 119q0 82 -49 129q-41 39 -103 39q-37 0 -65 -10q-16 0 -19 35q0 33 15 32q94 0 149 52q43 41 41 100q0 61 -33 96
q-25 25 -59 25q-55 0 -104 -51q-18 -20 -35 -45q-8 -12 -31 4q-16 12 -10 22q59 86 112 121q47 29 109 29q82 0 139 -60q53 -53 53 -127q0 -106 -106 -170q147 -43 147 -207zM1370 96q0 -55 64 -53q8 0 9 -23.5t-9 -23.5q-49 4 -144.5 4t-148.5 -4q-8 0 -8 23.5t8 23.5
q88 0 88 53v133h-285q-53 0 -53 37q0 31 31 76l180 238q117 154 147 202l58 95q8 10 26 10q53 0 53 -33q0 -6 -2 -10l-383 -506q-6 -6 -6 -14q0 -12 13 -13h221v267q0 14 70.5 14t70.5 -14v-267h76q8 0 9 -41t-9 -41h-76v-133zM1044 1300l-454 -1300h-127l455 1300h126z" />
    <glyph glyph-name="questiondown" unicode="&#xbf;" horiz-adv-x="749" 
d="M174 -113q0 178 102 232l166 82q72 37 72 57q2 53 -18 127q4 27 55 25q16 0 18 -9q80 -147 80 -227q0 -37 -13 -69.5t-39 -53t-62 -39.5l-105 -55q-127 -63 -127 -111q0 -57 43 -98t164 -49l78 -6q31 -2 68.5 -37t37.5 -90q0 -43 -35.5 -74t-87.5 -31q-94 0 -181 61.5
t-151.5 158.5t-64.5 206zM377 709q0 61 44 101t110.5 40t112.5 -44t46 -105.5t-41 -107.5t-117.5 -46t-115.5 47t-39 115z" />
    <glyph glyph-name="Agrave" unicode="&#xc0;" horiz-adv-x="1400" 
d="M801 1579q18 -14 28.5 -31.5t10.5 -34.5q0 -18 -15.5 -28t-35.5 -10q-23 0 -54 14l-274 125q-8 4 -13.5 12t-5.5 21q0 25 21.5 61.5t42 51t31.5 14.5q6 0 12 -5zM1196 203q41 -117 203 -117q14 0 14 -46t-14 -46q-115 6 -265.5 6t-275.5 -6q-14 0 -14 46t14 46
q96 0 96 66q0 20 -10 51l-100 297q-6 23 -33 22h-375q-20 0 -30 -28l-109 -293q-8 -25 -10 -41q0 -74 147 -74q12 0 12 -46t-12 -46q-84 6 -233.5 6t-227.5 -6q-14 0 -14 46t14 46q152 0 201 131l371 969q12 31 12 38t-14.5 21.5t-14.5 22.5q0 14 34 25.5t103.5 53.5
t90.5 42q33 0 44 -47.5t52 -163.5zM649 1067q-4 16 -16 16q-10 0 -17 -16l-157 -432l-4 -17q0 -10 20 -12h293q29 0 29 23q0 6 -4 14z" />
    <glyph glyph-name="Aacute" unicode="&#xc1;" horiz-adv-x="1400" 
d="M932 1649q0 -10 -3 -16.5t-7 -8.5l-289 -135q-31 -14 -51 -14q-18 0 -34.5 11t-16.5 30q0 14 11 32.5t28 30.5l260 199q6 6 14 6t20.5 -7.5t27 -31t27.5 -52t13 -44.5zM1196 203q41 -117 203 -117q14 0 14 -46t-14 -46q-115 6 -265.5 6t-275.5 -6q-14 0 -14 46t14 46
q96 0 96 66q0 20 -10 51l-100 297q-6 23 -33 22h-375q-20 0 -30 -28l-109 -293q-8 -25 -10 -41q0 -74 147 -74q12 0 12 -46t-12 -46q-84 6 -233.5 6t-227.5 -6q-14 0 -14 46t14 46q152 0 201 131l371 969q12 31 12 38t-14.5 21.5t-14.5 22.5q0 14 34 25.5t103.5 53.5
t90.5 42q33 0 44 -47.5t52 -163.5zM649 1067q-4 16 -16 16q-10 0 -17 -16l-157 -432l-4 -17q0 -10 20 -12h293q29 0 29 23q0 6 -4 14z" />
    <glyph glyph-name="Acircumflex" unicode="&#xc2;" horiz-adv-x="1400" 
d="M1026 1524q4 -4 4 -11q0 -8 -8 -20q-10 -18 -20 -18h-2l-269 124q-18 8 -36.5 8.5t-36.5 -8.5l-267 -124h-2q-10 4 -22 18q-8 14 -11 23q0 4 5 8l282 252q27 23 51.5 22.5t49.5 -22.5zM1196 203q41 -117 203 -117q14 0 14 -46t-14 -46q-115 6 -265.5 6t-275.5 -6
q-14 0 -14 46t14 46q96 0 96 66q0 20 -10 51l-100 297q-6 23 -33 22h-375q-20 0 -30 -28l-109 -293q-8 -25 -10 -41q0 -74 147 -74q12 0 12 -46t-12 -46q-84 6 -233.5 6t-227.5 -6q-14 0 -14 46t14 46q152 0 201 131l371 969q12 31 12 38t-14.5 21.5t-14.5 22.5
q0 14 34 25.5t103.5 53.5t90.5 42q33 0 44 -47.5t52 -163.5zM649 1067q-4 16 -16 16q-10 0 -17 -16l-157 -432l-4 -17q0 -10 20 -12h293q29 0 29 23q0 6 -4 14z" />
    <glyph glyph-name="Atilde" unicode="&#xc3;" horiz-adv-x="1400" 
d="M1020 1712q-111 -164 -219 -163q-41 0 -127 30q-94 33 -127 33q-63 0 -111 -59q-2 -2 -8 -2q-8 0 -22.5 14t-16.5 22q0 2 2 7q106 160 220 159q49 0 133 -32q76 -27 108 -27q63 0 123 61q2 2 6 2q8 0 25 -12q18 -16 16 -26q0 -5 -2 -7zM1196 203q41 -117 203 -117
q14 0 14 -46t-14 -46q-115 6 -265.5 6t-275.5 -6q-14 0 -14 46t14 46q96 0 96 66q0 20 -10 51l-100 297q-6 23 -33 22h-375q-20 0 -30 -28l-109 -293q-8 -25 -10 -41q0 -74 147 -74q12 0 12 -46t-12 -46q-84 6 -233.5 6t-227.5 -6q-14 0 -14 46t14 46q152 0 201 131l371 969
q12 31 12 38t-14.5 21.5t-14.5 22.5q0 14 34 25.5t103.5 53.5t90.5 42q33 0 44 -47.5t52 -163.5zM649 1067q-4 16 -16 16q-10 0 -17 -16l-157 -432l-4 -17q0 -10 20 -12h293q29 0 29 23q0 6 -4 14z" />
    <glyph glyph-name="Adieresis" unicode="&#xc4;" horiz-adv-x="1400" 
d="M1030 1632q0 -80 -59 -114q-29 -18 -66 -19q-84 0 -117 66q-12 25 -12 57q0 74 58 111q33 20 71 18q68 0 105 -53q20 -29 20 -66zM600 1632q0 -80 -59 -114q-29 -18 -66 -19q-84 0 -117 66q-12 25 -12 57q0 74 57 111q33 20 72 18q68 0 105 -53q20 -31 20 -66zM1196 203
q41 -117 203 -117q14 0 14 -46t-14 -46q-115 6 -265.5 6t-275.5 -6q-14 0 -14 46t14 46q96 0 96 66q0 20 -10 51l-100 297q-6 23 -33 22h-375q-20 0 -30 -28l-109 -293q-8 -25 -10 -41q0 -74 147 -74q12 0 12 -46t-12 -46q-84 6 -233.5 6t-227.5 -6q-14 0 -14 46t14 46
q152 0 201 131l371 969q12 31 12 38t-14.5 21.5t-14.5 22.5q0 14 34 25.5t103.5 53.5t90.5 42q33 0 44 -47.5t52 -163.5zM649 1067q-4 16 -16 16q-10 0 -17 -16l-157 -432l-4 -17q0 -10 20 -12h293q29 0 29 23q0 6 -4 14z" />
    <glyph glyph-name="Aring" unicode="&#xc5;" horiz-adv-x="1400" 
d="M1399 -6q-133 6 -270.5 6t-270.5 -6q-14 0 -14 45q0 20 4 35q4 12 10 12q94 0 96 66q0 23 -10 51l-100 297q-8 23 -33 22h-375q-20 0 -30 -28l-109 -293q-8 -25 -10 -41q0 -14 4 -27q27 -47 143 -47q12 0 12 -46t-12 -46q-139 6 -230 6t-231 -6q-14 0 -14 46t14 46
q152 0 201 131l426 1116q-69 24 -105 80t-36 117q0 92 66.5 150.5t160.5 58.5q110 0 168 -63t64 -146q0 -63 -34.5 -114.5t-84.5 -72.5l4 -14q8 -35 49 -151l344 -975q23 -63 107 -97q47 -20 96 -20q14 0 14 -45q0 -20 -4 -37q-4 -10 -10 -10zM788 1530q0 58 -27 95.5
t-75 37.5q-46 -3 -72 -39t-26 -94q0 -51 23 -90t75 -39q63 0 90 65q12 29 12 64zM793 643l-144 424q-4 16 -14 16t-19 -16l-157 -426q-4 -10 -4 -16q0 -16 26 -19h287q29 0 29 17q0 10 -4 20z" />
    <glyph glyph-name="AE" unicode="&#xc6;" horiz-adv-x="1847" 
d="M1769 49q0 -27 -6 -35q-18 -20 -94 -20q-186 0 -393 3t-336 3q-156 0 -262 -6q-14 0 -14 46t14 46q153 0 153 109v374q0 31 -28 31h-334q-27 0 -37 -18l-207 -396q-12 -27 -12 -45q0 -55 139 -55q15 0 15 -46t-15 -46q-117 6 -215 6q-150 0 -250 -6q-14 0 -14 46t14 46
q90 0 140 45q29 27 61 82l571 967q18 29 19 47q0 39 -84 39q-14 0 -14 46t14 46q141 -6 379 -6q121 0 274.5 3t337.5 3q72 0 86 -4q16 -6 17 -41v-303q0 -17 -50.5 -17t-50.5 17q0 252 -229 258l-250 4q-31 0 -31 -43v-516q0 -29 29 -29h180q78 0 78 176q0 14 48 14t48 -14
q-6 -90 -8 -215q0 -135 8 -207q0 -12 -48 -12t-48 12q0 158 -78 162h-180q-29 0 -29 -33v-295q0 -195 129 -194l244 8q217 6 217 250q0 16 51 16t51 -16v-287zM831 713v497q0 16 -10 19q-10 0 -20 -19l-287 -497q-4 -6 -4 -13q0 -16 16 -16h275q30 0 30 29z" />
    <glyph glyph-name="Ccedilla" unicode="&#xc7;" horiz-adv-x="1347" 
d="M946 -336q0 -86 -81 -137t-179 -53q-125 0 -149 61q-6 12 -7 29q0 43 35 61q12 6 31 6q31 0 74 -37.5t65 -37.5q53 0 53 51q0 78 -143 141q-18 8 -18 19q0 4 6 12l131 194q-289 2 -499 191.5t-210 482.5q0 313 205 525t535 212q129 0 338 -43q55 -10 106 -12
q33 -90 41 -325q0 -18 -46 -21.5t-48 12.5q-10 111 -65.5 177.5t-139.5 95t-193 28.5q-207 0 -333.5 -167.5t-126.5 -423.5q0 -297 140 -467t316 -170q342 0 441 276q6 18 51 8t45 -30q-4 -57 -42 -153.5t-62 -131.5q-47 -6 -89 -21q-115 -33 -256 -41l-67 -94
q-10 -14 -10 -18q0 -8 28 -25q123 -65 123 -174z" />
    <glyph glyph-name="Egrave" unicode="&#xc8;" horiz-adv-x="1249" 
d="M815 1579q18 -14 28.5 -31.5t10.5 -34.5q0 -18 -15.5 -28t-35.5 -10q-23 0 -54 14l-274 125q-8 4 -13.5 12t-5.5 21q0 25 21.5 61.5t42 51t31.5 14.5q6 0 12 -5zM238 203v952q0 109 -172 111q-14 0 -14 46t14 46q143 -6 299 -6t370.5 3t335.5 3q57 0 57 -51v-306
q0 -17 -50 -17t-50 17q0 129 -98 205q-61 47 -125 49l-297 11q-27 0 -27 -41v-508q0 -29 29 -31h135q123 0 123 92v99q0 14 52 14t52 -14q-6 -68 -6 -232t6 -225q0 -14 -52 -15.5t-52 15.5v86q0 88 -123 88h-135q-29 0 -29 -31v-342q0 -78 74 -115q39 -20 82 -20l223 4
q158 2 205 137q18 49 18 117q0 16 51.5 16t51.5 -16v-287q0 -63 -119 -63q-186 0 -359 3t-335 3t-297 -6q-15 0 -15 46t15 46q162 0 162 117z" />
    <glyph glyph-name="Eacute" unicode="&#xc9;" horiz-adv-x="1249" 
d="M866 1649q0 -10 -3 -16.5t-7 -8.5l-289 -135q-31 -14 -51 -14q-18 0 -34.5 11t-16.5 30q0 14 11 32.5t28 30.5l260 199q6 6 14 6t20.5 -7.5t27 -31t27.5 -52t13 -44.5zM238 203v952q0 109 -172 111q-14 0 -14 46t14 46q143 -6 299 -6t370.5 3t335.5 3q57 0 57 -51v-306
q0 -17 -50 -17t-50 17q0 129 -98 205q-61 47 -125 49l-297 11q-27 0 -27 -41v-508q0 -29 29 -31h135q123 0 123 92v99q0 14 52 14t52 -14q-6 -68 -6 -232t6 -225q0 -14 -52 -15.5t-52 15.5v86q0 88 -123 88h-135q-29 0 -29 -31v-342q0 -78 74 -115q39 -20 82 -20l223 4
q158 2 205 137q18 49 18 117q0 16 51.5 16t51.5 -16v-287q0 -63 -119 -63q-186 0 -359 3t-335 3t-297 -6q-15 0 -15 46t15 46q162 0 162 117z" />
    <glyph glyph-name="Ecircumflex" unicode="&#xca;" horiz-adv-x="1249" 
d="M971 1524q4 -4 4 -11q0 -8 -8 -20q-10 -18 -20 -18h-2l-269 124q-18 8 -36.5 8.5t-36.5 -8.5l-267 -124h-2q-10 4 -22 18q-8 14 -11 23q0 4 5 8l282 252q27 23 51.5 22.5t49.5 -22.5zM238 203v952q0 109 -172 111q-14 0 -14 46t14 46q143 -6 299 -6t370.5 3t335.5 3
q57 0 57 -51v-306q0 -17 -50 -17t-50 17q0 129 -98 205q-61 47 -125 49l-297 11q-27 0 -27 -41v-508q0 -29 29 -31h135q123 0 123 92v99q0 14 52 14t52 -14q-6 -68 -6 -232t6 -225q0 -14 -52 -15.5t-52 15.5v86q0 88 -123 88h-135q-29 0 -29 -31v-342q0 -78 74 -115
q39 -20 82 -20l223 4q158 2 205 137q18 49 18 117q0 16 51.5 16t51.5 -16v-287q0 -63 -119 -63q-186 0 -359 3t-335 3t-297 -6q-15 0 -15 46t15 46q162 0 162 117z" />
    <glyph glyph-name="Edieresis" unicode="&#xcb;" horiz-adv-x="1249" 
d="M956 1632q0 -80 -59 -114q-29 -18 -66 -19q-84 0 -117 66q-12 25 -12 57q0 74 58 111q33 20 71 18q68 0 105 -53q20 -29 20 -66zM526 1632q0 -80 -59 -114q-29 -18 -66 -19q-84 0 -117 66q-12 25 -12 57q0 74 57 111q33 20 72 18q68 0 105 -53q20 -31 20 -66zM238 203
v952q0 109 -172 111q-14 0 -14 46t14 46q143 -6 299 -6t370.5 3t335.5 3q57 0 57 -51v-306q0 -17 -50 -17t-50 17q0 129 -98 205q-61 47 -125 49l-297 11q-27 0 -27 -41v-508q0 -29 29 -31h135q123 0 123 92v99q0 14 52 14t52 -14q-6 -68 -6 -232t6 -225q0 -14 -52 -15.5
t-52 15.5v86q0 88 -123 88h-135q-29 0 -29 -31v-342q0 -78 74 -115q39 -20 82 -20l223 4q158 2 205 137q18 49 18 117q0 16 51.5 16t51.5 -16v-287q0 -63 -119 -63q-186 0 -359 3t-335 3t-297 -6q-15 0 -15 46t15 46q162 0 162 117z" />
    <glyph glyph-name="Igrave" unicode="&#xcc;" horiz-adv-x="733" 
d="M457 1579q18 -14 28.5 -31.5t10.5 -34.5q0 -18 -15.5 -28t-35.5 -10q-23 0 -54 14l-274 125q-8 4 -13.5 12t-5.5 21q0 25 21.5 61.5t42 51t31.5 14.5q6 0 12 -5zM76 -6q-15 0 -15 46t15 46q162 0 162 117v950q0 117 -162 117q-14 0 -14 47t14 47q47 -6 283.5 -6t283.5 6
q14 0 14 -47t-14 -47q-162 0 -162 -117v-950q0 -117 158 -117q14 0 14 -46t-14 -46q-133 6 -286 6t-277 -6z" />
    <glyph glyph-name="Iacute" unicode="&#xcd;" horiz-adv-x="733" 
d="M606 1649q0 -10 -3 -16.5t-7 -8.5l-289 -135q-31 -14 -51 -14q-18 0 -34.5 11t-16.5 30q0 14 11 32.5t28 30.5l260 199q6 6 14 6t20.5 -7.5t27 -31t27.5 -52t13 -44.5zM76 -6q-15 0 -15 46t15 46q162 0 162 117v950q0 117 -162 117q-14 0 -14 47t14 47q47 -6 283.5 -6
t283.5 6q14 0 14 -47t-14 -47q-162 0 -162 -117v-950q0 -117 158 -117q14 0 14 -46t-14 -46q-133 6 -286 6t-277 -6z" />
    <glyph glyph-name="Icircumflex" unicode="&#xce;" horiz-adv-x="733" 
d="M690 1524q4 -4 4 -11q0 -8 -8 -20q-10 -18 -20 -18h-2l-269 124q-18 8 -36.5 8.5t-36.5 -8.5l-267 -124h-2q-10 4 -22 18q-8 14 -11 23q0 4 5 8l282 252q27 23 51.5 22.5t49.5 -22.5zM76 -6q-15 0 -15 46t15 46q162 0 162 117v950q0 117 -162 117q-14 0 -14 47t14 47
q47 -6 283.5 -6t283.5 6q14 0 14 -47t-14 -47q-162 0 -162 -117v-950q0 -117 158 -117q14 0 14 -46t-14 -46q-133 6 -286 6t-277 -6z" />
    <glyph glyph-name="Idieresis" unicode="&#xcf;" horiz-adv-x="733" 
d="M706 1632q0 -80 -59 -114q-29 -18 -66 -19q-84 0 -117 66q-12 25 -12 57q0 74 58 111q33 20 71 18q68 0 105 -53q20 -29 20 -66zM276 1632q0 -80 -59 -114q-29 -18 -66 -19q-84 0 -117 66q-12 25 -12 57q0 74 57 111q33 20 72 18q68 0 105 -53q20 -31 20 -66zM76 -6
q-15 0 -15 46t15 46q162 0 162 117v950q0 117 -162 117q-14 0 -14 47t14 47q47 -6 283.5 -6t283.5 6q14 0 14 -47t-14 -47q-162 0 -162 -117v-950q0 -117 158 -117q14 0 14 -46t-14 -46q-133 6 -286 6t-277 -6z" />
    <glyph glyph-name="Eth" unicode="&#xd0;" horiz-adv-x="1566" 
d="M1487 725q0 -338 -201 -537q-199 -197 -520 -194q-109 0 -222.5 3t-203.5 3q-166 0 -264 -6q-14 0 -15.5 46t15.5 46q162 0 162 117v391q0 31 -29 31h-180q-14 0 -14.5 47t14.5 47h180q29 0 29 29v407q0 109 -172 111q-14 0 -14.5 46t14.5 46q143 -6 286 -6q61 0 161.5 3
t205.5 3q303 0 510 -139q258 -175 258 -494zM1214 717q0 176 -98 323q-164 240 -479 240h-80q-76 0 -76 -80v-452q0 -29 27 -29h229q12 0 13.5 -47t-13.5 -47h-229q-27 0 -27 -31v-322q0 -150 86 -186q39 -16 131 -14q213 0 353 151q163 181 163 494z" />
    <glyph glyph-name="Ntilde" unicode="&#xd1;" horiz-adv-x="1480" 
d="M1053 1712q-111 -164 -219 -163q-41 0 -127 30q-94 33 -127 33q-63 0 -111 -59q-2 -2 -8 -2q-8 0 -22.5 14t-16.5 22q0 2 2 7q106 160 220 159q49 0 133 -32q76 -27 108 -27q63 0 123 61q2 2 6 2q8 0 25 -12q18 -16 16 -26q0 -5 -2 -7zM1288 76q0 -96 -31 -96
q-27 0 -73 57l-824 977q-12 16 -18 16q-12 0 -14 -22v-805q0 -117 151 -117q14 0 14.5 -47t-14.5 -45q-92 6 -200 6q-102 0 -213 -6q-14 -2 -14.5 45t14.5 47q160 0 157 117v952q0 115 -172 115q-12 0 -12 47t12 47q49 -4 176 -6q84 0 99 -2q59 -8 100 -58l711 -866
q10 -14 24 -14q25 0 25 31v702q0 119 -154 119q-14 0 -14 47t14 47q102 -4 199 -6q100 0 192 6q14 0 14.5 -47t-14.5 -47q-135 0 -135 -119v-1075z" />
    <glyph glyph-name="Ograve" unicode="&#xd2;" horiz-adv-x="1523" 
d="M850 1579q18 -14 28.5 -31.5t10.5 -34.5q0 -18 -15.5 -28t-35.5 -10q-23 0 -54 14l-274 125q-8 4 -13.5 12t-5.5 21q0 25 21.5 61.5t42 51t31.5 14.5q6 0 12 -5zM1430 664q0 -219 -146 -418q-203 -272 -543 -273q-225 0 -405 123q-281 195 -281 572q0 252 176 473
q195 244 514 243q246 0 426 -153q259 -225 259 -567zM1157 649q0 256 -125 438q-141 211 -293 209q-154 0 -266 -129q-145 -166 -145 -442q0 -303 153 -496q129 -162 275 -161q264 0 356 278q45 131 45 303z" />
    <glyph glyph-name="Oacute" unicode="&#xd3;" horiz-adv-x="1523" 
d="M995 1649q0 -10 -3 -16.5t-7 -8.5l-289 -135q-31 -14 -51 -14q-18 0 -34.5 11t-16.5 30q0 14 11 32.5t28 30.5l260 199q6 6 14 6t20.5 -7.5t27 -31t27.5 -52t13 -44.5zM1430 664q0 -219 -146 -418q-203 -272 -543 -273q-225 0 -405 123q-281 195 -281 572q0 252 176 473
q195 244 514 243q246 0 426 -153q259 -225 259 -567zM1157 649q0 256 -125 438q-141 211 -293 209q-154 0 -266 -129q-145 -166 -145 -442q0 -303 153 -496q129 -162 275 -161q264 0 356 278q45 131 45 303z" />
    <glyph glyph-name="Ocircumflex" unicode="&#xd4;" horiz-adv-x="1523" 
d="M1071 1524q4 -4 4 -11q0 -8 -8 -20q-10 -18 -20 -18h-2l-269 124q-18 8 -36.5 8.5t-36.5 -8.5l-267 -124h-2q-10 4 -22 18q-8 14 -11 23q0 4 5 8l282 252q27 23 51.5 22.5t49.5 -22.5zM1430 664q0 -219 -146 -418q-203 -272 -543 -273q-225 0 -405 123q-281 195 -281 572
q0 252 176 473q195 244 514 243q246 0 426 -153q259 -225 259 -567zM1157 649q0 256 -125 438q-141 211 -293 209q-154 0 -266 -129q-145 -166 -145 -442q0 -303 153 -496q129 -162 275 -161q264 0 356 278q45 131 45 303z" />
    <glyph glyph-name="Otilde" unicode="&#xd5;" horiz-adv-x="1523" 
d="M1061 1712q-111 -164 -219 -163q-41 0 -127 30q-94 33 -127 33q-63 0 -111 -59q-2 -2 -8 -2q-8 0 -22.5 14t-16.5 22q0 2 2 7q106 160 220 159q49 0 133 -32q76 -27 108 -27q63 0 123 61q2 2 6 2q8 0 25 -12q18 -16 16 -26q0 -5 -2 -7zM1430 664q0 -219 -146 -418
q-203 -272 -543 -273q-225 0 -405 123q-281 195 -281 572q0 252 176 473q195 244 514 243q246 0 426 -153q259 -225 259 -567zM1157 649q0 256 -125 438q-141 211 -293 209q-154 0 -266 -129q-145 -166 -145 -442q0 -303 153 -496q129 -162 275 -161q264 0 356 278
q45 131 45 303z" />
    <glyph glyph-name="Odieresis" unicode="&#xd6;" horiz-adv-x="1523" 
d="M1067 1632q0 -80 -59 -114q-29 -18 -66 -19q-84 0 -117 66q-12 25 -12 57q0 74 58 111q33 20 71 18q68 0 105 -53q20 -29 20 -66zM637 1632q0 -80 -59 -114q-29 -18 -66 -19q-84 0 -117 66q-12 25 -12 57q0 74 57 111q33 20 72 18q68 0 105 -53q20 -31 20 -66zM1430 664
q0 -219 -146 -418q-203 -272 -543 -273q-225 0 -405 123q-281 195 -281 572q0 252 176 473q195 244 514 243q246 0 426 -153q259 -225 259 -567zM1157 649q0 256 -125 438q-141 211 -293 209q-154 0 -266 -129q-145 -166 -145 -442q0 -303 153 -496q129 -162 275 -161
q264 0 356 278q45 131 45 303z" />
    <glyph glyph-name="multiply" unicode="&#xd7;" horiz-adv-x="784" 
d="M778 98l-137 -137l-244 242l-241 -242l-138 137l242 244l-242 242l138 137l241 -242l244 242l137 -137l-243 -242z" />
    <glyph glyph-name="Oslash" unicode="&#xd8;" horiz-adv-x="1523" 
d="M289 -92q-4 -6 -15 -8q-25 0 -61 28q-41 31 -41 47q0 6 2 11l109 151q-227 190 -228 531q0 252 176 473q195 244 514 243q190 0 342 -94l97 137q2 4 10 5q31 0 74 -35q33 -27 30 -39q0 -4 -2 -6l-100 -146q233 -217 234 -542q0 -219 -146 -418q-203 -272 -543 -273
q-188 0 -346 86zM498 209q121 -141 258 -141q264 0 356 278q43 129 45 303q0 213 -88 377zM416 330l571 819q-121 150 -248 147q-154 0 -266 -129q-145 -166 -145 -442q2 -229 88 -395z" />
    <glyph glyph-name="Ugrave" unicode="&#xd9;" horiz-adv-x="1511" 
d="M922 1579q18 -14 28.5 -31.5t10.5 -34.5q0 -18 -15.5 -28t-35.5 -10q-23 0 -54 14l-274 125q-8 4 -13.5 12t-5.5 21q0 25 21.5 61.5t42 51t31.5 14.5q6 0 12 -5zM1323 881q0 -276 -12 -416q-16 -246 -156 -375q-127 -119 -383 -117q-156 0 -266 41q-158 61 -219 187
q-51 106 -64 344v608q0 117 -155 117q-14 0 -14.5 47t14.5 47q147 -4 280 -6q145 0 293 6q14 0 14 -47t-14 -47q-174 0 -172 -117v-467l10 -280q2 -125 56 -203q90 -135 276 -135q172 0 276 104q90 92 91 324v657q0 117 -158 117q-14 0 -14 47t14 47q137 -4 229 -6
q92 0 228 6q14 0 14 -47t-14 -47q-154 0 -154 -117v-272z" />
    <glyph glyph-name="Uacute" unicode="&#xda;" horiz-adv-x="1511" 
d="M1071 1649q0 -10 -3 -16.5t-7 -8.5l-289 -135q-31 -14 -51 -14q-18 0 -34.5 11t-16.5 30q0 14 11 32.5t28 30.5l260 199q6 6 14 6t20.5 -7.5t27 -31t27.5 -52t13 -44.5zM1323 881q0 -276 -12 -416q-16 -246 -156 -375q-127 -119 -383 -117q-156 0 -266 41
q-158 61 -219 187q-51 106 -64 344v608q0 117 -155 117q-14 0 -14.5 47t14.5 47q147 -4 280 -6q145 0 293 6q14 0 14 -47t-14 -47q-174 0 -172 -117v-467l10 -280q2 -125 56 -203q90 -135 276 -135q172 0 276 104q90 92 91 324v657q0 117 -158 117q-14 0 -14 47t14 47
q137 -4 229 -6q92 0 228 6q14 0 14 -47t-14 -47q-154 0 -154 -117v-272z" />
    <glyph glyph-name="Ucircumflex" unicode="&#xdb;" horiz-adv-x="1511" 
d="M1141 1524q4 -4 4 -11q0 -8 -8 -20q-10 -18 -20 -18h-2l-269 124q-18 8 -36.5 8.5t-36.5 -8.5l-267 -124h-2q-10 4 -22 18q-8 14 -11 23q0 4 5 8l282 252q27 23 51.5 22.5t49.5 -22.5zM1323 881q0 -276 -12 -416q-16 -246 -156 -375q-127 -119 -383 -117q-156 0 -266 41
q-158 61 -219 187q-51 106 -64 344v608q0 117 -155 117q-14 0 -14.5 47t14.5 47q147 -4 280 -6q145 0 293 6q14 0 14 -47t-14 -47q-174 0 -172 -117v-467l10 -280q2 -125 56 -203q90 -135 276 -135q172 0 276 104q90 92 91 324v657q0 117 -158 117q-14 0 -14 47t14 47
q137 -4 229 -6q92 0 228 6q14 0 14 -47t-14 -47q-154 0 -154 -117v-272z" />
    <glyph glyph-name="Udieresis" unicode="&#xdc;" horiz-adv-x="1511" 
d="M1161 1632q0 -80 -59 -114q-29 -18 -66 -19q-84 0 -117 66q-12 25 -12 57q0 74 58 111q33 20 71 18q68 0 105 -53q20 -29 20 -66zM731 1632q0 -80 -59 -114q-29 -18 -66 -19q-84 0 -117 66q-12 25 -12 57q0 74 57 111q33 20 72 18q68 0 105 -53q20 -31 20 -66zM1323 881
q0 -276 -12 -416q-16 -246 -156 -375q-127 -119 -383 -117q-156 0 -266 41q-158 61 -219 187q-51 106 -64 344v608q0 117 -155 117q-14 0 -14.5 47t14.5 47q147 -4 280 -6q145 0 293 6q14 0 14 -47t-14 -47q-174 0 -172 -117v-467l10 -280q2 -125 56 -203q90 -135 276 -135
q172 0 276 104q90 92 91 324v657q0 117 -158 117q-14 0 -14 47t14 47q137 -4 229 -6q92 0 228 6q14 0 14 -47t-14 -47q-154 0 -154 -117v-272z" />
    <glyph glyph-name="Yacute" unicode="&#xdd;" horiz-adv-x="1323" 
d="M1001 1649q0 -10 -3 -16.5t-7 -8.5l-289 -135q-31 -14 -51 -14q-18 0 -34.5 11t-16.5 30q0 14 11 32.5t28 30.5l260 199q6 6 14 6t20.5 -7.5t27 -31t27.5 -52t13 -44.5zM758 203q0 -117 147 -117q12 0 13.5 -46t-13.5 -46q-66 6 -266.5 6t-271.5 -6q-14 0 -14.5 46
t14.5 46q147 0 147 117v291q0 68 -10 94q-8 23 -55 96l-297 469q-51 82 -103 104q-29 12 -61 13q-14 0 -15.5 47t15.5 47q47 -4 260 -6q215 0 266 6q14 0 14 -47t-14 -47q-111 0 -111 -53q0 -31 21 -64l254 -403q10 -16 20 -19q10 0 23 21l266 395q23 35 25 59q0 63 -107 64
q-14 0 -14 47t14 47q45 -4 221 -6q184 0 234 6q14 0 14 -47t-14 -47q-109 0 -178 -68l-33 -35l-338 -481q-39 -55 -45 -78q-8 -29 -8 -108v-297z" />
    <glyph glyph-name="Thorn" unicode="&#xde;" horiz-adv-x="1224" 
d="M1135 727q0 -215 -142 -410q-131 -184 -334 -274q-92 -41 -190 -55q-37 -6 -37 -39v-193q0 -72 -141 -174l-146 -98q-6 -4 -12 -4q-39 0 -76 61q-14 23 -14 39q0 8 4 12q82 72 105 99q35 45 34 100v1301q0 135 -159 137q-14 0 -14.5 46t14.5 46q176 0 325 59q20 8 41 9
q41 0 43 -35l-6 -197q0 -23 16 -22q10 0 21 4q16 6 135 106q102 84 186 84q43 0 78 -22q158 -123 226 -322q43 -125 43 -258zM862 727q0 283 -153 444q-18 20 -29 21q-12 0 -23 -6q-6 -4 -61 -53q-72 -66 -143 -103q-23 -12 -23 -47v-864q0 -37 29 -37q6 0 14 2
q203 57 307 272q82 166 82 371z" />
    <glyph glyph-name="germandbls" unicode="&#xdf;" horiz-adv-x="1150" 
d="M1124 258q0 -143 -108 -223q-80 -59 -203 -60q-109 0 -195 62q-29 72 -28 180q0 18 35 19q41 0 41 -17q0 -47 57 -106q55 -55 115 -56q94 0 94 117q0 129 -137 207q-236 131 -236 293q0 127 164 244q121 86 119 221q0 88 -47 164q-55 88 -148 88q-131 0 -205 -191
q-49 -127 -49 -307v-750q0 -76 133 -75q16 0 17 -37q0 -39 -17 -39q-80 8 -239 8q-147 0 -232 -8q-14 0 -14 38t14 38q109 0 109 75v527q0 35 -31 35h-61q-16 0 -16.5 36.5t16.5 36.5q92 0 92 113q0 276 145 430q156 166 365 166q186 0 297 -105q88 -86 88 -204
q0 -131 -197 -271q-115 -80 -114 -172q0 -88 137 -162q141 -76 200 -174q39 -63 39 -141z" />
    <glyph glyph-name="agrave" unicode="&#xe0;" horiz-adv-x="858" 
d="M453 1114q8 -23 8 -41q0 -53 -43 -53q-35 0 -68 49l-170 250q-4 8 -4 14q0 33 58 64q43 23 73 22q25 0 29 -12zM866 88q-57 -113 -190 -113q-92 0 -162 82q-14 18 -20 19q-12 0 -29 -17q-82 -82 -199 -82q-125 0 -178 84q-27 43 -25 101q0 121 211 231l152 72
q35 20 35 47v190q0 72 -105 72q-80 0 -116 -51q-8 -14 -11 -76q0 -35 -4 -51q-25 -88 -92 -88q-90 0 -90 78q0 68 55 143q31 43 66 66q121 76 264 75q113 0 195 -57q66 -43 67 -106v-508q0 -115 68 -113q31 -2 71 35q8 8 27 -8q14 -15 10 -25zM461 193v182q0 23 -15 22
q-6 0 -12 -2q-141 -72 -141 -190q0 -117 72 -117q96 1 96 105z" />
    <glyph glyph-name="aacute" unicode="&#xe1;" horiz-adv-x="858" 
d="M391 1020q-43 0 -43 53q0 20 9 41l120 301q6 16 27 19q33 0 96 -43q39 -27 37 -48q0 -6 -2 -12l-176 -262q-31 -49 -68 -49zM866 88q-57 -113 -190 -113q-92 0 -162 82q-14 18 -20 19q-12 0 -29 -17q-82 -82 -199 -82q-125 0 -178 84q-27 43 -25 101q0 121 211 231
l152 72q35 20 35 47v190q0 72 -105 72q-80 0 -116 -51q-8 -14 -11 -76q0 -35 -4 -51q-25 -88 -92 -88q-90 0 -90 78q0 68 55 143q31 43 66 66q121 76 264 75q113 0 195 -57q66 -43 67 -106v-508q0 -115 68 -113q31 -2 71 35q8 8 27 -8q14 -15 10 -25zM461 193v182
q0 23 -15 22q-6 0 -12 -2q-141 -72 -141 -190q0 -117 72 -117q96 1 96 105z" />
    <glyph glyph-name="acircumflex" unicode="&#xe2;" horiz-adv-x="858" 
d="M660 1063q2 -4 2 -8q0 -12 -19 -25q-18 -10 -28 -10q-6 0 -9 4l-182 213q-25 29 -43 29t-43 -29l-182 -213q-4 -4 -10 -4q-10 0 -27 10q-18 12 -18 25q0 4 2 8l229 412q16 31 47 30q35 0 51 -30zM866 88q-57 -113 -190 -113q-92 0 -162 82q-14 18 -20 19q-12 0 -29 -17
q-82 -82 -199 -82q-125 0 -178 84q-27 43 -25 101q0 121 211 231l152 72q35 20 35 47v190q0 72 -105 72q-80 0 -116 -51q-8 -14 -11 -76q0 -35 -4 -51q-25 -88 -92 -88q-90 0 -90 78q0 68 55 143q31 43 66 66q121 76 264 75q113 0 195 -57q66 -43 67 -106v-508
q0 -115 68 -113q31 -2 71 35q8 8 27 -8q14 -15 10 -25zM461 193v182q0 23 -15 22q-6 0 -12 -2q-141 -72 -141 -190q0 -117 72 -117q96 1 96 105z" />
    <glyph glyph-name="atilde" unicode="&#xe3;" horiz-adv-x="858" 
d="M723 1212q-111 -164 -219 -163q-41 0 -127 30q-94 33 -127 33q-63 0 -111 -59q-2 -2 -8 -2q-8 0 -22.5 14t-16.5 22q0 2 2 7q106 160 220 159q49 0 133 -32q76 -27 108 -27q63 0 123 61q2 2 6 2q8 0 25 -12q18 -16 16 -26q0 -5 -2 -7zM866 88q-57 -113 -190 -113
q-92 0 -162 82q-14 18 -20 19q-12 0 -29 -17q-82 -82 -199 -82q-125 0 -178 84q-27 43 -25 101q0 121 211 231l152 72q35 20 35 47v190q0 72 -105 72q-80 0 -116 -51q-8 -14 -11 -76q0 -35 -4 -51q-25 -88 -92 -88q-90 0 -90 78q0 68 55 143q31 43 66 66q121 76 264 75
q113 0 195 -57q66 -43 67 -106v-508q0 -115 68 -113q31 -2 71 35q8 8 27 -8q14 -15 10 -25zM461 193v182q0 23 -15 22q-6 0 -12 -2q-141 -72 -141 -190q0 -117 72 -117q96 1 96 105z" />
    <glyph glyph-name="adieresis" unicode="&#xe4;" horiz-adv-x="858" 
d="M692 1180q0 -80 -59 -115q-29 -16 -66 -16q-84 0 -114 61q-12 25 -15 59q0 74 58 111q33 20 71 20q68 0 105 -55q20 -28 20 -65zM344 1180q0 -80 -61 -115q-29 -16 -66 -16q-86 0 -115 61q-12 25 -14 59q0 74 57 111q33 20 72 20q68 0 104 -55q23 -30 23 -65zM866 88
q-57 -113 -190 -113q-92 0 -162 82q-14 18 -20 19q-12 0 -29 -17q-82 -82 -199 -82q-125 0 -178 84q-27 43 -25 101q0 121 211 231l152 72q35 20 35 47v190q0 72 -105 72q-80 0 -116 -51q-8 -14 -11 -76q0 -35 -4 -51q-25 -88 -92 -88q-90 0 -90 78q0 68 55 143q31 43 66 66
q121 76 264 75q113 0 195 -57q66 -43 67 -106v-508q0 -115 68 -113q31 -2 71 35q8 8 27 -8q14 -15 10 -25zM461 193v182q0 23 -15 22q-6 0 -12 -2q-141 -72 -141 -190q0 -117 72 -117q96 1 96 105z" />
    <glyph glyph-name="aring" unicode="&#xe5;" horiz-adv-x="858" 
d="M662 1245q0 -113 -103 -184q-57 -41 -143 -41q-127 0 -196 88q-49 59 -50 137q0 96 72 162q70 61 174 61q127 0 199 -88q47 -59 47 -135zM525 1245q0 78 -54 123q-23 18 -55 21q-63 0 -96 -76q-12 -29 -12 -68q0 -86 53 -123q25 -16 55 -16q68 0 96 68q13 32 13 71z
M866 88q-57 -113 -190 -113q-92 0 -162 82q-14 18 -20 19q-12 0 -29 -17q-82 -82 -199 -82q-125 0 -178 84q-27 43 -25 101q0 121 211 231l152 72q35 20 35 47v190q0 72 -105 72q-80 0 -116 -51q-8 -14 -11 -76q0 -35 -4 -51q-25 -88 -92 -88q-90 0 -90 78q0 68 55 143
q31 43 66 66q121 76 264 75q113 0 195 -57q66 -43 67 -106v-508q0 -115 68 -113q31 -2 71 35q8 8 27 -8q14 -15 10 -25zM461 193v182q0 23 -15 22q-6 0 -12 -2q-141 -72 -141 -190q0 -117 72 -117q96 1 96 105z" />
    <glyph glyph-name="ae" unicode="&#xe6;" horiz-adv-x="1236" 
d="M1176 154q-147 -176 -361 -177q-104 0 -197 68q-29 20 -49 47q-16 23 -26 23q-8 0 -33 -23q-59 -68 -117 -88q-41 -14 -96 -14q-152 0 -207 88q-23 37 -22 84q0 154 159 219l207 90q35 14 35 59v148q0 111 -98 110q-66 0 -111 -61q-8 -12 -8 -49v-41q0 -76 -45 -111
q-25 -18 -60 -18q-88 0 -88 80q0 66 56 139q31 41 61 61q137 82 250 82q104 0 176 -57q27 -25 39 -25t35 21q78 61 180 61q182 0 277 -88q39 -41 38 -65q0 -27 -57 -51l-387 -162q-41 -16 -41 -80q0 -88 53 -174q74 -117 195 -117q80 0 160 47q14 8 22 19q14 12 41 -9
q27 -26 19 -36zM975 713q0 29 -39 55q-33 20 -70 20q-59 0 -118 -75q-45 -59 -48 -107q0 -16 15 -16l243 98q17 7 17 25zM494 225q-14 39 -25 142q-2 23 -14 22q-8 0 -19 -6q-139 -78 -139 -193q0 -61 45 -88q18 -10 39 -10q45 0 98 68q18 25 19 45q0 10 -4 20z" />
    <glyph glyph-name="ccedilla" unicode="&#xe7;" horiz-adv-x="878" 
d="M575 -338q0 -86 -88 -141q-74 -47 -172 -49q-125 0 -149 61q-6 12 -6 29q0 43 35 61q12 6 28 6q31 0 76 -39q43 -37 66 -36q53 0 53 51q0 78 -144 141q-20 8 -18 18q0 4 4 13l139 205q-104 16 -192 94q-139 123 -141 311q0 170 106 307q135 176 350 176q135 0 223 -45
q39 -20 54 -45q6 -16 6 -41q0 -51 -31 -84q-35 -35 -65 -34q-37 0 -56 28l-39 66q-39 59 -112 59q-82 0 -142 -92q-66 -102 -65 -246q0 -133 88 -227q80 -84 180 -84q109 0 187 55q16 12 47 -30q27 -43 8 -54l-82 -53q-96 -55 -217 -63l-74 -101q-8 -12 -8 -16q0 -10 29 -27
q122 -65 122 -174z" />
    <glyph glyph-name="egrave" unicode="&#xe8;" horiz-adv-x="874" 
d="M533 1114q8 -23 8 -41q0 -53 -43 -53q-35 0 -68 49l-170 250q-4 8 -4 14q0 33 58 64q43 23 73 22q25 0 29 -12zM809 612q0 -76 -90 -75h-385q-37 0 -37 -27q0 -238 113 -334q61 -53 151 -53q82 0 166 55q20 10 49 -26q27 -35 15 -46q-47 -49 -134 -88q-88 -41 -202 -41
q-135 0 -242 109q-143 143 -145 350q0 166 106 291q123 143 287 143q178 0 282 -118q66 -91 66 -140zM309 653q0 -27 37 -26h203q37 0 37 24q0 68 -56 113q-35 29 -67 27q-63 0 -113 -43q-41 -40 -41 -95z" />
    <glyph glyph-name="eacute" unicode="&#xe9;" horiz-adv-x="874" 
d="M452 1020q-43 0 -43 53q0 20 9 41l120 301q6 16 27 19q33 0 96 -43q39 -27 37 -48q0 -6 -2 -12l-176 -262q-31 -49 -68 -49zM809 612q0 -76 -90 -75h-385q-37 0 -37 -27q0 -238 113 -334q61 -53 151 -53q82 0 166 55q20 10 49 -26q27 -35 15 -46q-47 -49 -134 -88
q-88 -41 -202 -41q-135 0 -242 109q-143 143 -145 350q0 166 106 291q123 143 287 143q178 0 282 -118q66 -91 66 -140zM309 653q0 -27 37 -26h203q37 0 37 24q0 68 -56 113q-35 29 -67 27q-63 0 -113 -43q-41 -40 -41 -95z" />
    <glyph glyph-name="ecircumflex" unicode="&#xea;" horiz-adv-x="874" 
d="M740 1063q2 -4 2 -8q0 -12 -19 -25q-18 -10 -28 -10q-6 0 -9 4l-182 213q-25 29 -43 29t-43 -29l-182 -213q-4 -4 -10 -4q-10 0 -27 10q-18 12 -18 25q0 4 2 8l229 412q16 31 47 30q35 0 51 -30zM809 612q0 -76 -90 -75h-385q-37 0 -37 -27q0 -238 113 -334
q61 -53 151 -53q82 0 166 55q20 10 49 -26q27 -35 15 -46q-47 -49 -134 -88q-88 -41 -202 -41q-135 0 -242 109q-143 143 -145 350q0 166 106 291q123 143 287 143q178 0 282 -118q66 -91 66 -140zM309 653q0 -27 37 -26h203q37 0 37 24q0 68 -56 113q-35 29 -67 27
q-63 0 -113 -43q-41 -40 -41 -95z" />
    <glyph glyph-name="edieresis" unicode="&#xeb;" horiz-adv-x="874" 
d="M762 1180q0 -80 -59 -115q-29 -16 -66 -16q-84 0 -114 61q-12 25 -15 59q0 74 58 111q33 20 71 20q68 0 105 -55q20 -28 20 -65zM414 1180q0 -80 -61 -115q-29 -16 -66 -16q-86 0 -115 61q-12 25 -14 59q0 74 57 111q33 20 72 20q68 0 104 -55q23 -30 23 -65zM809 612
q0 -76 -90 -75h-385q-37 0 -37 -27q0 -238 113 -334q61 -53 151 -53q82 0 166 55q20 10 49 -26q27 -35 15 -46q-47 -49 -134 -88q-88 -41 -202 -41q-135 0 -242 109q-143 143 -145 350q0 166 106 291q123 143 287 143q178 0 282 -118q66 -91 66 -140zM309 653q0 -27 37 -26
h203q37 0 37 24q0 68 -56 113q-35 29 -67 27q-63 0 -113 -43q-41 -40 -41 -95z" />
    <glyph glyph-name="igrave" unicode="&#xec;" horiz-adv-x="522" 
d="M369 1114q8 -23 8 -41q0 -53 -43 -53q-35 0 -68 49l-170 250q-4 8 -4 14q0 33 58 64q43 23 73 22q25 0 29 -12zM393 143q0 -76 103 -75q14 0 15 -38t-15 -38q-84 8 -209 8q-143 0 -228 -8q-14 0 -15 38t15 38q104 0 105 75v414q0 125 -92 125q-16 0 -16.5 37t16.5 37
q49 0 186 67q63 31 84 49q12 10 31 11q29 0 26 -27q-6 -84 -6 -174v-539z" />
    <glyph glyph-name="iacute" unicode="&#xed;" horiz-adv-x="522" 
d="M211 1020q-43 0 -43 53q0 20 9 41l120 301q6 16 27 19q33 0 96 -43q39 -27 37 -48q0 -6 -2 -12l-176 -262q-31 -49 -68 -49zM393 143q0 -76 103 -75q14 0 15 -38t-15 -38q-84 8 -209 8q-143 0 -228 -8q-14 0 -15 38t15 38q104 0 105 75v414q0 125 -92 125q-16 0 -16.5 37
t16.5 37q49 0 186 67q63 31 84 49q12 10 31 11q29 0 26 -27q-6 -84 -6 -174v-539z" />
    <glyph glyph-name="icircumflex" unicode="&#xee;" horiz-adv-x="522" 
d="M559 1063q2 -4 2 -8q0 -12 -19 -25q-18 -10 -28 -10q-6 0 -9 4l-182 213q-25 29 -43 29t-43 -29l-182 -213q-4 -4 -10 -4q-10 0 -27 10q-18 12 -18 25q0 4 2 8l229 412q16 31 47 30q35 0 51 -30zM393 143q0 -76 103 -75q14 0 15 -38t-15 -38q-84 8 -209 8q-143 0 -228 -8
q-14 0 -15 38t15 38q104 0 105 75v414q0 125 -92 125q-16 0 -16.5 37t16.5 37q49 0 186 67q63 31 84 49q12 10 31 11q29 0 26 -27q-6 -84 -6 -174v-539z" />
    <glyph glyph-name="idieresis" unicode="&#xef;" horiz-adv-x="522" 
d="M561 1180q0 -80 -59 -115q-29 -16 -66 -16q-84 0 -114 61q-12 25 -15 59q0 74 58 111q33 20 71 20q68 0 105 -55q20 -28 20 -65zM213 1180q0 -80 -61 -115q-29 -16 -66 -16q-86 0 -115 61q-12 25 -14 59q0 74 57 111q33 20 72 20q68 0 104 -55q23 -30 23 -65zM393 143
q0 -76 103 -75q14 0 15 -38t-15 -38q-84 8 -209 8q-143 0 -228 -8q-14 0 -15 38t15 38q104 0 105 75v414q0 125 -92 125q-16 0 -16.5 37t16.5 37q49 0 186 67q63 31 84 49q12 10 31 11q29 0 26 -27q-6 -84 -6 -174v-539z" />
    <glyph glyph-name="eth" unicode="&#xf0;" horiz-adv-x="1073" 
d="M745 444q0 164 -73 267q-55 82 -129 82q-78 0 -144 -84q-82 -106 -80 -265q0 -180 80 -294q61 -88 144 -89q94 0 151 121q51 106 51 262zM872 100q-123 -125 -329 -123q-207 0 -340 123q-137 129 -137 349q0 150 104 268q137 154 362 153q-76 76 -200 156
q-16 10 -30.5 10t-33.5 -14l-200 -158q-12 -8 -66 72q-41 66 -43 78q0 8 8 4q63 -33 96 -33q23 0 37 12l88 70q18 14 18.5 22.5t-18.5 18.5q-129 68 -180 88q-18 6 6 59q20 43 39 37q152 -61 230 -104q20 -10 32 -10q14 0 39 18l295 229q14 10 70 -61q45 -55 53 -72
q0 -8 -6 -8l-117 25q-20 0 -31 -9l-186 -147q-18 -14 -18 -23q0 -10 22 -24q334 -197 457 -373q106 -154 106 -282q0 -222 -127 -351z" />
    <glyph glyph-name="ntilde" unicode="&#xf1;" horiz-adv-x="1085" 
d="M864 1212q-111 -164 -219 -163q-41 0 -127 30q-94 33 -127 33q-63 0 -111 -59q-2 -2 -8 -2q-8 0 -22.5 14t-16.5 22q0 2 2 7q106 160 220 159q49 0 133 -32q76 -27 108 -27q63 0 123 61q2 2 6 2q8 0 25 -12q18 -16 16 -26q0 -5 -2 -7zM1069 -8q-106 8 -210.5 8t-225.5 -8
q-14 0 -14.5 38t14.5 38q100 0 100 61v408q0 150 -57 200q-29 25 -96 25q-61 0 -119 -49q-68 -57 -68 -121v-449q0 -76 99 -75q14 0 15 -38t-15 -38q-84 8 -216 8q-135 0 -219 -8q-14 0 -14 38t14 38q106 0 107 75v406q0 133 -92 133q-16 0 -16.5 37t16.5 37q49 0 186 67
q63 31 84 49q12 10 27 11q29 0 30 -27l-6 -68q0 -18 9.5 -19t17.5 9q43 55 137 80q41 10 96 12q188 0 275 -186q37 -74 35 -219v-330q0 -68 106 -67q16 0 16 -38t-16 -38z" />
    <glyph glyph-name="ograve" unicode="&#xf2;" horiz-adv-x="1030" 
d="M580 1114q8 -23 8 -41q0 -53 -43 -53q-35 0 -68 49l-170 250q-4 8 -4 14q0 33 58 64q43 23 73 22q25 0 29 -12zM969 426q0 -209 -123 -332q-119 -119 -328 -117q-184 0 -313 121q-139 131 -139 326q0 170 110 297q131 150 340 149q217 0 350 -157q103 -123 103 -287z
M715 420q0 184 -72 293q-53 82 -125 80q-82 0 -139 -105q-59 -109 -60 -268q0 -184 72 -287q51 -72 125 -72q94 0 150 113q49 101 49 246z" />
    <glyph glyph-name="oacute" unicode="&#xf3;" horiz-adv-x="1030" 
d="M483 1020q-43 0 -43 53q0 20 9 41l120 301q6 16 27 19q33 0 96 -43q39 -27 37 -48q0 -6 -2 -12l-176 -262q-31 -49 -68 -49zM969 426q0 -209 -123 -332q-119 -119 -328 -117q-184 0 -313 121q-139 131 -139 326q0 170 110 297q131 150 340 149q217 0 350 -157
q103 -123 103 -287zM715 420q0 184 -72 293q-53 82 -125 80q-82 0 -139 -105q-59 -109 -60 -268q0 -184 72 -287q51 -72 125 -72q94 0 150 113q49 101 49 246z" />
    <glyph glyph-name="ocircumflex" unicode="&#xf4;" horiz-adv-x="1030" 
d="M791 1063q2 -4 2 -8q0 -12 -19 -25q-18 -10 -28 -10q-6 0 -9 4l-182 213q-25 29 -43 29t-43 -29l-182 -213q-4 -4 -10 -4q-10 0 -27 10q-18 12 -18 25q0 4 2 8l229 412q16 31 47 30q35 0 51 -30zM969 426q0 -209 -123 -332q-119 -119 -328 -117q-184 0 -313 121
q-139 131 -139 326q0 170 110 297q131 150 340 149q217 0 350 -157q103 -123 103 -287zM715 420q0 184 -72 293q-53 82 -125 80q-82 0 -139 -105q-59 -109 -60 -268q0 -184 72 -287q51 -72 125 -72q94 0 150 113q49 101 49 246z" />
    <glyph glyph-name="otilde" unicode="&#xf5;" horiz-adv-x="1030" 
d="M829 1212q-111 -164 -219 -163q-41 0 -127 30q-94 33 -127 33q-63 0 -111 -59q-2 -2 -8 -2q-8 0 -22.5 14t-16.5 22q0 2 2 7q106 160 220 159q49 0 133 -32q76 -27 108 -27q63 0 123 61q2 2 6 2q8 0 25 -12q18 -16 16 -26q0 -5 -2 -7zM969 426q0 -209 -123 -332
q-119 -119 -328 -117q-184 0 -313 121q-139 131 -139 326q0 170 110 297q131 150 340 149q217 0 350 -157q103 -123 103 -287zM715 420q0 184 -72 293q-53 82 -125 80q-82 0 -139 -105q-59 -109 -60 -268q0 -184 72 -287q51 -72 125 -72q94 0 150 113q49 101 49 246z" />
    <glyph glyph-name="odieresis" unicode="&#xf6;" horiz-adv-x="1030" 
d="M817 1180q0 -80 -59 -115q-29 -16 -66 -16q-84 0 -114 61q-12 25 -15 59q0 74 58 111q33 20 71 20q68 0 105 -55q20 -28 20 -65zM469 1180q0 -80 -61 -115q-29 -16 -66 -16q-86 0 -115 61q-12 25 -14 59q0 74 57 111q33 20 72 20q68 0 104 -55q23 -30 23 -65zM969 426
q0 -209 -123 -332q-119 -119 -328 -117q-184 0 -313 121q-139 131 -139 326q0 170 110 297q131 150 340 149q217 0 350 -157q103 -123 103 -287zM715 420q0 184 -72 293q-53 82 -125 80q-82 0 -139 -105q-59 -109 -60 -268q0 -184 72 -287q51 -72 125 -72q94 0 150 113
q49 101 49 246z" />
    <glyph glyph-name="divide" unicode="&#xf7;" horiz-adv-x="1048" 
d="M659 786q0 -72 -61 -104q-31 -16 -68 -18q-66 0 -104 43q-35 35 -35 92q0 49 37 86t102.5 37t102.5 -52q26 -37 26 -84zM971 383h-889v158h889v-158zM659 125q0 -74 -61 -107l-29 -12q-18 -4 -39 -4q-63 0 -104 41q-35 37 -35 94q0 49 37 86t102.5 37t104.5 -51
q24 -37 24 -84z" />
    <glyph glyph-name="oslash" unicode="&#xf8;" horiz-adv-x="1030" 
d="M221 -88q-4 -6 -14 -6q-12 0 -37 18q-33 27 -23 41l80 113q-12 10 -22 20q-139 131 -139 326q0 170 110 297q131 150 340 149q135 0 238 -59l77 107q6 8 17 8q12 0 35 -15q41 -27 24 -47l-80 -110q20 -18 39 -41q102 -123 103 -287q0 -209 -123 -332q-119 -119 -328 -117
q-119 0 -215 50zM342 238l320 444q-8 16 -19 31q-53 82 -125 80q-82 0 -139 -105q-59 -109 -60 -268q0 -104 23 -182zM385 141q2 -4 6 -8q51 -72 125 -72q94 0 150 113q49 98 49 246q0 86 -17 155z" />
    <glyph glyph-name="ugrave" unicode="&#xf9;" horiz-adv-x="1026" 
d="M586 1114q8 -23 8 -41q0 -53 -43 -53q-35 0 -68 49l-170 250q-4 8 -4 14q0 33 58 64q43 23 73 22q25 0 29 -12zM1038 31q-8 -2 -104 -21q-27 -4 -51 -10q-55 -12 -115 -31q-12 -4 -25 -4q-14 0 -14 45v47q0 23 -12 23t-27 -14q-92 -88 -246 -89q-127 0 -170 35
q-147 119 -147 297v346q0 102 -84 103q-14 0 -14 36.5t14 36.5q113 0 223 19q31 4 51 4q45 0 45 -43q-6 -98 -6 -162v-342q0 -123 50 -182q29 -33 98 -33q63 0 133 55q53 43 53 93v415q0 102 -84 103q-16 0 -16 36.5t16 36.5q111 0 230 19q25 4 38 4q53 0 54 -37
q-8 -94 -8 -155v-406q0 -90 10 -117q14 -41 51 -41q12 0 35 6q16 4 26 -32q2 -14 2 -23q0 -16 -6 -18z" />
    <glyph glyph-name="uacute" unicode="&#xfa;" horiz-adv-x="1026" 
d="M469 1020q-43 0 -43 53q0 20 9 41l120 301q6 16 27 19q33 0 96 -43q39 -27 37 -48q0 -6 -2 -12l-176 -262q-31 -49 -68 -49zM1038 31q-8 -2 -104 -21q-27 -4 -51 -10q-55 -12 -115 -31q-12 -4 -25 -4q-14 0 -14 45v47q0 23 -12 23t-27 -14q-92 -88 -246 -89
q-127 0 -170 35q-147 119 -147 297v346q0 102 -84 103q-14 0 -14 36.5t14 36.5q113 0 223 19q31 4 51 4q45 0 45 -43q-6 -98 -6 -162v-342q0 -123 50 -182q29 -33 98 -33q63 0 133 55q53 43 53 93v415q0 102 -84 103q-16 0 -16 36.5t16 36.5q111 0 230 19q25 4 38 4
q53 0 54 -37q-8 -94 -8 -155v-406q0 -90 10 -117q14 -41 51 -41q12 0 35 6q16 4 26 -32q2 -14 2 -23q0 -16 -6 -18z" />
    <glyph glyph-name="ucircumflex" unicode="&#xfb;" horiz-adv-x="1026" 
d="M781 1063q2 -4 2 -8q0 -12 -19 -25q-18 -10 -28 -10q-6 0 -9 4l-182 213q-25 29 -43 29t-43 -29l-182 -213q-4 -4 -10 -4q-10 0 -27 10q-18 12 -18 25q0 4 2 8l229 412q16 31 47 30q35 0 51 -30zM1038 31q-8 -2 -104 -21q-27 -4 -51 -10q-55 -12 -115 -31q-12 -4 -25 -4
q-14 0 -14 45v47q0 23 -12 23t-27 -14q-92 -88 -246 -89q-127 0 -170 35q-147 119 -147 297v346q0 102 -84 103q-14 0 -14 36.5t14 36.5q113 0 223 19q31 4 51 4q45 0 45 -43q-6 -98 -6 -162v-342q0 -123 50 -182q29 -33 98 -33q63 0 133 55q53 43 53 93v415q0 102 -84 103
q-16 0 -16 36.5t16 36.5q111 0 230 19q25 4 38 4q53 0 54 -37q-8 -94 -8 -155v-406q0 -90 10 -117q14 -41 51 -41q12 0 35 6q16 4 26 -32q2 -14 2 -23q0 -16 -6 -18z" />
    <glyph glyph-name="udieresis" unicode="&#xfc;" horiz-adv-x="1026" 
d="M794 1180q0 -80 -59 -115q-29 -16 -66 -16q-84 0 -114 61q-12 25 -15 59q0 74 58 111q33 20 71 20q68 0 105 -55q20 -28 20 -65zM446 1180q0 -80 -61 -115q-29 -16 -66 -16q-86 0 -115 61q-12 25 -14 59q0 74 57 111q33 20 72 20q68 0 104 -55q23 -30 23 -65zM1038 31
q-8 -2 -104 -21q-27 -4 -51 -10q-55 -12 -115 -31q-12 -4 -25 -4q-14 0 -14 45v47q0 23 -12 23t-27 -14q-92 -88 -246 -89q-127 0 -170 35q-147 119 -147 297v346q0 102 -84 103q-14 0 -14 36.5t14 36.5q113 0 223 19q31 4 51 4q45 0 45 -43q-6 -98 -6 -162v-342
q0 -123 50 -182q29 -33 98 -33q63 0 133 55q53 43 53 93v415q0 102 -84 103q-16 0 -16 36.5t16 36.5q111 0 230 19q25 4 38 4q53 0 54 -37q-8 -94 -8 -155v-406q0 -90 10 -117q14 -41 51 -41q12 0 35 6q16 4 26 -32q2 -14 2 -23q0 -16 -6 -18z" />
    <glyph glyph-name="yacute" unicode="&#xfd;" horiz-adv-x="882" 
d="M436 1020q-43 0 -43 53q0 20 9 41l120 301q6 16 27 19q33 0 96 -43q39 -27 37 -48q0 -6 -2 -12l-176 -262q-31 -49 -68 -49zM338 -399q-41 -106 -127 -142q-33 -12 -70 -12q-61 0 -100 43q-27 31 -27 68q0 61 60 92q31 14 65 14q104 0 121 39l78 182q6 18 6 35t-6 35
l-270 758q-27 72 -107 71q-14 0 -14 36t14 36q63 -6 203 -6q147 0 211 6q14 0 14 -36t-14 -36q-80 0 -80 -47q0 -14 8 -37l152 -424q6 -20 16 -20q12 0 23 23l165 421q4 12 5 23q0 61 -121 61q-16 0 -16.5 36t16.5 36q59 -6 194 -6q115 0 174 6q16 0 16.5 -36t-16.5 -36
q-92 0 -125 -59z" />
    <glyph glyph-name="thorn" unicode="&#xfe;" horiz-adv-x="1044" 
d="M977 508q0 -264 -242 -416q-104 -66 -344 -104q-25 -4 -24 -33v-348q0 -80 -82 -107l-174 -57q-29 -6 -54 39q-18 39 4 53l62 43q14 8 14 31v1544q0 133 -92 133q-14 0 -14 37t14 37q43 0 186 67q66 31 86 50q14 10 29 10q29 0 29 -29q-8 -131 -8 -229v-404q0 -23 14 -22
q8 0 18 8q70 59 189 59q160 0 264 -77q125 -95 125 -285zM723 457q0 322 -178 321q-104 0 -166 -90q-12 -25 -12 -63v-525q0 -18 18 -18h10q131 16 211 113q117 141 117 262z" />
    <glyph glyph-name="ydieresis" unicode="&#xff;" horiz-adv-x="882" 
d="M758 1180q0 -80 -59 -115q-29 -16 -66 -16q-84 0 -114 61q-12 25 -15 59q0 74 58 111q33 20 71 20q68 0 105 -55q20 -28 20 -65zM410 1180q0 -80 -61 -115q-29 -16 -66 -16q-86 0 -115 61q-12 25 -14 59q0 74 57 111q33 20 72 20q68 0 104 -55q23 -30 23 -65zM338 -399
q-41 -106 -127 -142q-33 -12 -70 -12q-61 0 -100 43q-27 31 -27 68q0 61 60 92q31 14 65 14q104 0 121 39l78 182q6 18 6 35t-6 35l-270 758q-27 72 -107 71q-14 0 -14 36t14 36q63 -6 203 -6q147 0 211 6q14 0 14 -36t-14 -36q-80 0 -80 -47q0 -14 8 -37l152 -424
q6 -20 16 -20q12 0 23 23l165 421q4 12 5 23q0 61 -121 61q-16 0 -16.5 36t16.5 36q59 -6 194 -6q115 0 174 6q16 0 16.5 -36t-16.5 -36q-92 0 -125 -59z" />
    <glyph glyph-name="Amacron" unicode="&#x100;" horiz-adv-x="1400" 
d="M1012 1661q27 0 24.5 -53.5t-28.5 -53.5h-590q-25 0 -26 53.5t26 53.5h594zM1196 203q41 -117 203 -117q14 0 14 -46t-14 -46q-115 6 -265.5 6t-275.5 -6q-14 0 -14 46t14 46q96 0 96 66q0 20 -10 51l-100 297q-6 23 -33 22h-375q-20 0 -30 -28l-109 -293q-8 -25 -10 -41
q0 -74 147 -74q12 0 12 -46t-12 -46q-84 6 -233.5 6t-227.5 -6q-14 0 -14 46t14 46q152 0 201 131l371 969q12 31 12 38t-14.5 21.5t-14.5 22.5q0 14 34 25.5t103.5 53.5t90.5 42q33 0 44 -47.5t52 -163.5zM649 1067q-4 16 -16 16q-10 0 -17 -16l-157 -432l-4 -17
q0 -10 20 -12h293q29 0 29 23q0 6 -4 14z" />
    <glyph glyph-name="amacron" unicode="&#x101;" horiz-adv-x="858" 
d="M645 1239q27 0 27 -51q0 -59 -31 -60h-446q-23 0 -23 58q0 53 23 53h450zM866 88q-57 -113 -190 -113q-92 0 -162 82q-14 18 -20 19q-12 0 -29 -17q-82 -82 -199 -82q-125 0 -178 84q-27 43 -25 101q0 121 211 231l152 72q35 20 35 47v190q0 72 -105 72q-80 0 -116 -51
q-8 -14 -11 -76q0 -35 -4 -51q-25 -88 -92 -88q-90 0 -90 78q0 68 55 143q31 43 66 66q121 76 264 75q113 0 195 -57q66 -43 67 -106v-508q0 -115 68 -113q31 -2 71 35q8 8 27 -8q14 -15 10 -25zM461 193v182q0 23 -15 22q-6 0 -12 -2q-141 -72 -141 -190q0 -117 72 -117
q96 1 96 105z" />
    <glyph glyph-name="Abreve" unicode="&#x102;" horiz-adv-x="1400" 
d="M971 1792q0 -307 -289 -307t-289 307q0 8 31 8q27 0 31 -8q39 -172 227 -172t227 172q2 8 31 8q31 0 31 -8zM1196 203q41 -117 203 -117q14 0 14 -46t-14 -46q-115 6 -265.5 6t-275.5 -6q-14 0 -14 46t14 46q96 0 96 66q0 20 -10 51l-100 297q-6 23 -33 22h-375
q-20 0 -30 -28l-109 -293q-8 -25 -10 -41q0 -74 147 -74q12 0 12 -46t-12 -46q-84 6 -233.5 6t-227.5 -6q-14 0 -14 46t14 46q152 0 201 131l371 969q12 31 12 38t-14.5 21.5t-14.5 22.5q0 14 34 25.5t103.5 53.5t90.5 42q33 0 44 -47.5t52 -163.5zM649 1067q-4 16 -16 16
q-10 0 -17 -16l-157 -432l-4 -17q0 -10 20 -12h293q29 0 29 23q0 6 -4 14z" />
    <glyph glyph-name="abreve" unicode="&#x103;" horiz-adv-x="858" 
d="M688 1327q0 -307 -289 -307t-289 307q0 8 31 8q27 0 31 -8q39 -172 227 -172t227 172q2 8 31 8q31 0 31 -8zM866 88q-57 -113 -190 -113q-92 0 -162 82q-14 18 -20 19q-12 0 -29 -17q-82 -82 -199 -82q-125 0 -178 84q-27 43 -25 101q0 121 211 231l152 72q35 20 35 47
v190q0 72 -105 72q-80 0 -116 -51q-8 -14 -11 -76q0 -35 -4 -51q-25 -88 -92 -88q-90 0 -90 78q0 68 55 143q31 43 66 66q121 76 264 75q113 0 195 -57q66 -43 67 -106v-508q0 -115 68 -113q31 -2 71 35q8 8 27 -8q14 -15 10 -25zM461 193v182q0 23 -15 22q-6 0 -12 -2
q-141 -72 -141 -190q0 -117 72 -117q96 1 96 105z" />
    <glyph glyph-name="Aogonek" unicode="&#x104;" horiz-adv-x="1400" 
d="M649 1067q-4 16 -15 16t-18 -16l-157 -432l-4 -17q0 -10 20 -12h293q29 0 29 23q0 6 -4 14zM1196 203q41 -117 203 -117q14 0 14 -46t-14 -46q-98 6 -223 6q-123 -141 -123 -246q0 -121 123 -121q61 0 102 31q20 -6 20 -39q-76 -113 -217 -112q-205 0 -204 184
q0 141 180 303q-106 0 -199 -6q-14 0 -14 46t14 46q96 0 96 66q0 20 -10 51l-100 297q-6 23 -33 22h-375q-20 0 -30 -28l-109 -293q-8 -25 -10 -41q0 -74 147 -74q12 0 12 -46t-12 -46q-84 6 -233 6q-150 0 -228 -6q-14 0 -14 46t14 46q152 0 201 131l371 969q12 31 12 38
t-14.5 21.5t-14.5 22.5q0 14 34 25.5t103.5 53.5t90.5 42q33 0 44 -47.5t52 -163.5z" />
    <glyph glyph-name="aogonek" unicode="&#x105;" horiz-adv-x="858" 
d="M461 193v182q0 23 -15 22q-6 0 -12 -2q-141 -72 -141 -190q0 -117 72 -117q96 1 96 105zM580 0q-35 20 -66 57q-14 18 -20 19q-12 0 -29 -17q-82 -82 -199 -82q-125 0 -178 84q-27 43 -25 101q0 121 211 231l152 72q35 20 35 47v190q0 72 -105 72q-80 0 -116 -51
q-8 -14 -11 -76q0 -35 -4 -51q-25 -88 -92 -88q-90 0 -90 78q0 68 55 143q31 43 66 66q121 76 264 75q113 0 195 -57q66 -43 67 -106v-508q0 -115 68 -113q31 -2 71 35q8 8 27 -8q14 -14 10 -25q-57 -113 -188 -113q-102 -127 -105 -221q0 -121 123 -121q61 0 105 31
q20 -6 18 -39q-76 -113 -217 -112q-205 0 -205 184q1 141 183 303z" />
    <glyph glyph-name="Cacute" unicode="&#x106;" horiz-adv-x="1347" 
d="M1085 1649q0 -10 -3 -16.5t-7 -8.5l-289 -135q-31 -14 -51 -14q-18 0 -34.5 11t-16.5 30q0 14 11 32.5t28 30.5l260 199q6 6 14 6t20.5 -7.5t27 -31t27.5 -52t13 -44.5zM55 647q0 313 205 525t535 212q129 0 338 -43q55 -10 106 -12q33 -90 41 -325q0 -18 -46 -21.5
t-48 12.5q-10 111 -65.5 177.5t-139.5 95t-193 28.5q-207 0 -333.5 -167.5t-126.5 -423.5q0 -297 140 -467t316 -170q342 0 441 276q6 18 51 8t45 -30q-4 -57 -42 -153.5t-62 -131.5q-47 -6 -89 -21q-154 -43 -358 -43q-293 0 -504 189.5t-211 484.5z" />
    <glyph glyph-name="cacute" unicode="&#x107;" horiz-adv-x="878" 
d="M501 1020q-43 0 -43 53q0 20 9 41l120 301q6 16 27 19q33 0 96 -43q39 -27 37 -48q0 -6 -2 -12l-176 -262q-31 -49 -68 -49zM709 621q-37 0 -56 28l-39 66q-39 59 -112 59q-82 0 -142 -92q-66 -102 -65 -246q0 -133 88 -227q80 -84 180 -84q109 0 187 55q16 12 47 -30
q27 -43 8 -54l-82 -53q-117 -66 -266 -66q-139 0 -250 99q-139 123 -141 311q0 170 106 307q135 176 350 176q135 0 223 -45q39 -20 54 -45q6 -16 6 -41q0 -51 -31 -84q-34 -34 -65 -34z" />
    <glyph glyph-name="Ccircumflex" unicode="&#x108;" horiz-adv-x="1347" 
d="M1163 1524q4 -4 4 -11q0 -8 -8 -20q-10 -18 -20 -18h-2l-269 124q-18 8 -36.5 8.5t-36.5 -8.5l-267 -124h-2q-10 4 -22 18q-8 14 -11 23q0 4 5 8l282 252q27 23 51.5 22.5t49.5 -22.5zM55 647q0 313 205 525t535 212q129 0 338 -43q55 -10 106 -12q33 -90 41 -325
q0 -18 -46 -21.5t-48 12.5q-10 111 -65.5 177.5t-139.5 95t-193 28.5q-207 0 -333.5 -167.5t-126.5 -423.5q0 -297 140 -467t316 -170q342 0 441 276q6 18 51 8t45 -30q-4 -57 -42 -153.5t-62 -131.5q-47 -6 -89 -21q-154 -43 -358 -43q-293 0 -504 189.5t-211 484.5z" />
    <glyph glyph-name="ccircumflex" unicode="&#x109;" horiz-adv-x="878" 
d="M772 1063q2 -4 2 -8q0 -12 -19 -25q-18 -10 -28 -10q-6 0 -9 4l-182 213q-25 29 -43 29t-43 -29l-182 -213q-4 -4 -10 -4q-10 0 -27 10q-18 12 -18 25q0 4 2 8l229 412q16 31 47 30q35 0 51 -30zM709 621q-37 0 -56 28l-39 66q-39 59 -112 59q-82 0 -142 -92
q-66 -102 -65 -246q0 -133 88 -227q80 -84 180 -84q109 0 187 55q16 12 47 -30q27 -43 8 -54l-82 -53q-117 -66 -266 -66q-139 0 -250 99q-139 123 -141 311q0 170 106 307q135 176 350 176q135 0 223 -45q39 -20 54 -45q6 -16 6 -41q0 -51 -31 -84q-34 -34 -65 -34z" />
    <glyph glyph-name="Cdotaccent" unicode="&#x10a;" horiz-adv-x="1347" 
d="M668 1702q0 57 41 98t98 41t99 -41t42 -98t-41 -98t-100 -41q-57 0 -98 41t-41 98zM55 647q0 313 205 525t535 212q129 0 338 -43q55 -10 106 -12q33 -90 41 -325q0 -18 -46 -21.5t-48 12.5q-10 111 -65.5 177.5t-139.5 95t-193 28.5q-207 0 -333.5 -167.5t-126.5 -423.5
q0 -297 140 -467t316 -170q342 0 441 276q6 18 51 8t45 -30q-4 -57 -42 -153.5t-62 -131.5q-47 -6 -89 -21q-154 -43 -358 -43q-293 0 -504 189.5t-211 484.5z" />
    <glyph glyph-name="cdotaccent" unicode="&#x10b;" horiz-adv-x="878" 
d="M371 1188q0 57 41 98t98 41t99 -41t42 -98t-41 -98t-100 -41q-57 0 -98 41t-41 98zM709 621q-37 0 -56 28l-39 66q-39 59 -112 59q-82 0 -142 -92q-66 -102 -65 -246q0 -133 88 -227q80 -84 180 -84q109 0 187 55q16 12 47 -30q27 -43 8 -54l-82 -53q-117 -66 -266 -66
q-139 0 -250 99q-139 123 -141 311q0 170 106 307q135 176 350 176q135 0 223 -45q39 -20 54 -45q6 -16 6 -41q0 -51 -31 -84q-34 -34 -65 -34z" />
    <glyph glyph-name="Ccaron" unicode="&#x10c;" horiz-adv-x="1347" 
d="M482 1747q-4 4 -5 10q0 8 9 23q10 18 20 18q2 0 2 -2l268 -123q18 -8 38 -9t36 9l266 123l5 2q10 -4 20 -20q8 -14 10 -23q0 -4 -4 -8l-282 -250q-27 -23 -51.5 -22.5t-49.5 22.5zM55 647q0 313 205 525t535 212q129 0 338 -43q55 -10 106 -12q33 -90 41 -325
q0 -18 -46 -21.5t-48 12.5q-10 111 -65.5 177.5t-139.5 95t-193 28.5q-207 0 -333.5 -167.5t-126.5 -423.5q0 -297 140 -467t316 -170q342 0 441 276q6 18 51 8t45 -30q-4 -57 -42 -153.5t-62 -131.5q-47 -6 -89 -21q-154 -43 -358 -43q-293 0 -504 189.5t-211 484.5z" />
    <glyph glyph-name="ccaron" unicode="&#x10d;" horiz-adv-x="878" 
d="M801 1462l-230 -411q-16 -31 -51 -31q-31 0 -47 31l-229 411q-2 2 -2 6q0 16 28 33q10 6 16.5 6t10.5 -6l182 -213q33 -39 43 -39t43 39l182 213q4 4 11 6q8 0 18 -8q27 -18 27 -31q0 -4 -2 -6zM709 621q-37 0 -56 28l-39 66q-39 59 -112 59q-82 0 -142 -92
q-66 -102 -65 -246q0 -133 88 -227q80 -84 180 -84q109 0 187 55q16 12 47 -30q27 -43 8 -54l-82 -53q-117 -66 -266 -66q-139 0 -250 99q-139 123 -141 311q0 170 106 307q135 176 350 176q135 0 223 -45q39 -20 54 -45q6 -16 6 -41q0 -51 -31 -84q-34 -34 -65 -34z" />
    <glyph glyph-name="Dcaron" unicode="&#x10e;" horiz-adv-x="1566" 
d="M361 1747q-4 4 -5 10q0 8 9 23q10 18 20 18q2 0 2 -2l268 -123q18 -8 38 -9t36 9l266 123l5 2q10 -4 20 -20q8 -14 10 -23q0 -4 -4 -8l-282 -250q-27 -23 -51.5 -22.5t-49.5 22.5zM238 203v952q0 109 -172 111q-14 0 -14 46t14 46q143 -6 238 -6t218 3t197 3
q330 0 549 -169t219 -464q0 -338 -198.5 -534.5t-522.5 -196.5q-63 0 -207.5 3t-248 3t-234.5 -6q-15 0 -15 46t15 46q162 0 162 117zM481 272q0 -150 86 -186q39 -14 131 -14q217 0 366.5 170t149.5 475q0 213 -152.5 388t-424.5 175h-80q-76 0 -76 -80v-928z" />
    <glyph glyph-name="dcaron" unicode="&#x10f;" horiz-adv-x="1034" 
d="M1171 1444q0 -143 -94 -283q-39 -53 -65 -53q-6 0 -15 2q-16 8 -16 33q0 20 12 51q25 59 25 125.5t-25 140.5q-2 4 -2 8q0 23 55 23q16 0 39 -2q86 -8 86 -45zM1022 31q-29 -12 -156 -35q-102 -27 -131 -31h-12q-10 0 -10 45v29q0 23 -11 22q-12 0 -28 -14
q-94 -70 -195 -70q-244 0 -354 175q-72 111 -72 266q0 176 121 303q147 150 393 149q49 0 80 -4q27 -2 27 23v272q0 125 -92 125q-16 0 -17 37q0 39 17 37q49 0 186 67q66 33 84 50q12 10 27 10q31 0 30 -33q-6 -70 -6 -168v-1030q0 -90 10 -117q14 -41 54 -41q12 0 32 6
q16 4 27 -30q8 -39 -4 -43zM674 141v553q0 43 -4 51q-4 10 -17 19q-47 29 -112 29q-133 0 -197 -144q-39 -88 -37 -205q0 -193 78 -303q59 -82 145 -80q86 0 129 52q15 18 15 28z" />
    <glyph glyph-name="Dcroat" unicode="&#x110;" horiz-adv-x="1566" 
d="M1487 725q0 -338 -201 -537q-199 -197 -520 -194q-109 0 -222.5 3t-203.5 3q-166 0 -264 -6q-14 0 -15.5 46t15.5 46q162 0 162 117v391q0 31 -29 31h-180q-14 0 -14.5 47t14.5 47h180q29 0 29 29v407q0 109 -172 111q-14 0 -14.5 46t14.5 46q143 -6 286 -6q61 0 161.5 3
t205.5 3q303 0 510 -139q258 -175 258 -494zM1214 717q0 176 -98 323q-164 240 -479 240h-80q-76 0 -76 -80v-452q0 -29 27 -29h229q12 0 13.5 -47t-13.5 -47h-229q-27 0 -27 -31v-322q0 -150 86 -186q39 -16 131 -14q213 0 353 151q163 181 163 494z" />
    <glyph glyph-name="dcroat" unicode="&#x111;" horiz-adv-x="1034" 
d="M903 1286v-86q0 -37 37 -37h133q16 0 16.5 -52t-16.5 -52h-133q-37 0 -37 -37v-766q0 -90 10 -117q14 -41 54 -41q12 0 32 6q18 4 26.5 -32.5t-3.5 -40.5q-70 -14 -156 -35q-102 -25 -131 -31q-6 -2 -12 0q-10 4 -10 45v29q0 23 -11 22q-8 0 -28 -14q-94 -70 -195 -70
q-231 0 -340 168q-74 113 -73 273q0 176 120 303q143 150 381 149q45 0 99 -6q8 2 8 25v133q0 37 -37 37h-156q-14 0 -14 52t14 52h156q37 0 37 17q-10 106 -92 106q-16 0 -16.5 37t16.5 37q49 0 186 67q66 33 84 50q12 10 27 10q31 0 30 -33zM674 141v553q0 43 -4 51
q-4 10 -17 19q-47 29 -112 29q-129 0 -197 -131q-49 -94 -49 -218q0 -180 80 -292q66 -90 155 -91q86 0 129 52q15 18 15 28z" />
    <glyph glyph-name="Emacron" unicode="&#x112;" horiz-adv-x="1249" 
d="M936 1661q27 0 24.5 -53.5t-28.5 -53.5h-590q-25 0 -26 53.5t26 53.5h594zM238 203v952q0 109 -172 111q-14 0 -14 46t14 46q143 -6 299 -6t370.5 3t335.5 3q57 0 57 -51v-306q0 -17 -50 -17t-50 17q0 129 -98 205q-61 47 -125 49l-297 11q-27 0 -27 -41v-508
q0 -29 29 -31h135q123 0 123 92v99q0 14 52 14t52 -14q-6 -68 -6 -232t6 -225q0 -14 -52 -15.5t-52 15.5v86q0 88 -123 88h-135q-29 0 -29 -31v-342q0 -78 74 -115q39 -20 82 -20l223 4q158 2 205 137q18 49 18 117q0 16 51.5 16t51.5 -16v-287q0 -63 -119 -63
q-186 0 -359 3t-335 3t-297 -6q-15 0 -15 46t15 46q162 0 162 117z" />
    <glyph glyph-name="emacron" unicode="&#x113;" horiz-adv-x="874" 
d="M686 1239q27 0 27 -51q0 -59 -31 -60h-446q-23 0 -23 58q0 53 23 53h450zM809 612q0 -76 -90 -75h-385q-37 0 -37 -27q0 -238 113 -334q61 -53 151 -53q82 0 166 55q20 10 49 -26q27 -35 15 -46q-47 -49 -134 -88q-88 -41 -202 -41q-135 0 -242 109q-143 143 -145 350
q0 166 106 291q123 143 287 143q178 0 282 -118q66 -91 66 -140zM309 653q0 -27 37 -26h203q37 0 37 24q0 68 -56 113q-35 29 -67 27q-63 0 -113 -43q-41 -40 -41 -95z" />
    <glyph glyph-name="Ebreve" unicode="&#x114;" horiz-adv-x="1249" 
d="M938 1792q0 -307 -289 -307t-289 307q0 8 31 8q27 0 31 -8q39 -172 227 -172t227 172q2 8 31 8q31 0 31 -8zM238 203v952q0 109 -172 111q-14 0 -14 46t14 46q143 -6 299 -6t370.5 3t335.5 3q57 0 57 -51v-306q0 -17 -50 -17t-50 17q0 129 -98 205q-61 47 -125 49
l-297 11q-27 0 -27 -41v-508q0 -29 29 -31h135q123 0 123 92v99q0 14 52 14t52 -14q-6 -68 -6 -232t6 -225q0 -14 -52 -15.5t-52 15.5v86q0 88 -123 88h-135q-29 0 -29 -31v-342q0 -78 74 -115q39 -20 82 -20l223 4q158 2 205 137q18 49 18 117q0 16 51.5 16t51.5 -16v-287
q0 -63 -119 -63q-186 0 -359 3t-335 3t-297 -6q-15 0 -15 46t15 46q162 0 162 117z" />
    <glyph glyph-name="ebreve" unicode="&#x115;" horiz-adv-x="874" 
d="M750 1327q0 -307 -289 -307t-289 307q0 8 31 8q27 0 31 -8q39 -172 227 -172t227 172q2 8 31 8q31 0 31 -8zM809 612q0 -76 -90 -75h-385q-37 0 -37 -27q0 -238 113 -334q61 -53 151 -53q82 0 166 55q20 10 49 -26q27 -35 15 -46q-47 -49 -134 -88q-88 -41 -202 -41
q-135 0 -242 109q-143 143 -145 350q0 166 106 291q123 143 287 143q178 0 282 -118q66 -91 66 -140zM309 653q0 -27 37 -26h203q37 0 37 24q0 68 -56 113q-35 29 -67 27q-63 0 -113 -43q-41 -40 -41 -95z" />
    <glyph glyph-name="Edotaccent" unicode="&#x116;" horiz-adv-x="1249" 
d="M516 1702q0 57 41 98t98 41t99 -41t42 -98t-41 -98t-100 -41q-57 0 -98 41t-41 98zM238 203v952q0 109 -172 111q-14 0 -14 46t14 46q143 -6 299 -6t370.5 3t335.5 3q57 0 57 -51v-306q0 -17 -50 -17t-50 17q0 129 -98 205q-61 47 -125 49l-297 11q-27 0 -27 -41v-508
q0 -29 29 -31h135q123 0 123 92v99q0 14 52 14t52 -14q-6 -68 -6 -232t6 -225q0 -14 -52 -15.5t-52 15.5v86q0 88 -123 88h-135q-29 0 -29 -31v-342q0 -78 74 -115q39 -20 82 -20l223 4q158 2 205 137q18 49 18 117q0 16 51.5 16t51.5 -16v-287q0 -63 -119 -63
q-186 0 -359 3t-335 3t-297 -6q-15 0 -15 46t15 46q162 0 162 117z" />
    <glyph glyph-name="edotaccent" unicode="&#x117;" horiz-adv-x="874" 
d="M322 1188q0 57 41 98t98 41t99 -41t42 -98t-41 -98t-100 -41q-57 0 -98 41t-41 98zM809 612q0 -76 -90 -75h-385q-37 0 -37 -27q0 -238 113 -334q61 -53 151 -53q82 0 166 55q20 10 49 -26q27 -35 15 -46q-47 -49 -134 -88q-88 -41 -202 -41q-135 0 -242 109
q-143 143 -145 350q0 166 106 291q123 143 287 143q178 0 282 -118q66 -91 66 -140zM309 653q0 -27 37 -26h203q37 0 37 24q0 68 -56 113q-35 29 -67 27q-63 0 -113 -43q-41 -40 -41 -95z" />
    <glyph glyph-name="Eogonek" unicode="&#x118;" horiz-adv-x="1249" 
d="M238 203v952q0 109 -172 111q-14 0 -14.5 46t14.5 46q143 -6 299 -6t370.5 3t335.5 3q57 0 57 -51v-306q0 -16 -50 -17t-50 17q0 129 -98 205q-61 47 -125 49l-297 11q-27 0 -27 -41v-508q0 -29 29 -31h135q123 0 123 92v99q0 14 52 14t52 -14q-6 -68 -6 -232t6 -225
q0 -14 -52 -15.5t-52 15.5v86q0 88 -123 88h-135q-29 0 -29 -31v-342q0 -78 74 -115q39 -20 82 -20l223 4q158 2 205 137q18 49 18 117q0 16 51.5 16t51.5 -16v-287q0 -63 -119 -63h-66q-119 -137 -118 -240q0 -121 123 -121q61 0 104 31q20 -6 18 -39q-76 -113 -217 -112
q-205 0 -204 184q0 139 176 297q-88 0 -174 2q-174 4 -336 4t-297 -6q-14 0 -15.5 46t15.5 46q162 0 162 117z" />
    <glyph glyph-name="eogonek" unicode="&#x119;" horiz-adv-x="874" 
d="M586 651q0 57 -41 98.5t-82 41.5q-63 0 -108.5 -39t-45.5 -99q0 -27 37 -26h203q37 -1 37 24zM809 614q0 -78 -90 -77h-385q-37 0 -37 -27q0 -111 25.5 -197t87 -138t151.5 -52q82 0 166 55q20 10 49 -26.5t15 -45.5q-57 -37 -108.5 -90t-95.5 -125.5t-44 -136.5
q0 -121 123 -121q61 0 102 31q20 -6 20 -39q-76 -113 -217 -112q-88 0 -146 46t-58 138q0 63 46 135t119 131q29 23 -10 19q-31 -4 -67 -5q-111 0 -199 70t-138 168t-50 221q0 172 117.5 303t273.5 131q104 0 184 -39.5t123 -108.5t43 -108z" />
    <glyph glyph-name="Ecaron" unicode="&#x11a;" horiz-adv-x="1249" 
d="M326 1747q-4 4 -5 10q0 8 9 23q10 18 20 18q2 0 2 -2l268 -123q18 -8 38 -9t36 9l266 123l5 2q10 -4 20 -20q8 -14 10 -23q0 -4 -4 -8l-282 -250q-27 -23 -51.5 -22.5t-49.5 22.5zM238 203v952q0 109 -172 111q-14 0 -14 46t14 46q143 -6 299 -6t370.5 3t335.5 3
q57 0 57 -51v-306q0 -17 -50 -17t-50 17q0 129 -98 205q-61 47 -125 49l-297 11q-27 0 -27 -41v-508q0 -29 29 -31h135q123 0 123 92v99q0 14 52 14t52 -14q-6 -68 -6 -232t6 -225q0 -14 -52 -15.5t-52 15.5v86q0 88 -123 88h-135q-29 0 -29 -31v-342q0 -78 74 -115
q39 -20 82 -20l223 4q158 2 205 137q18 49 18 117q0 16 51.5 16t51.5 -16v-287q0 -63 -119 -63q-186 0 -359 3t-335 3t-297 -6q-15 0 -15 46t15 46q162 0 162 117z" />
    <glyph glyph-name="ecaron" unicode="&#x11b;" horiz-adv-x="874" 
d="M740 1462l-230 -411q-16 -31 -51 -31q-31 0 -47 31l-229 411q-2 2 -2 6q0 16 28 33q10 6 16.5 6t10.5 -6l182 -213q33 -39 43 -39t43 39l182 213q4 4 11 6q8 0 18 -8q27 -18 27 -31q0 -4 -2 -6zM809 612q0 -76 -90 -75h-385q-37 0 -37 -27q0 -238 113 -334
q61 -53 151 -53q82 0 166 55q20 10 49 -26q27 -35 15 -46q-47 -49 -134 -88q-88 -41 -202 -41q-135 0 -242 109q-143 143 -145 350q0 166 106 291q123 143 287 143q178 0 282 -118q66 -91 66 -140zM309 653q0 -27 37 -26h203q37 0 37 24q0 68 -56 113q-35 29 -67 27
q-63 0 -113 -43q-41 -40 -41 -95z" />
    <glyph glyph-name="Gcircumflex" unicode="&#x11c;" horiz-adv-x="1441" 
d="M1130 1524q4 -4 4 -11q0 -8 -8 -20q-10 -18 -20 -18h-2l-269 124q-18 8 -36.5 8.5t-36.5 -8.5l-267 -124h-2q-10 4 -22 18q-8 14 -11 23q0 4 5 8l282 252q27 23 51.5 22.5t49.5 -22.5zM846 569q59 -6 272 -6t273 6q13 0 13 -46t-13 -46q-109 0 -109 -76v-241
q0 -45 43 -45q14 0 14 -40t-14 -40q-49 0 -235.5 -31t-319.5 -31q-262 0 -463 154q-252 199 -252 520q0 266 152 463q213 274 588 274q131 0 317 -36q70 -18 127 -19q29 -59 39 -274l2 -51q0 -18 -45 -21.5t-49 12.5q-18 209 -211 275q-80 26 -187 26q-207 0 -333.5 -167.5
t-126.5 -423.5q0 -324 150.5 -480.5t305.5 -156.5q111 0 182.5 24.5t71.5 67.5v241q0 76 -112 76h-80q-14 0 -14 46t14 46z" />
    <glyph glyph-name="gcircumflex" unicode="&#x11d;" horiz-adv-x="946" 
d="M721 1063q2 -4 2 -8q0 -12 -19 -25q-18 -10 -28 -10q-6 0 -9 4l-182 213q-25 29 -43 29t-43 -29l-182 -213q-4 -4 -10 -4q-10 0 -27 10q-18 12 -18 25q0 4 2 8l229 412q16 31 47 30q35 0 51 -30zM981 -141q0 -162 -147 -281q-172 -137 -422 -137q-299 0 -371 147
q-20 41 -21 93q0 82 103 165q35 29 80 52q14 6 14 14q0 4 -16 12q-133 55 -133 174q0 76 145 138q16 6 16 14q0 4 -18 16q-154 96 -154 262q0 141 109 240q113 102 276 102q111 0 222 -43q66 -29 92 -30h192q16 0 17 -56q0 -59 -17 -59h-92q-31 0 -31 -29v-78
q0 -170 -118 -270q-104 -88 -277 -88q-49 0 -106 6q-12 0 -23 -6q-37 -31 -37 -57q0 -33 39 -51q33 -16 88 -17h254q129 0 193 -20q143 -47 143 -213zM592 522q0 176 -72 242q-31 29 -74 29q-72 0 -118 -86q-39 -70 -39 -158q0 -121 59 -197q45 -57 113 -57q88 0 119 119
q12 49 12 108zM811 -242q0 131 -236 131h-213q-20 0 -40 -14q-63 -45 -64 -123q0 -76 59 -131q68 -61 187 -61q252 0 299 141q8 26 8 57z" />
    <glyph glyph-name="Gbreve" unicode="&#x11e;" horiz-adv-x="1441" 
d="M1086 1792q0 -307 -289 -307t-289 307q0 8 31 8q27 0 31 -8q39 -172 227 -172t227 172q2 8 31 8q31 0 31 -8zM846 569q59 -6 272 -6t273 6q13 0 13 -46t-13 -46q-109 0 -109 -76v-241q0 -45 43 -45q14 0 14 -40t-14 -40q-49 0 -235.5 -31t-319.5 -31q-262 0 -463 154
q-252 199 -252 520q0 266 152 463q213 274 588 274q131 0 317 -36q70 -18 127 -19q29 -59 39 -274l2 -51q0 -18 -45 -21.5t-49 12.5q-18 209 -211 275q-80 26 -187 26q-207 0 -333.5 -167.5t-126.5 -423.5q0 -324 150.5 -480.5t305.5 -156.5q111 0 182.5 24.5t71.5 67.5v241
q0 76 -112 76h-80q-14 0 -14 46t14 46z" />
    <glyph glyph-name="gbreve" unicode="&#x11f;" horiz-adv-x="946" 
d="M731 1327q0 -307 -289 -307t-289 307q0 8 31 8q27 0 31 -8q39 -172 227 -172t227 172q2 8 31 8q31 0 31 -8zM981 -141q0 -162 -147 -281q-172 -137 -422 -137q-299 0 -371 147q-20 41 -21 93q0 82 103 165q35 29 80 52q14 6 14 14q0 4 -16 12q-133 55 -133 174
q0 76 145 138q16 6 16 14q0 4 -18 16q-154 96 -154 262q0 141 109 240q113 102 276 102q111 0 222 -43q66 -29 92 -30h192q16 0 17 -56q0 -59 -17 -59h-92q-31 0 -31 -29v-78q0 -170 -118 -270q-104 -88 -277 -88q-49 0 -106 6q-12 0 -23 -6q-37 -31 -37 -57q0 -33 39 -51
q33 -16 88 -17h254q129 0 193 -20q143 -47 143 -213zM592 522q0 176 -72 242q-31 29 -74 29q-72 0 -118 -86q-39 -70 -39 -158q0 -121 59 -197q45 -57 113 -57q88 0 119 119q12 49 12 108zM811 -242q0 131 -236 131h-213q-20 0 -40 -14q-63 -45 -64 -123q0 -76 59 -131
q68 -61 187 -61q252 0 299 141q8 26 8 57z" />
    <glyph glyph-name="Gdotaccent" unicode="&#x120;" horiz-adv-x="1441" 
d="M672 1653q0 57 41 98t98 41t99 -41t42 -98t-41 -98t-100 -41q-57 0 -98 41t-41 98zM846 569q59 -6 272 -6t273 6q13 0 13 -46t-13 -46q-109 0 -109 -76v-241q0 -45 43 -45q14 0 14 -40t-14 -40q-49 0 -235.5 -31t-319.5 -31q-262 0 -463 154q-252 199 -252 520
q0 266 152 463q213 274 588 274q131 0 317 -36q70 -18 127 -19q29 -59 39 -274l2 -51q0 -18 -45 -21.5t-49 12.5q-18 209 -211 275q-80 26 -187 26q-207 0 -333.5 -167.5t-126.5 -423.5q0 -324 150.5 -480.5t305.5 -156.5q111 0 182.5 24.5t71.5 67.5v241q0 76 -112 76h-80
q-14 0 -14 46t14 46z" />
    <glyph glyph-name="gdotaccent" unicode="&#x121;" horiz-adv-x="946" 
d="M301 1188q0 57 41 98t98 41t99 -41t42 -98t-41 -98t-100 -41q-57 0 -98 41t-41 98zM981 -141q0 -162 -147 -281q-172 -137 -422 -137q-299 0 -371 147q-20 41 -21 93q0 82 103 165q35 29 80 52q14 6 14 14q0 4 -16 12q-133 55 -133 174q0 76 145 138q16 6 16 14
q0 4 -18 16q-154 96 -154 262q0 141 109 240q113 102 276 102q111 0 222 -43q66 -29 92 -30h192q16 0 17 -56q0 -59 -17 -59h-92q-31 0 -31 -29v-78q0 -170 -118 -270q-104 -88 -277 -88q-49 0 -106 6q-12 0 -23 -6q-37 -31 -37 -57q0 -33 39 -51q33 -16 88 -17h254
q129 0 193 -20q143 -47 143 -213zM592 522q0 176 -72 242q-31 29 -74 29q-72 0 -118 -86q-39 -70 -39 -158q0 -121 59 -197q45 -57 113 -57q88 0 119 119q12 49 12 108zM811 -242q0 131 -236 131h-213q-20 0 -40 -14q-63 -45 -64 -123q0 -76 59 -131q68 -61 187 -61
q252 0 299 141q8 26 8 57z" />
    <glyph glyph-name="Gcommaaccent" unicode="&#x122;" horiz-adv-x="1441" 
d="M946 -336q0 -86 -88 -141q-74 -47 -172 -49q-125 0 -149 61q-6 12 -7 29q0 43 35 61q12 6 31 6q31 0 74 -39q43 -37 65 -36q53 0 53 51q0 78 -143 141q-20 8 -18 19q0 4 6 12l131 194q-258 0 -457 154q-254 199 -252 520q0 266 152 463q213 274 588 274q131 0 317 -36
q70 -18 127 -19q29 -59 39 -274l2 -51q0 -18 -43 -23q-47 -2 -51 14q-18 209 -211 275q-80 27 -187 26q-207 0 -333.5 -167.5t-126.5 -423.5q0 -324 172 -502q129 -135 284 -135q111 0 193 24q61 25 61 68v241q0 78 -112 76h-80q-14 0 -14.5 46t14.5 46q59 -6 317 -6
q168 0 228 6q12 0 13 -46t-13 -46q-109 0 -109 -76v-241q0 -45 43 -45q14 0 14 -39q0 -41 -14 -41q-49 0 -196.5 -24.5t-254.5 -33.5l-69 -96q-8 -12 -10 -16q0 -10 28 -27q123 -65 123 -174z" />
    <glyph glyph-name="gcommaaccent" unicode="&#x123;" horiz-adv-x="946" 
d="M565 1155q0 -51 -43 -80.5t-100 -29.5q-66 0 -117 59.5t-51 143.5q0 111 81.5 206t192.5 144q2 0 10 2q10 0 17.5 -11.5t7.5 -19.5q0 -2 -2 -4q-66 -59 -91.5 -124.5t-25.5 -115.5q0 -27 12 -30q45 -16 77 -50.5t32 -89.5zM981 -141q0 -162 -147 -281
q-172 -137 -422 -137q-299 0 -371 147q-20 41 -21 93q0 82 103 165q35 29 80 52q14 6 14 14q0 4 -16 12q-133 55 -133 174q0 76 145 138q16 6 16 14q0 4 -18 16q-154 96 -154 262q0 141 109 240q113 102 276 102q111 0 222 -43q66 -29 92 -30h192q16 0 17 -56q0 -59 -17 -59
h-92q-31 0 -31 -29v-78q0 -170 -118 -270q-104 -88 -277 -88q-49 0 -106 6q-12 0 -23 -6q-37 -31 -37 -57q0 -33 39 -51q33 -16 88 -17h254q129 0 193 -20q143 -47 143 -213zM592 522q0 176 -72 242q-31 29 -74 29q-72 0 -118 -86q-39 -70 -39 -158q0 -121 59 -197
q45 -57 113 -57q88 0 119 119q12 49 12 108zM811 -242q0 131 -236 131h-213q-20 0 -40 -14q-63 -45 -64 -123q0 -76 59 -131q68 -61 187 -61q252 0 299 141q8 26 8 57z" />
    <glyph glyph-name="Hcircumflex" unicode="&#x124;" horiz-adv-x="1685" 
d="M1159 1524q4 -4 4 -11q0 -8 -8 -20q-10 -18 -20 -18h-2l-269 124q-18 8 -36.5 8.5t-36.5 -8.5l-267 -124h-2q-10 4 -22 18q-8 14 -11 23q0 4 5 8l282 252q27 23 51.5 22.5t49.5 -22.5zM1432 203q0 -117 159 -117q15 0 15 -46t-15 -46q-127 6 -279.5 6t-285.5 -6
q-14 0 -14 46t14 46q162 0 162 117v415q0 35 -35 35h-637q-35 0 -35 -35v-415q0 -117 158 -117q14 0 14 -46t-14 -46q-133 6 -286 6t-277 -6q-15 0 -15 46t15 46q162 0 162 117v950q0 117 -162 117q-14 0 -14 47t14 47q47 -5 283.5 -5t283.5 5q15 0 15 -47t-15 -47
q-162 0 -162 -117v-371q0 -34 35 -34h637q35 0 35 34v371q0 117 -160 117q-14 0 -14 47t14 47q45 -6 283 -6t284 6q15 0 15 -47t-15 -47q-163 0 -163 -117v-950z" />
    <glyph glyph-name="hcircumflex" unicode="&#x125;" horiz-adv-x="1091" 
d="M618 1524q4 -4 4 -11q0 -8 -8 -20q-10 -18 -20 -18h-2l-269 124q-18 8 -36.5 8.5t-36.5 -8.5l-267 -124h-2q-10 4 -22 18q-8 14 -11 23q0 4 5 8l282 252q27 23 51.5 22.5t49.5 -22.5zM1079 -8q-80 8 -221 8q-150 0 -229 -8q-16 0 -16.5 38t16.5 38q104 0 104 63v424
q0 76 -45 139q-49 68 -123 68q-90 0 -143 -64q-29 -35 -29 -71v-484q0 -76 103 -75q14 0 15 -38t-15 -38q-84 8 -209 8q-152 0 -236 -8q-14 0 -14 38t14 38q113 0 113 69v1024q0 125 -92 125q-16 0 -17 37q0 39 17 37q49 0 184 67q66 33 86 50q12 10 29 10q27 0 28 -27
q-2 -86 -6 -174v-465q0 -23 10 -22q8 0 23 10q82 61 211 61q180 0 270 -137q55 -84 56 -176v-414q6 -76 116 -75q16 0 16 -38t-16 -38z" />
    <glyph glyph-name="Hbar" unicode="&#x126;" horiz-adv-x="1685" 
d="M1432 203q0 -117 159 -117q14 0 14.5 -46t-14.5 -46q-127 6 -278 6q-154 0 -287 -6q-14 0 -14 46t14 46q162 0 162 117v415q0 35 -35 35h-637q-35 0 -35 -35v-415q-2 -117 158 -117q14 0 14 -45q-2 -47 -14 -47q-133 6 -285 6q-154 0 -278 -6q-14 0 -15.5 46t15.5 46
q162 0 162 117v749h-68q-18 0 -18 50.5t18 50.5h68v100q0 117 -162 117q-14 0 -14.5 47t14.5 47q47 -4 284 -6q236 0 283 6q14 0 14 -47t-14 -47q-164 0 -162 -117v-100h707v100q0 117 -160 117q-14 0 -14 47t14 47q43 -4 283 -6q238 0 284 6q14 0 14.5 -47t-14.5 -47
q-164 0 -163 -117v-100h79q20 0 20.5 -50.5t-22.5 -50.5h-77v-749zM1188 952h-707v-170q0 -35 35 -34h637q35 0 35 34v170z" />
    <glyph glyph-name="hbar" unicode="&#x127;" horiz-adv-x="1091" 
d="M164 137v946h-184q-16 0 -16.5 45.5t16.5 45.5h184q-4 113 -92 112q-16 0 -16.5 37t16.5 37q49 0 184 67q55 27 86 50q12 10 29 10q31 0 28 -27q-6 -76 -6 -174v-112h176q16 0 16.5 -45.5t-16.5 -45.5h-176v-262q0 -23 10 -22q8 0 23 10q82 61 211 61q106 0 176 -44
t110 -117.5t40 -151.5v-414q0 -76 116 -75q16 0 16.5 -38t-16.5 -38q-80 8 -225 8t-225 -8q-16 0 -16.5 38t16.5 38q104 0 104 63v424q0 76 -47 141.5t-121 65.5q-90 0 -143 -64q-29 -35 -29 -71v-484q0 -76 103 -75q14 0 15 -38t-15 -38q-84 8 -222 8q-137 0 -223 -8
q-14 0 -14 38t14 38q113 -1 113 69z" />
    <glyph glyph-name="Itilde" unicode="&#x128;" horiz-adv-x="733" 
d="M700 1712q-111 -164 -219 -163q-41 0 -127 30q-94 33 -127 33q-63 0 -111 -59q-2 -2 -8 -2q-8 0 -22.5 14t-16.5 22q0 2 2 7q106 160 220 159q49 0 133 -32q76 -27 108 -27q63 0 123 61q2 2 6 2q8 0 25 -12q18 -16 16 -26q0 -5 -2 -7zM76 -6q-15 0 -15 46t15 46
q162 0 162 117v950q0 117 -162 117q-14 0 -14 47t14 47q47 -6 283.5 -6t283.5 6q14 0 14 -47t-14 -47q-162 0 -162 -117v-950q0 -117 158 -117q14 0 14 -46t-14 -46q-133 6 -286 6t-277 -6z" />
    <glyph glyph-name="itilde" unicode="&#x129;" horiz-adv-x="522" 
d="M594 1212q-111 -164 -219 -163q-41 0 -127 30q-94 33 -127 33q-63 0 -111 -59q-2 -2 -8 -2q-8 0 -22.5 14t-16.5 22q0 2 2 7q106 160 220 159q49 0 133 -32q76 -27 108 -27q63 0 123 61q2 2 6 2q8 0 25 -12q18 -16 16 -26q0 -5 -2 -7zM393 143q0 -76 103 -75q14 0 15 -38
t-15 -38q-84 8 -209 8q-143 0 -228 -8q-14 0 -15 38t15 38q104 0 105 75v414q0 125 -92 125q-16 0 -16.5 37t16.5 37q49 0 186 67q63 31 84 49q12 10 31 11q29 0 26 -27q-6 -84 -6 -174v-539z" />
    <glyph glyph-name="Imacron" unicode="&#x12a;" horiz-adv-x="733" 
d="M666 1661q27 0 24.5 -53.5t-28.5 -53.5h-590q-25 0 -26 53.5t26 53.5h594zM76 -6q-15 0 -15 46t15 46q162 0 162 117v950q0 117 -162 117q-14 0 -14 47t14 47q47 -6 283.5 -6t283.5 6q14 0 14 -47t-14 -47q-162 0 -162 -117v-950q0 -117 158 -117q14 0 14 -46t-14 -46
q-133 6 -286 6t-277 -6z" />
    <glyph glyph-name="imacron" unicode="&#x12b;" horiz-adv-x="522" 
d="M503 1239q27 0 27 -51q0 -59 -31 -60h-446q-23 0 -23 58q0 53 23 53h450zM393 143q0 -76 103 -75q14 0 15 -38t-15 -38q-84 8 -209 8q-143 0 -228 -8q-14 0 -15 38t15 38q104 0 105 75v414q0 125 -92 125q-16 0 -16.5 37t16.5 37q49 0 186 67q63 31 84 49q12 10 31 11
q29 0 26 -27q-6 -84 -6 -174v-539z" />
    <glyph glyph-name="Ibreve" unicode="&#x12c;" horiz-adv-x="733" 
d="M647 1792q0 -307 -289 -307t-289 307q0 8 31 8q27 0 31 -8q39 -172 227 -172t227 172q2 8 31 8q31 0 31 -8zM76 -6q-15 0 -15 46t15 46q162 0 162 117v950q0 117 -162 117q-14 0 -14 47t14 47q47 -6 283.5 -6t283.5 6q14 0 14 -47t-14 -47q-162 0 -162 -117v-950
q0 -117 158 -117q14 0 14 -46t-14 -46q-133 6 -286 6t-277 -6z" />
    <glyph glyph-name="ibreve" unicode="&#x12d;" horiz-adv-x="522" 
d="M567 1327q0 -307 -289 -307t-289 307q0 8 31 8q27 0 31 -8q39 -172 227 -172t227 172q2 8 31 8q31 0 31 -8zM393 143q0 -76 103 -75q14 0 15 -38t-15 -38q-84 8 -209 8q-143 0 -228 -8q-14 0 -15 38t15 38q104 0 105 75v414q0 125 -92 125q-16 0 -16.5 37t16.5 37
q49 0 186 67q63 31 84 49q12 10 31 11q29 0 26 -27q-6 -84 -6 -174v-539z" />
    <glyph glyph-name="Iogonek" unicode="&#x12e;" horiz-adv-x="733" 
d="M481 203q-2 -117 158 -117q14 0 14 -45q-2 -47 -14 -47q-111 6 -231 6q-123 -141 -123 -246q0 -121 123 -121q61 0 104 31q20 -6 18 -39q-76 -113 -217 -112q-205 0 -204 184q0 141 182 303q-119 0 -215 -6q-14 0 -15.5 46t15.5 46q162 0 162 117v950q0 117 -162 117
q-14 0 -14.5 47t14.5 47q47 -4 278 -6q242 0 289 6q14 0 14 -47t-14 -47q-164 0 -162 -117v-950z" />
    <glyph glyph-name="iogonek" unicode="&#x12f;" horiz-adv-x="522" 
d="M401 1186q0 -72 -59 -113q-39 -27 -86 -24q-76 0 -117 57q-27 37 -26 80q0 70 57 110q39 29 86 27q78 0 119 -57q26 -39 26 -80zM205 0q-86 -2 -146 -8q-14 0 -15 38t15 38q104 0 105 75v414q0 125 -92 125q-16 0 -16.5 37t16.5 37q49 0 186 67q63 31 84 49q12 10 31 11
q29 0 26 -27q-6 -88 -6 -174v-539q0 -76 103 -75q14 0 16 -37q0 -37 -16 -39q-72 6 -174 8q-123 -141 -123 -246q0 -121 123 -121q61 0 104 31q20 -6 18 -39q-76 -113 -217 -112q-205 0 -204 184q2 141 182 303z" />
    <glyph glyph-name="Idotaccent" unicode="&#x130;" horiz-adv-x="733" 
d="M232 1653q0 57 41 98t98 41t99 -41t42 -98t-41 -98t-100 -41q-57 0 -98 41t-41 98zM76 -6q-15 0 -15 46t15 46q162 0 162 117v950q0 117 -162 117q-14 0 -14 47t14 47q47 -6 283.5 -6t283.5 6q14 0 14 -47t-14 -47q-162 0 -162 -117v-950q0 -117 158 -117q14 0 14 -46
t-14 -46q-133 6 -286 6t-277 -6z" />
    <glyph glyph-name="dotlessi" unicode="&#x131;" horiz-adv-x="522" 
d="M393 143q0 -76 103 -75q14 0 15 -38t-15 -38q-84 8 -209 8q-143 0 -228 -8q-14 0 -15 38t15 38q104 0 105 75v414q0 125 -92 125q-16 0 -16.5 37t16.5 37q49 0 186 67q63 31 84 49q12 10 31 11q29 0 26 -27q-6 -84 -6 -174v-539z" />
    <glyph glyph-name="Jcircumflex" unicode="&#x134;" horiz-adv-x="716" 
d="M690 1524q4 -4 4 -11q0 -8 -8 -20q-10 -18 -20 -18h-2l-269 124q-18 8 -36.5 8.5t-36.5 -8.5l-267 -124h-2q-10 4 -22 18q-8 14 -11 23q0 4 5 8l282 252q27 23 51.5 22.5t49.5 -22.5zM-131 -276q0 60 41.5 89t97.5 29q74 0 129 -57q25 -27 37 -61q33 25 57 81
q25 88 25 449v899q0 117 -170 117q-14 0 -14 47t14 47q47 -5 294 -5t294 5q14 0 14 -47t-14 -47q-172 0 -172 -117v-524q0 -106 -10 -434q0 -228 -80 -361t-207 -205q-86 -47 -172 -49q-51 0 -107.5 38t-56.5 106z" />
    <glyph glyph-name="jcircumflex" unicode="&#x135;" horiz-adv-x="497" 
d="M375 856q-8 -92 -8 -174v-543q0 -186 -11 -268q-25 -174 -108 -287q-76 -102 -207 -131q-37 -8 -74 -8q-59 0 -117 43q-43 35 -43 86q0 57 52 86q27 14 57 16q47 0 80 -53q43 -74 80 -72q45 0 55 91q4 43 6 129v786q0 125 -92 125q-14 0 -14 37t14 37q51 0 188 67
q63 31 84 49q14 10 29 11q29 0 29 -27zM531 1063q2 -4 2 -8q0 -12 -19 -25q-18 -10 -28 -10q-6 0 -9 4l-182 213q-25 29 -43 29t-43 -29l-182 -213q-4 -4 -10 -4q-10 0 -27 10q-18 12 -18 25q0 4 2 8l229 412q16 31 47 30q35 0 51 -30z" />
    <glyph glyph-name="Kcommaaccent" unicode="&#x136;" horiz-adv-x="1380" 
d="M987 -324q0 -86 -88 -143q-74 -47 -172 -47q-125 0 -151 61q-6 12 -6 29q0 43 37 62q12 6 28 6q31 0 76 -39q45 -35 64 -37q31 0 47 24q6 12 6 27q0 78 -142 141l-14 7l-6 16l86 123q143 -57 195 -119q40 -48 40 -111zM1145 190q78 -90 178 -102q23 -2 59 -2q15 0 15 -46
t-15 -46q-133 6 -285.5 6t-291.5 -6q-14 0 -14 46t14 46q84 0 84 39q0 27 -41 78l-258 321q-63 74 -86 74t-23 -29v-366q0 -117 156 -117q13 0 13 -46t-13 -46q-133 6 -285 6t-276 -6q-15 0 -15 46t15 46q162 0 162 117v950q0 117 -172 117q-15 0 -15 47t15 47
q47 -6 287.5 -6t287.5 6q14 0 14 -47t-14 -47q-160 0 -160 -117v-356q0 -27 17 -27q29 0 75 55l277 330q53 63 53 89t-61 26q-13 0 -13 47t13 47q49 -5 198.5 -5t196.5 5q14 0 14 -47t-14 -47q-88 0 -131 -20.5t-82 -63.5l-338 -393q-14 -18 -14 -34.5t14 -33.5z" />
    <glyph glyph-name="kcommaaccent" unicode="&#x137;" horiz-adv-x="1071" 
d="M790 -324q0 -86 -88 -143q-74 -47 -172 -47q-125 0 -151 61q-6 12 -6 29q0 43 37 62q12 6 28 6q31 0 76 -39q45 -35 64 -37q31 0 47 24q6 12 6 27q0 78 -142 141l-14 7l-6 16l86 123q143 -57 195 -119q40 -48 40 -111zM1079 -8q-80 8 -229.5 8t-233.5 -8q-14 0 -15 38
t15 38q74 0 74 28q0 16 -26 49l-195 224q-25 31 -59 30q-16 0 -17 -34v-222q0 -76 109 -75q14 0 14 -38t-14 -38q-84 8 -215 8q-154 0 -238 -8q-14 0 -14 38t14 38q115 0 115 71v1022q-8 119 -92 125q-16 0 -16.5 37t16.5 37q49 0 184 67q66 33 86 50q12 10 29 10
q27 0 28 -27q-6 -86 -6 -174v-758q0 -37 21 -36q43 0 80 38l153 170q33 37 33 54q0 31 -84 30q-16 0 -16 36t16 36q59 -6 217 -6q139 0 203 6q14 0 14 -36t-14 -36q-104 0 -182 -71l-209 -189q-10 -10 -11 -18q0 -14 11 -27l329 -358q47 -53 125 -53q16 0 16 -38t-16 -38z
" />
    <glyph glyph-name="Lacute" unicode="&#x139;" horiz-adv-x="1357" 
d="M606 1649q0 -10 -3 -16.5t-7 -8.5l-289 -135q-31 -14 -51 -14q-18 0 -34.5 11t-16.5 30q0 14 11 32.5t28 30.5l260 199q6 6 14 6t20.5 -7.5t27 -31t27.5 -52t13 -44.5zM481 250q0 -111 68 -154q35 -18 74 -18l331 12q76 2 144 82q82 104 82 219q0 18 50 18t50 -18v-334
q0 -43 -14 -53q-8 -10 -103 -10q-186 0 -443 3t-347.5 3t-296.5 -6q-15 0 -15 46t15 46q162 0 162 127v940q0 117 -172 117q-15 0 -15 47t15 47q47 -5 284.5 -5t286.5 5q13 0 13 -47t-13 -47q-156 0 -156 -117v-903z" />
    <glyph glyph-name="lacute" unicode="&#x13a;" horiz-adv-x="522" 
d="M475 1686q0 -10 -3 -16.5t-7 -8.5l-289 -135q-31 -14 -51 -14q-18 0 -34.5 11t-16.5 30q0 14 11 32.5t28 30.5l260 199q6 6 14 6t20.5 -7.5t27 -31t27.5 -52t13 -44.5zM496 -8q-84 8 -209 8q-143 0 -228 -8q-14 0 -15 38t15 38q104 0 105 67v1026q0 125 -92 125
q-16 0 -16.5 37t16.5 37q49 0 184 67q66 33 86 50q12 10 27 10q31 0 30 -33q-6 -76 -6 -168v-1143q0 -76 103 -75q14 0 14 -38t-14 -38z" />
    <glyph glyph-name="Lcommaaccent" unicode="&#x13b;" horiz-adv-x="1357" 
d="M481 250q0 -111 68 -154q35 -20 74 -18l331 12q76 2 144 82q82 104 82 219q0 18 50 18.5t50 -18.5v-334q0 -43 -14 -53q-8 -12 -103 -10q-184 0 -452 4l-76 -104q-8 -12 -10 -19q0 -10 28 -25q125 -66 123 -174q0 -86 -88 -143q-74 -47 -172 -47q-125 0 -149 61
q-6 12 -7 29q0 43 35 62q12 6 31 6q31 0 74 -39q43 -37 65 -37q53 0 53 51q0 78 -143 141q-20 8 -18 19q0 4 6 12l139 207q-166 2 -248 2q-72 0 -278 -6q-14 0 -15.5 46t15.5 46q162 0 162 127v940q0 117 -172 117q-14 0 -14.5 47t14.5 47q47 -4 286 -6q236 0 285 6
q14 0 13 -47t-13 -47q-156 0 -156 -117v-903z" />
    <glyph glyph-name="lcommaaccent" unicode="&#x13c;" horiz-adv-x="522" 
d="M397 -315q0 -86 -88 -142q-74 -47 -172 -49q-125 0 -151 62q-6 12 -6 28q0 43 36 62q12 6 29 8q31 0 76 -39q43 -37 63 -39q53 0 54 51q0 78 -142 144q-20 8 -20 16q0 4 6 12l135 201q-80 0 -158 -8q-14 0 -15 38t15 38q104 0 105 67v1026q0 125 -92 125q-16 0 -16.5 37
t16.5 37q49 0 184 67q66 33 86 50q12 10 27 10q31 0 30 -33q-6 -76 -6 -168v-1143q0 -76 103 -75q14 0 15 -38t-15 -38q-72 8 -170 8l-72 -96q-8 -12 -8 -19q0 -10 26 -26q125 -65 125 -174z" />
    <glyph glyph-name="Lcaron" unicode="&#x13d;" horiz-adv-x="1357" 
d="M936 1444q0 -143 -94 -283q-39 -53 -65 -53q-6 0 -15 2q-16 8 -16 33q0 20 12 51q25 59 25 125.5t-25 140.5q-2 4 -2 8q0 23 55 23q16 0 39 -2q86 -8 86 -45zM481 250q0 -111 68 -154q35 -18 74 -18l331 12q76 2 144 82q82 104 82 219q0 18 50 18t50 -18v-334
q0 -43 -14 -53q-8 -10 -103 -10q-186 0 -443 3t-347.5 3t-296.5 -6q-15 0 -15 46t15 46q162 0 162 127v940q0 117 -172 117q-15 0 -15 47t15 47q47 -5 284.5 -5t286.5 5q13 0 13 -47t-13 -47q-156 0 -156 -117v-903z" />
    <glyph glyph-name="lcaron" unicode="&#x13e;" horiz-adv-x="522" 
d="M653 1444q0 -143 -94 -283q-39 -53 -65 -53q-6 0 -15 2q-16 8 -16 33q0 20 12 51q25 59 25 125.5t-25 140.5q-2 4 -2 8q0 23 55 23q16 0 39 -2q86 -8 86 -45zM496 -8q-84 8 -209 8q-143 0 -228 -8q-14 0 -15 38t15 38q104 0 105 67v1026q0 125 -92 125q-16 0 -16.5 37
t16.5 37q49 0 184 67q66 33 86 50q12 10 27 10q31 0 30 -33q-6 -76 -6 -168v-1143q0 -76 103 -75q14 0 14 -38t-14 -38z" />
    <glyph glyph-name="Ldot" unicode="&#x13f;" horiz-adv-x="1357" 
d="M1174 731q0 -78 -64 -121q-39 -27 -86 -26q-72 0 -121 45q-45 43 -45 112q0 55 39 101q45 49 127 49q92 0 133 -84q17 -35 17 -76zM481 250q0 -111 68 -154q35 -18 74 -18l331 12q76 2 144 82q82 104 82 219q0 18 50 18t50 -18v-334q0 -43 -14 -53q-8 -10 -103 -10
q-186 0 -443 3t-347.5 3t-296.5 -6q-15 0 -15 46t15 46q162 0 162 127v940q0 117 -172 117q-15 0 -15 47t15 47q47 -5 284.5 -5t286.5 5q13 0 13 -47t-13 -47q-156 0 -156 -117v-903z" />
    <glyph glyph-name="ldot" unicode="&#x140;" horiz-adv-x="866" 
d="M848 512q0 -78 -64 -121q-39 -27 -86 -26q-72 0 -121 45q-45 43 -45 112q0 55 39 101q45 49 127 49q92 0 133 -84q17 -35 17 -76zM496 -8q-84 8 -209 8q-143 0 -228 -8q-14 0 -15 38t15 38q104 0 105 67v1026q0 125 -92 125q-16 0 -16.5 37t16.5 37q49 0 184 67
q66 33 86 50q12 10 27 10q31 0 30 -33q-6 -76 -6 -168v-1143q0 -76 103 -75q14 0 14 -38t-14 -38z" />
    <glyph glyph-name="Lslash" unicode="&#x141;" horiz-adv-x="1357" 
d="M1280 57q0 -43 -14 -53q-25 -12 -103 -10q-168 0 -370.5 3t-327.5 3t-389 -6q-14 0 -15.5 46t15.5 46q162 0 162 127v270l-179 -110q-20 -12 -55 47q-16 29 -14 45q0 10 4 12l244 154v522q0 117 -172 117q-14 0 -14.5 47t14.5 47q47 -4 284 -6q238 0 287 6q14 0 13 -47
t-13 -47q-156 0 -156 -117v-371l252 158q18 12 51 -40t15 -64l-318 -199v-387q0 -63 18.5 -99t48.5 -55.5t75 -17.5l331 12q76 2 126 63.5t75 116t25 121.5q0 18 50 18.5t50 -18.5v-334z" />
    <glyph glyph-name="lslash" unicode="&#x142;" horiz-adv-x="522" 
d="M639 850l-246 -182v-525q0 -76 103 -75q14 0 15 -37t-15 -39q-84 8 -217 8t-220 -8q-14 0 -15 38t15 38q104 0 105 75v357l-164 -121q-20 -14 -51 33q-12 18 -15 32q0 8 7 15l223 164v538q0 125 -92 125q-16 0 -16.5 37t16.5 37q49 0 149.5 49t120.5 68q12 10 27 10
q31 0 30 -33l-6 -168v-493l187 137q18 16 53 -33q12 -18 12 -33q0 -10 -6 -14z" />
    <glyph glyph-name="Nacute" unicode="&#x143;" horiz-adv-x="1480" 
d="M1026 1649q0 -10 -3 -16.5t-7 -8.5l-289 -135q-31 -14 -51 -14q-18 0 -34.5 11t-16.5 30q0 14 11 32.5t28 30.5l260 199q6 6 14 6t20.5 -7.5t27 -31t27.5 -52t13 -44.5zM1288 76q0 -96 -31 -96q-27 0 -73 57l-824 977q-12 16 -18 16q-12 0 -14 -22v-805q0 -117 151 -117
q14 0 14.5 -47t-14.5 -45q-92 6 -200 6q-102 0 -213 -6q-14 -2 -14.5 45t14.5 47q160 0 157 117v952q0 115 -172 115q-12 0 -12 47t12 47q49 -4 176 -6q84 0 99 -2q59 -8 100 -58l711 -866q10 -14 24 -14q25 0 25 31v702q0 119 -154 119q-14 0 -14 47t14 47q102 -4 199 -6
q100 0 192 6q14 0 14.5 -47t-14.5 -47q-135 0 -135 -119v-1075z" />
    <glyph glyph-name="nacute" unicode="&#x144;" horiz-adv-x="1085" 
d="M561 1020q-43 0 -43 53q0 20 9 41l120 301q6 16 27 19q33 0 96 -43q39 -27 37 -48q0 -6 -2 -12l-176 -262q-31 -49 -68 -49zM1069 -8q-106 8 -210.5 8t-225.5 -8q-14 0 -14.5 38t14.5 38q100 0 100 61v408q0 150 -57 200q-29 25 -96 25q-61 0 -119 -49q-68 -57 -68 -121
v-449q0 -76 99 -75q14 0 15 -38t-15 -38q-84 8 -216 8q-135 0 -219 -8q-14 0 -14 38t14 38q106 0 107 75v406q0 133 -92 133q-16 0 -16.5 37t16.5 37q49 0 186 67q63 31 84 49q12 10 27 11q29 0 30 -27l-6 -68q0 -18 9.5 -19t17.5 9q43 55 137 80q41 10 96 12
q188 0 275 -186q37 -74 35 -219v-330q0 -68 106 -67q16 0 16 -38t-16 -38z" />
    <glyph glyph-name="Ncommaaccent" unicode="&#x145;" horiz-adv-x="1480" 
d="M1042 -324q0 -86 -88 -143q-74 -47 -172 -47q-125 0 -151 61q-6 12 -6 29q0 43 37 62q12 6 28 6q31 0 76 -39q45 -35 64 -37q31 0 47 24q6 12 6 27q0 78 -142 141l-14 7l-6 16l86 123q143 -57 195 -119q40 -48 40 -111zM1288 76q0 -96 -31 -96q-27 0 -73 57l-824 977
q-12 16 -18 16q-12 0 -14 -22v-805q0 -117 151 -117q14 0 14.5 -47t-14.5 -45q-92 6 -200 6q-102 0 -213 -6q-14 -2 -14.5 45t14.5 47q160 0 157 117v952q0 115 -172 115q-12 0 -12 47t12 47q49 -4 176 -6q84 0 99 -2q59 -8 100 -58l711 -866q10 -14 24 -14q25 0 25 31v702
q0 119 -154 119q-14 0 -14 47t14 47q102 -4 199 -6q100 0 192 6q14 0 14.5 -47t-14.5 -47q-135 0 -135 -119v-1075z" />
    <glyph glyph-name="ncommaaccent" unicode="&#x146;" horiz-adv-x="1085" 
d="M784 -324q0 -86 -88 -143q-74 -47 -172 -47q-125 0 -151 61q-6 12 -6 29q0 43 37 62q12 6 28 6q31 0 76 -39q45 -35 64 -37q31 0 47 24q6 12 6 27q0 78 -142 141l-14 7l-6 16l86 123q143 -57 195 -119q40 -48 40 -111zM1069 -8q-106 8 -210.5 8t-225.5 -8q-14 0 -14.5 38
t14.5 38q100 0 100 61v408q0 150 -57 200q-29 25 -96 25q-61 0 -119 -49q-68 -57 -68 -121v-449q0 -76 99 -75q14 0 15 -38t-15 -38q-84 8 -216 8q-135 0 -219 -8q-14 0 -14 38t14 38q106 0 107 75v406q0 133 -92 133q-16 0 -16.5 37t16.5 37q49 0 186 67q63 31 84 49
q12 10 27 11q29 0 30 -27l-6 -68q0 -18 9.5 -19t17.5 9q43 55 137 80q41 10 96 12q188 0 275 -186q37 -74 35 -219v-330q0 -68 106 -67q16 0 16 -38t-16 -38z" />
    <glyph glyph-name="Ncaron" unicode="&#x147;" horiz-adv-x="1480" 
d="M410 1747q-4 4 -5 10q0 8 9 23q10 18 20 18q2 0 2 -2l268 -123q18 -8 38 -9t36 9l266 123l5 2q10 -4 20 -20q8 -14 10 -23q0 -4 -4 -8l-282 -250q-27 -23 -51.5 -22.5t-49.5 22.5zM1288 76q0 -96 -31 -96q-27 0 -73 57l-824 977q-12 16 -18 16q-12 0 -14 -22v-805
q0 -117 151 -117q14 0 14.5 -47t-14.5 -45q-92 6 -200 6q-102 0 -213 -6q-14 -2 -14.5 45t14.5 47q160 0 157 117v952q0 115 -172 115q-12 0 -12 47t12 47q49 -4 176 -6q84 0 99 -2q59 -8 100 -58l711 -866q10 -14 24 -14q25 0 25 31v702q0 119 -154 119q-14 0 -14 47t14 47
q102 -4 199 -6q100 0 192 6q14 0 14.5 -47t-14.5 -47q-135 0 -135 -119v-1075z" />
    <glyph glyph-name="ncaron" unicode="&#x148;" horiz-adv-x="1085" 
d="M889 1462l-230 -411q-16 -31 -51 -31q-31 0 -47 31l-229 411q-2 2 -2 6q0 16 28 33q10 6 16.5 6t10.5 -6l182 -213q33 -39 43 -39t43 39l182 213q4 4 11 6q8 0 18 -8q27 -18 27 -31q0 -4 -2 -6zM1069 -8q-106 8 -210.5 8t-225.5 -8q-14 0 -14.5 38t14.5 38q100 0 100 61
v408q0 150 -57 200q-29 25 -96 25q-61 0 -119 -49q-68 -57 -68 -121v-449q0 -76 99 -75q14 0 15 -38t-15 -38q-84 8 -216 8q-135 0 -219 -8q-14 0 -14 38t14 38q106 0 107 75v406q0 133 -92 133q-16 0 -16.5 37t16.5 37q49 0 186 67q63 31 84 49q12 10 27 11q29 0 30 -27
l-6 -68q0 -18 9.5 -19t17.5 9q43 55 137 80q41 10 96 12q188 0 275 -186q37 -74 35 -219v-330q0 -68 106 -67q16 0 16 -38t-16 -38z" />
    <glyph glyph-name="napostrophe" unicode="&#x149;" horiz-adv-x="1085" 
d="M387 1270q0 -111 -82 -205t-192 -145h-11q-10 0 -17 10t-7 18q0 2 2 6q66 59 91.5 124t25.5 114q0 27 -13 31q-45 16 -76.5 50t-31.5 89q0 51 44 81t99 30q66 0 117 -58.5t51 -144.5zM1069 -8q-106 8 -210.5 8t-225.5 -8q-14 0 -14.5 38t14.5 38q100 0 100 61v408
q0 150 -57 200q-29 25 -96 25q-61 0 -119 -49q-68 -57 -68 -121v-449q0 -76 99 -75q14 0 15 -38t-15 -38q-84 8 -216 8q-135 0 -219 -8q-14 0 -14 38t14 38q106 0 107 75v406q0 133 -92 133q-16 0 -16.5 37t16.5 37q49 0 186 67q63 31 84 49q12 10 27 11q29 0 30 -27l-6 -68
q0 -18 9.5 -19t17.5 9q43 55 137 80q41 10 96 12q188 0 275 -186q37 -74 35 -219v-330q0 -68 106 -67q16 0 16 -38t-16 -38z" />
    <glyph glyph-name="Eng" unicode="&#x14a;" horiz-adv-x="1480" 
d="M1288 76v-13l-2 -174q0 -117 -58.5 -213t-124 -145t-177.5 -49q-59 0 -95 33.5t-36 81.5q0 27 9 44t29.5 31.5t59.5 14.5q53 0 90 -36t51 -36q39 0 91.5 78t52.5 172v178l-818 971q-12 16 -18 16q-12 0 -14 -22v-805q0 -117 151 -117q14 0 14.5 -47t-14.5 -45
q-104 6 -200 6q-102 0 -213 -6q-14 -2 -14.5 45t14.5 47q160 0 157 117v952q0 115 -172 115q-12 0 -12 47t12 47q49 -4 176 -6q84 0 99 -2q59 -8 100 -58l711 -866q10 -14 24 -14q25 0 25 31v702q0 119 -154 119q-14 0 -14 47t14 47q102 -4 199 -6q100 0 192 6
q14 0 14.5 -47t-14.5 -47q-135 0 -135 -119v-1075z" />
    <glyph glyph-name="eng" unicode="&#x14b;" horiz-adv-x="1085" 
d="M965 139q0 -186 -15.5 -292.5t-70 -209t-140.5 -147.5t-174 -45q-63 0 -112.5 39t-49.5 90q0 43 34 72.5t75 29.5q47 0 86 -62.5t76 -62.5t48 57.5t11 162.5v766q0 150 -57 200q-29 25 -96 25q-61 0 -119 -49q-68 -57 -68 -121v-449q0 -76 99 -75q14 0 15 -38t-15 -38
q-84 8 -216 8q-135 0 -219 -8q-14 0 -14 38t14 38q106 0 107 75v406q0 133 -92 133q-16 0 -16.5 37t16.5 37q49 0 186 67q63 31 84 49q12 10 27 11q29 0 30 -27l-6 -68q0 -18 9.5 -19t17.5 9q43 55 137 80q41 10 96 12q188 0 275 -186q37 -74 35 -219z" />
    <glyph glyph-name="Omacron" unicode="&#x14c;" horiz-adv-x="1523" 
d="M1049 1661q27 0 24.5 -53.5t-28.5 -53.5h-590q-25 0 -26 53.5t26 53.5h594zM1430 664q0 -219 -146 -418q-203 -272 -543 -273q-225 0 -405 123q-281 195 -281 572q0 252 176 473q195 244 514 243q246 0 426 -153q259 -225 259 -567zM1157 649q0 256 -125 438
q-141 211 -293 209q-154 0 -266 -129q-145 -166 -145 -442q0 -303 153 -496q129 -162 275 -161q264 0 356 278q45 131 45 303z" />
    <glyph glyph-name="omacron" unicode="&#x14d;" horiz-adv-x="1030" 
d="M745 1239q27 0 27 -51q0 -59 -31 -60h-446q-23 0 -23 58q0 53 23 53h450zM969 426q0 -209 -123 -332q-119 -119 -328 -117q-184 0 -313 121q-139 131 -139 326q0 170 110 297q131 150 340 149q217 0 350 -157q103 -123 103 -287zM715 420q0 184 -72 293q-53 82 -125 80
q-82 0 -139 -105q-59 -109 -60 -268q0 -184 72 -287q51 -72 125 -72q94 0 150 113q49 101 49 246z" />
    <glyph glyph-name="Obreve" unicode="&#x14e;" horiz-adv-x="1523" 
d="M1026 1792q0 -307 -289 -307t-289 307q0 8 31 8q27 0 31 -8q39 -172 227 -172t227 172q2 8 31 8q31 0 31 -8zM1430 664q0 -219 -146 -418q-203 -272 -543 -273q-225 0 -405 123q-281 195 -281 572q0 252 176 473q195 244 514 243q246 0 426 -153q259 -225 259 -567z
M1157 649q0 256 -125 438q-141 211 -293 209q-154 0 -266 -129q-145 -166 -145 -442q0 -303 153 -496q129 -162 275 -161q264 0 356 278q45 131 45 303z" />
    <glyph glyph-name="obreve" unicode="&#x14f;" horiz-adv-x="1030" 
d="M805 1327q0 -307 -289 -307t-289 307q0 8 31 8q27 0 31 -8q39 -172 227 -172t227 172q2 8 31 8q31 0 31 -8zM969 426q0 -209 -123 -332q-119 -119 -328 -117q-184 0 -313 121q-139 131 -139 326q0 170 110 297q131 150 340 149q217 0 350 -157q103 -123 103 -287z
M715 420q0 184 -72 293q-53 82 -125 80q-82 0 -139 -105q-59 -109 -60 -268q0 -184 72 -287q51 -72 125 -72q94 0 150 113q49 101 49 246z" />
    <glyph glyph-name="Ohungarumlaut" unicode="&#x150;" horiz-adv-x="1523" 
d="M1233 1649q0 -10 -4 -16.5t-8 -8.5l-287 -135q-31 -14 -53 -14q-18 0 -35 11t-17 30q0 14 11.5 32.5t27.5 30.5l260 199q6 6 15 6q8 0 20.5 -7.5t26.5 -31t28.5 -52t14.5 -44.5zM823 1649q0 -10 -3 -16.5t-9 -8.5l-287 -135q-31 -14 -53 -14q-18 0 -33.5 11t-15.5 30
q0 14 11 32.5t28 30.5l260 199q6 6 14 6t20.5 -7.5t27 -31t27.5 -52t13 -44.5zM1430 664q0 -219 -146 -418q-203 -272 -543 -273q-225 0 -405 123q-281 195 -281 572q0 252 176 473q195 244 514 243q246 0 426 -153q259 -225 259 -567zM1157 649q0 256 -125 438
q-141 211 -293 209q-154 0 -266 -129q-145 -166 -145 -442q0 -303 153 -496q129 -162 275 -161q264 0 356 278q45 131 45 303z" />
    <glyph glyph-name="ohungarumlaut" unicode="&#x151;" horiz-adv-x="1030" 
d="M279 1020q-43 0 -41 53q0 20 8 41l119 301q6 16 28 19q33 0 95 -43q39 -27 39 -48q0 -6 -5 -12l-176 -262q-30 -49 -67 -49zM619 1020q-43 0 -41 53q0 20 8 41l119 301q6 16 28 19q33 0 95 -43q39 -27 38 -48q0 -6 -4 -12l-176 -262q-30 -49 -67 -49zM969 426
q0 -209 -123 -332q-119 -119 -328 -117q-184 0 -313 121q-139 131 -139 326q0 170 110 297q131 150 340 149q217 0 350 -157q103 -123 103 -287zM715 420q0 184 -72 293q-53 82 -125 80q-82 0 -139 -105q-59 -109 -60 -268q0 -184 72 -287q51 -72 125 -72q94 0 150 113
q49 101 49 246z" />
    <glyph glyph-name="OE" unicode="&#x152;" horiz-adv-x="2009" 
d="M1946 57q0 -43 -17 -53q-27 -12 -100 -10q-137 0 -349 3t-358 3q-68 0 -211 -5t-192 -5q-276 0 -471 190.5t-195 481.5q0 264 189.5 480t480.5 216q96 0 211 -3t199 -3q86 0 283.5 2t367.5 4q84 0 94 -15q10 -10 10 -36v-306q0 -16 -50 -17t-50 17q0 129 -98 205
q-61 45 -125 49q-43 2 -297 11q-27 0 -27 -41v-508q6 -27 29 -31h137q121 0 121 92v99q0 14 52 14t52 -14q-6 -68 -6 -234q0 -162 6 -223q0 -14 -52 -15.5t-52 15.5v86q0 88 -121 88h-137q-29 0 -29 -31v-342q0 -76 74 -115q41 -20 88 -20l217 4q158 4 205 137q18 49 18 117
q0 18 51.5 18t51.5 -18v-287zM997 203v952q0 53 -51 81t-114.5 32t-114.5 4q-156 0 -273.5 -151.5t-117.5 -401.5q0 -295 138 -467t267 -172q141 0 203.5 27.5t62.5 95.5z" />
    <glyph glyph-name="oe" unicode="&#x153;" horiz-adv-x="1546" 
d="M1468 612q0 -76 -90 -75h-411q-10 0 -11 -27q0 -195 76 -303q63 -92 168 -94q78 0 156 47q27 16 30 18l11 2q23 0 39 -30q6 -10 8 -19l-2 -10l-2 -2q-61 -66 -156 -107q-84 -37 -170 -37q-129 0 -237 107q-14 14 -29 31q-119 -135 -342 -136q-184 0 -313 121
q-119 113 -138 275q-2 27 -2 51q0 170 111 295q113 127 285 147q29 2 55 4q205 0 330 -139l6 -6q94 109 217 137q33 8 63 8q160 0 271 -114q66 -68 75 -129zM1245 651q-8 82 -65 121q-29 18 -58 19q-133 0 -153 -138q-4 -27 20 -26h234q26 -1 22 24zM702 420q0 184 -71 293
q-51 80 -125 80q-84 0 -139 -105q-59 -109 -60 -268q0 -184 74 -287q51 -72 123 -72q94 0 149 115q49 99 49 244z" />
    <glyph glyph-name="Racute" unicode="&#x154;" horiz-adv-x="1419" 
d="M936 1649q0 -10 -3 -16.5t-7 -8.5l-289 -135q-31 -14 -51 -14q-18 0 -34.5 11t-16.5 30q0 14 11 32.5t28 30.5l260 199q6 6 14 6t20.5 -7.5t27 -31t27.5 -52t13 -44.5zM1212 969q0 -252 -282 -336q-18 -4 -19 -21q0 -10 13 -26q131 -223 325 -424q94 -100 181 -117
q27 -4 24 -29q0 -39 -22 -36l-93 -5q-156 0 -237 56q-141 88 -262 260l-131 186q-63 76 -78 88q-25 20 -64 23h-67q-18 0 -19 -21v-364q0 -117 156 -117q14 0 13 -46t-13 -46q-133 6 -277 6q-152 0 -284 -6q-14 0 -15.5 46t15.5 46q162 0 162 117v952q0 109 -172 111
q-14 0 -14.5 46t14.5 46q143 -6 288 -6q55 0 134 3t171 3q338 0 482 -174q71 -90 71 -215zM958 969q0 135 -116 227q-106 82 -279 82q-61 0 -71.5 -8t-10.5 -33v-524q0 -33 25 -39q47 -8 86 -8q264 0 340 165q26 62 26 138z" />
    <glyph glyph-name="racute" unicode="&#x155;" horiz-adv-x="753" 
d="M399 1020q-43 0 -43 53q0 20 9 41l120 301q6 16 27 19q33 0 96 -43q39 -27 37 -48q0 -6 -2 -12l-176 -262q-31 -49 -68 -49zM756 752q0 -59 -41 -95q-27 -25 -62 -24q-51 0 -102 51q-23 23 -49 23q-43 0 -76 -58q-33 -55 -33 -127v-379q0 -76 103 -75q14 0 15 -38
t-15 -38q-84 8 -209 8q-143 0 -228 -8q-14 0 -15 38t15 38q104 0 105 75v406q0 133 -92 133q-16 0 -16.5 37t16.5 37q51 0 190 69q59 31 80 47q12 10 29 11q25 0 28 -21l-6 -74q0 -23 13.5 -22.5t35.5 25.5q68 80 168 79q70 0 115 -45q31 -30 31 -73z" />
    <glyph glyph-name="Rcommaaccent" unicode="&#x156;" horiz-adv-x="1419" 
d="M1171 -324q0 -86 -88 -143q-74 -47 -172 -47q-125 0 -151 61q-6 12 -6 29q0 43 37 62q12 6 28 6q31 0 76 -39q45 -35 64 -37q31 0 47 24q6 12 6 27q0 78 -142 141l-14 7l-6 16l86 123q143 -57 195 -119q40 -48 40 -111zM1212 969q0 -252 -282 -336q-18 -4 -19 -21
q0 -10 13 -26q131 -223 325 -424q94 -100 181 -117q27 -4 24 -29q0 -39 -22 -36l-93 -5q-156 0 -237 56q-141 88 -262 260l-131 186q-63 76 -78 88q-25 20 -64 23h-67q-18 0 -19 -21v-364q0 -117 156 -117q14 0 13 -46t-13 -46q-133 6 -277 6q-152 0 -284 -6q-14 0 -15.5 46
t15.5 46q162 0 162 117v952q0 109 -172 111q-14 0 -14.5 46t14.5 46q143 -6 288 -6q55 0 134 3t171 3q338 0 482 -174q71 -90 71 -215zM958 969q0 135 -116 227q-106 82 -279 82q-61 0 -71.5 -8t-10.5 -33v-524q0 -33 25 -39q47 -8 86 -8q264 0 340 165q26 62 26 138z" />
    <glyph glyph-name="rcommaaccent" unicode="&#x157;" horiz-adv-x="753" 
d="M428 -315q0 -86 -86 -142q-74 -47 -172 -49q-125 0 -152 62q-6 12 -6 28q0 43 35 62q12 6 31 8q31 0 74 -39q43 -37 65 -39q53 0 53 51q0 78 -143 144q-20 8 -18 16q0 4 6 12l135 201q-117 0 -191 -8q-14 0 -15 38t15 38q104 0 105 75v406q0 133 -92 133q-16 0 -16.5 37
t16.5 37q51 0 190 69q59 31 80 47q12 10 29 11q25 0 28 -21l-6 -74q0 -23 13.5 -22.5t35.5 25.5q68 80 168 79q70 0 115 -45q31 -31 31 -73q0 -59 -41 -95q-27 -25 -62 -24q-51 0 -102 51q-23 23 -49 23q-43 0 -76 -58q-33 -55 -33 -127v-379q0 -76 103 -75q14 0 15 -38
t-15 -38q-59 6 -140 8l-69 -96q-8 -12 -11 -19q0 -10 29 -26q123 -65 123 -174z" />
    <glyph glyph-name="Rcaron" unicode="&#x158;" horiz-adv-x="1419" 
d="M295 1747q-4 4 -5 10q0 8 9 23q10 18 20 18q2 0 2 -2l268 -123q18 -8 38 -9t36 9l266 123l5 2q10 -4 20 -20q8 -14 10 -23q0 -4 -4 -8l-282 -250q-27 -23 -51.5 -22.5t-49.5 22.5zM1212 969q0 -252 -282 -336q-18 -4 -19 -21q0 -10 13 -26q131 -223 325 -424
q94 -100 181 -117q27 -4 24 -29q0 -39 -22 -36l-93 -5q-156 0 -237 56q-141 88 -262 260l-131 186q-63 76 -78 88q-25 20 -64 23h-67q-18 0 -19 -21v-364q0 -117 156 -117q14 0 13 -46t-13 -46q-133 6 -277 6q-152 0 -284 -6q-14 0 -15.5 46t15.5 46q162 0 162 117v952
q0 109 -172 111q-14 0 -14.5 46t14.5 46q143 -6 288 -6q55 0 134 3t171 3q338 0 482 -174q71 -90 71 -215zM958 969q0 135 -116 227q-106 82 -279 82q-61 0 -71.5 -8t-10.5 -33v-524q0 -33 25 -39q47 -8 86 -8q264 0 340 165q26 62 26 138z" />
    <glyph glyph-name="rcaron" unicode="&#x159;" horiz-adv-x="753" 
d="M678 1462l-230 -411q-16 -31 -51 -31q-31 0 -47 31l-229 411q-2 2 -2 6q0 16 28 33q10 6 16.5 6t10.5 -6l182 -213q33 -39 43 -39t43 39l182 213q4 4 11 6q8 0 18 -8q27 -18 27 -31q0 -4 -2 -6zM756 752q0 -59 -41 -95q-27 -25 -62 -24q-51 0 -102 51q-23 23 -49 23
q-43 0 -76 -58q-33 -55 -33 -127v-379q0 -76 103 -75q14 0 15 -38t-15 -38q-84 8 -209 8q-143 0 -228 -8q-14 0 -15 38t15 38q104 0 105 75v406q0 133 -92 133q-16 0 -16.5 37t16.5 37q51 0 190 69q59 31 80 47q12 10 29 11q25 0 28 -21l-6 -74q0 -23 13.5 -22.5t35.5 25.5
q68 80 168 79q70 0 115 -45q31 -30 31 -73z" />
    <glyph glyph-name="Sacute" unicode="&#x15a;" horiz-adv-x="1075" 
d="M811 1649q0 -10 -3 -16.5t-7 -8.5l-289 -135q-31 -14 -51 -14q-18 0 -34.5 11t-16.5 30q0 14 11 32.5t28 30.5l260 199q6 6 14 6t20.5 -7.5t27 -31t27.5 -52t13 -44.5zM981 403q0 -180 -111 -301q-119 -129 -315 -129q-143 0 -248 35l-143 64q-53 162 -53 313q0 25 47 25
q47 2 51 -19q10 -117 90 -207q104 -119 272 -116q72 0 129 57q72 70 70 182q0 207 -268 277q-397 100 -398 448q0 141 129 258q104 94 291 94q121 0 213 -20q55 -12 64 -12l35 2h2q37 -119 49 -271q2 -27 -45 -32q-45 -6 -51 12q-31 117 -98.5 177t-186.5 60q-94 0 -154 -83
q-41 -55 -41 -142q0 -180 248 -241q422 -101 422 -431z" />
    <glyph glyph-name="sacute" unicode="&#x15b;" horiz-adv-x="747" 
d="M376 1020q-43 0 -43 53q0 20 9 41l120 301q6 16 27 19q33 0 96 -43q39 -27 37 -48q0 -6 -2 -12l-176 -262q-31 -49 -68 -49zM346 -23q-145 0 -240 60q-29 68 -28 221q0 18 35 18q39 0 41 -16q4 -53 67 -127q66 -76 158 -76q49 0 90 41q33 35 33 76q0 121 -172 166
q-176 47 -238 149q-31 51 -29 123q0 115 101 189q92 70 223 69q123 0 217 -36q39 -104 39 -191q0 -18 -31 -18q-33 0 -34 10q-18 51 -80 113q-41 41 -125 40q-61 0 -99 -51q-23 -31 -22 -63q0 -100 168 -142q160 -41 223 -116q49 -61 51 -158q0 -133 -110 -215
q-95 -68 -238 -66z" />
    <glyph glyph-name="Scircumflex" unicode="&#x15c;" horiz-adv-x="1075" 
d="M856 1524q4 -4 4 -11q0 -8 -8 -20q-10 -18 -20 -18h-2l-269 124q-18 8 -36.5 8.5t-36.5 -8.5l-267 -124h-2q-10 4 -22 18q-8 14 -11 23q0 4 5 8l282 252q27 23 51.5 22.5t49.5 -22.5zM981 403q0 -180 -111 -301q-119 -129 -315 -129q-143 0 -248 35l-143 64
q-53 162 -53 313q0 25 47 25q47 2 51 -19q10 -117 90 -207q104 -119 272 -116q72 0 129 57q72 70 70 182q0 207 -268 277q-397 100 -398 448q0 141 129 258q104 94 291 94q121 0 213 -20q55 -12 64 -12l35 2h2q37 -119 49 -271q2 -27 -45 -32q-45 -6 -51 12
q-31 117 -98.5 177t-186.5 60q-94 0 -154 -83q-41 -55 -41 -142q0 -180 248 -241q422 -101 422 -431z" />
    <glyph glyph-name="scircumflex" unicode="&#x15d;" horiz-adv-x="747" 
d="M666 1063q2 -4 2 -8q0 -12 -19 -25q-18 -10 -28 -10q-6 0 -9 4l-182 213q-25 29 -43 29t-43 -29l-182 -213q-4 -4 -10 -4q-10 0 -27 10q-18 12 -18 25q0 4 2 8l229 412q16 31 47 30q35 0 51 -30zM346 -23q-145 0 -240 60q-29 68 -28 221q0 18 35 18q39 0 41 -16
q4 -53 67 -127q66 -76 158 -76q49 0 90 41q33 35 33 76q0 121 -172 166q-176 47 -238 149q-31 51 -29 123q0 115 101 189q92 70 223 69q123 0 217 -36q39 -104 39 -191q0 -18 -31 -18q-33 0 -34 10q-18 51 -80 113q-41 41 -125 40q-61 0 -99 -51q-23 -31 -22 -63
q0 -100 168 -142q160 -41 223 -116q49 -61 51 -158q0 -133 -110 -215q-95 -68 -238 -66z" />
    <glyph glyph-name="Scedilla" unicode="&#x15e;" horiz-adv-x="1075" 
d="M674 -334q0 -86 -88 -141q-74 -47 -172 -49q-125 0 -152 61q-6 12 -6 29q0 43 37 61q12 6 29 6q31 0 75 -39q43 -37 66 -36q53 0 51 51q0 78 -141 141q-20 8 -21 19q0 4 6 12l131 194q-102 6 -182 33l-143 64q-53 162 -53 313q0 25 47 25q47 2 51 -19q10 -117 90 -207
q104 -119 272 -116q72 0 129 57q72 70 70 182q0 207 -268 277q-397 100 -398 448q0 141 129 258q104 94 291 94q121 0 213 -20q55 -12 64 -12l35 2h2q37 -119 49 -271q2 -27 -45 -32q-45 -6 -51 12q-31 117 -98.5 177t-186.5 60q-94 0 -154 -83q-41 -55 -41 -142
q0 -180 248 -241q422 -102 422 -431q0 -180 -111 -301q-104 -115 -272 -127l-68 -92q-8 -12 -8 -16q0 -10 29 -27q123 -65 123 -174z" />
    <glyph glyph-name="scedilla" unicode="&#x15f;" horiz-adv-x="747" 
d="M465 -332q0 -86 -88 -141q-74 -47 -172 -47q-125 0 -152 59q-6 12 -6 31q0 43 37 59q12 6 29 9q31 0 75 -39q43 -37 66 -37q53 0 51 51q0 78 -141 141q-20 8 -21 17q0 4 7 14l133 195q-104 10 -177 57q-29 68 -28 221q0 18 35 18q39 0 41 -16q4 -53 67 -127
q66 -76 158 -76q49 0 90 41q33 35 33 76q0 121 -172 166q-176 47 -238 149q-31 51 -29 123q0 115 101 189q92 70 223 69q123 0 217 -36q39 -104 39 -191q0 -18 -31 -18q-33 0 -34 10q-18 51 -80 113q-41 41 -125 40q-61 0 -99 -51q-23 -31 -22 -63q0 -100 168 -142
q160 -41 223 -116q49 -61 51 -158q0 -133 -110 -215q-80 -57 -195 -66l-67 -90q-8 -12 -9 -18q0 -10 29 -27q123 -65 123 -174z" />
    <glyph glyph-name="Scaron" unicode="&#x160;" horiz-adv-x="1075" 
d="M207 1747q-4 4 -5 10q0 8 9 23q10 18 20 18q2 0 2 -2l268 -123q18 -8 38 -9t36 9l266 123l5 2q10 -4 20 -20q8 -14 10 -23q0 -4 -4 -8l-282 -250q-27 -23 -51.5 -22.5t-49.5 22.5zM981 403q0 -180 -111 -301q-119 -129 -315 -129q-143 0 -248 35l-143 64q-53 162 -53 313
q0 25 47 25q47 2 51 -19q10 -117 90 -207q104 -119 272 -116q72 0 129 57q72 70 70 182q0 207 -268 277q-397 100 -398 448q0 141 129 258q104 94 291 94q121 0 213 -20q55 -12 64 -12l35 2h2q37 -119 49 -271q2 -27 -45 -32q-45 -6 -51 12q-31 117 -98.5 177t-186.5 60
q-94 0 -154 -83q-41 -55 -41 -142q0 -180 248 -241q422 -101 422 -431z" />
    <glyph glyph-name="scaron" unicode="&#x161;" horiz-adv-x="747" 
d="M666 1462l-230 -411q-16 -31 -51 -31q-31 0 -47 31l-229 411q-2 2 -2 6q0 16 28 33q10 6 16.5 6t10.5 -6l182 -213q33 -39 43 -39t43 39l182 213q4 4 11 6q8 0 18 -8q27 -18 27 -31q0 -4 -2 -6zM346 -23q-145 0 -240 60q-29 68 -28 221q0 18 35 18q39 0 41 -16
q4 -53 67 -127q66 -76 158 -76q49 0 90 41q33 35 33 76q0 121 -172 166q-176 47 -238 149q-31 51 -29 123q0 115 101 189q92 70 223 69q123 0 217 -36q39 -104 39 -191q0 -18 -31 -18q-33 0 -34 10q-18 51 -80 113q-41 41 -125 40q-61 0 -99 -51q-23 -31 -22 -63
q0 -100 168 -142q160 -41 223 -116q49 -61 51 -158q0 -133 -110 -215q-95 -68 -238 -66z" />
    <glyph glyph-name="Tcommaaccent" unicode="&#x162;" horiz-adv-x="1298" 
d="M764 -313q0 -86 -88 -144q-74 -47 -172 -47q-125 0 -152 62q-6 12 -6 28q0 43 37 62q12 6 29 6q31 0 75 -39q43 -37 66 -37q53 0 51 51q0 78 -141 142q-20 8 -21 16q0 4 7 14l135 199q-129 0 -236 -6q-14 0 -13 46t13 46q180 0 180 117v1034q0 29 -26 29h-144
q-86 0 -154.5 -73t-68.5 -185q0 -16 -50 -16.5t-50 16.5v299q0 35 14 41q25 10 98 10q188 -6 495.5 -6t520.5 6q84 0 97 -17q8 -10 8 -34v-299q0 -16 -51.5 -16.5t-51.5 16.5q0 129 -77.5 193.5t-153.5 64.5h-127q-33 0 -35 -29v-1034q0 -117 172 -117q12 0 12 -46t-12 -46
q-111 6 -252 6l-71 -96q-8 -12 -9 -19q-2 -10 27 -24q123 -65 125 -174z" />
    <glyph glyph-name="tcommaaccent" unicode="&#x163;" horiz-adv-x="669" 
d="M530 -330q0 -86 -88 -141q-74 -47 -172 -47q-125 0 -149 59q-6 12 -6 31q0 43 35 59q12 6 28 9q31 0 76 -39q43 -37 65 -37q53 0 54 51q0 78 -144 141q-20 8 -18 17q0 4 4 14l133 195q-160 25 -188 178q-6 33 -6 73v482q0 31 -31 30h-55q-16 0 -16.5 37t16.5 37
q61 0 133 60q70 57 92 125q4 12 43 2q43 -12 49 -31v-94q0 -31 31 -31h215q14 0 14 -52.5t-14 -52.5h-215q-31 0 -31 -30v-416q0 -121 35 -160q27 -31 86 -30q51 0 127 47q10 8 39 -25q25 -31 14 -41q-94 -98 -231 -110l-68 -91q-8 -12 -8 -18q0 -10 29 -27
q122 -65 122 -174z" />
    <glyph glyph-name="Tcaron" unicode="&#x164;" horiz-adv-x="1298" 
d="M328 1747q-4 4 -5 10q0 8 9 23q10 18 20 18q2 0 2 -2l268 -123q18 -8 38 -9t36 9l266 123l5 2q10 -4 20 -20q8 -14 10 -23q0 -4 -4 -8l-282 -250q-27 -23 -51.5 -22.5t-49.5 22.5zM772 203q0 -117 172 -117q12 0 12 -46t-12 -46q-86 6 -293 6t-303 -6q-14 0 -13 46t13 46
q180 0 180 117v1034q0 29 -26 29h-144q-86 0 -154.5 -73t-68.5 -185q0 -16 -50 -16.5t-50 16.5v299q0 35 14 41q25 10 98 10q188 -6 495.5 -6t520.5 6q84 0 97 -17q8 -10 8 -34v-299q0 -16 -51.5 -16.5t-51.5 16.5q0 129 -77.5 193.5t-153.5 64.5h-127q-33 0 -35 -29v-1034z
" />
    <glyph glyph-name="tcaron" unicode="&#x165;" horiz-adv-x="669" 
d="M643 1294q0 -143 -94 -283q-39 -53 -65 -53q-6 0 -15 2q-16 8 -16 33q0 20 12 51q25 59 25 125.5t-25 140.5q-2 4 -2 8q0 23 55 23q16 0 39 -2q86 -8 86 -45zM686 90q-109 -113 -274 -113q-219 2 -252 183q-6 33 -6 73v482q0 31 -31 30h-55q-16 0 -16.5 37t16.5 37
q61 0 133 60q70 57 92 125q4 12 43 2q43 -12 49 -31v-94q0 -31 31 -31h215q14 0 14 -52.5t-14 -52.5h-215q-31 0 -31 -30v-416q0 -121 35 -160q27 -31 86 -30q51 0 127 47q10 8 39 -25q18 -23 16 -35q0 -4 -2 -6z" />
    <glyph glyph-name="Utilde" unicode="&#x168;" horiz-adv-x="1511" 
d="M1116 1712q-111 -164 -219 -163q-41 0 -127 30q-94 33 -127 33q-63 0 -111 -59q-2 -2 -8 -2q-8 0 -22.5 14t-16.5 22q0 2 2 7q106 160 220 159q49 0 133 -32q76 -27 108 -27q63 0 123 61q2 2 6 2q8 0 25 -12q18 -16 16 -26q0 -5 -2 -7zM1323 881q0 -276 -12 -416
q-16 -246 -156 -375q-127 -119 -383 -117q-156 0 -266 41q-158 61 -219 187q-51 106 -64 344v608q0 117 -155 117q-14 0 -14.5 47t14.5 47q147 -4 280 -6q145 0 293 6q14 0 14 -47t-14 -47q-174 0 -172 -117v-467l10 -280q2 -125 56 -203q90 -135 276 -135q172 0 276 104
q90 92 91 324v657q0 117 -158 117q-14 0 -14 47t14 47q137 -4 229 -6q92 0 228 6q14 0 14 -47t-14 -47q-154 0 -154 -117v-272z" />
    <glyph glyph-name="utilde" unicode="&#x169;" horiz-adv-x="1026" 
d="M817 1212q-111 -164 -219 -163q-41 0 -127 30q-94 33 -127 33q-63 0 -111 -59q-2 -2 -8 -2q-8 0 -22.5 14t-16.5 22q0 2 2 7q106 160 220 159q49 0 133 -32q76 -27 108 -27q63 0 123 61q2 2 6 2q8 0 25 -12q18 -16 16 -26q0 -5 -2 -7zM1038 31q-8 -2 -104 -21
q-27 -4 -51 -10q-55 -12 -115 -31q-12 -4 -25 -4q-14 0 -14 45v47q0 23 -12 23t-27 -14q-92 -88 -246 -89q-127 0 -170 35q-147 119 -147 297v346q0 102 -84 103q-14 0 -14 36.5t14 36.5q113 0 223 19q31 4 51 4q45 0 45 -43q-6 -98 -6 -162v-342q0 -123 50 -182
q29 -33 98 -33q63 0 133 55q53 43 53 93v415q0 102 -84 103q-16 0 -16 36.5t16 36.5q111 0 230 19q25 4 38 4q53 0 54 -37q-8 -94 -8 -155v-406q0 -90 10 -117q14 -41 51 -41q12 0 35 6q16 4 26 -32q2 -14 2 -23q0 -16 -6 -18z" />
    <glyph glyph-name="Umacron" unicode="&#x16a;" horiz-adv-x="1511" 
d="M1131 1661q27 0 24.5 -53.5t-28.5 -53.5h-590q-25 0 -26 53.5t26 53.5h594zM1323 881q0 -276 -12 -416q-16 -246 -156 -375q-127 -119 -383 -117q-156 0 -266 41q-158 61 -219 187q-51 106 -64 344v608q0 117 -155 117q-14 0 -14.5 47t14.5 47q147 -4 280 -6q145 0 293 6
q14 0 14 -47t-14 -47q-174 0 -172 -117v-467l10 -280q2 -125 56 -203q90 -135 276 -135q172 0 276 104q90 92 91 324v657q0 117 -158 117q-14 0 -14 47t14 47q137 -4 229 -6q92 0 228 6q14 0 14 -47t-14 -47q-154 0 -154 -117v-272z" />
    <glyph glyph-name="umacron" unicode="&#x16b;" horiz-adv-x="1026" 
d="M723 1239q27 0 27 -51q0 -59 -31 -60h-446q-23 0 -23 58q0 53 23 53h450zM1038 31q-8 -2 -104 -21q-27 -4 -51 -10q-55 -12 -115 -31q-12 -4 -25 -4q-14 0 -14 45v47q0 23 -12 23t-27 -14q-92 -88 -246 -89q-127 0 -170 35q-147 119 -147 297v346q0 102 -84 103
q-14 0 -14 36.5t14 36.5q113 0 223 19q31 4 51 4q45 0 45 -43q-6 -98 -6 -162v-342q0 -123 50 -182q29 -33 98 -33q63 0 133 55q53 43 53 93v415q0 102 -84 103q-16 0 -16 36.5t16 36.5q111 0 230 19q25 4 38 4q53 0 54 -37q-8 -94 -8 -155v-406q0 -90 10 -117
q14 -41 51 -41q12 0 35 6q16 4 26 -32q2 -14 2 -23q0 -16 -6 -18z" />
    <glyph glyph-name="Ubreve" unicode="&#x16c;" horiz-adv-x="1511" 
d="M1116 1792q0 -307 -289 -307t-289 307q0 8 31 8q27 0 31 -8q39 -172 227 -172t227 172q2 8 31 8q31 0 31 -8zM1323 881q0 -276 -12 -416q-16 -246 -156 -375q-127 -119 -383 -117q-156 0 -266 41q-158 61 -219 187q-51 106 -64 344v608q0 117 -155 117q-14 0 -14.5 47
t14.5 47q147 -4 280 -6q145 0 293 6q14 0 14 -47t-14 -47q-174 0 -172 -117v-467l10 -280q2 -125 56 -203q90 -135 276 -135q172 0 276 104q90 92 91 324v657q0 117 -158 117q-14 0 -14 47t14 47q137 -4 229 -6q92 0 228 6q14 0 14 -47t-14 -47q-154 0 -154 -117v-272z" />
    <glyph glyph-name="ubreve" unicode="&#x16d;" horiz-adv-x="1026" 
d="M766 1327q0 -307 -289 -307t-289 307q0 8 31 8q27 0 31 -8q39 -172 227 -172t227 172q2 8 31 8q31 0 31 -8zM1038 31q-8 -2 -104 -21q-27 -4 -51 -10q-55 -12 -115 -31q-12 -4 -25 -4q-14 0 -14 45v47q0 23 -12 23t-27 -14q-92 -88 -246 -89q-127 0 -170 35
q-147 119 -147 297v346q0 102 -84 103q-14 0 -14 36.5t14 36.5q113 0 223 19q31 4 51 4q45 0 45 -43q-6 -98 -6 -162v-342q0 -123 50 -182q29 -33 98 -33q63 0 133 55q53 43 53 93v415q0 102 -84 103q-16 0 -16 36.5t16 36.5q111 0 230 19q25 4 38 4q53 0 54 -37
q-8 -94 -8 -155v-406q0 -90 10 -117q14 -41 51 -41q12 0 35 6q16 4 26 -32q2 -14 2 -23q0 -16 -6 -18z" />
    <glyph glyph-name="Uring" unicode="&#x16e;" horiz-adv-x="1511" 
d="M1067 1710q0 -113 -103 -184q-57 -41 -143 -41q-127 0 -196 88q-49 59 -50 137q0 96 72 162q70 61 174 61q127 0 199 -88q47 -59 47 -135zM930 1710q0 78 -54 123q-23 18 -55 21q-63 0 -96 -76q-12 -29 -12 -68q0 -86 53 -123q25 -16 55 -16q68 0 96 68q13 32 13 71z
M1323 881q0 -276 -12 -416q-16 -246 -156 -375q-127 -119 -383 -117q-156 0 -266 41q-158 61 -219 187q-51 106 -64 344v608q0 117 -155 117q-14 0 -14.5 47t14.5 47q147 -4 280 -6q145 0 293 6q14 0 14 -47t-14 -47q-174 0 -172 -117v-467l10 -280q2 -125 56 -203
q90 -135 276 -135q172 0 276 104q90 92 91 324v657q0 117 -158 117q-14 0 -14 47t14 47q137 -4 229 -6q92 0 228 6q14 0 14 -47t-14 -47q-154 0 -154 -117v-272z" />
    <glyph glyph-name="uring" unicode="&#x16f;" horiz-adv-x="1026" 
d="M719 1245q0 -113 -103 -184q-57 -41 -143 -41q-127 0 -196 88q-49 59 -50 137q0 96 72 162q70 61 174 61q127 0 199 -88q47 -59 47 -135zM582 1245q0 78 -54 123q-23 18 -55 21q-63 0 -96 -76q-12 -29 -12 -68q0 -86 53 -123q25 -16 55 -16q68 0 96 68q13 32 13 71z
M1038 31q-8 -2 -104 -21q-27 -4 -51 -10q-55 -12 -115 -31q-12 -4 -25 -4q-14 0 -14 45v47q0 23 -12 23t-27 -14q-92 -88 -246 -89q-127 0 -170 35q-147 119 -147 297v346q0 102 -84 103q-14 0 -14 36.5t14 36.5q113 0 223 19q31 4 51 4q45 0 45 -43q-6 -98 -6 -162v-342
q0 -123 50 -182q29 -33 98 -33q63 0 133 55q53 43 53 93v415q0 102 -84 103q-16 0 -16 36.5t16 36.5q111 0 230 19q25 4 38 4q53 0 54 -37q-8 -94 -8 -155v-406q0 -90 10 -117q14 -41 51 -41q12 0 35 6q16 4 26 -32q2 -14 2 -23q0 -16 -6 -18z" />
    <glyph glyph-name="Uhungarumlaut" unicode="&#x170;" horiz-adv-x="1511" 
d="M1229 1649q0 -10 -4 -16.5t-8 -8.5l-287 -135q-31 -14 -53 -14q-18 0 -35 11t-17 30q0 14 11.5 32.5t27.5 30.5l260 199q6 6 15 6q8 0 20.5 -7.5t26.5 -31t28.5 -52t14.5 -44.5zM819 1649q0 -10 -3 -16.5t-9 -8.5l-287 -135q-31 -14 -53 -14q-18 0 -33.5 11t-15.5 30
q0 14 11 32.5t28 30.5l260 199q6 6 14 6t20.5 -7.5t27 -31t27.5 -52t13 -44.5zM1323 881q0 -276 -12 -416q-16 -246 -156 -375q-127 -119 -383 -117q-156 0 -266 41q-158 61 -219 187q-51 106 -64 344v608q0 117 -155 117q-14 0 -14.5 47t14.5 47q147 -4 280 -6q145 0 293 6
q14 0 14 -47t-14 -47q-174 0 -172 -117v-467l10 -280q2 -125 56 -203q90 -135 276 -135q172 0 276 104q90 92 91 324v657q0 117 -158 117q-14 0 -14 47t14 47q137 -4 229 -6q92 0 228 6q14 0 14 -47t-14 -47q-154 0 -154 -117v-272z" />
    <glyph glyph-name="uhungarumlaut" unicode="&#x171;" horiz-adv-x="1026" 
d="M285 1020q-43 0 -41 53q0 20 8 41l119 301q6 16 28 19q33 0 95 -43q39 -27 39 -48q0 -6 -5 -12l-176 -262q-30 -49 -67 -49zM625 1020q-43 0 -41 53q0 20 8 41l119 301q6 16 28 19q33 0 95 -43q39 -27 38 -48q0 -6 -4 -12l-176 -262q-30 -49 -67 -49zM1038 31
q-8 -2 -104 -21q-27 -4 -51 -10q-55 -12 -115 -31q-12 -4 -25 -4q-14 0 -14 45v47q0 23 -12 23t-27 -14q-92 -88 -246 -89q-127 0 -170 35q-147 119 -147 297v346q0 102 -84 103q-14 0 -14 36.5t14 36.5q113 0 223 19q31 4 51 4q45 0 45 -43q-6 -98 -6 -162v-342
q0 -123 50 -182q29 -33 98 -33q63 0 133 55q53 43 53 93v415q0 102 -84 103q-16 0 -16 36.5t16 36.5q111 0 230 19q25 4 38 4q53 0 54 -37q-8 -94 -8 -155v-406q0 -90 10 -117q14 -41 51 -41q12 0 35 6q16 4 26 -32q2 -14 2 -23q0 -16 -6 -18z" />
    <glyph glyph-name="Uogonek" unicode="&#x172;" horiz-adv-x="1511" 
d="M1323 881q0 -276 -15.5 -469t-152.5 -322q-55 -51 -135 -80q-250 -90 -250 -256q0 -121 123 -121q61 0 102 31q20 -6 21 -39q-76 -113 -217 -112q-109 0 -157 51t-48 133q0 162 188 276q-164 0 -299 51.5t-197.5 167t-62.5 353.5v608q0 117 -155 117q-14 0 -14.5 47
t14.5 47q147 -4 299 -6q154 0 274 6q14 0 14 -47t-14 -47q-174 0 -172 -117v-467q0 -408 78 -513t264 -105q172 0 269.5 99t97.5 329v657q0 117 -158 117q-14 0 -14 47t14 47q84 -4 227 -6q143 0 230 6q14 0 14 -47t-14 -47q-154 0 -154 -117v-272z" />
    <glyph glyph-name="uogonek" unicode="&#x173;" horiz-adv-x="1026" 
d="M920 256q0 -90 10 -117q14 -41 51 -41q12 0 35 6q16 4 24 -32q4 -16 4 -27q0 -12 -6 -14q-8 -2 -104 -21q-100 -20 -157.5 -95t-57.5 -161q0 -121 123 -121q61 0 102 31q20 -6 21 -39q-76 -113 -217 -112q-205 0 -205 184q0 80 54 165t118 130q14 10 14 22v43
q0 23 -12 23t-27 -14q-92 -88 -246 -89q-127 0 -170 35q-147 119 -147 297v346q0 102 -84 103q-14 0 -14 36.5t14 36.5q113 0 223 19q31 4 51 4q45 0 45 -43q-6 -98 -6 -162v-342q0 -123 50 -182q29 -33 98 -33q63 0 133 55q53 43 53 93v415q0 102 -84 103q-16 0 -16 36.5
t16 36.5q111 0 230 19q25 4 38 4q53 0 54 -37q-8 -94 -8 -155v-406z" />
    <glyph glyph-name="Wcircumflex" unicode="&#x174;" horiz-adv-x="2011" 
d="M1386 1524q4 -4 4 -11q0 -8 -8 -20q-10 -18 -20 -18h-2l-269 124q-18 8 -36.5 8.5t-36.5 -8.5l-267 -124h-2q-10 4 -22 18q-8 14 -11 23q0 4 5 8l282 252q27 23 51.5 22.5t49.5 -22.5zM1860 1186l-537 -1180q-23 -45 -51 -45q-27 0 -58 64l-204 456q-8 18 -15 19
q-8 0 -16 -21l-217 -473q-20 -45 -49 -45t-58 64l-505 1128q-51 117 -144 117q-14 0 -14 47t14 47q47 -4 215 -6q186 0 236 6q14 0 14 -47t-14 -47q-70 0 -72 -45q4 -41 21 -72l350 -778q8 -16 22 -19q12 0 21 19l121 264q6 14 6 22.5t-6 24.5l-236 522q-29 61 -82 62
q-14 0 -14 47t14 47q47 -4 209 -6q156 0 203 6q14 0 14 -47t-14 -47q-70 0 -70 -41q0 -33 21 -76l73 -162q8 -18 19 -18q12 0 24 24l70 150q27 55 25 84q0 39 -54 39q-14 0 -13 47t13 47q49 -4 176 -6q135 0 185 6q14 0 14 -47t-14 -47q-145 0 -185 -84l-157 -348
q-10 -25 -11 -39q0 -12 5 -25l182 -397q8 -18 22 -19q12 0 19 17l352 772q20 45 21 74q0 49 -66 49q-14 0 -14 47t14 47q45 -4 188 -6q141 0 189 6q14 0 14 -47t-14 -47q-143 2 -182 -84z" />
    <glyph glyph-name="wcircumflex" unicode="&#x175;" horiz-adv-x="1456" 
d="M1010 1063q2 -4 2 -8q0 -12 -19 -25q-18 -10 -28 -10q-6 0 -9 4l-182 213q-25 29 -43 29t-43 -29l-182 -213q-4 -4 -10 -4q-10 0 -27 10q-18 12 -18 25q0 4 2 8l229 412q16 31 47 30q35 0 51 -30zM113 713q-31 72 -101 71q-14 0 -14 36t14 36q63 -6 193 -6q156 0 219 6
q14 0 14 -36t-14 -36q-70 0 -70 -45q0 -18 6 -39l142 -444q4 -14 12 -14t14 14l123 358q4 12 4 22.5t-4 22.5l-22 54q-31 72 -88 71q-16 0 -16.5 36t16.5 36q59 -6 180 -6q160 0 219 6q16 0 16 -36t-16 -36q-70 0 -70 -47q0 -14 7 -37l141 -444q4 -14 12 -14t14 14l156 451
q4 12 4 24q0 53 -90 53q-14 0 -14 36t14 36q63 -6 180 -6q96 0 156 6q14 0 14 -36t-14 -36q-98 0 -125 -71l-258 -674q-23 -61 -76 -61.5t-76 51.5l-178 426q-4 12 -12 13t-14 -13l-160 -416q-25 -61 -78 -62q-49 0 -74 52z" />
    <glyph glyph-name="Ycircumflex" unicode="&#x176;" horiz-adv-x="1323" 
d="M1048 1524q4 -4 4 -11q0 -8 -8 -20q-10 -18 -20 -18h-2l-269 124q-18 8 -36.5 8.5t-36.5 -8.5l-267 -124h-2q-10 4 -22 18q-8 14 -11 23q0 4 5 8l282 252q27 23 51.5 22.5t49.5 -22.5zM758 203q0 -117 147 -117q12 0 13.5 -46t-13.5 -46q-66 6 -266.5 6t-271.5 -6
q-14 0 -14.5 46t14.5 46q147 0 147 117v291q0 68 -10 94q-8 23 -55 96l-297 469q-51 82 -103 104q-29 12 -61 13q-14 0 -15.5 47t15.5 47q47 -4 260 -6q215 0 266 6q14 0 14 -47t-14 -47q-111 0 -111 -53q0 -31 21 -64l254 -403q10 -16 20 -19q10 0 23 21l266 395
q23 35 25 59q0 63 -107 64q-14 0 -14 47t14 47q45 -4 221 -6q184 0 234 6q14 0 14 -47t-14 -47q-109 0 -178 -68l-33 -35l-338 -481q-39 -55 -45 -78q-8 -29 -8 -108v-297z" />
    <glyph glyph-name="ycircumflex" unicode="&#x177;" horiz-adv-x="882" 
d="M746 1063q2 -4 2 -8q0 -12 -19 -25q-18 -10 -28 -10q-6 0 -9 4l-182 213q-25 29 -43 29t-43 -29l-182 -213q-4 -4 -10 -4q-10 0 -27 10q-18 12 -18 25q0 4 2 8l229 412q16 31 47 30q35 0 51 -30zM338 -399q-41 -106 -127 -142q-33 -12 -70 -12q-61 0 -100 43
q-27 31 -27 68q0 61 60 92q31 14 65 14q104 0 121 39l78 182q6 18 6 35t-6 35l-270 758q-27 72 -107 71q-14 0 -14 36t14 36q63 -6 203 -6q147 0 211 6q14 0 14 -36t-14 -36q-80 0 -80 -47q0 -14 8 -37l152 -424q6 -20 16 -20q12 0 23 23l165 421q4 12 5 23q0 61 -121 61
q-16 0 -16.5 36t16.5 36q59 -6 194 -6q115 0 174 6q16 0 16.5 -36t-16.5 -36q-92 0 -125 -59z" />
    <glyph glyph-name="Ydieresis" unicode="&#x178;" horiz-adv-x="1323" 
d="M1046 1632q0 -80 -59 -114q-29 -18 -66 -19q-84 0 -117 66q-12 25 -12 57q0 74 58 111q33 20 71 18q68 0 105 -53q20 -29 20 -66zM616 1632q0 -80 -59 -114q-29 -18 -66 -19q-84 0 -117 66q-12 25 -12 57q0 74 57 111q33 20 72 18q68 0 105 -53q20 -31 20 -66zM758 203
q0 -117 147 -117q12 0 13.5 -46t-13.5 -46q-66 6 -266.5 6t-271.5 -6q-14 0 -14.5 46t14.5 46q147 0 147 117v291q0 68 -10 94q-8 23 -55 96l-297 469q-51 82 -103 104q-29 12 -61 13q-14 0 -15.5 47t15.5 47q47 -4 260 -6q215 0 266 6q14 0 14 -47t-14 -47q-111 0 -111 -53
q0 -31 21 -64l254 -403q10 -16 20 -19q10 0 23 21l266 395q23 35 25 59q0 63 -107 64q-14 0 -14 47t14 47q45 -4 221 -6q184 0 234 6q14 0 14 -47t-14 -47q-109 0 -178 -68l-33 -35l-338 -481q-39 -55 -45 -78q-8 -29 -8 -108v-297z" />
    <glyph glyph-name="Zacute" unicode="&#x179;" horiz-adv-x="1316" 
d="M1026 1649q0 -10 -3 -16.5t-7 -8.5l-289 -135q-31 -14 -51 -14q-18 0 -34.5 11t-16.5 30q0 14 11 32.5t28 30.5l260 199q6 6 14 6t20.5 -7.5t27 -31t27.5 -52t13 -44.5zM1270 18q0 -47 -17 -47q-25 0 -77 9q-131 20 -582 20h-449q-70 0 -69 49q0 27 16 47l873 1141
q10 12 10 20q0 16 -41 17h-512q-43 0 -72 -27q-39 -31 -96 -172q-31 -76 -35 -100q0 -10 -24 -12q-16 0 -33 4q-25 8 -25 20q31 236 31 334q0 47 41 47q2 0 59 -8q47 -6 62 -8h508l381 6q66 0 65 -33q0 -25 -24 -57l-834 -1143q-6 -10 -6 -19q0 -20 33 -20q412 0 591 12
q53 4 140 152q41 70 51 104q2 6 18 8q35 0 56 -18q6 -6 6 -14q-45 -173 -45 -312z" />
    <glyph glyph-name="zacute" unicode="&#x17a;" horiz-adv-x="768" 
d="M315 1020q-43 0 -43 53q0 20 9 41l120 301q6 16 27 19q33 0 96 -43q39 -27 37 -48q0 -6 -2 -12l-176 -262q-31 -49 -68 -49zM766 264l-25 -188q-2 -35 -2 -60q0 -41 -39 -41q-10 0 -96 15q-53 10 -92 10h-442q-41 0 -41 37q0 12 8 31l356 659q8 16 8 27q0 20 -28 20h-111
q-63 0 -125 -129l-45 -102q-4 -8 -18 -8q-18 0 -35 12q-12 8 -14 22q29 252 30 256q6 43 31 45q158 -20 211 -20h348q45 0 45 -33q0 -18 -8 -33l-358 -665q-4 -6 -5 -15q0 -25 29 -24h109q131 0 225 205q4 10 27 12q8 0 26 -4q31 -11 31 -29z" />
    <glyph glyph-name="Zdotaccent" unicode="&#x17b;" horiz-adv-x="1316" 
d="M580 1702q0 57 41 98t98 41t99 -41t42 -98t-41 -98t-100 -41q-57 0 -98 41t-41 98zM1270 18q0 -47 -17 -47q-25 0 -77 9q-131 20 -582 20h-449q-70 0 -69 49q0 27 16 47l873 1141q10 12 10 20q0 16 -41 17h-512q-43 0 -72 -27q-39 -31 -96 -172q-31 -76 -35 -100
q0 -10 -24 -12q-16 0 -33 4q-25 8 -25 20q31 236 31 334q0 47 41 47q2 0 59 -8q47 -6 62 -8h508l381 6q66 0 65 -33q0 -25 -24 -57l-834 -1143q-6 -10 -6 -19q0 -20 33 -20q412 0 591 12q53 4 140 152q41 70 51 104q2 6 18 8q35 0 56 -18q6 -6 6 -14q-45 -173 -45 -312z" />
    <glyph glyph-name="zdotaccent" unicode="&#x17c;" horiz-adv-x="768" 
d="M230 1188q0 57 41 98t98 41t99 -41t42 -98t-41 -98t-100 -41q-57 0 -98 41t-41 98zM766 264l-25 -188q-2 -35 -2 -60q0 -41 -39 -41q-10 0 -96 15q-53 10 -92 10h-442q-41 0 -41 37q0 12 8 31l356 659q8 16 8 27q0 20 -28 20h-111q-63 0 -125 -129l-45 -102q-4 -8 -18 -8
q-18 0 -35 12q-12 8 -14 22q29 252 30 256q6 43 31 45q158 -20 211 -20h348q45 0 45 -33q0 -18 -8 -33l-358 -665q-4 -6 -5 -15q0 -25 29 -24h109q131 0 225 205q4 10 27 12q8 0 26 -4q31 -11 31 -29z" />
    <glyph glyph-name="Zcaron" unicode="&#x17d;" horiz-adv-x="1316" 
d="M383 1747q-4 4 -5 10q0 8 9 23q10 18 20 18q2 0 2 -2l268 -123q18 -8 38 -9t36 9l266 123l5 2q10 -4 20 -20q8 -14 10 -23q0 -4 -4 -8l-282 -250q-27 -23 -51.5 -22.5t-49.5 22.5zM1270 18q0 -47 -17 -47q-25 0 -77 9q-131 20 -582 20h-449q-70 0 -69 49q0 27 16 47
l873 1141q10 12 10 20q0 16 -41 17h-512q-43 0 -72 -27q-39 -31 -96 -172q-31 -76 -35 -100q0 -10 -24 -12q-16 0 -33 4q-25 8 -25 20q31 236 31 334q0 47 41 47q2 0 59 -8q47 -6 62 -8h508l381 6q66 0 65 -33q0 -25 -24 -57l-834 -1143q-6 -10 -6 -19q0 -20 33 -20
q412 0 591 12q53 4 140 152q41 70 51 104q2 6 18 8q35 0 56 -18q6 -6 6 -14q-45 -173 -45 -312z" />
    <glyph glyph-name="zcaron" unicode="&#x17e;" horiz-adv-x="768" 
d="M672 1462l-230 -411q-16 -31 -51 -31q-31 0 -47 31l-229 411q-2 2 -2 6q0 16 28 33q10 6 16.5 6t10.5 -6l182 -213q33 -39 43 -39t43 39l182 213q4 4 11 6q8 0 18 -8q27 -18 27 -31q0 -4 -2 -6zM766 264l-25 -188q-2 -35 -2 -60q0 -41 -39 -41q-10 0 -96 15
q-53 10 -92 10h-442q-41 0 -41 37q0 12 8 31l356 659q8 16 8 27q0 20 -28 20h-111q-63 0 -125 -129l-45 -102q-4 -8 -18 -8q-18 0 -35 12q-12 8 -14 22q29 252 30 256q6 43 31 45q158 -20 211 -20h348q45 0 45 -33q0 -18 -8 -33l-358 -665q-4 -6 -5 -15q0 -25 29 -24h109
q131 0 225 205q4 10 27 12q8 0 26 -4q31 -11 31 -29z" />
    <glyph glyph-name="longs" unicode="&#x17f;" horiz-adv-x="561" 
d="M164 143v527q0 35 -31 35h-61q-16 0 -16.5 36.5t16.5 36.5q47 0 69.5 36t22.5 77q0 285 153.5 440.5t356.5 155.5q106 0 164.5 -41t58.5 -107q0 -47 -40 -81.5t-73 -34.5q-96 0 -136 75.5t-89 75.5q-72 0 -119 -89t-47 -236v-906q0 -76 133 -75q16 0 16.5 -38t-16.5 -38
q-80 8 -233 8q-154 0 -238 -8q-14 0 -14 38t14 38q109 -1 109 75z" />
    <glyph glyph-name="uni0180" unicode="&#x180;" horiz-adv-x="1048" 
d="M981 440q0 -207 -111.5 -335t-332.5 -128q-57 0 -122 27t-112 27q-16 0 -44 -25.5t-44 -25.5q-31 0 -74 32q-20 14 -18 23q6 33 6 244v753q0 37 -37 37h-147q-16 0 -16.5 52.5t16.5 52.5h147q33 0 33 20q-10 90 -90 92q-16 0 -16.5 37t16.5 37q47 0 144 45t130 72
q12 10 29 10q29 0 29 -25q-8 -111 -9 -176v-76q0 -37 37 -36h140q14 0 15 -52.5t-15 -52.5h-140q-37 0 -37 -37v-192q0 -29 17 -29q8 0 18 8q74 51 168 51q176 0 298 -122t122 -308zM727 428q0 158 -63.5 250t-161.5 92q-72 0 -113 -43q-31 -31 -31 -80v-350
q0 -111 61.5 -175.5t145.5 -64.5q162 0 162 371z" />
    <glyph glyph-name="uni0186" unicode="&#x186;" horiz-adv-x="1347" 
d="M55 1036q4 57 51 178q29 72 52 109q47 6 88 18q154 43 358 43q262 0 459 -149q258 -199 258 -524q0 -270 -154 -467q-213 -270 -587 -271q-129 0 -338 43q-55 10 -107 13q-29 59 -39 274l-2 51q0 18 43 23q47 2 51 -15q18 -209 211 -274q80 -27 187 -27q207 0 334 168
t127 424q0 324 -170 502q-129 135 -287 135q-342 0 -440 -276q-6 -18 -58 -6q-37 8 -37 28z" />
    <glyph glyph-name="uni0190" unicode="&#x190;" horiz-adv-x="954" 
d="M850 928q0 -10 -41 -10t-41 12q0 113 -59.5 182.5t-137.5 69.5q-135 0 -188 -78q-29 -43 -29 -100q0 -123 103 -183q57 -33 211 -33q41 0 41 -61q0 -84 -43 -63q-45 16 -117 10q-111 -10 -164 -64q-80 -80 -80 -215q0 -109 47 -178q53 -78 103 -102q39 -20 135 -19
q109 2 192 70q12 10 41 -20.5t15 -45.5q-123 -125 -277 -123q-203 0 -351.5 127t-148.5 318q0 279 283 332q31 6 33 14q0 8 -37 27q-205 104 -205 276q0 113 89 199t212 86q82 0 139.5 -22.5t102.5 -56.5t55 -34q20 0 30.5 26.5t10.5 51.5q0 14 38 13t38 -13v-393z" />
    <glyph glyph-name="florin" unicode="&#x192;" horiz-adv-x="581" 
d="M393 139q0 -186 -18.5 -307t-78.5 -216t-142 -133t-156 -38q-66 0 -115 39t-49 90q0 49 34 75.5t75 26.5q47 0 85 -62.5t74 -62.5q41 0 51.5 68t10.5 152v938q0 37 -37 36h-55q-16 0 -16.5 37t16.5 37q49 0 70.5 36t21.5 77q0 127 48 241.5t173 214t289 99.5
q109 0 166 -41t57 -103q0 -43 -36 -81.5t-77 -38.5q-102 0 -140 75.5t-85 75.5q-57 0 -96 -53q-70 -96 -70 -272v-162q0 -37 37 -37h164q14 0 14 -52.5t-14 -52.5h-164q-37 0 -37 -36v-570z" />
    <glyph glyph-name="uni0195" unicode="&#x195;" horiz-adv-x="1673" 
d="M164 137v1024q0 125 -92 125q-16 0 -16.5 37t16.5 37q49 0 184 67q55 27 86 50q12 10 29 10q29 0 28 -27q-6 -76 -6 -174v-465q0 -23 10 -22q8 0 23 10q78 61 211 61q88 0 157.5 -32.5t119 -113.5t49.5 -167v-246q0 -145 53 -197.5t119 -52.5q111 0 168 97.5t57 277.5
q0 229 -213 291q0 51 56.5 97t125.5 46q135 0 210 -142t75 -302q0 -135 -53.5 -235.5t-150.5 -157t-298 -56.5q-160 0 -269.5 90.5t-109.5 237.5v250q0 76 -39 141.5t-129 65.5t-143 -64q-29 -35 -29 -71v-484q0 -76 103 -75q14 0 15 -38t-15 -38q-98 8 -222 8
q-125 0 -223 -8q-14 0 -14 38t14 38q113 -1 113 69z" />
    <glyph glyph-name="uni019D" unicode="&#x19d;" horiz-adv-x="1480" 
d="M223 1155q0 115 -172 115q-12 0 -12 47t12 47q63 -4 176 -6q84 0 99 -2q61 -8 100 -58l711 -866q10 -14 24 -14q25 0 25 31v702q0 119 -154 119q-14 0 -14 47t14 47q98 -4 199 -6q68 0 192 6q14 0 14.5 -47t-14.5 -47q-135 0 -135 -119v-1075q0 -96 -31 -96q-27 0 -73 57
l-824 977q-12 16 -18 16q-12 0 -14 -22v-945l-2 -174q0 -113 -66 -223q-14 -27 -31 -51q-94 -135 -258 -133q-57 0 -94 35q-35 33 -35 80q0 27 9.5 44t23.5 29q27 18 64 17q53 -2 100 -43q27 -23 39 -29h4q37 2 82 66q61 88 59 184v1290z" />
    <glyph glyph-name="uni01BF" unicode="&#x1bf;" horiz-adv-x="903" 
d="M834 477q0 -123 -75 -229.5t-173.5 -174t-194.5 -85.5q-25 -4 -24 -33v-348q0 -80 -82 -107l-174 -57h-15q-20 0 -39 39q-6 16 -8 29q0 16 12 24l62 43q14 8 14 31v940q0 90 -28.5 111.5t-63.5 21.5q-14 0 -14 37t14 37q51 0 149.5 50t118.5 66q14 10 29 11q29 0 29 -33
q0 -4 -2 -17.5t-2 -17.5q0 -16 12 -16q10 0 20 12q51 59 133 59q121 0 211.5 -93t90.5 -300zM604 434q0 223 -33.5 283.5t-81.5 60.5q-61 0 -110 -90q-12 -25 -12 -63v-525q2 -20 18 -20q35 0 84 49t77.5 103.5t43 105.5t14.5 96z" />
    </font>
</defs>
</svg>
